<?xml version="1.0" encoding="UTF-8" standalone="no"?>
<svg viewBox="0 0 1920 1080" preserveAspectRatio="xMidYMid meet" xmlns="http://www.w3.org/2000/svg" xmlns:xlink="http://www.w3.org/1999/xlink" width="1920" height="1080"><style>@keyframes wink-burst {
  0% { transform: scale(0); opacity: 0; }
  20% { opacity: 1; }
  60% { transform: scale(1); opacity: 1; }
  100% { transform: scale(1.15); opacity: 0; }
}
@keyframes wink-fade-loop {
  0%, 100% { opacity: 0; }
  10%, 70% { opacity: 1; }
}
@keyframes wink-spark-fall {
  0% { transform: translateY(-40px); opacity: 0; }
  20% { opacity: 1; }
  100% { transform: translateY(220px); opacity: 0; }
}
@keyframes wink-comet {
  0% { transform: translate(0,0) scale(0.6); opacity: 0; }
  30% { opacity: 1; }
  70% { transform: translate(var(--tx,0), var(--ty,-200px)) scale(1); opacity: 1; }
  100% { transform: translate(var(--tx,0), var(--ty,-200px)) scale(1.2); opacity: 0; }
}
@keyframes wink-ring-expand {
  0% { transform: scale(0.1); opacity: 0; stroke-width: 8; }
  20% { opacity: 1; }
  100% { transform: scale(1); opacity: 0; stroke-width: 1; }
}
@keyframes wink-twinkle {
  0%, 100% { transform: scale(0); opacity: 0; }
  50% { transform: scale(1); opacity: 1; }
}
@keyframes wink-pop {
  0% { transform: scale(0) rotate(-20deg); opacity: 0; }
  60% { transform: scale(1.15) rotate(5deg); opacity: 1; }
  80% { transform: scale(1) rotate(0); opacity: 1; }
  100% { transform: scale(1) rotate(0); opacity: 0; }
}
@keyframes wink-swirl {
  0% { transform: rotate(0deg) translateX(180px) scale(0); opacity: 0; }
  20% { opacity: 1; }
  100% { transform: rotate(360deg) translateX(40px) scale(1); opacity: 0; }
}
@keyframes wink-shower {
  0% { transform: translateY(-60px) rotate(0); opacity: 0; }
  15% { opacity: 1; }
  100% { transform: translateY(260px) rotate(180deg); opacity: 0; }
}
@keyframes wink-trail {
  0% { offset-distance: 0%; opacity: 0; transform: scale(0.4); }
  10% { opacity: 1; transform: scale(1); }
  90% { opacity: 1; }
  100% { offset-distance: 100%; opacity: 0; transform: scale(0.6); }
}
@keyframes wink-bounce-in {
  0% { transform: translateY(-300px) scale(0.6); opacity: 0; }
  50% { transform: translateY(20px) scale(1.05); opacity: 1; }
  70% { transform: translateY(-10px) scale(0.98); }
  100% { transform: translateY(0) scale(1); opacity: 1; }
}
@keyframes wink-bounce-loop {
  0%, 100% { transform: translateY(0); }
  50% { transform: translateY(-12px); }
}
@keyframes wink-pop-up {
  0% { transform: translateY(300px); opacity: 0; }
  60% { transform: translateY(-15px); opacity: 1; }
  100% { transform: translateY(0); opacity: 1; }
}
@keyframes wink-orbit {
  from { transform: rotate(0deg) translateX(var(--orbit-r,160px)) rotate(0deg); }
  to { transform: rotate(360deg) translateX(var(--orbit-r,160px)) rotate(-360deg); }
}
@keyframes wink-scatter {
  0%, 100% { transform: translate(var(--sx,0), var(--sy,0)) scale(0.9); opacity: 0.6; }
  50% { transform: translate(calc(var(--sx,0) * 1.2), calc(var(--sy,0) * 1.2)) scale(1.05); opacity: 1; }
}
@keyframes wink-sparkle {
  0%, 100% { opacity: 0; transform: scale(0.5); }
  50% { opacity: 1; transform: scale(1.2); }
}
@keyframes wink-glow-pulse {
  0%, 100% { opacity: 0.4; transform: scale(0.95); }
  50% { opacity: 1; transform: scale(1.05); }
}
@keyframes wink-confetti-launch {
  0% { transform: translate(0,0) rotate(var(--r0,0deg)) scale(0.28); opacity: 0; }
  14% { opacity: 1; }
  72% { transform: translate(var(--tx,0px), var(--ty,0px)) rotate(var(--r1,180deg)) scale(1); opacity: 1; }
  100% { transform: translate(var(--tx,0px), var(--ty,0px)) rotate(var(--r2,320deg)) scale(0.82); opacity: 0; }
}
@keyframes wink-confetti-fall {
  0% { transform: translate(0,-90px) rotate(var(--r0,0deg)) scale(0.7); opacity: 0; }
  14% { opacity: 1; }
  82% { opacity: 1; }
  100% { transform: translate(var(--tx,0px), var(--ty,720px)) rotate(var(--r1,260deg)) scale(1); opacity: 0; }
}
@keyframes wink-confetti-shimmer {
  0%, 100% { transform: rotate(var(--r0,0deg)) scale(0.92); }
  50% { transform: rotate(var(--r1,180deg)) scale(1.08); }
}
@keyframes wink-confetti-wave {
  0% { transform: translate(var(--sx,-180px), var(--sy,0px)) rotate(var(--r0,0deg)) scale(0.5); opacity: 0; }
  18% { opacity: 1; }
  58% { transform: translate(0,0) rotate(var(--r1,180deg)) scale(1); opacity: 1; }
  100% { transform: translate(var(--tx,180px), var(--ty,0px)) rotate(var(--r2,360deg)) scale(0.78); opacity: 0; }
}</style><defs><radialGradient id="fwcomets-center-glow" cx="50%" cy="50%" r="50%"><stop offset="0%" stop-color="white" stop-opacity="0.86"/><stop offset="24%" stop-color="hsl(50 100% 82%)" stop-opacity="0.44"/><stop offset="58%" stop-color="hsl(195 88% 62%)" stop-opacity="0.12"/><stop offset="100%" stop-color="hsl(195 88% 62%)" stop-opacity="0"/></radialGradient></defs><g style="animation:wink-glow-pulse 3s ease-in-out infinite;animation-delay:1.2s"><ellipse cx="960" cy="500" rx="235" ry="180" fill="url(#fwcomets-center-glow)" opacity="0.2268"/><ellipse cx="960" cy="487.5" rx="140" ry="100" fill="url(#fwcomets-center-glow)" opacity="0.15120000000000003"/><circle cx="960" cy="500" r="45" fill="white" opacity="0.0648"/></g><g><g style="--tx:240px;--ty:-430px;animation:wink-comet 3s ease-out infinite;animation-delay:0s"><line x1="470" y1="860" x2="417.2" y2="954.6" stroke="hsl(45 95% 62%)" stroke-width="3.2" stroke-linecap="round" opacity="0.82"/><circle cx="470" cy="860" r="7" fill="hsl(45 95% 62%)"/></g><g style="transform-origin:710px 430px;animation:wink-burst 3s ease-out infinite;animation-delay:0.86s"><circle cx="710" cy="430" r="8" fill="white" opacity="0.82"/><g><line x1="710" y1="430" x2="796" y2="430" stroke="hsl(45 95% 62%)" stroke-width="2" stroke-linecap="round" opacity="0.9"/><circle cx="796" cy="430" r="5" fill="hsl(50 100% 82%)"/></g><g><line x1="710" y1="430" x2="779.5754615162455" y2="480.5495316971527" stroke="hsl(45 95% 62%)" stroke-width="2" stroke-linecap="round" opacity="0.9"/><circle cx="779.5754615162455" cy="480.5495316971527" r="5" fill="hsl(50 100% 82%)"/></g><g><line x1="710" y1="430" x2="736.5754615162455" y2="511.7908604013832" stroke="hsl(45 95% 62%)" stroke-width="2" stroke-linecap="round" opacity="0.9"/><circle cx="736.5754615162455" cy="511.7908604013832" r="5" fill="hsl(50 100% 82%)"/></g><g><line x1="710" y1="430" x2="683.4245384837545" y2="511.7908604013832" stroke="hsl(45 95% 62%)" stroke-width="2" stroke-linecap="round" opacity="0.9"/><circle cx="683.4245384837545" cy="511.7908604013832" r="5" fill="hsl(50 100% 82%)"/></g><g><line x1="710" y1="430" x2="640.4245384837545" y2="480.5495316971527" stroke="hsl(45 95% 62%)" stroke-width="2" stroke-linecap="round" opacity="0.9"/><circle cx="640.4245384837545" cy="480.5495316971527" r="5" fill="hsl(50 100% 82%)"/></g><g><line x1="710" y1="430" x2="624" y2="430" stroke="hsl(45 95% 62%)" stroke-width="2" stroke-linecap="round" opacity="0.9"/><circle cx="624" cy="430" r="5" fill="hsl(50 100% 82%)"/></g><g><line x1="710" y1="430" x2="640.4245384837545" y2="379.4504683028473" stroke="hsl(45 95% 62%)" stroke-width="2" stroke-linecap="round" opacity="0.9"/><circle cx="640.4245384837545" cy="379.4504683028473" r="5" fill="hsl(50 100% 82%)"/></g><g><line x1="710" y1="430" x2="683.4245384837545" y2="348.2091395986168" stroke="hsl(45 95% 62%)" stroke-width="2" stroke-linecap="round" opacity="0.9"/><circle cx="683.4245384837545" cy="348.2091395986168" r="5" fill="hsl(50 100% 82%)"/></g><g><line x1="710" y1="430" x2="736.5754615162455" y2="348.2091395986168" stroke="hsl(45 95% 62%)" stroke-width="2" stroke-linecap="round" opacity="0.9"/><circle cx="736.5754615162455" cy="348.2091395986168" r="5" fill="hsl(50 100% 82%)"/></g><g><line x1="710" y1="430" x2="779.5754615162455" y2="379.4504683028473" stroke="hsl(45 95% 62%)" stroke-width="2" stroke-linecap="round" opacity="0.9"/><circle cx="779.5754615162455" cy="379.4504683028473" r="5" fill="hsl(50 100% 82%)"/></g></g></g><g><g style="--tx:-260px;--ty:-430px;animation:wink-comet 3s ease-out infinite;animation-delay:0.24s"><line x1="1450" y1="850" x2="1507.2" y2="944.6" stroke="hsl(18 94% 60%)" stroke-width="3.2" stroke-linecap="round" opacity="0.82"/><circle cx="1450" cy="850" r="8" fill="hsl(18 94% 60%)"/></g><g style="transform-origin:1190px 420px;animation:wink-burst 3s ease-out infinite;animation-delay:1.1s"><circle cx="1190" cy="420" r="8" fill="white" opacity="0.82"/><g><line x1="1190" y1="420" x2="1302" y2="420" stroke="hsl(18 94% 60%)" stroke-width="2" stroke-linecap="round" opacity="0.9"/><circle cx="1302" cy="420" r="5" fill="hsl(45 95% 62%)"/></g><g><line x1="1190" y1="420" x2="1286.994845223857" y2="476" stroke="hsl(18 94% 60%)" stroke-width="2" stroke-linecap="round" opacity="0.9"/><circle cx="1286.994845223857" cy="476" r="5" fill="hsl(45 95% 62%)"/></g><g><line x1="1190" y1="420" x2="1246" y2="516.9948452238572" stroke="hsl(18 94% 60%)" stroke-width="2" stroke-linecap="round" opacity="0.9"/><circle cx="1246" cy="516.9948452238572" r="5" fill="hsl(45 95% 62%)"/></g><g><line x1="1190" y1="420" x2="1190" y2="532" stroke="hsl(18 94% 60%)" stroke-width="2" stroke-linecap="round" opacity="0.9"/><circle cx="1190" cy="532" r="5" fill="hsl(45 95% 62%)"/></g><g><line x1="1190" y1="420" x2="1134" y2="516.9948452238572" stroke="hsl(18 94% 60%)" stroke-width="2" stroke-linecap="round" opacity="0.9"/><circle cx="1134" cy="516.9948452238572" r="5" fill="hsl(45 95% 62%)"/></g><g><line x1="1190" y1="420" x2="1093.005154776143" y2="476" stroke="hsl(18 94% 60%)" stroke-width="2" stroke-linecap="round" opacity="0.9"/><circle cx="1093.005154776143" cy="476" r="5" fill="hsl(45 95% 62%)"/></g><g><line x1="1190" y1="420" x2="1078" y2="420" stroke="hsl(18 94% 60%)" stroke-width="2" stroke-linecap="round" opacity="0.9"/><circle cx="1078" cy="420" r="5" fill="hsl(45 95% 62%)"/></g><g><line x1="1190" y1="420" x2="1093.005154776143" y2="364" stroke="hsl(18 94% 60%)" stroke-width="2" stroke-linecap="round" opacity="0.9"/><circle cx="1093.005154776143" cy="364" r="5" fill="hsl(45 95% 62%)"/></g><g><line x1="1190" y1="420" x2="1134" y2="323.0051547761429" stroke="hsl(18 94% 60%)" stroke-width="2" stroke-linecap="round" opacity="0.9"/><circle cx="1134" cy="323.0051547761429" r="5" fill="hsl(45 95% 62%)"/></g><g><line x1="1190" y1="420" x2="1190" y2="308" stroke="hsl(18 94% 60%)" stroke-width="2" stroke-linecap="round" opacity="0.9"/><circle cx="1190" cy="308" r="5" fill="hsl(45 95% 62%)"/></g><g><line x1="1190" y1="420" x2="1246" y2="323.0051547761429" stroke="hsl(18 94% 60%)" stroke-width="2" stroke-linecap="round" opacity="0.9"/><circle cx="1246" cy="323.0051547761429" r="5" fill="hsl(45 95% 62%)"/></g><g><line x1="1190" y1="420" x2="1286.994845223857" y2="363.99999999999994" stroke="hsl(18 94% 60%)" stroke-width="2" stroke-linecap="round" opacity="0.9"/><circle cx="1286.994845223857" cy="363.99999999999994" r="5" fill="hsl(45 95% 62%)"/></g></g></g><g><g style="--tx:150px;--ty:-510px;animation:wink-comet 3s ease-out infinite;animation-delay:0.48s"><line x1="740" y1="900" x2="707" y2="1012.2" stroke="hsl(282 82% 70%)" stroke-width="3.2" stroke-linecap="round" opacity="0.82"/><circle cx="740" cy="900" r="7" fill="hsl(282 82% 70%)"/></g><g style="transform-origin:890px 390px;animation:wink-burst 3s ease-out infinite;animation-delay:1.3399999999999999s"><circle cx="890" cy="390" r="8" fill="white" opacity="0.82"/><g><line x1="890" y1="390" x2="1028" y2="390" stroke="hsl(282 82% 70%)" stroke-width="2" stroke-linecap="round" opacity="0.9"/><circle cx="1028" cy="390" r="5" fill="hsl(18 94% 60%)"/></g><g><line x1="890" y1="390" x2="1001.6443452237428" y2="471.1143648163613" stroke="hsl(282 82% 70%)" stroke-width="2" stroke-linecap="round" opacity="0.9"/><circle cx="1001.6443452237428" cy="471.1143648163613" r="5" fill="hsl(18 94% 60%)"/></g><g><line x1="890" y1="390" x2="932.6443452237428" y2="521.2457992487311" stroke="hsl(282 82% 70%)" stroke-width="2" stroke-linecap="round" opacity="0.9"/><circle cx="932.6443452237428" cy="521.2457992487311" r="5" fill="hsl(18 94% 60%)"/></g><g><line x1="890" y1="390" x2="847.3556547762573" y2="521.2457992487311" stroke="hsl(282 82% 70%)" stroke-width="2" stroke-linecap="round" opacity="0.9"/><circle cx="847.3556547762573" cy="521.2457992487311" r="5" fill="hsl(18 94% 60%)"/></g><g><line x1="890" y1="390" x2="778.3556547762573" y2="471.11436481636133" stroke="hsl(282 82% 70%)" stroke-width="2" stroke-linecap="round" opacity="0.9"/><circle cx="778.3556547762573" cy="471.11436481636133" r="5" fill="hsl(18 94% 60%)"/></g><g><line x1="890" y1="390" x2="752" y2="390" stroke="hsl(282 82% 70%)" stroke-width="2" stroke-linecap="round" opacity="0.9"/><circle cx="752" cy="390" r="5" fill="hsl(18 94% 60%)"/></g><g><line x1="890" y1="390" x2="778.3556547762572" y2="308.8856351836387" stroke="hsl(282 82% 70%)" stroke-width="2" stroke-linecap="round" opacity="0.9"/><circle cx="778.3556547762572" cy="308.8856351836387" r="5" fill="hsl(18 94% 60%)"/></g><g><line x1="890" y1="390" x2="847.3556547762572" y2="258.75420075126885" stroke="hsl(282 82% 70%)" stroke-width="2" stroke-linecap="round" opacity="0.9"/><circle cx="847.3556547762572" cy="258.75420075126885" r="5" fill="hsl(18 94% 60%)"/></g><g><line x1="890" y1="390" x2="932.6443452237427" y2="258.7542007512688" stroke="hsl(282 82% 70%)" stroke-width="2" stroke-linecap="round" opacity="0.9"/><circle cx="932.6443452237427" cy="258.7542007512688" r="5" fill="hsl(18 94% 60%)"/></g><g><line x1="890" y1="390" x2="1001.6443452237427" y2="308.88563518363867" stroke="hsl(282 82% 70%)" stroke-width="2" stroke-linecap="round" opacity="0.9"/><circle cx="1001.6443452237427" cy="308.88563518363867" r="5" fill="hsl(18 94% 60%)"/></g></g></g><g><g style="--tx:-150px;--ty:-510px;animation:wink-comet 3s ease-out infinite;animation-delay:0.72s"><line x1="1180" y1="900" x2="1213" y2="1012.2" stroke="hsl(195 88% 62%)" stroke-width="3.2" stroke-linecap="round" opacity="0.82"/><circle cx="1180" cy="900" r="8" fill="hsl(195 88% 62%)"/></g><g style="transform-origin:1030px 390px;animation:wink-burst 3s ease-out infinite;animation-delay:1.58s"><circle cx="1030" cy="390" r="8" fill="white" opacity="0.82"/><g><line x1="1030" y1="390" x2="1116" y2="390" stroke="hsl(195 88% 62%)" stroke-width="2" stroke-linecap="round" opacity="0.9"/><circle cx="1116" cy="390" r="5" fill="hsl(195 88% 62%)"/></g><g><line x1="1030" y1="390" x2="1104.4781847254617" y2="433" stroke="hsl(195 88% 62%)" stroke-width="2" stroke-linecap="round" opacity="0.9"/><circle cx="1104.4781847254617" cy="433" r="5" fill="hsl(195 88% 62%)"/></g><g><line x1="1030" y1="390" x2="1073" y2="464.4781847254617" stroke="hsl(195 88% 62%)" stroke-width="2" stroke-linecap="round" opacity="0.9"/><circle cx="1073" cy="464.4781847254617" r="5" fill="hsl(195 88% 62%)"/></g><g><line x1="1030" y1="390" x2="1030" y2="476" stroke="hsl(195 88% 62%)" stroke-width="2" stroke-linecap="round" opacity="0.9"/><circle cx="1030" cy="476" r="5" fill="hsl(195 88% 62%)"/></g><g><line x1="1030" y1="390" x2="987" y2="464.47818472546174" stroke="hsl(195 88% 62%)" stroke-width="2" stroke-linecap="round" opacity="0.9"/><circle cx="987" cy="464.47818472546174" r="5" fill="hsl(195 88% 62%)"/></g><g><line x1="1030" y1="390" x2="955.5218152745383" y2="433" stroke="hsl(195 88% 62%)" stroke-width="2" stroke-linecap="round" opacity="0.9"/><circle cx="955.5218152745383" cy="433" r="5" fill="hsl(195 88% 62%)"/></g><g><line x1="1030" y1="390" x2="944" y2="390" stroke="hsl(195 88% 62%)" stroke-width="2" stroke-linecap="round" opacity="0.9"/><circle cx="944" cy="390" r="5" fill="hsl(195 88% 62%)"/></g><g><line x1="1030" y1="390" x2="955.5218152745383" y2="347" stroke="hsl(195 88% 62%)" stroke-width="2" stroke-linecap="round" opacity="0.9"/><circle cx="955.5218152745383" cy="347" r="5" fill="hsl(195 88% 62%)"/></g><g><line x1="1030" y1="390" x2="987" y2="315.5218152745383" stroke="hsl(195 88% 62%)" stroke-width="2" stroke-linecap="round" opacity="0.9"/><circle cx="987" cy="315.5218152745383" r="5" fill="hsl(195 88% 62%)"/></g><g><line x1="1030" y1="390" x2="1030" y2="304" stroke="hsl(195 88% 62%)" stroke-width="2" stroke-linecap="round" opacity="0.9"/><circle cx="1030" cy="304" r="5" fill="hsl(195 88% 62%)"/></g><g><line x1="1030" y1="390" x2="1073" y2="315.5218152745383" stroke="hsl(195 88% 62%)" stroke-width="2" stroke-linecap="round" opacity="0.9"/><circle cx="1073" cy="315.5218152745383" r="5" fill="hsl(195 88% 62%)"/></g><g><line x1="1030" y1="390" x2="1104.4781847254617" y2="346.99999999999994" stroke="hsl(195 88% 62%)" stroke-width="2" stroke-linecap="round" opacity="0.9"/><circle cx="1104.4781847254617" cy="346.99999999999994" r="5" fill="hsl(195 88% 62%)"/></g></g></g><g><g style="--tx:0px;--ty:-590px;animation:wink-comet 3s ease-out infinite;animation-delay:0.96s"><line x1="960" y1="920" x2="960" y2="1049.8" stroke="hsl(50 100% 82%)" stroke-width="3.2" stroke-linecap="round" opacity="0.82"/><circle cx="960" cy="920" r="7" fill="hsl(50 100% 82%)"/></g><g style="transform-origin:960px 330px;animation:wink-burst 3s ease-out infinite;animation-delay:1.8199999999999998s"><circle cx="960" cy="330" r="8" fill="white" opacity="0.82"/><g><line x1="960" y1="330" x2="1072" y2="330" stroke="hsl(50 100% 82%)" stroke-width="2" stroke-linecap="round" opacity="0.9"/><circle cx="1072" cy="330" r="5" fill="hsl(282 82% 70%)"/></g><g><line x1="960" y1="330" x2="1050.609903369994" y2="395.83194825675696" stroke="hsl(50 100% 82%)" stroke-width="2" stroke-linecap="round" opacity="0.9"/><circle cx="1050.609903369994" cy="395.83194825675696" r="5" fill="hsl(282 82% 70%)"/></g><g><line x1="960" y1="330" x2="994.6099033699941" y2="436.5183298250572" stroke="hsl(50 100% 82%)" stroke-width="2" stroke-linecap="round" opacity="0.9"/><circle cx="994.6099033699941" cy="436.5183298250572" r="5" fill="hsl(282 82% 70%)"/></g><g><line x1="960" y1="330" x2="925.3900966300059" y2="436.5183298250572" stroke="hsl(50 100% 82%)" stroke-width="2" stroke-linecap="round" opacity="0.9"/><circle cx="925.3900966300059" cy="436.5183298250572" r="5" fill="hsl(282 82% 70%)"/></g><g><line x1="960" y1="330" x2="869.3900966300059" y2="395.831948256757" stroke="hsl(50 100% 82%)" stroke-width="2" stroke-linecap="round" opacity="0.9"/><circle cx="869.3900966300059" cy="395.831948256757" r="5" fill="hsl(282 82% 70%)"/></g><g><line x1="960" y1="330" x2="848" y2="330" stroke="hsl(50 100% 82%)" stroke-width="2" stroke-linecap="round" opacity="0.9"/><circle cx="848" cy="330" r="5" fill="hsl(282 82% 70%)"/></g><g><line x1="960" y1="330" x2="869.3900966300059" y2="264.16805174324304" stroke="hsl(50 100% 82%)" stroke-width="2" stroke-linecap="round" opacity="0.9"/><circle cx="869.3900966300059" cy="264.16805174324304" r="5" fill="hsl(282 82% 70%)"/></g><g><line x1="960" y1="330" x2="925.3900966300059" y2="223.4816701749428" stroke="hsl(50 100% 82%)" stroke-width="2" stroke-linecap="round" opacity="0.9"/><circle cx="925.3900966300059" cy="223.4816701749428" r="5" fill="hsl(282 82% 70%)"/></g><g><line x1="960" y1="330" x2="994.6099033699941" y2="223.4816701749428" stroke="hsl(50 100% 82%)" stroke-width="2" stroke-linecap="round" opacity="0.9"/><circle cx="994.6099033699941" cy="223.4816701749428" r="5" fill="hsl(282 82% 70%)"/></g><g><line x1="960" y1="330" x2="1050.609903369994" y2="264.168051743243" stroke="hsl(50 100% 82%)" stroke-width="2" stroke-linecap="round" opacity="0.9"/><circle cx="1050.609903369994" cy="264.168051743243" r="5" fill="hsl(282 82% 70%)"/></g></g></g><g><g style="--tx:360px;--ty:-300px;animation:wink-comet 3s ease-out infinite;animation-delay:1.2s"><line x1="590" y1="820" x2="510.8" y2="886" stroke="hsl(150 70% 56%)" stroke-width="3.2" stroke-linecap="round" opacity="0.82"/><circle cx="590" cy="820" r="8" fill="hsl(150 70% 56%)"/></g><g style="transform-origin:950px 520px;animation:wink-burst 3s ease-out infinite;animation-delay:2.06s"><circle cx="950" cy="520" r="8" fill="white" opacity="0.82"/><g><line x1="950" y1="520" x2="1088" y2="520" stroke="hsl(150 70% 56%)" stroke-width="2" stroke-linecap="round" opacity="0.9"/><circle cx="1088" cy="520" r="5" fill="hsl(150 70% 56%)"/></g><g><line x1="950" y1="520" x2="1069.5115057222524" y2="589" stroke="hsl(150 70% 56%)" stroke-width="2" stroke-linecap="round" opacity="0.9"/><circle cx="1069.5115057222524" cy="589" r="5" fill="hsl(150 70% 56%)"/></g><g><line x1="950" y1="520" x2="1019" y2="639.5115057222525" stroke="hsl(150 70% 56%)" stroke-width="2" stroke-linecap="round" opacity="0.9"/><circle cx="1019" cy="639.5115057222525" r="5" fill="hsl(150 70% 56%)"/></g><g><line x1="950" y1="520" x2="950" y2="658" stroke="hsl(150 70% 56%)" stroke-width="2" stroke-linecap="round" opacity="0.9"/><circle cx="950" cy="658" r="5" fill="hsl(150 70% 56%)"/></g><g><line x1="950" y1="520" x2="881" y2="639.5115057222525" stroke="hsl(150 70% 56%)" stroke-width="2" stroke-linecap="round" opacity="0.9"/><circle cx="881" cy="639.5115057222525" r="5" fill="hsl(150 70% 56%)"/></g><g><line x1="950" y1="520" x2="830.4884942777475" y2="589" stroke="hsl(150 70% 56%)" stroke-width="2" stroke-linecap="round" opacity="0.9"/><circle cx="830.4884942777475" cy="589" r="5" fill="hsl(150 70% 56%)"/></g><g><line x1="950" y1="520" x2="812" y2="520" stroke="hsl(150 70% 56%)" stroke-width="2" stroke-linecap="round" opacity="0.9"/><circle cx="812" cy="520" r="5" fill="hsl(150 70% 56%)"/></g><g><line x1="950" y1="520" x2="830.4884942777475" y2="451.00000000000006" stroke="hsl(150 70% 56%)" stroke-width="2" stroke-linecap="round" opacity="0.9"/><circle cx="830.4884942777475" cy="451.00000000000006" r="5" fill="hsl(150 70% 56%)"/></g><g><line x1="950" y1="520" x2="881" y2="400.48849427774746" stroke="hsl(150 70% 56%)" stroke-width="2" stroke-linecap="round" opacity="0.9"/><circle cx="881" cy="400.48849427774746" r="5" fill="hsl(150 70% 56%)"/></g><g><line x1="950" y1="520" x2="950" y2="382" stroke="hsl(150 70% 56%)" stroke-width="2" stroke-linecap="round" opacity="0.9"/><circle cx="950" cy="382" r="5" fill="hsl(150 70% 56%)"/></g><g><line x1="950" y1="520" x2="1019" y2="400.48849427774746" stroke="hsl(150 70% 56%)" stroke-width="2" stroke-linecap="round" opacity="0.9"/><circle cx="1019" cy="400.48849427774746" r="5" fill="hsl(150 70% 56%)"/></g><g><line x1="950" y1="520" x2="1069.5115057222524" y2="450.99999999999994" stroke="hsl(150 70% 56%)" stroke-width="2" stroke-linecap="round" opacity="0.9"/><circle cx="1069.5115057222524" cy="450.99999999999994" r="5" fill="hsl(150 70% 56%)"/></g></g></g><g><g style="--tx:-360px;--ty:-300px;animation:wink-comet 3s ease-out infinite;animation-delay:1.42s"><line x1="1330" y1="820" x2="1409.2" y2="886" stroke="hsl(282 82% 70%)" stroke-width="3.2" stroke-linecap="round" opacity="0.82"/><circle cx="1330" cy="820" r="7" fill="hsl(282 82% 70%)"/></g><g style="transform-origin:970px 520px;animation:wink-burst 3s ease-out infinite;animation-delay:2.28s"><circle cx="970" cy="520" r="8" fill="white" opacity="0.82"/><g><line x1="970" y1="520" x2="1056" y2="520" stroke="hsl(282 82% 70%)" stroke-width="2" stroke-linecap="round" opacity="0.9"/><circle cx="1056" cy="520" r="5" fill="hsl(50 100% 82%)"/></g><g><line x1="970" y1="520" x2="1039.5754615162455" y2="570.5495316971527" stroke="hsl(282 82% 70%)" stroke-width="2" stroke-linecap="round" opacity="0.9"/><circle cx="1039.5754615162455" cy="570.5495316971527" r="5" fill="hsl(50 100% 82%)"/></g><g><line x1="970" y1="520" x2="996.5754615162455" y2="601.7908604013832" stroke="hsl(282 82% 70%)" stroke-width="2" stroke-linecap="round" opacity="0.9"/><circle cx="996.5754615162455" cy="601.7908604013832" r="5" fill="hsl(50 100% 82%)"/></g><g><line x1="970" y1="520" x2="943.4245384837545" y2="601.7908604013833" stroke="hsl(282 82% 70%)" stroke-width="2" stroke-linecap="round" opacity="0.9"/><circle cx="943.4245384837545" cy="601.7908604013833" r="5" fill="hsl(50 100% 82%)"/></g><g><line x1="970" y1="520" x2="900.4245384837545" y2="570.5495316971527" stroke="hsl(282 82% 70%)" stroke-width="2" stroke-linecap="round" opacity="0.9"/><circle cx="900.4245384837545" cy="570.5495316971527" r="5" fill="hsl(50 100% 82%)"/></g><g><line x1="970" y1="520" x2="884" y2="520" stroke="hsl(282 82% 70%)" stroke-width="2" stroke-linecap="round" opacity="0.9"/><circle cx="884" cy="520" r="5" fill="hsl(50 100% 82%)"/></g><g><line x1="970" y1="520" x2="900.4245384837545" y2="469.4504683028473" stroke="hsl(282 82% 70%)" stroke-width="2" stroke-linecap="round" opacity="0.9"/><circle cx="900.4245384837545" cy="469.4504683028473" r="5" fill="hsl(50 100% 82%)"/></g><g><line x1="970" y1="520" x2="943.4245384837545" y2="438.2091395986168" stroke="hsl(282 82% 70%)" stroke-width="2" stroke-linecap="round" opacity="0.9"/><circle cx="943.4245384837545" cy="438.2091395986168" r="5" fill="hsl(50 100% 82%)"/></g><g><line x1="970" y1="520" x2="996.5754615162455" y2="438.2091395986168" stroke="hsl(282 82% 70%)" stroke-width="2" stroke-linecap="round" opacity="0.9"/><circle cx="996.5754615162455" cy="438.2091395986168" r="5" fill="hsl(50 100% 82%)"/></g><g><line x1="970" y1="520" x2="1039.5754615162455" y2="469.4504683028473" stroke="hsl(282 82% 70%)" stroke-width="2" stroke-linecap="round" opacity="0.9"/><circle cx="1039.5754615162455" cy="469.4504683028473" r="5" fill="hsl(50 100% 82%)"/></g></g></g><g style="transform-origin:960px 500px;animation:wink-burst 3s ease-out infinite;animation-delay:1.18s"><path d="M1320,488 L1322.821369211004,496.11671842700025 L1331.4126781955417,496.2917960675006 L1324.5650712782167,501.4832815729998 L1327.0534230275098,509.7082039324994 L1320,504.8 L1312.9465769724902,509.7082039324994 L1315.4349287217833,501.4832815729998 L1308.587321804458,496.2917960675006 L1317.178630788996,496.11671842700025 Z" fill="hsl(50 100% 82%)" opacity="0.88"/><path d="M1251.2461179749812,699.6026908252903 L1254.067487185985,707.7194092522906 L1262.658796170523,707.894486892791 L1255.8111892531979,713.0859723982901 L1258.299541002491,721.3108947577897 L1251.2461179749812,716.4026908252903 L1244.1926949474714,721.3108947577897 L1246.6810466967645,713.0859723982901 L1239.8334397794392,707.894486892791 L1248.4247487639773,707.7194092522906 Z" fill="hsl(50 100% 82%)" opacity="0.88"/><path d="M1071.2461179749812,830.3803458662553 L1074.067487185985,838.4970642932556 L1082.658796170523,838.6721419337559 L1075.8111892531979,843.8636274392551 L1078.299541002491,852.0885497987547 L1071.2461179749812,847.1803458662553 L1064.1926949474714,852.0885497987547 L1066.6810466967645,843.8636274392551 L1059.8334397794392,838.6721419337559 L1068.4247487639773,838.4970642932556 Z" fill="hsl(50 100% 82%)" opacity="0.88"/><path d="M848.7538820250189,830.3803458662553 L851.5752512360228,838.4970642932556 L860.1665602205608,838.6721419337559 L853.3189533032356,843.8636274392551 L855.8073050525286,852.0885497987547 L848.7538820250189,847.1803458662553 L841.7004589975093,852.0885497987547 L844.1888107468022,843.8636274392551 L837.3412038294771,838.6721419337559 L845.932512814015,838.4970642932556 Z" fill="hsl(50 100% 82%)" opacity="0.88"/><path d="M668.753882025019,699.6026908252904 L671.575251236023,707.7194092522907 L680.1665602205609,707.8944868927911 L673.3189533032357,713.0859723982902 L675.8073050525287,721.3108947577898 L668.753882025019,716.4026908252904 L661.7004589975094,721.3108947577898 L664.1888107468023,713.0859723982902 L657.3412038294772,707.8944868927911 L665.9325128140151,707.7194092522907 Z" fill="hsl(50 100% 82%)" opacity="0.88"/><path d="M600,488.00000000000006 L602.8213692110039,496.1167184270003 L611.4126781955418,496.2917960675007 L604.5650712782167,501.48328157299983 L607.0534230275097,509.70820393249943 L600,504.80000000000007 L592.9465769724903,509.70820393249943 L595.4349287217833,501.48328157299983 L588.5873218044582,496.2917960675007 L597.1786307889961,496.1167184270003 Z" fill="hsl(50 100% 82%)" opacity="0.88"/><path d="M668.7538820250189,276.3973091747097 L671.5752512360228,284.5140276017099 L680.1665602205608,284.6891052422103 L673.3189533032356,289.88059074770945 L675.8073050525286,298.10551310720905 L668.7538820250189,293.1973091747097 L661.7004589975093,298.10551310720905 L664.1888107468022,289.88059074770945 L657.3412038294771,284.6891052422103 L665.932512814015,284.5140276017099 Z" fill="hsl(50 100% 82%)" opacity="0.88"/><path d="M848.7538820250189,145.61965413374475 L851.5752512360228,153.736372560745 L860.1665602205608,153.91145020124537 L853.3189533032356,159.1029357067445 L855.8073050525286,167.32785806624412 L848.7538820250189,162.41965413374476 L841.7004589975093,167.32785806624412 L844.1888107468022,159.1029357067445 L837.3412038294771,153.91145020124537 L845.932512814015,153.736372560745 Z" fill="hsl(50 100% 82%)" opacity="0.88"/><path d="M1071.246117974981,145.6196541337447 L1074.0674871859849,153.73637256074494 L1082.6587961705227,153.91145020124532 L1075.8111892531977,159.10293570674443 L1078.2995410024907,167.32785806624406 L1071.246117974981,162.4196541337447 L1064.1926949474712,167.32785806624406 L1066.6810466967643,159.10293570674443 L1059.8334397794392,153.91145020124532 L1068.424748763977,153.73637256074494 Z" fill="hsl(50 100% 82%)" opacity="0.88"/><path d="M1251.246117974981,276.39730917470956 L1254.0674871859849,284.5140276017098 L1262.6587961705227,284.6891052422102 L1255.8111892531977,289.88059074770933 L1258.2995410024907,298.10551310720894 L1251.246117974981,293.1973091747096 L1244.1926949474712,298.10551310720894 L1246.6810466967643,289.88059074770933 L1239.8334397794392,284.6891052422102 L1248.424748763977,284.5140276017098 Z" fill="hsl(50 100% 82%)" opacity="0.88"/></g></svg>
