<?xml version="1.0" encoding="UTF-8" standalone="no"?>
<svg viewBox="0 0 1920 1080" preserveAspectRatio="xMidYMid meet" xmlns="http://www.w3.org/2000/svg" xmlns:xlink="http://www.w3.org/1999/xlink" width="1920" height="1080"><style>@keyframes wink-burst {
  0% { transform: scale(0); opacity: 0; }
  20% { opacity: 1; }
  60% { transform: scale(1); opacity: 1; }
  100% { transform: scale(1.15); opacity: 0; }
}
@keyframes wink-fade-loop {
  0%, 100% { opacity: 0; }
  10%, 70% { opacity: 1; }
}
@keyframes wink-spark-fall {
  0% { transform: translateY(-40px); opacity: 0; }
  20% { opacity: 1; }
  100% { transform: translateY(220px); opacity: 0; }
}
@keyframes wink-comet {
  0% { transform: translate(0,0) scale(0.6); opacity: 0; }
  30% { opacity: 1; }
  70% { transform: translate(var(--tx,0), var(--ty,-200px)) scale(1); opacity: 1; }
  100% { transform: translate(var(--tx,0), var(--ty,-200px)) scale(1.2); opacity: 0; }
}
@keyframes wink-ring-expand {
  0% { transform: scale(0.1); opacity: 0; stroke-width: 8; }
  20% { opacity: 1; }
  100% { transform: scale(1); opacity: 0; stroke-width: 1; }
}
@keyframes wink-twinkle {
  0%, 100% { transform: scale(0); opacity: 0; }
  50% { transform: scale(1); opacity: 1; }
}
@keyframes wink-pop {
  0% { transform: scale(0) rotate(-20deg); opacity: 0; }
  60% { transform: scale(1.15) rotate(5deg); opacity: 1; }
  80% { transform: scale(1) rotate(0); opacity: 1; }
  100% { transform: scale(1) rotate(0); opacity: 0; }
}
@keyframes wink-swirl {
  0% { transform: rotate(0deg) translateX(180px) scale(0); opacity: 0; }
  20% { opacity: 1; }
  100% { transform: rotate(360deg) translateX(40px) scale(1); opacity: 0; }
}
@keyframes wink-shower {
  0% { transform: translateY(-60px) rotate(0); opacity: 0; }
  15% { opacity: 1; }
  100% { transform: translateY(260px) rotate(180deg); opacity: 0; }
}
@keyframes wink-trail {
  0% { offset-distance: 0%; opacity: 0; transform: scale(0.4); }
  10% { opacity: 1; transform: scale(1); }
  90% { opacity: 1; }
  100% { offset-distance: 100%; opacity: 0; transform: scale(0.6); }
}
@keyframes wink-bounce-in {
  0% { transform: translateY(-300px) scale(0.6); opacity: 0; }
  50% { transform: translateY(20px) scale(1.05); opacity: 1; }
  70% { transform: translateY(-10px) scale(0.98); }
  100% { transform: translateY(0) scale(1); opacity: 1; }
}
@keyframes wink-bounce-loop {
  0%, 100% { transform: translateY(0); }
  50% { transform: translateY(-12px); }
}
@keyframes wink-pop-up {
  0% { transform: translateY(300px); opacity: 0; }
  60% { transform: translateY(-15px); opacity: 1; }
  100% { transform: translateY(0); opacity: 1; }
}
@keyframes wink-orbit {
  from { transform: rotate(0deg) translateX(var(--orbit-r,160px)) rotate(0deg); }
  to { transform: rotate(360deg) translateX(var(--orbit-r,160px)) rotate(-360deg); }
}
@keyframes wink-scatter {
  0%, 100% { transform: translate(var(--sx,0), var(--sy,0)) scale(0.9); opacity: 0.6; }
  50% { transform: translate(calc(var(--sx,0) * 1.2), calc(var(--sy,0) * 1.2)) scale(1.05); opacity: 1; }
}
@keyframes wink-sparkle {
  0%, 100% { opacity: 0; transform: scale(0.5); }
  50% { opacity: 1; transform: scale(1.2); }
}
@keyframes wink-glow-pulse {
  0%, 100% { opacity: 0.4; transform: scale(0.95); }
  50% { opacity: 1; transform: scale(1.05); }
}
@keyframes wink-confetti-launch {
  0% { transform: translate(0,0) rotate(var(--r0,0deg)) scale(0.28); opacity: 0; }
  14% { opacity: 1; }
  72% { transform: translate(var(--tx,0px), var(--ty,0px)) rotate(var(--r1,180deg)) scale(1); opacity: 1; }
  100% { transform: translate(var(--tx,0px), var(--ty,0px)) rotate(var(--r2,320deg)) scale(0.82); opacity: 0; }
}
@keyframes wink-confetti-fall {
  0% { transform: translate(0,-90px) rotate(var(--r0,0deg)) scale(0.7); opacity: 0; }
  14% { opacity: 1; }
  82% { opacity: 1; }
  100% { transform: translate(var(--tx,0px), var(--ty,720px)) rotate(var(--r1,260deg)) scale(1); opacity: 0; }
}
@keyframes wink-confetti-shimmer {
  0%, 100% { transform: rotate(var(--r0,0deg)) scale(0.92); }
  50% { transform: rotate(var(--r1,180deg)) scale(1.08); }
}
@keyframes wink-confetti-wave {
  0% { transform: translate(var(--sx,-180px), var(--sy,0px)) rotate(var(--r0,0deg)) scale(0.5); opacity: 0; }
  18% { opacity: 1; }
  58% { transform: translate(0,0) rotate(var(--r1,180deg)) scale(1); opacity: 1; }
  100% { transform: translate(var(--tx,180px), var(--ty,0px)) rotate(var(--r2,360deg)) scale(0.78); opacity: 0; }
}</style><defs><radialGradient id="fwso-core-glow" cx="50%" cy="50%" r="50%"><stop offset="0%" stop-color="white" stop-opacity="0.86"/><stop offset="24%" stop-color="hsl(50 100% 82%)" stop-opacity="0.44"/><stop offset="58%" stop-color="hsl(45 95% 62%)" stop-opacity="0.12"/><stop offset="100%" stop-color="hsl(45 95% 62%)" stop-opacity="0"/></radialGradient></defs><g style="--tx:340px;--ty:140px;animation:wink-comet 3.8s ease-out infinite;animation-delay:0.08s"><path d="M620,308 L622.8213692110039,316.11671842700025 L631.4126781955418,316.2917960675006 L624.5650712782167,321.4832815729998 L627.0534230275097,329.7082039324994 L620,324.8 L612.9465769724903,329.7082039324994 L615.4349287217833,321.4832815729998 L608.5873218044582,316.2917960675006 L617.1786307889961,316.11671842700025 Z" fill="hsl(45 95% 62%)" stroke="white" stroke-width="0.7"/></g><g style="--tx:200px;--ty:210px;animation:wink-comet 3.8s ease-out infinite;animation-delay:0.18s"><path d="M760,236 L763.2915974128379,245.4695048315003 L773.3147912281321,245.67376207875074 L765.3259164912529,251.73049516849971 L768.2289935320946,261.3262379212493 L760,255.6 L751.7710064679054,261.3262379212493 L754.6740835087471,251.73049516849971 L746.6852087718678,245.67376207875074 L756.7084025871621,245.4695048315003 Z" fill="hsl(18 94% 60%)" stroke="white" stroke-width="0.7"/></g><g style="--tx:-220px;--ty:210px;animation:wink-comet 3.8s ease-out infinite;animation-delay:0.28s"><path d="M1180,234 L1183.7618256146718,244.82229123600032 L1195.2169042607225,245.05572809000085 L1186.086761704289,251.97770876399966 L1189.4045640366796,262.94427190999915 L1180,256.4 L1170.5954359633204,262.94427190999915 L1173.913238295711,251.97770876399966 L1164.7830957392775,245.05572809000085 L1176.2381743853282,244.82229123600032 Z" fill="hsl(195 88% 62%)" stroke="white" stroke-width="0.7"/></g><g style="--tx:-360px;--ty:140px;animation:wink-comet 3.8s ease-out infinite;animation-delay:0.38s"><path d="M1320,308 L1322.821369211004,316.11671842700025 L1331.4126781955417,316.2917960675006 L1324.5650712782167,321.4832815729998 L1327.0534230275098,329.7082039324994 L1320,324.8 L1312.9465769724902,329.7082039324994 L1315.4349287217833,321.4832815729998 L1308.587321804458,316.2917960675006 L1317.178630788996,316.11671842700025 Z" fill="hsl(282 82% 70%)" stroke="white" stroke-width="0.7"/></g><g style="--tx:400px;--ty:-160px;animation:wink-comet 3.8s ease-out infinite;animation-delay:0.48s"><path d="M560,606 L563.2915974128379,615.4695048315003 L573.3147912281321,615.6737620787508 L565.3259164912529,621.7304951684997 L568.2289935320946,631.3262379212492 L560,625.6 L551.7710064679054,631.3262379212492 L554.6740835087471,621.7304951684997 L546.6852087718678,615.6737620787508 L556.7084025871621,615.4695048315003 Z" fill="hsl(150 70% 56%)" stroke="white" stroke-width="0.7"/></g><g style="--tx:-400px;--ty:-160px;animation:wink-comet 3.8s ease-out infinite;animation-delay:0.58s"><path d="M1360,604 L1363.7618256146718,614.8222912360003 L1375.2169042607225,615.0557280900008 L1366.086761704289,621.9777087639997 L1369.4045640366796,632.9442719099992 L1360,626.4 L1350.5954359633204,632.9442719099992 L1353.913238295711,621.9777087639997 L1344.7830957392775,615.0557280900008 L1356.2381743853282,614.8222912360003 Z" fill="hsl(50 100% 82%)" stroke="white" stroke-width="0.7"/></g><g style="--tx:0px;--ty:-320px;animation:wink-comet 3.8s ease-out infinite;animation-delay:0.68s"><path d="M960,768 L962.8213692110039,776.1167184270003 L971.4126781955418,776.2917960675006 L964.5650712782167,781.4832815729998 L967.0534230275097,789.7082039324994 L960,784.8 L952.9465769724903,789.7082039324994 L955.4349287217833,781.4832815729998 L948.5873218044582,776.2917960675006 L957.1786307889961,776.1167184270003 Z" fill="hsl(45 95% 62%)" stroke="white" stroke-width="0.7"/></g><g style="animation:wink-glow-pulse 3.8s ease-in-out infinite;animation-delay:0.96s"><ellipse cx="960" cy="460" rx="103.39999999999999" ry="79.2" fill="url(#fwso-core-glow)" opacity="0.3276"/><ellipse cx="960" cy="454.5" rx="61.60000000000001" ry="44" fill="url(#fwso-core-glow)" opacity="0.21840000000000004"/><circle cx="960" cy="460" r="19.8" fill="white" opacity="0.0936"/></g><g style="animation:wink-glow-pulse 3.8s ease-in-out infinite;animation-delay:1.18s"><ellipse cx="960" cy="460" rx="122.19999999999999" ry="93.6" fill="url(#fwso-core-glow)" opacity="0.35279999999999995"/><ellipse cx="960" cy="453.5" rx="72.80000000000001" ry="52" fill="url(#fwso-core-glow)" opacity="0.23520000000000002"/><circle cx="960" cy="460" r="23.4" fill="white" opacity="0.10079999999999999"/></g><g style="animation:wink-glow-pulse 3.8s ease-in-out infinite;animation-delay:1.36s"><ellipse cx="960" cy="460" rx="141" ry="108" fill="url(#fwso-core-glow)" opacity="0.378"/><ellipse cx="960" cy="452.5" rx="84.00000000000001" ry="60" fill="url(#fwso-core-glow)" opacity="0.25200000000000006"/><circle cx="960" cy="460" r="27" fill="white" opacity="0.108"/></g><g style="transform-origin:960px 460px;animation:wink-burst 3.8s ease-out infinite;animation-delay:1.54s"><circle cx="960" cy="460" r="18" fill="white" opacity="0.82"/><g><line x1="960" y1="460" x2="1280" y2="460" stroke="hsl(45 95% 62%)" stroke-width="3.4" stroke-linecap="round" opacity="0.9"/><circle cx="1280" cy="460" r="5" fill="hsl(50 100% 82%)"/></g><g><line x1="960" y1="460" x2="1218.8854381999831" y2="648.0912807335915" stroke="hsl(45 95% 62%)" stroke-width="3.4" stroke-linecap="round" opacity="0.9"/><circle cx="1218.8854381999831" cy="648.0912807335915" r="5" fill="hsl(50 100% 82%)"/></g><g><line x1="960" y1="460" x2="1058.8854381999831" y2="764.3380852144492" stroke="hsl(45 95% 62%)" stroke-width="3.4" stroke-linecap="round" opacity="0.9"/><circle cx="1058.8854381999831" cy="764.3380852144492" r="5" fill="hsl(50 100% 82%)"/></g><g><line x1="960" y1="460" x2="861.1145618000169" y2="764.3380852144492" stroke="hsl(45 95% 62%)" stroke-width="3.4" stroke-linecap="round" opacity="0.9"/><circle cx="861.1145618000169" cy="764.3380852144492" r="5" fill="hsl(50 100% 82%)"/></g><g><line x1="960" y1="460" x2="701.1145618000169" y2="648.0912807335915" stroke="hsl(45 95% 62%)" stroke-width="3.4" stroke-linecap="round" opacity="0.9"/><circle cx="701.1145618000169" cy="648.0912807335915" r="5" fill="hsl(50 100% 82%)"/></g><g><line x1="960" y1="460" x2="640" y2="460.00000000000006" stroke="hsl(45 95% 62%)" stroke-width="3.4" stroke-linecap="round" opacity="0.9"/><circle cx="640" cy="460.00000000000006" r="5" fill="hsl(50 100% 82%)"/></g><g><line x1="960" y1="460" x2="701.1145618000169" y2="271.90871926640864" stroke="hsl(45 95% 62%)" stroke-width="3.4" stroke-linecap="round" opacity="0.9"/><circle cx="701.1145618000169" cy="271.90871926640864" r="5" fill="hsl(50 100% 82%)"/></g><g><line x1="960" y1="460" x2="861.1145618000168" y2="155.6619147855509" stroke="hsl(45 95% 62%)" stroke-width="3.4" stroke-linecap="round" opacity="0.9"/><circle cx="861.1145618000168" cy="155.6619147855509" r="5" fill="hsl(50 100% 82%)"/></g><g><line x1="960" y1="460" x2="1058.8854381999831" y2="155.66191478555083" stroke="hsl(45 95% 62%)" stroke-width="3.4" stroke-linecap="round" opacity="0.9"/><circle cx="1058.8854381999831" cy="155.66191478555083" r="5" fill="hsl(50 100% 82%)"/></g><g><line x1="960" y1="460" x2="1218.8854381999831" y2="271.9087192664085" stroke="hsl(45 95% 62%)" stroke-width="3.4" stroke-linecap="round" opacity="0.9"/><circle cx="1218.8854381999831" cy="271.9087192664085" r="5" fill="hsl(50 100% 82%)"/></g></g><g style="transform-origin:960px 460px;animation:wink-burst 3.8s ease-out infinite;animation-delay:1.6s"><path d="M1320,438 L1325.1725102201738,452.8806504495005 L1340.9232433584934,453.20162612375117 L1328.3692973433974,462.71934955049954 L1332.9312755504345,477.79837387624883 L1320,468.8 L1307.0687244495657,477.79837387624883 L1311.6307026566026,462.71934955049954 L1299.0767566415066,453.20162612375117 L1314.8274897798262,452.8806504495005 Z" fill="hsl(50 100% 82%)" opacity="0.88"/><path d="M1251.2461179749812,649.6026908252903 L1256.418628195155,664.4833412747907 L1272.1693613334746,664.8043169490414 L1259.6154153183786,674.3220403757898 L1264.1773935254157,689.4010647015392 L1251.2461179749812,680.4026908252903 L1238.314842424547,689.4010647015392 L1242.8768206315838,674.3220403757898 L1230.3228746164878,664.8043169490414 L1246.0736077548074,664.4833412747907 Z" fill="hsl(50 100% 82%)" opacity="0.88"/><path d="M1071.2461179749812,780.3803458662553 L1076.418628195155,795.2609963157557 L1092.1693613334746,795.5819719900064 L1079.6154153183786,805.0996954167548 L1084.1773935254157,820.1787197425042 L1071.2461179749812,811.1803458662553 L1058.314842424547,820.1787197425042 L1062.8768206315838,805.0996954167548 L1050.3228746164878,795.5819719900064 L1066.0736077548074,795.2609963157557 Z" fill="hsl(50 100% 82%)" opacity="0.88"/><path d="M848.7538820250189,780.3803458662553 L853.9263922451927,795.2609963157557 L869.6771253835122,795.5819719900064 L857.1231793684162,805.0996954167548 L861.6851575754533,820.1787197425042 L848.7538820250189,811.1803458662553 L835.8226064745845,820.1787197425042 L840.3845846816216,805.0996954167548 L827.8306386665256,795.5819719900064 L843.5813718048452,795.2609963157557 Z" fill="hsl(50 100% 82%)" opacity="0.88"/><path d="M668.753882025019,649.6026908252904 L673.9263922451928,664.4833412747909 L689.6771253835124,664.8043169490415 L677.1231793684163,674.3220403757899 L681.6851575754534,689.4010647015393 L668.753882025019,680.4026908252904 L655.8226064745846,689.4010647015393 L660.3845846816217,674.3220403757899 L647.8306386665256,664.8043169490415 L663.5813718048453,664.4833412747909 Z" fill="hsl(50 100% 82%)" opacity="0.88"/><path d="M600,438.00000000000006 L605.1725102201738,452.88065044950054 L620.9232433584933,453.2016261237512 L608.3692973433973,462.7193495504996 L612.9312755504344,477.7983738762489 L600,468.80000000000007 L587.0687244495656,477.7983738762489 L591.6307026566027,462.7193495504996 L579.0767566415066,453.2016261237512 L594.8274897798262,452.88065044950054 Z" fill="hsl(50 100% 82%)" opacity="0.88"/><path d="M668.7538820250189,226.3973091747097 L673.9263922451927,241.27795962421015 L689.6771253835122,241.59893529846087 L677.1231793684162,251.11665872520925 L681.6851575754533,266.19568305095856 L668.7538820250189,257.1973091747097 L655.8226064745845,266.19568305095856 L660.3845846816216,251.11665872520925 L647.8306386665256,241.59893529846087 L663.5813718048452,241.27795962421015 Z" fill="hsl(50 100% 82%)" opacity="0.88"/><path d="M848.7538820250189,95.61965413374475 L853.9263922451927,110.50030458324521 L869.6771253835122,110.8212802574959 L857.1231793684162,120.33900368424429 L861.6851575754533,135.41802800999358 L848.7538820250189,126.41965413374474 L835.8226064745845,135.41802800999358 L840.3845846816216,120.33900368424429 L827.8306386665256,110.8212802574959 L843.5813718048452,110.50030458324521 Z" fill="hsl(50 100% 82%)" opacity="0.88"/><path d="M1071.246117974981,95.61965413374469 L1076.4186281951547,110.50030458324515 L1092.1693613334744,110.82128025749584 L1079.6154153183784,120.33900368424423 L1084.1773935254155,135.41802800999352 L1071.246117974981,126.41965413374469 L1058.3148424245464,135.41802800999352 L1062.8768206315835,120.33900368424423 L1050.3228746164875,110.82128025749584 L1066.0736077548072,110.50030458324515 Z" fill="hsl(50 100% 82%)" opacity="0.88"/><path d="M1251.246117974981,226.3973091747096 L1256.4186281951547,241.27795962421004 L1272.1693613334744,241.59893529846076 L1259.6154153183784,251.11665872520913 L1264.1773935254155,266.19568305095845 L1251.246117974981,257.1973091747096 L1238.3148424245464,266.19568305095845 L1242.8768206315835,251.11665872520913 L1230.3228746164875,241.59893529846076 L1246.0736077548072,241.27795962421004 Z" fill="hsl(50 100% 82%)" opacity="0.88"/></g><g style="transform-origin:960px 460px;animation:wink-ring-expand 3.8s ease-out infinite;animation-delay:1.66s"><circle cx="960" cy="460" r="340" fill="none" stroke="hsl(195 88% 62%)" stroke-width="3.2"/></g></svg>
