<?xml version="1.0" encoding="UTF-8" standalone="no"?>
<svg viewBox="0 0 1920 1080" preserveAspectRatio="xMidYMid meet" xmlns="http://www.w3.org/2000/svg" xmlns:xlink="http://www.w3.org/1999/xlink" width="1920" height="1080"><style>@keyframes wink-burst {
  0% { transform: scale(0); opacity: 0; }
  20% { opacity: 1; }
  60% { transform: scale(1); opacity: 1; }
  100% { transform: scale(1.15); opacity: 0; }
}
@keyframes wink-fade-loop {
  0%, 100% { opacity: 0; }
  10%, 70% { opacity: 1; }
}
@keyframes wink-spark-fall {
  0% { transform: translateY(-40px); opacity: 0; }
  20% { opacity: 1; }
  100% { transform: translateY(220px); opacity: 0; }
}
@keyframes wink-comet {
  0% { transform: translate(0,0) scale(0.6); opacity: 0; }
  30% { opacity: 1; }
  70% { transform: translate(var(--tx,0), var(--ty,-200px)) scale(1); opacity: 1; }
  100% { transform: translate(var(--tx,0), var(--ty,-200px)) scale(1.2); opacity: 0; }
}
@keyframes wink-ring-expand {
  0% { transform: scale(0.1); opacity: 0; stroke-width: 8; }
  20% { opacity: 1; }
  100% { transform: scale(1); opacity: 0; stroke-width: 1; }
}
@keyframes wink-twinkle {
  0%, 100% { transform: scale(0); opacity: 0; }
  50% { transform: scale(1); opacity: 1; }
}
@keyframes wink-pop {
  0% { transform: scale(0) rotate(-20deg); opacity: 0; }
  60% { transform: scale(1.15) rotate(5deg); opacity: 1; }
  80% { transform: scale(1) rotate(0); opacity: 1; }
  100% { transform: scale(1) rotate(0); opacity: 0; }
}
@keyframes wink-swirl {
  0% { transform: rotate(0deg) translateX(180px) scale(0); opacity: 0; }
  20% { opacity: 1; }
  100% { transform: rotate(360deg) translateX(40px) scale(1); opacity: 0; }
}
@keyframes wink-shower {
  0% { transform: translateY(-60px) rotate(0); opacity: 0; }
  15% { opacity: 1; }
  100% { transform: translateY(260px) rotate(180deg); opacity: 0; }
}
@keyframes wink-trail {
  0% { offset-distance: 0%; opacity: 0; transform: scale(0.4); }
  10% { opacity: 1; transform: scale(1); }
  90% { opacity: 1; }
  100% { offset-distance: 100%; opacity: 0; transform: scale(0.6); }
}
@keyframes wink-bounce-in {
  0% { transform: translateY(-300px) scale(0.6); opacity: 0; }
  50% { transform: translateY(20px) scale(1.05); opacity: 1; }
  70% { transform: translateY(-10px) scale(0.98); }
  100% { transform: translateY(0) scale(1); opacity: 1; }
}
@keyframes wink-bounce-loop {
  0%, 100% { transform: translateY(0); }
  50% { transform: translateY(-12px); }
}
@keyframes wink-pop-up {
  0% { transform: translateY(300px); opacity: 0; }
  60% { transform: translateY(-15px); opacity: 1; }
  100% { transform: translateY(0); opacity: 1; }
}
@keyframes wink-orbit {
  from { transform: rotate(0deg) translateX(var(--orbit-r,160px)) rotate(0deg); }
  to { transform: rotate(360deg) translateX(var(--orbit-r,160px)) rotate(-360deg); }
}
@keyframes wink-scatter {
  0%, 100% { transform: translate(var(--sx,0), var(--sy,0)) scale(0.9); opacity: 0.6; }
  50% { transform: translate(calc(var(--sx,0) * 1.2), calc(var(--sy,0) * 1.2)) scale(1.05); opacity: 1; }
}
@keyframes wink-sparkle {
  0%, 100% { opacity: 0; transform: scale(0.5); }
  50% { opacity: 1; transform: scale(1.2); }
}
@keyframes wink-glow-pulse {
  0%, 100% { opacity: 0.4; transform: scale(0.95); }
  50% { opacity: 1; transform: scale(1.05); }
}
@keyframes wink-confetti-launch {
  0% { transform: translate(0,0) rotate(var(--r0,0deg)) scale(0.28); opacity: 0; }
  14% { opacity: 1; }
  72% { transform: translate(var(--tx,0px), var(--ty,0px)) rotate(var(--r1,180deg)) scale(1); opacity: 1; }
  100% { transform: translate(var(--tx,0px), var(--ty,0px)) rotate(var(--r2,320deg)) scale(0.82); opacity: 0; }
}
@keyframes wink-confetti-fall {
  0% { transform: translate(0,-90px) rotate(var(--r0,0deg)) scale(0.7); opacity: 0; }
  14% { opacity: 1; }
  82% { opacity: 1; }
  100% { transform: translate(var(--tx,0px), var(--ty,720px)) rotate(var(--r1,260deg)) scale(1); opacity: 0; }
}
@keyframes wink-confetti-shimmer {
  0%, 100% { transform: rotate(var(--r0,0deg)) scale(0.92); }
  50% { transform: rotate(var(--r1,180deg)) scale(1.08); }
}
@keyframes wink-confetti-wave {
  0% { transform: translate(var(--sx,-180px), var(--sy,0px)) rotate(var(--r0,0deg)) scale(0.5); opacity: 0; }
  18% { opacity: 1; }
  58% { transform: translate(0,0) rotate(var(--r1,180deg)) scale(1); opacity: 1; }
  100% { transform: translate(var(--tx,180px), var(--ty,0px)) rotate(var(--r2,360deg)) scale(0.78); opacity: 0; }
}</style><g style="transform-origin:140px 327.98667333174626px;animation:wink-fade-loop 3.8s ease-in-out infinite;animation-delay:0s"><path d="M140,313.98667333174626 L143.29159741283786,323.45617816324653 L153.31479122813215,323.660435410497 L145.32591649125285,329.717168500246 L148.22899353209462,339.31291125299555 L140,333.5866733317463 L131.77100646790538,339.31291125299555 L134.67408350874715,329.717168500246 L126.68520877186785,323.660435410497 L136.70840258716214,323.45617816324653 Z" fill="hsl(45 95% 60%)" stroke="hsl(48 100% 84%)" stroke-width="1"/></g><g style="transform-origin:304px 373.24925639950436px;animation:wink-fade-loop 3.8s ease-in-out infinite;animation-delay:0.12s"><path d="M304,355.24925639950436 L308.2320538165058,367.42433404000474 L321.11901729331277,367.6869505007553 L310.8476069173251,375.47417875900396 L314.5801345412645,387.8115622982534 L304,380.44925639950435 L293.4198654587355,387.8115622982534 L297.1523930826749,375.47417875900396 L286.88098270668723,367.6869505007553 L299.7679461834942,367.42433404000474 Z" fill="hsl(45 95% 60%)" stroke="hsl(48 100% 84%)" stroke-width="1"/></g><g style="transform-origin:468px 398.1724333983097px;animation:wink-fade-loop 3.8s ease-in-out infinite;animation-delay:0.24s"><path d="M468,376.1724333983097 L473.17251022017376,391.05308384781017 L488.9232433584934,391.37405952206086 L476.36929734339736,400.89178294880924 L480.9312755504344,415.9708072745585 L468,406.9724333983097 L455.0687244495656,415.9708072745585 L459.63070265660264,400.89178294880924 L447.0767566415066,391.37405952206086 L462.82748977982624,391.05308384781017 Z" fill="hsl(45 95% 60%)" stroke="hsl(48 100% 84%)" stroke-width="1"/></g><g style="transform-origin:632px 393.23639782224814px;animation:wink-fade-loop 3.8s ease-in-out infinite;animation-delay:0.36s"><path d="M632,379.23639782224814 L635.2915974128379,388.7059026537484 L645.3147912281321,388.91015990099885 L637.3259164912529,394.96689299074785 L640.2289935320946,404.5626357434974 L632,398.83639782224816 L623.7710064679054,404.5626357434974 L626.6740835087471,394.96689299074785 L618.6852087718678,388.91015990099885 L628.7084025871621,388.7059026537484 Z" fill="hsl(45 95% 60%)" stroke="hsl(48 100% 84%)" stroke-width="1"/></g><g style="transform-origin:796px 360.3265474916966px;animation:wink-fade-loop 3.8s ease-in-out infinite;animation-delay:0.48s"><path d="M796,342.3265474916966 L800.2320538165058,354.501625132197 L813.1190172933127,354.76424159294754 L802.8476069173252,362.5514698511962 L806.5801345412646,374.88885339044566 L796,367.5265474916966 L785.4198654587354,374.88885339044566 L789.1523930826748,362.5514698511962 L778.8809827066873,354.76424159294754 L791.7679461834942,354.501625132197 Z" fill="hsl(45 95% 60%)" stroke="hsl(48 100% 84%)" stroke-width="1"/></g><g style="transform-origin:960px 312.01332666825374px;animation:wink-fade-loop 3.8s ease-in-out infinite;animation-delay:0.6s"><path d="M960,290.01332666825374 L965.1725102201738,304.8939771177542 L980.9232433584933,305.2149527920049 L968.3692973433973,314.7326762187533 L972.9312755504344,329.81170054450257 L960,320.81332666825375 L947.0687244495656,329.81170054450257 L951.6307026566027,314.7326762187533 L939.0767566415066,305.2149527920049 L954.8274897798262,304.8939771177542 Z" fill="hsl(45 95% 60%)" stroke="hsl(48 100% 84%)" stroke-width="1"/></g><g style="transform-origin:1124px 266.75074360049564px;animation:wink-fade-loop 3.8s ease-in-out infinite;animation-delay:0.72s"><path d="M1124,252.75074360049564 L1127.2915974128377,262.2202484319959 L1137.3147912281322,262.42450567924635 L1129.3259164912529,268.48123876899535 L1132.2289935320946,278.0769815217449 L1124,272.35074360049566 L1115.7710064679054,278.0769815217449 L1118.6740835087471,268.48123876899535 L1110.6852087718678,262.42450567924635 L1120.7084025871623,262.2202484319959 Z" fill="hsl(45 95% 60%)" stroke="hsl(48 100% 84%)" stroke-width="1"/></g><g style="transform-origin:1288px 241.8275666016903px;animation:wink-fade-loop 3.8s ease-in-out infinite;animation-delay:0.84s"><path d="M1288,223.8275666016903 L1292.2320538165059,236.00264424219068 L1305.1190172933127,236.26526070294125 L1294.847606917325,244.05248896118994 L1298.5801345412644,256.38987250043937 L1288,249.0275666016903 L1277.4198654587356,256.38987250043937 L1281.152393082675,244.05248896118994 L1270.8809827066873,236.26526070294125 L1283.7679461834941,236.00264424219068 Z" fill="hsl(45 95% 60%)" stroke="hsl(48 100% 84%)" stroke-width="1"/></g><g style="transform-origin:1452px 246.76360217775186px;animation:wink-fade-loop 3.8s ease-in-out infinite;animation-delay:0.96s"><path d="M1452,224.76360217775186 L1457.1725102201738,239.6442526272523 L1472.9232433584934,239.96522830150303 L1460.3692973433974,249.4829517282514 L1464.9312755504345,264.5619760540007 L1452,255.56360217775187 L1439.0687244495657,264.5619760540007 L1443.6307026566026,249.4829517282514 L1431.0767566415066,239.96522830150303 L1446.8274897798262,239.6442526272523 Z" fill="hsl(45 95% 60%)" stroke="hsl(48 100% 84%)" stroke-width="1"/></g><g style="transform-origin:1616px 279.6734525083034px;animation:wink-fade-loop 3.8s ease-in-out infinite;animation-delay:1.08s"><path d="M1616,265.6734525083034 L1619.2915974128377,275.1429573398037 L1629.3147912281322,275.3472145870541 L1621.3259164912529,281.4039476768031 L1624.2289935320946,290.9996904295527 L1616,285.2734525083034 L1607.7710064679054,290.9996904295527 L1610.6740835087471,281.4039476768031 L1602.6852087718678,275.3472145870541 L1612.7084025871623,275.1429573398037 Z" fill="hsl(45 95% 60%)" stroke="hsl(48 100% 84%)" stroke-width="1"/></g><g style="transform-origin:1780px 327.9866733317462px;animation:wink-fade-loop 3.8s ease-in-out infinite;animation-delay:1.2s"><path d="M1780,309.9866733317462 L1784.2320538165059,322.1617509722466 L1797.1190172933127,322.42436743299714 L1786.847606917325,330.2115956912458 L1790.5801345412644,342.54897923049526 L1780,335.1866733317462 L1769.4198654587356,342.54897923049526 L1773.152393082675,330.2115956912458 L1762.8809827066873,322.42436743299714 L1775.7679461834941,322.1617509722466 Z" fill="hsl(45 95% 60%)" stroke="hsl(48 100% 84%)" stroke-width="1"/></g><g style="transform-origin:140px 598.9091699989475px;animation:wink-fade-loop 3.8s ease-in-out infinite;animation-delay:0.35s"><path d="M140,580.9091699989475 L144.2320538165058,593.0842476394479 L157.11901729331277,593.3468641001984 L146.8476069173251,601.1340923584471 L150.58013454126453,613.4714758976966 L140,606.1091699989476 L129.41986545873547,613.4714758976966 L133.1523930826749,601.1340923584471 L122.88098270668723,593.3468641001984 L135.7679461834942,593.0842476394479 Z" fill="hsl(42 100% 70%)" stroke="hsl(48 100% 84%)" stroke-width="1"/></g><g style="transform-origin:304px 628.8853917231934px;animation:wink-fade-loop 3.8s ease-in-out infinite;animation-delay:0.47s"><path d="M304,606.8853917231934 L309.17251022017376,621.7660421726938 L324.9232433584934,622.0870178469445 L312.36929734339736,631.6047412736929 L316.9312755504344,646.6837655994423 L304,637.6853917231933 L291.0687244495656,646.6837655994423 L295.63070265660264,631.6047412736929 L283.0767566415066,622.0870178469445 L298.82748977982624,621.7660421726938 Z" fill="hsl(42 100% 70%)" stroke="hsl(48 100% 84%)" stroke-width="1"/></g><g style="transform-origin:468px 617.2710946875259px;animation:wink-fade-loop 3.8s ease-in-out infinite;animation-delay:0.59s"><path d="M468,591.2710946875259 L474.1129666238417,608.8573179460265 L492.727469423674,609.2366528337773 L477.8909877694696,620.4848714290254 L483.2824165596043,638.3055365412745 L468,627.6710946875259 L452.7175834403957,638.3055365412745 L458.1090122305304,620.4848714290254 L443.272530576326,609.2366528337773 L461.8870333761583,608.8573179460265 Z" fill="hsl(42 100% 70%)" stroke="hsl(48 100% 84%)" stroke-width="1"/></g><g style="transform-origin:632px 568.5025456041328px;animation:wink-fade-loop 3.8s ease-in-out infinite;animation-delay:0.71s"><path d="M632,550.5025456041328 L636.2320538165058,562.6776232446332 L649.1190172933127,562.9402397053838 L638.8476069173252,570.7274679636324 L642.5801345412646,583.0648515028819 L632,575.7025456041329 L621.4198654587354,583.0648515028819 L625.1523930826748,570.7274679636324 L614.8809827066873,562.9402397053838 L627.7679461834942,562.6776232446332 Z" fill="hsl(42 100% 70%)" stroke="hsl(48 100% 84%)" stroke-width="1"/></g><g style="transform-origin:796px 501.2076726408528px;animation:wink-fade-loop 3.8s ease-in-out infinite;animation-delay:0.83s"><path d="M796,479.2076726408528 L801.1725102201738,494.0883230903533 L816.9232433584933,494.409298764604 L804.3692973433973,503.92702219135236 L808.9312755504344,519.0060465171017 L796,510.00767264085283 L783.0687244495656,519.0060465171017 L787.6307026566027,503.92702219135236 L775.0767566415066,494.409298764604 L790.8274897798262,494.0883230903533 Z" fill="hsl(42 100% 70%)" stroke="hsl(48 100% 84%)" stroke-width="1"/></g><g style="transform-origin:960px 441.0908300010525px;animation:wink-fade-loop 3.8s ease-in-out infinite;animation-delay:0.95s"><path d="M960,415.0908300010525 L966.1129666238418,432.677053259553 L984.7274694236739,433.0563881473039 L969.8909877694696,444.3046067425519 L975.2824165596043,462.1252718548011 L960,451.4908300010525 L944.7175834403957,462.1252718548011 L950.1090122305304,444.3046067425519 L935.2725305763261,433.0563881473039 L953.8870333761582,432.677053259553 Z" fill="hsl(42 100% 70%)" stroke="hsl(48 100% 84%)" stroke-width="1"/></g><g style="transform-origin:1124px 411.1146082768067px;animation:wink-fade-loop 3.8s ease-in-out infinite;animation-delay:1.0699999999999998s"><path d="M1124,393.1146082768067 L1128.2320538165059,405.28968591730705 L1141.1190172933127,405.5523023780576 L1130.847606917325,413.3395306363063 L1134.5801345412644,425.67691417555574 L1124,418.31460827680667 L1113.4198654587356,425.67691417555574 L1117.152393082675,413.3395306363063 L1106.8809827066873,405.5523023780576 L1119.7679461834941,405.28968591730705 Z" fill="hsl(42 100% 70%)" stroke="hsl(48 100% 84%)" stroke-width="1"/></g><g style="transform-origin:1288px 422.7289053124742px;animation:wink-fade-loop 3.8s ease-in-out infinite;animation-delay:1.19s"><path d="M1288,400.7289053124742 L1293.1725102201738,415.60955576197466 L1308.9232433584934,415.93053143622535 L1296.3692973433974,425.4482548629737 L1300.9312755504345,440.527279188723 L1288,431.5289053124742 L1275.0687244495657,440.527279188723 L1279.6307026566026,425.4482548629737 L1267.0767566415066,415.93053143622535 L1282.8274897798262,415.60955576197466 Z" fill="hsl(42 100% 70%)" stroke="hsl(48 100% 84%)" stroke-width="1"/></g><g style="transform-origin:1452px 471.49745439586724px;animation:wink-fade-loop 3.8s ease-in-out infinite;animation-delay:1.31s"><path d="M1452,445.49745439586724 L1458.1129666238417,463.08367765436776 L1476.727469423674,463.4630125421186 L1461.8909877694696,474.71123113736667 L1467.2824165596044,492.5318962496159 L1452,481.8974543958672 L1436.7175834403956,492.5318962496159 L1442.1090122305304,474.71123113736667 L1427.272530576326,463.46301254211863 L1445.8870333761583,463.08367765436776 Z" fill="hsl(42 100% 70%)" stroke="hsl(48 100% 84%)" stroke-width="1"/></g><g style="transform-origin:1616px 538.7923273591472px;animation:wink-fade-loop 3.8s ease-in-out infinite;animation-delay:1.4300000000000002s"><path d="M1616,520.7923273591472 L1620.2320538165059,532.9674049996476 L1633.1190172933127,533.2300214603981 L1622.847606917325,541.0172497186468 L1626.5801345412644,553.3546332578962 L1616,545.9923273591472 L1605.4198654587356,553.3546332578962 L1609.152393082675,541.0172497186468 L1598.8809827066873,533.2300214603981 L1611.7679461834941,532.9674049996476 Z" fill="hsl(42 100% 70%)" stroke="hsl(48 100% 84%)" stroke-width="1"/></g><g style="transform-origin:1780px 598.9091699989475px;animation:wink-fade-loop 3.8s ease-in-out infinite;animation-delay:1.5499999999999998s"><path d="M1780,576.9091699989475 L1785.1725102201738,591.7898204484479 L1800.9232433584934,592.1107961226986 L1788.3692973433974,601.628519549447 L1792.9312755504345,616.7075438751964 L1780,607.7091699989475 L1767.0687244495657,616.7075438751964 L1771.6307026566026,601.628519549447 L1759.0767566415066,592.1107961226986 L1774.8274897798262,591.7898204484479 Z" fill="hsl(42 100% 70%)" stroke="hsl(48 100% 84%)" stroke-width="1"/></g><g style="transform-origin:140px 774.8121239953041px;animation:wink-fade-loop 3.8s ease-in-out infinite;animation-delay:0.7s"><path d="M140,758.8121239953041 L143.76182561467184,769.6344152313044 L155.21690426072246,769.8678520853049 L146.086761704289,776.7898327593037 L149.40456403667957,787.7563959053033 L140,781.2121239953041 L130.59543596332043,787.7563959053033 L133.913238295711,776.7898327593037 L124.78309573927754,769.8678520853049 L136.23817438532816,769.6344152313044 Z" fill="hsl(35 92% 62%)" stroke="hsl(48 100% 84%)" stroke-width="1"/></g><g style="transform-origin:304px 763.6426509921404px;animation:wink-fade-loop 3.8s ease-in-out infinite;animation-delay:0.82s"><path d="M304,743.6426509921404 L308.70228201833976,757.1705150371408 L323.0211303259031,757.4623111046415 L311.60845213036123,766.1147869471399 L315.7557050458495,779.8229908796393 L304,771.6426509921404 L292.2442949541505,779.8229908796393 L296.39154786963877,766.1147869471399 L284.9788696740969,757.4623111046415 L299.29771798166024,757.1705150371408 Z" fill="hsl(35 92% 62%)" stroke="hsl(48 100% 84%)" stroke-width="1"/></g><g style="transform-origin:468px 728.1638484441262px;animation:wink-fade-loop 3.8s ease-in-out infinite;animation-delay:0.94s"><path d="M468,704.1638484441262 L473.64273842200777,720.3972852981267 L490.8253563910837,720.7474405791274 L477.1301425564335,731.1304115901257 L482.10684605501933,747.5802563091249 L468,737.7638484441262 L453.89315394498067,747.5802563091249 L458.8698574435665,731.1304115901257 L445.1746436089163,720.7474405791274 L462.35726157799223,720.3972852981267 Z" fill="hsl(35 92% 62%)" stroke="hsl(48 100% 84%)" stroke-width="1"/></g><g style="transform-origin:632px 681.9274130444568px;animation:wink-fade-loop 3.8s ease-in-out infinite;animation-delay:1.06s"><path d="M632,665.9274130444568 L635.7618256146718,676.7497042804571 L647.2169042607225,676.9831411344576 L638.086761704289,683.9051218084564 L641.4045640366795,694.871684954456 L632,688.3274130444568 L622.5954359633205,694.871684954456 L625.913238295711,683.9051218084564 L616.7830957392775,676.9831411344576 L628.2381743853282,676.7497042804571 Z" fill="hsl(35 92% 62%)" stroke="hsl(48 100% 84%)" stroke-width="1"/></g><g style="transform-origin:796px 642.5940915971668px;animation:wink-fade-loop 3.8s ease-in-out infinite;animation-delay:1.18s"><path d="M796,622.5940915971668 L800.7022820183398,636.1219556421672 L815.0211303259031,636.4137517096678 L803.6084521303612,645.0662275521663 L807.7557050458495,658.7744314846657 L796,650.5940915971668 L784.2442949541505,658.7744314846657 L788.3915478696388,645.0662275521663 L776.9788696740969,636.4137517096678 L791.2977179816602,636.1219556421672 Z" fill="hsl(35 92% 62%)" stroke="hsl(48 100% 84%)" stroke-width="1"/></g><g style="transform-origin:960px 625.1878760046959px;animation:wink-fade-loop 3.8s ease-in-out infinite;animation-delay:1.2999999999999998s"><path d="M960,601.1878760046959 L965.6427384220077,617.4213128586964 L982.8253563910837,617.7714681396972 L969.1301425564335,628.1544391506955 L974.1068460550193,644.6042838696947 L960,634.7878760046959 L945.8931539449807,644.6042838696947 L950.8698574435665,628.1544391506955 L937.1746436089163,617.7714681396972 L954.3572615779923,617.4213128586964 Z" fill="hsl(35 92% 62%)" stroke="hsl(48 100% 84%)" stroke-width="1"/></g><g style="transform-origin:1124px 636.3573490078596px;animation:wink-fade-loop 3.8s ease-in-out infinite;animation-delay:1.42s"><path d="M1124,620.3573490078596 L1127.7618256146718,631.1796402438599 L1139.2169042607225,631.4130770978604 L1130.086761704289,638.3350577718593 L1133.4045640366796,649.3016209178588 L1124,642.7573490078596 L1114.5954359633204,649.3016209178588 L1117.913238295711,638.3350577718593 L1108.7830957392775,631.4130770978604 L1120.2381743853282,631.1796402438599 Z" fill="hsl(35 92% 62%)" stroke="hsl(48 100% 84%)" stroke-width="1"/></g><g style="transform-origin:1288px 671.8361515558737px;animation:wink-fade-loop 3.8s ease-in-out infinite;animation-delay:1.54s"><path d="M1288,651.8361515558737 L1292.7022820183397,665.3640156008742 L1307.021130325903,665.6558116683748 L1295.6084521303612,674.3082875108732 L1299.7557050458495,688.0164914433726 L1288,679.8361515558737 L1276.2442949541505,688.0164914433726 L1280.3915478696388,674.3082875108732 L1268.978869674097,665.6558116683748 L1283.2977179816603,665.3640156008742 Z" fill="hsl(35 92% 62%)" stroke="hsl(48 100% 84%)" stroke-width="1"/></g><g style="transform-origin:1452px 718.0725869555432px;animation:wink-fade-loop 3.8s ease-in-out infinite;animation-delay:1.66s"><path d="M1452,694.0725869555432 L1457.6427384220078,710.3060238095437 L1474.8253563910837,710.6561790905445 L1461.1301425564334,721.0391501015428 L1466.1068460550193,737.488994820542 L1452,727.6725869555432 L1437.8931539449807,737.488994820542 L1442.8698574435666,721.0391501015428 L1429.1746436089163,710.6561790905445 L1446.3572615779922,710.3060238095437 Z" fill="hsl(35 92% 62%)" stroke="hsl(48 100% 84%)" stroke-width="1"/></g><g style="transform-origin:1616px 757.4059084028332px;animation:wink-fade-loop 3.8s ease-in-out infinite;animation-delay:1.78s"><path d="M1616,741.4059084028332 L1619.7618256146718,752.2281996388335 L1631.2169042607225,752.461636492834 L1622.086761704289,759.3836171668329 L1625.4045640366796,770.3501803128324 L1616,763.8059084028332 L1606.5954359633204,770.3501803128324 L1609.913238295711,759.3836171668329 L1600.7830957392775,752.461636492834 L1612.2381743853282,752.2281996388335 Z" fill="hsl(35 92% 62%)" stroke="hsl(48 100% 84%)" stroke-width="1"/></g><g style="transform-origin:1780px 774.8121239953041px;animation:wink-fade-loop 3.8s ease-in-out infinite;animation-delay:1.9s"><path d="M1780,754.8121239953041 L1784.7022820183397,768.3399880403045 L1799.021130325903,768.6317841078052 L1787.6084521303612,777.2842599503036 L1791.7557050458495,790.992463882803 L1780,782.8121239953041 L1768.2442949541505,790.992463882803 L1772.3915478696388,777.2842599503036 L1760.978869674097,768.6317841078052 L1775.2977179816603,768.3399880403045 Z" fill="hsl(35 92% 62%)" stroke="hsl(48 100% 84%)" stroke-width="1"/></g><g style="transform-origin:320px 220px;animation:wink-twinkle 2.8s ease-in-out infinite;animation-delay:0.2s"><path d="M320,192 L326.5831948256757,210.93900966300058 L346.6295824562643,211.34752415750148 L330.6518329825057,223.4609903369994 L336.45798706418924,242.65247584249852 L320,231.2 L303.54201293581076,242.65247584249852 L309.3481670174943,223.4609903369994 L293.3704175437357,211.34752415750148 L313.4168051743243,210.93900966300058 Z" fill="hsl(50 100% 78%)" stroke="hsl(48 100% 84%)" stroke-width="1.5"/></g><g style="transform-origin:960px 180px;animation:wink-twinkle 2.8s ease-in-out infinite;animation-delay:0.8s"><path d="M960,146 L967.9938794311777,168.9973688765007 L992.3359215540352,169.4934221912518 L972.9343686216141,184.2026311234993 L979.9846985779441,207.5065778087482 L960,193.6 L940.0153014220559,207.5065778087482 L947.0656313783859,184.2026311234993 L927.6640784459648,169.4934221912518 L952.0061205688223,168.99736887650073 Z" fill="hsl(50 100% 78%)" stroke="hsl(48 100% 84%)" stroke-width="1.5"/></g><g style="transform-origin:1600px 240px;animation:wink-twinkle 2.8s ease-in-out infinite;animation-delay:1.4s"><path d="M1600,214 L1606.1129666238417,231.58622325850055 L1624.727469423674,231.96555814625137 L1609.8909877694696,243.21377674149946 L1615.2824165596044,261.0344418537486 L1600,250.4 L1584.7175834403956,261.0344418537486 L1590.1090122305304,243.21377674149946 L1575.272530576326,231.96555814625137 L1593.8870333761583,231.58622325850055 Z" fill="hsl(50 100% 78%)" stroke="hsl(48 100% 84%)" stroke-width="1.5"/></g></svg>
