<?xml version="1.0" encoding="UTF-8" standalone="no"?>
<svg viewBox="0 0 1920 1080" preserveAspectRatio="xMidYMid meet" xmlns="http://www.w3.org/2000/svg" xmlns:xlink="http://www.w3.org/1999/xlink" width="1920" height="1080"><style>@keyframes wink-burst {
  0% { transform: scale(0); opacity: 0; }
  20% { opacity: 1; }
  60% { transform: scale(1); opacity: 1; }
  100% { transform: scale(1.15); opacity: 0; }
}
@keyframes wink-fade-loop {
  0%, 100% { opacity: 0; }
  10%, 70% { opacity: 1; }
}
@keyframes wink-spark-fall {
  0% { transform: translateY(-40px); opacity: 0; }
  20% { opacity: 1; }
  100% { transform: translateY(220px); opacity: 0; }
}
@keyframes wink-comet {
  0% { transform: translate(0,0) scale(0.6); opacity: 0; }
  30% { opacity: 1; }
  70% { transform: translate(var(--tx,0), var(--ty,-200px)) scale(1); opacity: 1; }
  100% { transform: translate(var(--tx,0), var(--ty,-200px)) scale(1.2); opacity: 0; }
}
@keyframes wink-ring-expand {
  0% { transform: scale(0.1); opacity: 0; stroke-width: 8; }
  20% { opacity: 1; }
  100% { transform: scale(1); opacity: 0; stroke-width: 1; }
}
@keyframes wink-twinkle {
  0%, 100% { transform: scale(0); opacity: 0; }
  50% { transform: scale(1); opacity: 1; }
}
@keyframes wink-pop {
  0% { transform: scale(0) rotate(-20deg); opacity: 0; }
  60% { transform: scale(1.15) rotate(5deg); opacity: 1; }
  80% { transform: scale(1) rotate(0); opacity: 1; }
  100% { transform: scale(1) rotate(0); opacity: 0; }
}
@keyframes wink-swirl {
  0% { transform: rotate(0deg) translateX(180px) scale(0); opacity: 0; }
  20% { opacity: 1; }
  100% { transform: rotate(360deg) translateX(40px) scale(1); opacity: 0; }
}
@keyframes wink-shower {
  0% { transform: translateY(-60px) rotate(0); opacity: 0; }
  15% { opacity: 1; }
  100% { transform: translateY(260px) rotate(180deg); opacity: 0; }
}
@keyframes wink-trail {
  0% { offset-distance: 0%; opacity: 0; transform: scale(0.4); }
  10% { opacity: 1; transform: scale(1); }
  90% { opacity: 1; }
  100% { offset-distance: 100%; opacity: 0; transform: scale(0.6); }
}
@keyframes wink-bounce-in {
  0% { transform: translateY(-300px) scale(0.6); opacity: 0; }
  50% { transform: translateY(20px) scale(1.05); opacity: 1; }
  70% { transform: translateY(-10px) scale(0.98); }
  100% { transform: translateY(0) scale(1); opacity: 1; }
}
@keyframes wink-bounce-loop {
  0%, 100% { transform: translateY(0); }
  50% { transform: translateY(-12px); }
}
@keyframes wink-pop-up {
  0% { transform: translateY(300px); opacity: 0; }
  60% { transform: translateY(-15px); opacity: 1; }
  100% { transform: translateY(0); opacity: 1; }
}
@keyframes wink-orbit {
  from { transform: rotate(0deg) translateX(var(--orbit-r,160px)) rotate(0deg); }
  to { transform: rotate(360deg) translateX(var(--orbit-r,160px)) rotate(-360deg); }
}
@keyframes wink-scatter {
  0%, 100% { transform: translate(var(--sx,0), var(--sy,0)) scale(0.9); opacity: 0.6; }
  50% { transform: translate(calc(var(--sx,0) * 1.2), calc(var(--sy,0) * 1.2)) scale(1.05); opacity: 1; }
}
@keyframes wink-sparkle {
  0%, 100% { opacity: 0; transform: scale(0.5); }
  50% { opacity: 1; transform: scale(1.2); }
}
@keyframes wink-glow-pulse {
  0%, 100% { opacity: 0.4; transform: scale(0.95); }
  50% { opacity: 1; transform: scale(1.05); }
}
@keyframes wink-confetti-launch {
  0% { transform: translate(0,0) rotate(var(--r0,0deg)) scale(0.28); opacity: 0; }
  14% { opacity: 1; }
  72% { transform: translate(var(--tx,0px), var(--ty,0px)) rotate(var(--r1,180deg)) scale(1); opacity: 1; }
  100% { transform: translate(var(--tx,0px), var(--ty,0px)) rotate(var(--r2,320deg)) scale(0.82); opacity: 0; }
}
@keyframes wink-confetti-fall {
  0% { transform: translate(0,-90px) rotate(var(--r0,0deg)) scale(0.7); opacity: 0; }
  14% { opacity: 1; }
  82% { opacity: 1; }
  100% { transform: translate(var(--tx,0px), var(--ty,720px)) rotate(var(--r1,260deg)) scale(1); opacity: 0; }
}
@keyframes wink-confetti-shimmer {
  0%, 100% { transform: rotate(var(--r0,0deg)) scale(0.92); }
  50% { transform: rotate(var(--r1,180deg)) scale(1.08); }
}
@keyframes wink-confetti-wave {
  0% { transform: translate(var(--sx,-180px), var(--sy,0px)) rotate(var(--r0,0deg)) scale(0.5); opacity: 0; }
  18% { opacity: 1; }
  58% { transform: translate(0,0) rotate(var(--r1,180deg)) scale(1); opacity: 1; }
  100% { transform: translate(var(--tx,180px), var(--ty,0px)) rotate(var(--r2,360deg)) scale(0.78); opacity: 0; }
}</style><g style="transform-origin:240px 150px;animation:wink-shower 2.9s linear infinite;animation-delay:0s"><path d="M240,140 L242.35114100916988,146.7639320225002 L249.51056516295154,146.9098300562505 L243.80422606518061,151.2360679774998 L245.87785252292474,158.0901699437495 L240,154 L234.12214747707526,158.0901699437495 L236.19577393481939,151.2360679774998 L230.48943483704846,146.90983005625054 L237.64885899083012,146.7639320225002 Z" fill="hsl(43 94% 60%)" stroke="hsl(48 100% 84%)" stroke-width="1.2"/><circle cx="258" cy="188" r="3" fill="hsl(48 90% 88%)" opacity="0.24"/></g><g style="transform-origin:349px 150px;animation:wink-shower 3.1s linear infinite;animation-delay:0.15s"><path d="M349,137 L352.0564833119209,145.79311162925026 L361.36373471183697,145.9827790731257 L353.9454938847348,151.60688837074972 L356.64120827980213,160.5172209268743 L349,155.2 L341.35879172019787,160.5172209268743 L344.0545061152652,151.60688837074972 L336.63626528816303,145.9827790731257 L345.9435166880791,145.79311162925026 Z" fill="hsl(42 100% 70%)" stroke="hsl(48 100% 84%)" stroke-width="1.2"/><circle cx="367" cy="188" r="3" fill="hsl(48 90% 88%)" opacity="0.24"/></g><g style="transform-origin:458px 150px;animation:wink-shower 3.3s linear infinite;animation-delay:0.3s"><path d="M458,134 L461.7618256146718,144.82229123600032 L473.21690426072246,145.05572809000085 L464.08676170428896,151.97770876399966 L467.4045640366796,162.94427190999915 L458,156.4 L448.5954359633204,162.94427190999915 L451.91323829571104,151.97770876399966 L442.78309573927754,145.05572809000085 L454.2381743853282,144.82229123600032 Z" fill="hsl(48 100% 84%)" stroke="hsl(48 100% 84%)" stroke-width="1.2"/><circle cx="476" cy="188" r="3" fill="hsl(48 90% 88%)" opacity="0.24"/></g><g style="transform-origin:567px 150px;animation:wink-shower 2.9s linear infinite;animation-delay:0.44999999999999996s"><path d="M567,131 L571.4671679174228,143.8514708427504 L585.070073809608,144.128677106876 L574.2280295238431,152.3485291572496 L578.167919793557,165.371322893124 L567,157.6 L555.832080206443,165.371322893124 L559.7719704761569,152.3485291572496 L548.929926190392,144.128677106876 L562.5328320825772,143.8514708427504 Z" fill="hsl(39 84% 52%)" stroke="hsl(48 100% 84%)" stroke-width="1.2"/><circle cx="585" cy="188" r="3" fill="hsl(48 90% 88%)" opacity="0.24"/></g><g style="transform-origin:676px 150px;animation:wink-shower 3.1s linear infinite;animation-delay:0.6s"><path d="M676,140 L678.3511410091699,146.7639320225002 L685.5105651629515,146.9098300562505 L679.8042260651806,151.2360679774998 L681.8778525229247,158.0901699437495 L676,154 L670.1221474770753,158.0901699437495 L672.1957739348194,151.2360679774998 L666.4894348370485,146.90983005625054 L673.6488589908301,146.7639320225002 Z" fill="hsl(50 100% 92%)" stroke="hsl(48 100% 84%)" stroke-width="1.2"/><circle cx="694" cy="188" r="3" fill="hsl(48 90% 88%)" opacity="0.24"/></g><g style="transform-origin:785px 150px;animation:wink-shower 3.3s linear infinite;animation-delay:0.75s"><path d="M785,137 L788.0564833119208,145.79311162925026 L797.363734711837,145.9827790731257 L789.9454938847348,151.60688837074972 L792.6412082798022,160.5172209268743 L785,155.2 L777.3587917201978,160.5172209268743 L780.0545061152652,151.60688837074972 L772.636265288163,145.9827790731257 L781.9435166880792,145.79311162925026 Z" fill="hsl(43 94% 60%)" stroke="hsl(48 100% 84%)" stroke-width="1.2"/><circle cx="803" cy="188" r="3" fill="hsl(48 90% 88%)" opacity="0.24"/></g><g style="transform-origin:894px 150px;animation:wink-shower 2.9s linear infinite;animation-delay:0.8999999999999999s"><path d="M894,134 L897.7618256146718,144.82229123600032 L909.2169042607225,145.05572809000085 L900.086761704289,151.97770876399966 L903.4045640366795,162.94427190999915 L894,156.4 L884.5954359633205,162.94427190999915 L887.913238295711,151.97770876399966 L878.7830957392775,145.05572809000085 L890.2381743853282,144.82229123600032 Z" fill="hsl(42 100% 70%)" stroke="hsl(48 100% 84%)" stroke-width="1.2"/><circle cx="912" cy="188" r="3" fill="hsl(48 90% 88%)" opacity="0.24"/></g><g style="transform-origin:1003px 150px;animation:wink-shower 3.1s linear infinite;animation-delay:1.05s"><path d="M1003,131 L1007.4671679174228,143.8514708427504 L1021.070073809608,144.128677106876 L1010.2280295238431,152.3485291572496 L1014.167919793557,165.371322893124 L1003,157.6 L991.832080206443,165.371322893124 L995.7719704761569,152.3485291572496 L984.929926190392,144.128677106876 L998.5328320825772,143.8514708427504 Z" fill="hsl(48 100% 84%)" stroke="hsl(48 100% 84%)" stroke-width="1.2"/><circle cx="1021" cy="188" r="3" fill="hsl(48 90% 88%)" opacity="0.24"/></g><g style="transform-origin:1112px 150px;animation:wink-shower 3.3s linear infinite;animation-delay:1.2s"><path d="M1112,140 L1114.3511410091699,146.7639320225002 L1121.5105651629515,146.9098300562505 L1115.8042260651805,151.2360679774998 L1117.8778525229247,158.0901699437495 L1112,154 L1106.1221474770753,158.0901699437495 L1108.1957739348195,151.2360679774998 L1102.4894348370485,146.90983005625054 L1109.6488589908301,146.7639320225002 Z" fill="hsl(39 84% 52%)" stroke="hsl(48 100% 84%)" stroke-width="1.2"/><circle cx="1130" cy="188" r="3" fill="hsl(48 90% 88%)" opacity="0.24"/></g><g style="transform-origin:1221px 150px;animation:wink-shower 2.9s linear infinite;animation-delay:1.3499999999999999s"><path d="M1221,137 L1224.0564833119208,145.79311162925026 L1233.363734711837,145.9827790731257 L1225.9454938847348,151.60688837074972 L1228.6412082798022,160.5172209268743 L1221,155.2 L1213.3587917201978,160.5172209268743 L1216.0545061152652,151.60688837074972 L1208.636265288163,145.9827790731257 L1217.9435166880792,145.79311162925026 Z" fill="hsl(50 100% 92%)" stroke="hsl(48 100% 84%)" stroke-width="1.2"/><circle cx="1239" cy="188" r="3" fill="hsl(48 90% 88%)" opacity="0.24"/></g><g style="transform-origin:1330px 150px;animation:wink-shower 3.1s linear infinite;animation-delay:1.5s"><path d="M1330,134 L1333.7618256146718,144.82229123600032 L1345.2169042607225,145.05572809000085 L1336.086761704289,151.97770876399966 L1339.4045640366796,162.94427190999915 L1330,156.4 L1320.5954359633204,162.94427190999915 L1323.913238295711,151.97770876399966 L1314.7830957392775,145.05572809000085 L1326.2381743853282,144.82229123600032 Z" fill="hsl(43 94% 60%)" stroke="hsl(48 100% 84%)" stroke-width="1.2"/><circle cx="1348" cy="188" r="3" fill="hsl(48 90% 88%)" opacity="0.24"/></g><g style="transform-origin:1439px 150px;animation:wink-shower 3.3s linear infinite;animation-delay:1.65s"><path d="M1439,131 L1443.4671679174228,143.8514708427504 L1457.070073809608,144.128677106876 L1446.2280295238431,152.3485291572496 L1450.167919793557,165.371322893124 L1439,157.6 L1427.832080206443,165.371322893124 L1431.7719704761569,152.3485291572496 L1420.929926190392,144.128677106876 L1434.5328320825772,143.8514708427504 Z" fill="hsl(42 100% 70%)" stroke="hsl(48 100% 84%)" stroke-width="1.2"/><circle cx="1457" cy="188" r="3" fill="hsl(48 90% 88%)" opacity="0.24"/></g><g style="transform-origin:1548px 150px;animation:wink-shower 2.9s linear infinite;animation-delay:1.7999999999999998s"><path d="M1548,140 L1550.3511410091699,146.7639320225002 L1557.5105651629515,146.9098300562505 L1551.8042260651805,151.2360679774998 L1553.8778525229247,158.0901699437495 L1548,154 L1542.1221474770753,158.0901699437495 L1544.1957739348195,151.2360679774998 L1538.4894348370485,146.90983005625054 L1545.6488589908301,146.7639320225002 Z" fill="hsl(48 100% 84%)" stroke="hsl(48 100% 84%)" stroke-width="1.2"/><circle cx="1566" cy="188" r="3" fill="hsl(48 90% 88%)" opacity="0.24"/></g><g style="transform-origin:1657px 150px;animation:wink-shower 3.1s linear infinite;animation-delay:1.95s"><path d="M1657,137 L1660.0564833119208,145.79311162925026 L1669.363734711837,145.9827790731257 L1661.9454938847348,151.60688837074972 L1664.6412082798022,160.5172209268743 L1657,155.2 L1649.3587917201978,160.5172209268743 L1652.0545061152652,151.60688837074972 L1644.636265288163,145.9827790731257 L1653.9435166880792,145.79311162925026 Z" fill="hsl(39 84% 52%)" stroke="hsl(48 100% 84%)" stroke-width="1.2"/><circle cx="1675" cy="188" r="3" fill="hsl(48 90% 88%)" opacity="0.24"/></g><g style="transform-origin:326px 150px;animation:wink-shower 3.3s linear infinite;animation-delay:2.1s"><path d="M326,134 L329.7618256146718,144.82229123600032 L341.21690426072246,145.05572809000085 L332.08676170428896,151.97770876399966 L335.4045640366796,162.94427190999915 L326,156.4 L316.5954359633204,162.94427190999915 L319.91323829571104,151.97770876399966 L310.78309573927754,145.05572809000085 L322.2381743853282,144.82229123600032 Z" fill="hsl(50 100% 92%)" stroke="hsl(48 100% 84%)" stroke-width="1.2"/><circle cx="344" cy="188" r="3" fill="hsl(48 90% 88%)" opacity="0.24"/></g><g style="transform-origin:435px 150px;animation:wink-shower 2.9s linear infinite;animation-delay:2.25s"><path d="M435,131 L439.4671679174228,143.8514708427504 L453.0700738096079,144.128677106876 L442.2280295238432,152.3485291572496 L446.16791979355696,165.371322893124 L435,157.6 L423.83208020644304,165.371322893124 L427.7719704761568,152.3485291572496 L416.92992619039205,144.128677106876 L430.5328320825772,143.8514708427504 Z" fill="hsl(43 94% 60%)" stroke="hsl(48 100% 84%)" stroke-width="1.2"/><circle cx="453" cy="188" r="3" fill="hsl(48 90% 88%)" opacity="0.24"/></g></svg>
