<?xml version="1.0" encoding="UTF-8" standalone="no"?>
<svg viewBox="0 0 1920 1080" preserveAspectRatio="xMidYMid meet" xmlns="http://www.w3.org/2000/svg" xmlns:xlink="http://www.w3.org/1999/xlink" width="1920" height="1080"><style>@keyframes wink-burst {
  0% { transform: scale(0); opacity: 0; }
  20% { opacity: 1; }
  60% { transform: scale(1); opacity: 1; }
  100% { transform: scale(1.15); opacity: 0; }
}
@keyframes wink-fade-loop {
  0%, 100% { opacity: 0; }
  10%, 70% { opacity: 1; }
}
@keyframes wink-spark-fall {
  0% { transform: translateY(-40px); opacity: 0; }
  20% { opacity: 1; }
  100% { transform: translateY(220px); opacity: 0; }
}
@keyframes wink-comet {
  0% { transform: translate(0,0) scale(0.6); opacity: 0; }
  30% { opacity: 1; }
  70% { transform: translate(var(--tx,0), var(--ty,-200px)) scale(1); opacity: 1; }
  100% { transform: translate(var(--tx,0), var(--ty,-200px)) scale(1.2); opacity: 0; }
}
@keyframes wink-ring-expand {
  0% { transform: scale(0.1); opacity: 0; stroke-width: 8; }
  20% { opacity: 1; }
  100% { transform: scale(1); opacity: 0; stroke-width: 1; }
}
@keyframes wink-twinkle {
  0%, 100% { transform: scale(0); opacity: 0; }
  50% { transform: scale(1); opacity: 1; }
}
@keyframes wink-pop {
  0% { transform: scale(0) rotate(-20deg); opacity: 0; }
  60% { transform: scale(1.15) rotate(5deg); opacity: 1; }
  80% { transform: scale(1) rotate(0); opacity: 1; }
  100% { transform: scale(1) rotate(0); opacity: 0; }
}
@keyframes wink-swirl {
  0% { transform: rotate(0deg) translateX(180px) scale(0); opacity: 0; }
  20% { opacity: 1; }
  100% { transform: rotate(360deg) translateX(40px) scale(1); opacity: 0; }
}
@keyframes wink-shower {
  0% { transform: translateY(-60px) rotate(0); opacity: 0; }
  15% { opacity: 1; }
  100% { transform: translateY(260px) rotate(180deg); opacity: 0; }
}
@keyframes wink-trail {
  0% { offset-distance: 0%; opacity: 0; transform: scale(0.4); }
  10% { opacity: 1; transform: scale(1); }
  90% { opacity: 1; }
  100% { offset-distance: 100%; opacity: 0; transform: scale(0.6); }
}
@keyframes wink-bounce-in {
  0% { transform: translateY(-300px) scale(0.6); opacity: 0; }
  50% { transform: translateY(20px) scale(1.05); opacity: 1; }
  70% { transform: translateY(-10px) scale(0.98); }
  100% { transform: translateY(0) scale(1); opacity: 1; }
}
@keyframes wink-bounce-loop {
  0%, 100% { transform: translateY(0); }
  50% { transform: translateY(-12px); }
}
@keyframes wink-pop-up {
  0% { transform: translateY(300px); opacity: 0; }
  60% { transform: translateY(-15px); opacity: 1; }
  100% { transform: translateY(0); opacity: 1; }
}
@keyframes wink-orbit {
  from { transform: rotate(0deg) translateX(var(--orbit-r,160px)) rotate(0deg); }
  to { transform: rotate(360deg) translateX(var(--orbit-r,160px)) rotate(-360deg); }
}
@keyframes wink-scatter {
  0%, 100% { transform: translate(var(--sx,0), var(--sy,0)) scale(0.9); opacity: 0.6; }
  50% { transform: translate(calc(var(--sx,0) * 1.2), calc(var(--sy,0) * 1.2)) scale(1.05); opacity: 1; }
}
@keyframes wink-sparkle {
  0%, 100% { opacity: 0; transform: scale(0.5); }
  50% { opacity: 1; transform: scale(1.2); }
}
@keyframes wink-glow-pulse {
  0%, 100% { opacity: 0.4; transform: scale(0.95); }
  50% { opacity: 1; transform: scale(1.05); }
}
@keyframes wink-confetti-launch {
  0% { transform: translate(0,0) rotate(var(--r0,0deg)) scale(0.28); opacity: 0; }
  14% { opacity: 1; }
  72% { transform: translate(var(--tx,0px), var(--ty,0px)) rotate(var(--r1,180deg)) scale(1); opacity: 1; }
  100% { transform: translate(var(--tx,0px), var(--ty,0px)) rotate(var(--r2,320deg)) scale(0.82); opacity: 0; }
}
@keyframes wink-confetti-fall {
  0% { transform: translate(0,-90px) rotate(var(--r0,0deg)) scale(0.7); opacity: 0; }
  14% { opacity: 1; }
  82% { opacity: 1; }
  100% { transform: translate(var(--tx,0px), var(--ty,720px)) rotate(var(--r1,260deg)) scale(1); opacity: 0; }
}
@keyframes wink-confetti-shimmer {
  0%, 100% { transform: rotate(var(--r0,0deg)) scale(0.92); }
  50% { transform: rotate(var(--r1,180deg)) scale(1.08); }
}
@keyframes wink-confetti-wave {
  0% { transform: translate(var(--sx,-180px), var(--sy,0px)) rotate(var(--r0,0deg)) scale(0.5); opacity: 0; }
  18% { opacity: 1; }
  58% { transform: translate(0,0) rotate(var(--r1,180deg)) scale(1); opacity: 1; }
  100% { transform: translate(var(--tx,180px), var(--ty,0px)) rotate(var(--r2,360deg)) scale(0.78); opacity: 0; }
}
@keyframes wink-bingo-arrive {
  0% { transform: translate(var(--from-x,0), var(--from-y,0)) scale(0.34); opacity: 0; }
  18% { opacity: 1; }
  38% { transform: translate(var(--overshoot-x,0), var(--overshoot-y,0)) scale(1.09); opacity: 1; }
  46%, 100% { transform: translate(0,0) scale(1); opacity: 1; }
}
@keyframes wink-bingo-countdown {
  0%, 100% { opacity: 0; transform: scale(0.36); }
  5% { opacity: 1; transform: scale(0.92); }
  10% { opacity: 1; transform: scale(1.06); }
  16% { opacity: 0; transform: scale(1.22); }
}
@keyframes wink-bingo-spiral-letter {
  0% { transform: rotate(var(--spin-start,-220deg)) translateX(var(--orbit-r,320px)) scale(0.3); opacity: 0; }
  22% { opacity: 1; }
  42% { transform: rotate(var(--spin-mid,24deg)) translateX(18px) scale(1.1); opacity: 1; }
  52%, 100% { transform: rotate(0deg) translateX(0) scale(1); opacity: 1; }
}
@keyframes wink-bingo-final-bounce {
  0%, 54%, 100% { transform: translateY(0) scale(1); }
  64% { transform: translateY(-22px) scale(1.06); }
  76% { transform: translateY(0) scale(0.98); }
  88% { transform: translateY(-10px) scale(1.02); }
}
@keyframes wink-bingo-impact {
  0%, 56%, 100% { opacity: 0; transform: scale(0.52); }
  66% { opacity: 0.95; transform: scale(1.04); }
  78% { opacity: 0.38; transform: scale(1.34); }
}</style><g style="--sx:-76px;--sy:-63px;transform-origin:400px 240px;animation:wink-scatter 3.8s ease-in-out infinite, wink-bounce-loop 1.2s ease-in-out infinite;animation-delay:0s, 0s"><ellipse cx="400" cy="272" rx="12.959999999999999" ry="4" fill="black" opacity="0.14"/><circle cx="400" cy="240" r="18" fill="#0278df" stroke="#015cab" stroke-width="1.44"/><circle cx="400" cy="240" r="15.84" fill="none" stroke="rgba(255,255,255,0.2)" stroke-width="1"/><circle cx="400" cy="240" r="10.44" fill="white" stroke="#015cab" stroke-width="1.4"/><text x="400" y="240" text-anchor="middle" dominant-baseline="central" font-family="Arial Black, Trebuchet MS, system-ui, sans-serif" font-weight="900" font-size="15.12" fill="#0278df" stroke="#015cab" stroke-width="0.8" paint-order="stroke">B</text><ellipse cx="393.16" cy="230.28" rx="5.94" ry="3.06" fill="white" opacity="0.5"/><path d="M 390.64 238.2 C 396.76 235.68, 401.44 237.12, 405.4 240.72" fill="none" stroke="rgba(255,255,255,0.22)" stroke-linecap="round" stroke-width="1"/></g><g style="--sx:-38px;--sy:-21px;transform-origin:481px 337px;animation:wink-scatter 3.8s ease-in-out infinite, wink-bounce-loop 1.2s ease-in-out infinite;animation-delay:0.08s, 0.04s"><ellipse cx="481" cy="373" rx="15.84" ry="4" fill="black" opacity="0.14"/><circle cx="481" cy="337" r="22" fill="#f70900" stroke="#c10700" stroke-width="1.76"/><circle cx="481" cy="337" r="19.36" fill="none" stroke="rgba(255,255,255,0.2)" stroke-width="1"/><circle cx="481" cy="337" r="12.76" fill="white" stroke="#c10700" stroke-width="1.4"/><text x="481" y="337" text-anchor="middle" dominant-baseline="central" font-family="Arial Black, Trebuchet MS, system-ui, sans-serif" font-weight="900" font-size="18.48" fill="#f70900" stroke="#c10700" stroke-width="0.8" paint-order="stroke">I</text><ellipse cx="472.64" cy="325.12" rx="7.260000000000001" ry="3.74" fill="white" opacity="0.5"/><path d="M 469.56 334.8 C 477.04 331.72, 482.76 333.48, 487.6 337.88" fill="none" stroke="rgba(255,255,255,0.22)" stroke-linecap="round" stroke-width="1"/></g><g style="--sx:0px;--sy:21px;transform-origin:562px 434px;animation:wink-scatter 3.8s ease-in-out infinite, wink-bounce-loop 1.2s ease-in-out infinite;animation-delay:0.16s, 0.08s"><ellipse cx="562" cy="474" rx="18.72" ry="4.68" fill="black" opacity="0.14"/><circle cx="562" cy="434" r="26" fill="#9610b8" stroke="#740c8f" stroke-width="2.08"/><circle cx="562" cy="434" r="22.88" fill="none" stroke="rgba(255,255,255,0.2)" stroke-width="1.1440000000000001"/><circle cx="562" cy="434" r="15.079999999999998" fill="white" stroke="#740c8f" stroke-width="1.4976"/><text x="562" y="434" text-anchor="middle" dominant-baseline="central" font-family="Arial Black, Trebuchet MS, system-ui, sans-serif" font-weight="900" font-size="21.84" fill="#9610b8" stroke="#740c8f" stroke-width="0.8" paint-order="stroke">N</text><ellipse cx="552.12" cy="419.96" rx="8.58" ry="4.42" fill="white" opacity="0.5"/><path d="M 548.48 431.4 C 557.32 427.76, 564.08 429.84, 569.8 435.04" fill="none" stroke="rgba(255,255,255,0.22)" stroke-linecap="round" stroke-width="1"/></g><g style="--sx:38px;--sy:63px;transform-origin:643px 531px;animation:wink-scatter 3.8s ease-in-out infinite, wink-bounce-loop 1.2s ease-in-out infinite;animation-delay:0.24s, 0.12s"><ellipse cx="643" cy="563" rx="12.959999999999999" ry="4" fill="black" opacity="0.14"/><circle cx="643" cy="531" r="18" fill="#36af0a" stroke="#288407" stroke-width="1.44"/><circle cx="643" cy="531" r="15.84" fill="none" stroke="rgba(255,255,255,0.2)" stroke-width="1"/><circle cx="643" cy="531" r="10.44" fill="white" stroke="#288407" stroke-width="1.4"/><text x="643" y="531" text-anchor="middle" dominant-baseline="central" font-family="Arial Black, Trebuchet MS, system-ui, sans-serif" font-weight="900" font-size="15.12" fill="#36af0a" stroke="#288407" stroke-width="0.8" paint-order="stroke">G</text><ellipse cx="636.16" cy="521.28" rx="5.94" ry="3.06" fill="white" opacity="0.5"/><path d="M 633.64 529.2 C 639.76 526.68, 644.44 528.12, 648.4 531.72" fill="none" stroke="rgba(255,255,255,0.22)" stroke-linecap="round" stroke-width="1"/></g><g style="--sx:76px;--sy:-63px;transform-origin:724px 628px;animation:wink-scatter 3.8s ease-in-out infinite, wink-bounce-loop 1.2s ease-in-out infinite;animation-delay:0.32s, 0.16s"><ellipse cx="724" cy="664" rx="15.84" ry="4" fill="black" opacity="0.14"/><circle cx="724" cy="628" r="22" fill="#f7c901" stroke="#c89d01" stroke-width="1.76"/><circle cx="724" cy="628" r="19.36" fill="none" stroke="rgba(255,255,255,0.2)" stroke-width="1"/><circle cx="724" cy="628" r="12.76" fill="white" stroke="#c89d01" stroke-width="1.4"/><text x="724" y="628" text-anchor="middle" dominant-baseline="central" font-family="Arial Black, Trebuchet MS, system-ui, sans-serif" font-weight="900" font-size="18.48" fill="#f7c901" stroke="#c89d01" stroke-width="0.8" paint-order="stroke">O</text><ellipse cx="715.64" cy="616.12" rx="7.260000000000001" ry="3.74" fill="white" opacity="0.5"/><path d="M 712.56 625.8 C 720.04 622.72, 725.76 624.48, 730.6 628.88" fill="none" stroke="rgba(255,255,255,0.22)" stroke-linecap="round" stroke-width="1"/></g><g style="--sx:-76px;--sy:-21px;transform-origin:805px 725px;animation:wink-scatter 3.8s ease-in-out infinite, wink-bounce-loop 1.2s ease-in-out infinite;animation-delay:0.4s, 0.2s"><ellipse cx="805" cy="765" rx="18.72" ry="4.68" fill="black" opacity="0.14"/><circle cx="805" cy="725" r="26" fill="#0278df" stroke="#015cab" stroke-width="2.08"/><circle cx="805" cy="725" r="22.88" fill="none" stroke="rgba(255,255,255,0.2)" stroke-width="1.1440000000000001"/><circle cx="805" cy="725" r="15.079999999999998" fill="white" stroke="#015cab" stroke-width="1.4976"/><text x="805" y="725" text-anchor="middle" dominant-baseline="central" font-family="Arial Black, Trebuchet MS, system-ui, sans-serif" font-weight="900" font-size="21.84" fill="#0278df" stroke="#015cab" stroke-width="0.8" paint-order="stroke">B</text><ellipse cx="795.12" cy="710.96" rx="8.58" ry="4.42" fill="white" opacity="0.5"/><path d="M 791.48 722.4 C 800.32 718.76, 807.08 720.84, 812.8 726.04" fill="none" stroke="rgba(255,255,255,0.22)" stroke-linecap="round" stroke-width="1"/></g><g style="--sx:-38px;--sy:21px;transform-origin:886px 822px;animation:wink-scatter 3.8s ease-in-out infinite, wink-bounce-loop 1.2s ease-in-out infinite;animation-delay:0.48s, 0.24s"><ellipse cx="886" cy="854" rx="12.959999999999999" ry="4" fill="black" opacity="0.14"/><circle cx="886" cy="822" r="18" fill="#f70900" stroke="#c10700" stroke-width="1.44"/><circle cx="886" cy="822" r="15.84" fill="none" stroke="rgba(255,255,255,0.2)" stroke-width="1"/><circle cx="886" cy="822" r="10.44" fill="white" stroke="#c10700" stroke-width="1.4"/><text x="886" y="822" text-anchor="middle" dominant-baseline="central" font-family="Arial Black, Trebuchet MS, system-ui, sans-serif" font-weight="900" font-size="15.12" fill="#f70900" stroke="#c10700" stroke-width="0.8" paint-order="stroke">I</text><ellipse cx="879.16" cy="812.28" rx="5.94" ry="3.06" fill="white" opacity="0.5"/><path d="M 876.64 820.2 C 882.76 817.68, 887.44 819.12, 891.4 822.72" fill="none" stroke="rgba(255,255,255,0.22)" stroke-linecap="round" stroke-width="1"/></g><g style="--sx:0px;--sy:63px;transform-origin:967px 319px;animation:wink-scatter 3.8s ease-in-out infinite, wink-bounce-loop 1.2s ease-in-out infinite;animation-delay:0.56s, 0.28s"><ellipse cx="967" cy="355" rx="15.84" ry="4" fill="black" opacity="0.14"/><circle cx="967" cy="319" r="22" fill="#9610b8" stroke="#740c8f" stroke-width="1.76"/><circle cx="967" cy="319" r="19.36" fill="none" stroke="rgba(255,255,255,0.2)" stroke-width="1"/><circle cx="967" cy="319" r="12.76" fill="white" stroke="#740c8f" stroke-width="1.4"/><text x="967" y="319" text-anchor="middle" dominant-baseline="central" font-family="Arial Black, Trebuchet MS, system-ui, sans-serif" font-weight="900" font-size="18.48" fill="#9610b8" stroke="#740c8f" stroke-width="0.8" paint-order="stroke">N</text><ellipse cx="958.64" cy="307.12" rx="7.260000000000001" ry="3.74" fill="white" opacity="0.5"/><path d="M 955.56 316.8 C 963.04 313.72, 968.76 315.48, 973.6 319.88" fill="none" stroke="rgba(255,255,255,0.22)" stroke-linecap="round" stroke-width="1"/></g><g style="--sx:38px;--sy:-63px;transform-origin:1048px 416px;animation:wink-scatter 3.8s ease-in-out infinite, wink-bounce-loop 1.2s ease-in-out infinite;animation-delay:0.64s, 0.32s"><ellipse cx="1048" cy="456" rx="18.72" ry="4.68" fill="black" opacity="0.14"/><circle cx="1048" cy="416" r="26" fill="#36af0a" stroke="#288407" stroke-width="2.08"/><circle cx="1048" cy="416" r="22.88" fill="none" stroke="rgba(255,255,255,0.2)" stroke-width="1.1440000000000001"/><circle cx="1048" cy="416" r="15.079999999999998" fill="white" stroke="#288407" stroke-width="1.4976"/><text x="1048" y="416" text-anchor="middle" dominant-baseline="central" font-family="Arial Black, Trebuchet MS, system-ui, sans-serif" font-weight="900" font-size="21.84" fill="#36af0a" stroke="#288407" stroke-width="0.8" paint-order="stroke">G</text><ellipse cx="1038.12" cy="401.96" rx="8.58" ry="4.42" fill="white" opacity="0.5"/><path d="M 1034.48 413.4 C 1043.32 409.76, 1050.08 411.84, 1055.8 417.04" fill="none" stroke="rgba(255,255,255,0.22)" stroke-linecap="round" stroke-width="1"/></g><g style="--sx:76px;--sy:-21px;transform-origin:1129px 513px;animation:wink-scatter 3.8s ease-in-out infinite, wink-bounce-loop 1.2s ease-in-out infinite;animation-delay:0.72s, 0.36s"><ellipse cx="1129" cy="545" rx="12.959999999999999" ry="4" fill="black" opacity="0.14"/><circle cx="1129" cy="513" r="18" fill="#f7c901" stroke="#c89d01" stroke-width="1.44"/><circle cx="1129" cy="513" r="15.84" fill="none" stroke="rgba(255,255,255,0.2)" stroke-width="1"/><circle cx="1129" cy="513" r="10.44" fill="white" stroke="#c89d01" stroke-width="1.4"/><text x="1129" y="513" text-anchor="middle" dominant-baseline="central" font-family="Arial Black, Trebuchet MS, system-ui, sans-serif" font-weight="900" font-size="15.12" fill="#f7c901" stroke="#c89d01" stroke-width="0.8" paint-order="stroke">O</text><ellipse cx="1122.16" cy="503.28" rx="5.94" ry="3.06" fill="white" opacity="0.5"/><path d="M 1119.64 511.2 C 1125.76 508.68, 1130.44 510.12, 1134.4 513.72" fill="none" stroke="rgba(255,255,255,0.22)" stroke-linecap="round" stroke-width="1"/></g><g style="--sx:-76px;--sy:21px;transform-origin:1210px 610px;animation:wink-scatter 3.8s ease-in-out infinite, wink-bounce-loop 1.2s ease-in-out infinite;animation-delay:0.8s, 0.4s"><ellipse cx="1210" cy="646" rx="15.84" ry="4" fill="black" opacity="0.14"/><circle cx="1210" cy="610" r="22" fill="#0278df" stroke="#015cab" stroke-width="1.76"/><circle cx="1210" cy="610" r="19.36" fill="none" stroke="rgba(255,255,255,0.2)" stroke-width="1"/><circle cx="1210" cy="610" r="12.76" fill="white" stroke="#015cab" stroke-width="1.4"/><text x="1210" y="610" text-anchor="middle" dominant-baseline="central" font-family="Arial Black, Trebuchet MS, system-ui, sans-serif" font-weight="900" font-size="18.48" fill="#0278df" stroke="#015cab" stroke-width="0.8" paint-order="stroke">B</text><ellipse cx="1201.64" cy="598.12" rx="7.260000000000001" ry="3.74" fill="white" opacity="0.5"/><path d="M 1198.56 607.8 C 1206.04 604.72, 1211.76 606.48, 1216.6 610.88" fill="none" stroke="rgba(255,255,255,0.22)" stroke-linecap="round" stroke-width="1"/></g><g style="--sx:-38px;--sy:63px;transform-origin:1291px 707px;animation:wink-scatter 3.8s ease-in-out infinite, wink-bounce-loop 1.2s ease-in-out infinite;animation-delay:0.88s, 0.44s"><ellipse cx="1291" cy="747" rx="18.72" ry="4.68" fill="black" opacity="0.14"/><circle cx="1291" cy="707" r="26" fill="#f70900" stroke="#c10700" stroke-width="2.08"/><circle cx="1291" cy="707" r="22.88" fill="none" stroke="rgba(255,255,255,0.2)" stroke-width="1.1440000000000001"/><circle cx="1291" cy="707" r="15.079999999999998" fill="white" stroke="#c10700" stroke-width="1.4976"/><text x="1291" y="707" text-anchor="middle" dominant-baseline="central" font-family="Arial Black, Trebuchet MS, system-ui, sans-serif" font-weight="900" font-size="21.84" fill="#f70900" stroke="#c10700" stroke-width="0.8" paint-order="stroke">I</text><ellipse cx="1281.12" cy="692.96" rx="8.58" ry="4.42" fill="white" opacity="0.5"/><path d="M 1277.48 704.4 C 1286.32 700.76, 1293.08 702.84, 1298.8 708.04" fill="none" stroke="rgba(255,255,255,0.22)" stroke-linecap="round" stroke-width="1"/></g><g style="--sx:0px;--sy:-63px;transform-origin:1372px 804px;animation:wink-scatter 3.8s ease-in-out infinite, wink-bounce-loop 1.2s ease-in-out infinite;animation-delay:0.96s, 0.48s"><ellipse cx="1372" cy="836" rx="12.959999999999999" ry="4" fill="black" opacity="0.14"/><circle cx="1372" cy="804" r="18" fill="#9610b8" stroke="#740c8f" stroke-width="1.44"/><circle cx="1372" cy="804" r="15.84" fill="none" stroke="rgba(255,255,255,0.2)" stroke-width="1"/><circle cx="1372" cy="804" r="10.44" fill="white" stroke="#740c8f" stroke-width="1.4"/><text x="1372" y="804" text-anchor="middle" dominant-baseline="central" font-family="Arial Black, Trebuchet MS, system-ui, sans-serif" font-weight="900" font-size="15.12" fill="#9610b8" stroke="#740c8f" stroke-width="0.8" paint-order="stroke">N</text><ellipse cx="1365.16" cy="794.28" rx="5.94" ry="3.06" fill="white" opacity="0.5"/><path d="M 1362.64 802.2 C 1368.76 799.68, 1373.44 801.12, 1377.4 804.72" fill="none" stroke="rgba(255,255,255,0.22)" stroke-linecap="round" stroke-width="1"/></g><g style="--sx:38px;--sy:-21px;transform-origin:1453px 301px;animation:wink-scatter 3.8s ease-in-out infinite, wink-bounce-loop 1.2s ease-in-out infinite;animation-delay:1.04s, 0.52s"><ellipse cx="1453" cy="337" rx="15.84" ry="4" fill="black" opacity="0.14"/><circle cx="1453" cy="301" r="22" fill="#36af0a" stroke="#288407" stroke-width="1.76"/><circle cx="1453" cy="301" r="19.36" fill="none" stroke="rgba(255,255,255,0.2)" stroke-width="1"/><circle cx="1453" cy="301" r="12.76" fill="white" stroke="#288407" stroke-width="1.4"/><text x="1453" y="301" text-anchor="middle" dominant-baseline="central" font-family="Arial Black, Trebuchet MS, system-ui, sans-serif" font-weight="900" font-size="18.48" fill="#36af0a" stroke="#288407" stroke-width="0.8" paint-order="stroke">G</text><ellipse cx="1444.64" cy="289.12" rx="7.260000000000001" ry="3.74" fill="white" opacity="0.5"/><path d="M 1441.56 298.8 C 1449.04 295.72, 1454.76 297.48, 1459.6 301.88" fill="none" stroke="rgba(255,255,255,0.22)" stroke-linecap="round" stroke-width="1"/></g><g style="--sx:76px;--sy:21px;transform-origin:414px 398px;animation:wink-scatter 3.8s ease-in-out infinite, wink-bounce-loop 1.2s ease-in-out infinite;animation-delay:1.12s, 0.56s"><ellipse cx="414" cy="438" rx="18.72" ry="4.68" fill="black" opacity="0.14"/><circle cx="414" cy="398" r="26" fill="#f7c901" stroke="#c89d01" stroke-width="2.08"/><circle cx="414" cy="398" r="22.88" fill="none" stroke="rgba(255,255,255,0.2)" stroke-width="1.1440000000000001"/><circle cx="414" cy="398" r="15.079999999999998" fill="white" stroke="#c89d01" stroke-width="1.4976"/><text x="414" y="398" text-anchor="middle" dominant-baseline="central" font-family="Arial Black, Trebuchet MS, system-ui, sans-serif" font-weight="900" font-size="21.84" fill="#f7c901" stroke="#c89d01" stroke-width="0.8" paint-order="stroke">O</text><ellipse cx="404.12" cy="383.96" rx="8.58" ry="4.42" fill="white" opacity="0.5"/><path d="M 400.48 395.4 C 409.32 391.76, 416.08 393.84, 421.8 399.04" fill="none" stroke="rgba(255,255,255,0.22)" stroke-linecap="round" stroke-width="1"/></g><g style="--sx:-76px;--sy:63px;transform-origin:495px 495px;animation:wink-scatter 3.8s ease-in-out infinite, wink-bounce-loop 1.2s ease-in-out infinite;animation-delay:0s, 0s"><ellipse cx="495" cy="527" rx="12.959999999999999" ry="4" fill="black" opacity="0.14"/><circle cx="495" cy="495" r="18" fill="#0278df" stroke="#015cab" stroke-width="1.44"/><circle cx="495" cy="495" r="15.84" fill="none" stroke="rgba(255,255,255,0.2)" stroke-width="1"/><circle cx="495" cy="495" r="10.44" fill="white" stroke="#015cab" stroke-width="1.4"/><text x="495" y="495" text-anchor="middle" dominant-baseline="central" font-family="Arial Black, Trebuchet MS, system-ui, sans-serif" font-weight="900" font-size="15.12" fill="#0278df" stroke="#015cab" stroke-width="0.8" paint-order="stroke">B</text><ellipse cx="488.16" cy="485.28" rx="5.94" ry="3.06" fill="white" opacity="0.5"/><path d="M 485.64 493.2 C 491.76 490.68, 496.44 492.12, 500.4 495.72" fill="none" stroke="rgba(255,255,255,0.22)" stroke-linecap="round" stroke-width="1"/></g><g style="transform-origin:260px 120px;animation:wink-shower 3.8s linear infinite;animation-delay:1.56s"><g><ellipse cx="260" cy="152" rx="12.959999999999999" ry="4" fill="black" opacity="0.14"/><circle cx="260" cy="120" r="18" fill="#f70900" stroke="#c10700" stroke-width="1.44"/><circle cx="260" cy="120" r="15.84" fill="none" stroke="rgba(255,255,255,0.2)" stroke-width="1"/><circle cx="260" cy="120" r="10.44" fill="white" stroke="#c10700" stroke-width="1.4"/><text x="260" y="120" text-anchor="middle" dominant-baseline="central" font-family="Arial Black, Trebuchet MS, system-ui, sans-serif" font-weight="900" font-size="15.12" fill="#f70900" stroke="#c10700" stroke-width="0.8" paint-order="stroke">I</text><ellipse cx="253.16" cy="110.28" rx="5.94" ry="3.06" fill="white" opacity="0.5"/><path d="M 250.64 118.2 C 256.76 115.68, 261.44 117.12, 265.4 120.72" fill="none" stroke="rgba(255,255,255,0.22)" stroke-linecap="round" stroke-width="1"/></g></g><g style="transform-origin:415px 120px;animation:wink-shower 3.8s linear infinite;animation-delay:1.6400000000000001s"><g><ellipse cx="415" cy="152" rx="12.959999999999999" ry="4" fill="black" opacity="0.14"/><circle cx="415" cy="120" r="18" fill="#9610b8" stroke="#740c8f" stroke-width="1.44"/><circle cx="415" cy="120" r="15.84" fill="none" stroke="rgba(255,255,255,0.2)" stroke-width="1"/><circle cx="415" cy="120" r="10.44" fill="white" stroke="#740c8f" stroke-width="1.4"/><text x="415" y="120" text-anchor="middle" dominant-baseline="central" font-family="Arial Black, Trebuchet MS, system-ui, sans-serif" font-weight="900" font-size="15.12" fill="#9610b8" stroke="#740c8f" stroke-width="0.8" paint-order="stroke">N</text><ellipse cx="408.16" cy="110.28" rx="5.94" ry="3.06" fill="white" opacity="0.5"/><path d="M 405.64 118.2 C 411.76 115.68, 416.44 117.12, 420.4 120.72" fill="none" stroke="rgba(255,255,255,0.22)" stroke-linecap="round" stroke-width="1"/></g></g><g style="transform-origin:570px 120px;animation:wink-shower 3.8s linear infinite;animation-delay:1.72s"><g><ellipse cx="570" cy="152" rx="12.959999999999999" ry="4" fill="black" opacity="0.14"/><circle cx="570" cy="120" r="18" fill="#36af0a" stroke="#288407" stroke-width="1.44"/><circle cx="570" cy="120" r="15.84" fill="none" stroke="rgba(255,255,255,0.2)" stroke-width="1"/><circle cx="570" cy="120" r="10.44" fill="white" stroke="#288407" stroke-width="1.4"/><text x="570" y="120" text-anchor="middle" dominant-baseline="central" font-family="Arial Black, Trebuchet MS, system-ui, sans-serif" font-weight="900" font-size="15.12" fill="#36af0a" stroke="#288407" stroke-width="0.8" paint-order="stroke">G</text><ellipse cx="563.16" cy="110.28" rx="5.94" ry="3.06" fill="white" opacity="0.5"/><path d="M 560.64 118.2 C 566.76 115.68, 571.44 117.12, 575.4 120.72" fill="none" stroke="rgba(255,255,255,0.22)" stroke-linecap="round" stroke-width="1"/></g></g><g style="transform-origin:725px 120px;animation:wink-shower 3.8s linear infinite;animation-delay:1.8s"><g><ellipse cx="725" cy="152" rx="12.959999999999999" ry="4" fill="black" opacity="0.14"/><circle cx="725" cy="120" r="18" fill="#f7c901" stroke="#c89d01" stroke-width="1.44"/><circle cx="725" cy="120" r="15.84" fill="none" stroke="rgba(255,255,255,0.2)" stroke-width="1"/><circle cx="725" cy="120" r="10.44" fill="white" stroke="#c89d01" stroke-width="1.4"/><text x="725" y="120" text-anchor="middle" dominant-baseline="central" font-family="Arial Black, Trebuchet MS, system-ui, sans-serif" font-weight="900" font-size="15.12" fill="#f7c901" stroke="#c89d01" stroke-width="0.8" paint-order="stroke">O</text><ellipse cx="718.16" cy="110.28" rx="5.94" ry="3.06" fill="white" opacity="0.5"/><path d="M 715.64 118.2 C 721.76 115.68, 726.44 117.12, 730.4 120.72" fill="none" stroke="rgba(255,255,255,0.22)" stroke-linecap="round" stroke-width="1"/></g></g><g style="transform-origin:880px 120px;animation:wink-shower 3.8s linear infinite;animation-delay:1.8800000000000001s"><g><ellipse cx="880" cy="152" rx="12.959999999999999" ry="4" fill="black" opacity="0.14"/><circle cx="880" cy="120" r="18" fill="#0278df" stroke="#015cab" stroke-width="1.44"/><circle cx="880" cy="120" r="15.84" fill="none" stroke="rgba(255,255,255,0.2)" stroke-width="1"/><circle cx="880" cy="120" r="10.44" fill="white" stroke="#015cab" stroke-width="1.4"/><text x="880" y="120" text-anchor="middle" dominant-baseline="central" font-family="Arial Black, Trebuchet MS, system-ui, sans-serif" font-weight="900" font-size="15.12" fill="#0278df" stroke="#015cab" stroke-width="0.8" paint-order="stroke">B</text><ellipse cx="873.16" cy="110.28" rx="5.94" ry="3.06" fill="white" opacity="0.5"/><path d="M 870.64 118.2 C 876.76 115.68, 881.44 117.12, 885.4 120.72" fill="none" stroke="rgba(255,255,255,0.22)" stroke-linecap="round" stroke-width="1"/></g></g><g style="transform-origin:1035px 120px;animation:wink-shower 3.8s linear infinite;animation-delay:1.56s"><g><ellipse cx="1035" cy="152" rx="12.959999999999999" ry="4" fill="black" opacity="0.14"/><circle cx="1035" cy="120" r="18" fill="#f70900" stroke="#c10700" stroke-width="1.44"/><circle cx="1035" cy="120" r="15.84" fill="none" stroke="rgba(255,255,255,0.2)" stroke-width="1"/><circle cx="1035" cy="120" r="10.44" fill="white" stroke="#c10700" stroke-width="1.4"/><text x="1035" y="120" text-anchor="middle" dominant-baseline="central" font-family="Arial Black, Trebuchet MS, system-ui, sans-serif" font-weight="900" font-size="15.12" fill="#f70900" stroke="#c10700" stroke-width="0.8" paint-order="stroke">I</text><ellipse cx="1028.16" cy="110.28" rx="5.94" ry="3.06" fill="white" opacity="0.5"/><path d="M 1025.64 118.2 C 1031.76 115.68, 1036.44 117.12, 1040.4 120.72" fill="none" stroke="rgba(255,255,255,0.22)" stroke-linecap="round" stroke-width="1"/></g></g><g style="transform-origin:1190px 120px;animation:wink-shower 3.8s linear infinite;animation-delay:1.6400000000000001s"><g><ellipse cx="1190" cy="152" rx="12.959999999999999" ry="4" fill="black" opacity="0.14"/><circle cx="1190" cy="120" r="18" fill="#9610b8" stroke="#740c8f" stroke-width="1.44"/><circle cx="1190" cy="120" r="15.84" fill="none" stroke="rgba(255,255,255,0.2)" stroke-width="1"/><circle cx="1190" cy="120" r="10.44" fill="white" stroke="#740c8f" stroke-width="1.4"/><text x="1190" y="120" text-anchor="middle" dominant-baseline="central" font-family="Arial Black, Trebuchet MS, system-ui, sans-serif" font-weight="900" font-size="15.12" fill="#9610b8" stroke="#740c8f" stroke-width="0.8" paint-order="stroke">N</text><ellipse cx="1183.16" cy="110.28" rx="5.94" ry="3.06" fill="white" opacity="0.5"/><path d="M 1180.64 118.2 C 1186.76 115.68, 1191.44 117.12, 1195.4 120.72" fill="none" stroke="rgba(255,255,255,0.22)" stroke-linecap="round" stroke-width="1"/></g></g><g style="transform-origin:1345px 120px;animation:wink-shower 3.8s linear infinite;animation-delay:1.72s"><g><ellipse cx="1345" cy="152" rx="12.959999999999999" ry="4" fill="black" opacity="0.14"/><circle cx="1345" cy="120" r="18" fill="#36af0a" stroke="#288407" stroke-width="1.44"/><circle cx="1345" cy="120" r="15.84" fill="none" stroke="rgba(255,255,255,0.2)" stroke-width="1"/><circle cx="1345" cy="120" r="10.44" fill="white" stroke="#288407" stroke-width="1.4"/><text x="1345" y="120" text-anchor="middle" dominant-baseline="central" font-family="Arial Black, Trebuchet MS, system-ui, sans-serif" font-weight="900" font-size="15.12" fill="#36af0a" stroke="#288407" stroke-width="0.8" paint-order="stroke">G</text><ellipse cx="1338.16" cy="110.28" rx="5.94" ry="3.06" fill="white" opacity="0.5"/><path d="M 1335.64 118.2 C 1341.76 115.68, 1346.44 117.12, 1350.4 120.72" fill="none" stroke="rgba(255,255,255,0.22)" stroke-linecap="round" stroke-width="1"/></g></g><g style="transform-origin:1500px 120px;animation:wink-shower 3.8s linear infinite;animation-delay:1.8s"><g><ellipse cx="1500" cy="152" rx="12.959999999999999" ry="4" fill="black" opacity="0.14"/><circle cx="1500" cy="120" r="18" fill="#f7c901" stroke="#c89d01" stroke-width="1.44"/><circle cx="1500" cy="120" r="15.84" fill="none" stroke="rgba(255,255,255,0.2)" stroke-width="1"/><circle cx="1500" cy="120" r="10.44" fill="white" stroke="#c89d01" stroke-width="1.4"/><text x="1500" y="120" text-anchor="middle" dominant-baseline="central" font-family="Arial Black, Trebuchet MS, system-ui, sans-serif" font-weight="900" font-size="15.12" fill="#f7c901" stroke="#c89d01" stroke-width="0.8" paint-order="stroke">O</text><ellipse cx="1493.16" cy="110.28" rx="5.94" ry="3.06" fill="white" opacity="0.5"/><path d="M 1490.64 118.2 C 1496.76 115.68, 1501.44 117.12, 1505.4 120.72" fill="none" stroke="rgba(255,255,255,0.22)" stroke-linecap="round" stroke-width="1"/></g></g><g style="transform-origin:1655px 120px;animation:wink-shower 3.8s linear infinite;animation-delay:1.8800000000000001s"><g><ellipse cx="1655" cy="152" rx="12.959999999999999" ry="4" fill="black" opacity="0.14"/><circle cx="1655" cy="120" r="18" fill="#0278df" stroke="#015cab" stroke-width="1.44"/><circle cx="1655" cy="120" r="15.84" fill="none" stroke="rgba(255,255,255,0.2)" stroke-width="1"/><circle cx="1655" cy="120" r="10.44" fill="white" stroke="#015cab" stroke-width="1.4"/><text x="1655" y="120" text-anchor="middle" dominant-baseline="central" font-family="Arial Black, Trebuchet MS, system-ui, sans-serif" font-weight="900" font-size="15.12" fill="#0278df" stroke="#015cab" stroke-width="0.8" paint-order="stroke">B</text><ellipse cx="1648.16" cy="110.28" rx="5.94" ry="3.06" fill="white" opacity="0.5"/><path d="M 1645.64 118.2 C 1651.76 115.68, 1656.44 117.12, 1660.4 120.72" fill="none" stroke="rgba(255,255,255,0.22)" stroke-linecap="round" stroke-width="1"/></g></g><g style="transform-origin:960px 540px;animation:wink-burst 3.8s ease-out infinite;animation-delay:1.18s"><circle cx="960" cy="540" r="110" fill="hsl(43 94% 60%)" opacity="0.22"/><g><line x1="960" y1="540" x2="1200" y2="540" stroke="hsl(43 94% 60%)" stroke-width="4" stroke-linecap="round" opacity="0.9"/><path d="M1235,520 L1239.7022820183397,533.5278640450005 L1254.021130325903,533.8196601125011 L1242.6084521303612,542.4721359549995 L1246.7557050458495,556.1803398874989 L1235,548 L1223.2442949541505,556.1803398874989 L1227.3915478696388,542.4721359549995 L1215.978869674097,533.8196601125011 L1230.2977179816603,533.5278640450005 Z" fill="hsl(43 94% 60%)" stroke="hsl(48 100% 84%)" stroke-width="1"/></g><g><line x1="960" y1="540" x2="1167.8460969082653" y2="660" stroke="white" stroke-width="4" stroke-linecap="round" opacity="0.9"/><path d="M1198.1569860407208,657.5 L1202.8592680590605,671.0278640450005 L1217.1781163666237,671.3196601125011 L1205.765438171082,679.9721359549995 L1209.9126910865702,693.6803398874989 L1198.1569860407208,685.5 L1186.4012809948713,693.6803398874989 L1190.5485339103595,679.9721359549995 L1179.1358557148178,671.3196601125011 L1193.454704022381,671.0278640450005 Z" fill="hsl(43 94% 60%)" stroke="hsl(48 100% 84%)" stroke-width="1"/></g><g><line x1="960" y1="540" x2="1080" y2="747.8460969082653" stroke="hsl(43 94% 60%)" stroke-width="4" stroke-linecap="round" opacity="0.9"/><path d="M1097.5,758.1569860407207 L1102.2022820183397,771.6848500857211 L1116.521130325903,771.9766461532217 L1105.1084521303612,780.6291219957202 L1109.2557050458495,794.3373259282196 L1097.5,786.1569860407207 L1085.7442949541505,794.3373259282196 L1089.8915478696388,780.6291219957202 L1078.478869674097,771.9766461532217 L1092.7977179816603,771.6848500857211 Z" fill="hsl(43 94% 60%)" stroke="hsl(48 100% 84%)" stroke-width="1"/></g><g><line x1="960" y1="540" x2="960" y2="780" stroke="white" stroke-width="4" stroke-linecap="round" opacity="0.9"/><path d="M960,795 L964.7022820183398,808.5278640450005 L979.0211303259031,808.8196601125011 L967.6084521303612,817.4721359549995 L971.7557050458495,831.1803398874989 L960,823 L948.2442949541505,831.1803398874989 L952.3915478696388,817.4721359549995 L940.9788696740969,808.8196601125011 L955.2977179816602,808.5278640450005 Z" fill="hsl(43 94% 60%)" stroke="hsl(48 100% 84%)" stroke-width="1"/></g><g><line x1="960" y1="540" x2="840" y2="747.8460969082653" stroke="hsl(43 94% 60%)" stroke-width="4" stroke-linecap="round" opacity="0.9"/><path d="M822.5,758.1569860407207 L827.2022820183398,771.6848500857211 L841.5211303259031,771.9766461532217 L830.1084521303612,780.6291219957202 L834.2557050458495,794.3373259282196 L822.5,786.1569860407207 L810.7442949541505,794.3373259282196 L814.8915478696388,780.6291219957202 L803.4788696740969,771.9766461532217 L817.7977179816602,771.6848500857211 Z" fill="hsl(43 94% 60%)" stroke="hsl(48 100% 84%)" stroke-width="1"/></g><g><line x1="960" y1="540" x2="752.1539030917347" y2="660" stroke="white" stroke-width="4" stroke-linecap="round" opacity="0.9"/><path d="M721.8430139592793,657.5 L726.5452959776192,671.0278640450005 L740.8641442851824,671.3196601125011 L729.4514660896406,679.9721359549995 L733.5987190051288,693.6803398874989 L721.8430139592793,685.5 L710.0873089134299,693.6803398874989 L714.2345618289181,679.9721359549995 L702.8218836333763,671.3196601125011 L717.1407319409395,671.0278640450005 Z" fill="hsl(43 94% 60%)" stroke="hsl(48 100% 84%)" stroke-width="1"/></g><g><line x1="960" y1="540" x2="720" y2="540" stroke="hsl(43 94% 60%)" stroke-width="4" stroke-linecap="round" opacity="0.9"/><path d="M685,520 L689.7022820183398,533.5278640450005 L704.0211303259031,533.8196601125011 L692.6084521303612,542.4721359549995 L696.7557050458495,556.1803398874989 L685,548 L673.2442949541505,556.1803398874989 L677.3915478696388,542.4721359549995 L665.9788696740969,533.8196601125011 L680.2977179816602,533.5278640450005 Z" fill="hsl(43 94% 60%)" stroke="hsl(48 100% 84%)" stroke-width="1"/></g><g><line x1="960" y1="540" x2="752.1539030917347" y2="420.00000000000006" stroke="white" stroke-width="4" stroke-linecap="round" opacity="0.9"/><path d="M721.8430139592793,382.5000000000001 L726.5452959776192,396.0278640450005 L740.8641442851824,396.31966011250114 L729.4514660896406,404.9721359549997 L733.5987190051288,418.6803398874991 L721.8430139592793,410.5000000000001 L710.0873089134299,418.6803398874991 L714.2345618289181,404.9721359549997 L702.8218836333763,396.3196601125012 L717.1407319409395,396.0278640450005 Z" fill="hsl(43 94% 60%)" stroke="hsl(48 100% 84%)" stroke-width="1"/></g><g><line x1="960" y1="540" x2="839.9999999999999" y2="332.1539030917348" stroke="hsl(43 94% 60%)" stroke-width="4" stroke-linecap="round" opacity="0.9"/><path d="M822.4999999999999,281.8430139592794 L827.2022820183397,295.3708780042798 L841.521130325903,295.66267407178043 L830.1084521303611,304.315149914279 L834.2557050458494,318.0233538467784 L822.4999999999999,309.8430139592794 L810.7442949541504,318.0233538467784 L814.8915478696387,304.315149914279 L803.4788696740968,295.66267407178043 L817.7977179816601,295.3708780042798 Z" fill="hsl(43 94% 60%)" stroke="hsl(48 100% 84%)" stroke-width="1"/></g><g><line x1="960" y1="540" x2="960" y2="300" stroke="white" stroke-width="4" stroke-linecap="round" opacity="0.9"/><path d="M960,245 L964.7022820183398,258.5278640450004 L979.0211303259031,258.819660112501 L967.6084521303612,267.4721359549996 L971.7557050458495,281.180339887499 L960,273 L948.2442949541505,281.180339887499 L952.3915478696388,267.4721359549996 L940.9788696740969,258.8196601125011 L955.2977179816602,258.5278640450004 Z" fill="hsl(43 94% 60%)" stroke="hsl(48 100% 84%)" stroke-width="1"/></g><g><line x1="960" y1="540" x2="1080" y2="332.1539030917347" stroke="hsl(43 94% 60%)" stroke-width="4" stroke-linecap="round" opacity="0.9"/><path d="M1097.5,281.84301395927935 L1102.2022820183397,295.37087800427975 L1116.521130325903,295.6626740717804 L1105.1084521303612,304.31514991427895 L1109.2557050458495,318.0233538467783 L1097.5,309.84301395927935 L1085.7442949541505,318.0233538467783 L1089.8915478696388,304.31514991427895 L1078.478869674097,295.66267407178043 L1092.7977179816603,295.37087800427975 Z" fill="hsl(43 94% 60%)" stroke="hsl(48 100% 84%)" stroke-width="1"/></g><g><line x1="960" y1="540" x2="1167.8460969082653" y2="419.9999999999999" stroke="white" stroke-width="4" stroke-linecap="round" opacity="0.9"/><path d="M1198.1569860407205,382.4999999999999 L1202.8592680590602,396.0278640450003 L1217.1781163666235,396.3196601125009 L1205.7654381710818,404.9721359549995 L1209.91269108657,418.68033988749886 L1198.1569860407205,410.4999999999999 L1186.401280994871,418.68033988749886 L1190.5485339103593,404.9721359549995 L1179.1358557148174,396.31966011250097 L1193.4547040223808,396.0278640450003 Z" fill="hsl(43 94% 60%)" stroke="hsl(48 100% 84%)" stroke-width="1"/></g></g><g style="transform-origin:440px 540px;animation:wink-bounce-in 3.8s cubic-bezier(.34,1.56,.64,1) infinite, wink-glow-pulse 1.8s ease-in-out infinite;animation-delay:1.34s, 2.14s"><ellipse cx="440" cy="664" rx="82.5" ry="10" fill="black" opacity="0.18"/><circle cx="440" cy="540" r="110" fill="#0278df" stroke="#015cab" stroke-width="3"/><circle cx="440" cy="540" r="96.8" fill="none" stroke="rgba(255,255,255,0.2)" stroke-width="1.6500000000000001"/><circle cx="440" cy="540" r="68.2" fill="white" stroke="#015cab" stroke-width="2.16"/><text x="440" y="540" text-anchor="middle" dominant-baseline="central" font-family="Arial Black, Trebuchet MS, system-ui, sans-serif" font-weight="900" font-size="96.8" fill="#0278df" stroke="#015cab" stroke-width="2.5168" paint-order="stroke">B</text><ellipse cx="398.2" cy="480.6" rx="36.300000000000004" ry="18.700000000000003" fill="white" opacity="0.5"/><path d="M 382.8 529 C 420.2 513.6, 448.8 522.4, 473 544.4" fill="none" stroke="rgba(255,255,255,0.22)" stroke-linecap="round" stroke-width="1.26"/></g><g style="transform-origin:700px 540px;animation:wink-bounce-in 3.8s cubic-bezier(.34,1.56,.64,1) infinite, wink-glow-pulse 1.8s ease-in-out infinite;animation-delay:1.4100000000000001s, 2.19s"><ellipse cx="700" cy="664" rx="82.5" ry="10" fill="black" opacity="0.18"/><circle cx="700" cy="540" r="110" fill="#f70900" stroke="#c10700" stroke-width="3"/><circle cx="700" cy="540" r="96.8" fill="none" stroke="rgba(255,255,255,0.2)" stroke-width="1.6500000000000001"/><circle cx="700" cy="540" r="68.2" fill="white" stroke="#c10700" stroke-width="2.16"/><text x="700" y="540" text-anchor="middle" dominant-baseline="central" font-family="Arial Black, Trebuchet MS, system-ui, sans-serif" font-weight="900" font-size="96.8" fill="#f70900" stroke="#c10700" stroke-width="2.5168" paint-order="stroke">I</text><ellipse cx="658.2" cy="480.6" rx="36.300000000000004" ry="18.700000000000003" fill="white" opacity="0.5"/><path d="M 642.8 529 C 680.2 513.6, 708.8 522.4, 733 544.4" fill="none" stroke="rgba(255,255,255,0.22)" stroke-linecap="round" stroke-width="1.26"/></g><g style="transform-origin:960px 540px;animation:wink-bounce-in 3.8s cubic-bezier(.34,1.56,.64,1) infinite, wink-glow-pulse 1.8s ease-in-out infinite;animation-delay:1.48s, 2.24s"><ellipse cx="960" cy="664" rx="82.5" ry="10" fill="black" opacity="0.18"/><circle cx="960" cy="540" r="110" fill="#9610b8" stroke="#740c8f" stroke-width="3"/><circle cx="960" cy="540" r="96.8" fill="none" stroke="rgba(255,255,255,0.2)" stroke-width="1.6500000000000001"/><circle cx="960" cy="540" r="68.2" fill="white" stroke="#740c8f" stroke-width="2.16"/><text x="960" y="540" text-anchor="middle" dominant-baseline="central" font-family="Arial Black, Trebuchet MS, system-ui, sans-serif" font-weight="900" font-size="96.8" fill="#9610b8" stroke="#740c8f" stroke-width="2.5168" paint-order="stroke">N</text><ellipse cx="918.2" cy="480.6" rx="36.300000000000004" ry="18.700000000000003" fill="white" opacity="0.5"/><path d="M 902.8 529 C 940.2 513.6, 968.8 522.4, 993 544.4" fill="none" stroke="rgba(255,255,255,0.22)" stroke-linecap="round" stroke-width="1.26"/></g><g style="transform-origin:1220px 540px;animation:wink-bounce-in 3.8s cubic-bezier(.34,1.56,.64,1) infinite, wink-glow-pulse 1.8s ease-in-out infinite;animation-delay:1.55s, 2.29s"><ellipse cx="1220" cy="664" rx="82.5" ry="10" fill="black" opacity="0.18"/><circle cx="1220" cy="540" r="110" fill="#36af0a" stroke="#288407" stroke-width="3"/><circle cx="1220" cy="540" r="96.8" fill="none" stroke="rgba(255,255,255,0.2)" stroke-width="1.6500000000000001"/><circle cx="1220" cy="540" r="68.2" fill="white" stroke="#288407" stroke-width="2.16"/><text x="1220" y="540" text-anchor="middle" dominant-baseline="central" font-family="Arial Black, Trebuchet MS, system-ui, sans-serif" font-weight="900" font-size="96.8" fill="#36af0a" stroke="#288407" stroke-width="2.5168" paint-order="stroke">G</text><ellipse cx="1178.2" cy="480.6" rx="36.300000000000004" ry="18.700000000000003" fill="white" opacity="0.5"/><path d="M 1162.8 529 C 1200.2 513.6, 1228.8 522.4, 1253 544.4" fill="none" stroke="rgba(255,255,255,0.22)" stroke-linecap="round" stroke-width="1.26"/></g><g style="transform-origin:1480px 540px;animation:wink-bounce-in 3.8s cubic-bezier(.34,1.56,.64,1) infinite, wink-glow-pulse 1.8s ease-in-out infinite;animation-delay:1.62s, 2.3400000000000003s"><ellipse cx="1480" cy="664" rx="82.5" ry="10" fill="black" opacity="0.18"/><circle cx="1480" cy="540" r="110" fill="#f7c901" stroke="#c89d01" stroke-width="3"/><circle cx="1480" cy="540" r="96.8" fill="none" stroke="rgba(255,255,255,0.2)" stroke-width="1.6500000000000001"/><circle cx="1480" cy="540" r="68.2" fill="white" stroke="#c89d01" stroke-width="2.16"/><text x="1480" y="540" text-anchor="middle" dominant-baseline="central" font-family="Arial Black, Trebuchet MS, system-ui, sans-serif" font-weight="900" font-size="96.8" fill="#f7c901" stroke="#c89d01" stroke-width="2.5168" paint-order="stroke">O</text><ellipse cx="1438.2" cy="480.6" rx="36.300000000000004" ry="18.700000000000003" fill="white" opacity="0.5"/><path d="M 1422.8 529 C 1460.2 513.6, 1488.8 522.4, 1513 544.4" fill="none" stroke="rgba(255,255,255,0.22)" stroke-linecap="round" stroke-width="1.26"/></g><g style="transform-origin:420px 260px;animation:wink-sparkle 3.8s ease-in-out infinite;animation-delay:1.9s"><path d="M420,242 L424.2320538165058,254.17507764050038 L437.11901729331277,254.43769410125094 L426.8476069173251,262.2249223594996 L430.5801345412645,274.56230589874906 L420,267.2 L409.4198654587355,274.56230589874906 L413.1523930826749,262.2249223594996 L402.88098270668723,254.43769410125094 L415.7679461834942,254.17507764050038 Z" fill="hsl(43 94% 60%)" stroke="hsl(48 100% 84%)" stroke-width="1.2"/></g><g style="transform-origin:960px 170px;animation:wink-sparkle 3.8s ease-in-out infinite;animation-delay:2.02s"><path d="M960,142 L966.5831948256757,160.93900966300058 L986.6295824562643,161.34752415750148 L970.6518329825058,173.4609903369994 L976.4579870641893,192.65247584249852 L960,181.2 L943.5420129358107,192.65247584249852 L949.3481670174942,173.4609903369994 L933.3704175437357,161.34752415750148 L953.4168051743243,160.93900966300058 Z" fill="hsl(43 94% 60%)" stroke="hsl(48 100% 84%)" stroke-width="1.2"/></g><g style="transform-origin:1500px 260px;animation:wink-sparkle 3.8s ease-in-out infinite;animation-delay:2.14s"><path d="M1500,242 L1504.2320538165059,254.17507764050038 L1517.1190172933127,254.43769410125094 L1506.847606917325,262.2249223594996 L1510.5801345412644,274.56230589874906 L1500,267.2 L1489.4198654587356,274.56230589874906 L1493.152393082675,262.2249223594996 L1482.8809827066873,254.43769410125094 L1495.7679461834941,254.17507764050038 Z" fill="hsl(43 94% 60%)" stroke="hsl(48 100% 84%)" stroke-width="1.2"/></g><g style="transform-origin:620px 820px;animation:wink-sparkle 3.8s ease-in-out infinite;animation-delay:2.26s"><path d="M620,806 L623.2915974128379,815.4695048315003 L633.3147912281321,815.6737620787508 L625.3259164912529,821.7304951684997 L628.2289935320946,831.3262379212492 L620,825.6 L611.7710064679054,831.3262379212492 L614.6740835087471,821.7304951684997 L606.6852087718678,815.6737620787508 L616.7084025871621,815.4695048315003 Z" fill="hsl(43 94% 60%)" stroke="hsl(48 100% 84%)" stroke-width="1.2"/></g><g style="transform-origin:1300px 820px;animation:wink-sparkle 3.8s ease-in-out infinite;animation-delay:2.38s"><path d="M1300,806 L1303.2915974128377,815.4695048315003 L1313.3147912281322,815.6737620787508 L1305.3259164912529,821.7304951684997 L1308.2289935320946,831.3262379212492 L1300,825.6 L1291.7710064679054,831.3262379212492 L1294.6740835087471,821.7304951684997 L1286.6852087718678,815.6737620787508 L1296.7084025871623,815.4695048315003 Z" fill="hsl(43 94% 60%)" stroke="hsl(48 100% 84%)" stroke-width="1.2"/></g></svg>
