<?xml version="1.0" encoding="UTF-8" standalone="no"?>
<svg viewBox="0 0 1920 1080" preserveAspectRatio="xMidYMid meet" xmlns="http://www.w3.org/2000/svg" xmlns:xlink="http://www.w3.org/1999/xlink" width="1920" height="1080"><style>@keyframes wink-burst {
  0% { transform: scale(0); opacity: 0; }
  20% { opacity: 1; }
  60% { transform: scale(1); opacity: 1; }
  100% { transform: scale(1.15); opacity: 0; }
}
@keyframes wink-fade-loop {
  0%, 100% { opacity: 0; }
  10%, 70% { opacity: 1; }
}
@keyframes wink-spark-fall {
  0% { transform: translateY(-40px); opacity: 0; }
  20% { opacity: 1; }
  100% { transform: translateY(220px); opacity: 0; }
}
@keyframes wink-comet {
  0% { transform: translate(0,0) scale(0.6); opacity: 0; }
  30% { opacity: 1; }
  70% { transform: translate(var(--tx,0), var(--ty,-200px)) scale(1); opacity: 1; }
  100% { transform: translate(var(--tx,0), var(--ty,-200px)) scale(1.2); opacity: 0; }
}
@keyframes wink-ring-expand {
  0% { transform: scale(0.1); opacity: 0; stroke-width: 8; }
  20% { opacity: 1; }
  100% { transform: scale(1); opacity: 0; stroke-width: 1; }
}
@keyframes wink-twinkle {
  0%, 100% { transform: scale(0); opacity: 0; }
  50% { transform: scale(1); opacity: 1; }
}
@keyframes wink-pop {
  0% { transform: scale(0) rotate(-20deg); opacity: 0; }
  60% { transform: scale(1.15) rotate(5deg); opacity: 1; }
  80% { transform: scale(1) rotate(0); opacity: 1; }
  100% { transform: scale(1) rotate(0); opacity: 0; }
}
@keyframes wink-swirl {
  0% { transform: rotate(0deg) translateX(180px) scale(0); opacity: 0; }
  20% { opacity: 1; }
  100% { transform: rotate(360deg) translateX(40px) scale(1); opacity: 0; }
}
@keyframes wink-shower {
  0% { transform: translateY(-60px) rotate(0); opacity: 0; }
  15% { opacity: 1; }
  100% { transform: translateY(260px) rotate(180deg); opacity: 0; }
}
@keyframes wink-trail {
  0% { offset-distance: 0%; opacity: 0; transform: scale(0.4); }
  10% { opacity: 1; transform: scale(1); }
  90% { opacity: 1; }
  100% { offset-distance: 100%; opacity: 0; transform: scale(0.6); }
}
@keyframes wink-bounce-in {
  0% { transform: translateY(-300px) scale(0.6); opacity: 0; }
  50% { transform: translateY(20px) scale(1.05); opacity: 1; }
  70% { transform: translateY(-10px) scale(0.98); }
  100% { transform: translateY(0) scale(1); opacity: 1; }
}
@keyframes wink-bounce-loop {
  0%, 100% { transform: translateY(0); }
  50% { transform: translateY(-12px); }
}
@keyframes wink-pop-up {
  0% { transform: translateY(300px); opacity: 0; }
  60% { transform: translateY(-15px); opacity: 1; }
  100% { transform: translateY(0); opacity: 1; }
}
@keyframes wink-orbit {
  from { transform: rotate(0deg) translateX(var(--orbit-r,160px)) rotate(0deg); }
  to { transform: rotate(360deg) translateX(var(--orbit-r,160px)) rotate(-360deg); }
}
@keyframes wink-scatter {
  0%, 100% { transform: translate(var(--sx,0), var(--sy,0)) scale(0.9); opacity: 0.6; }
  50% { transform: translate(calc(var(--sx,0) * 1.2), calc(var(--sy,0) * 1.2)) scale(1.05); opacity: 1; }
}
@keyframes wink-sparkle {
  0%, 100% { opacity: 0; transform: scale(0.5); }
  50% { opacity: 1; transform: scale(1.2); }
}
@keyframes wink-glow-pulse {
  0%, 100% { opacity: 0.4; transform: scale(0.95); }
  50% { opacity: 1; transform: scale(1.05); }
}
@keyframes wink-confetti-launch {
  0% { transform: translate(0,0) rotate(var(--r0,0deg)) scale(0.28); opacity: 0; }
  14% { opacity: 1; }
  72% { transform: translate(var(--tx,0px), var(--ty,0px)) rotate(var(--r1,180deg)) scale(1); opacity: 1; }
  100% { transform: translate(var(--tx,0px), var(--ty,0px)) rotate(var(--r2,320deg)) scale(0.82); opacity: 0; }
}
@keyframes wink-confetti-fall {
  0% { transform: translate(0,-90px) rotate(var(--r0,0deg)) scale(0.7); opacity: 0; }
  14% { opacity: 1; }
  82% { opacity: 1; }
  100% { transform: translate(var(--tx,0px), var(--ty,720px)) rotate(var(--r1,260deg)) scale(1); opacity: 0; }
}
@keyframes wink-confetti-shimmer {
  0%, 100% { transform: rotate(var(--r0,0deg)) scale(0.92); }
  50% { transform: rotate(var(--r1,180deg)) scale(1.08); }
}
@keyframes wink-confetti-wave {
  0% { transform: translate(var(--sx,-180px), var(--sy,0px)) rotate(var(--r0,0deg)) scale(0.5); opacity: 0; }
  18% { opacity: 1; }
  58% { transform: translate(0,0) rotate(var(--r1,180deg)) scale(1); opacity: 1; }
  100% { transform: translate(var(--tx,180px), var(--ty,0px)) rotate(var(--r2,360deg)) scale(0.78); opacity: 0; }
}
@keyframes wink-bingo-arrive {
  0% { transform: translate(var(--from-x,0), var(--from-y,0)) scale(0.34); opacity: 0; }
  18% { opacity: 1; }
  38% { transform: translate(var(--overshoot-x,0), var(--overshoot-y,0)) scale(1.09); opacity: 1; }
  46%, 100% { transform: translate(0,0) scale(1); opacity: 1; }
}
@keyframes wink-bingo-countdown {
  0%, 100% { opacity: 0; transform: scale(0.36); }
  5% { opacity: 1; transform: scale(0.92); }
  10% { opacity: 1; transform: scale(1.06); }
  16% { opacity: 0; transform: scale(1.22); }
}
@keyframes wink-bingo-spiral-letter {
  0% { transform: rotate(var(--spin-start,-220deg)) translateX(var(--orbit-r,320px)) scale(0.3); opacity: 0; }
  22% { opacity: 1; }
  42% { transform: rotate(var(--spin-mid,24deg)) translateX(18px) scale(1.1); opacity: 1; }
  52%, 100% { transform: rotate(0deg) translateX(0) scale(1); opacity: 1; }
}
@keyframes wink-bingo-final-bounce {
  0%, 54%, 100% { transform: translateY(0) scale(1); }
  64% { transform: translateY(-22px) scale(1.06); }
  76% { transform: translateY(0) scale(0.98); }
  88% { transform: translateY(-10px) scale(1.02); }
}
@keyframes wink-bingo-impact {
  0%, 56%, 100% { opacity: 0; transform: scale(0.52); }
  66% { opacity: 0.95; transform: scale(1.04); }
  78% { opacity: 0.38; transform: scale(1.34); }
}</style><g opacity="0.2"><ellipse cx="960" cy="540" rx="520" ry="240" fill="none" stroke="hsl(48 100% 84%)" stroke-width="3"/><ellipse cx="960" cy="540" rx="360" ry="170" fill="none" stroke="hsl(43 94% 60%)" stroke-width="2.4"/><ellipse cx="960" cy="540" rx="220" ry="102" fill="none" stroke="white" stroke-width="2"/></g><g transform="translate(960 540)"><g style="--orbit-r:210px;animation:wink-orbit 2.5s linear infinite;animation-delay:0s;transform-origin:0 0"><g><ellipse cx="0" cy="32" rx="12.959999999999999" ry="4" fill="black" opacity="0.14"/><circle cx="0" cy="0" r="18" fill="#0278df" stroke="#015cab" stroke-width="1.44"/><circle cx="0" cy="0" r="15.84" fill="none" stroke="rgba(255,255,255,0.2)" stroke-width="1"/><circle cx="0" cy="0" r="10.44" fill="white" stroke="#015cab" stroke-width="1.4"/><text x="0" y="0" text-anchor="middle" dominant-baseline="central" font-family="Arial Black, Trebuchet MS, system-ui, sans-serif" font-weight="900" font-size="15.12" fill="#0278df" stroke="#015cab" stroke-width="0.8" paint-order="stroke">B</text><ellipse cx="-6.84" cy="-9.72" rx="5.94" ry="3.06" fill="white" opacity="0.5"/><path d="M -9.36 -1.8 C -3.2399999999999998 -4.32, 1.44 -2.88, 5.3999999999999995 0.72" fill="none" stroke="rgba(255,255,255,0.22)" stroke-linecap="round" stroke-width="1"/></g></g></g><g transform="translate(960 540)"><g style="--orbit-r:244px;animation:wink-orbit 2.72s linear infinite;animation-delay:0.09s;transform-origin:0 0"><g><ellipse cx="0" cy="37" rx="16.56" ry="4.14" fill="black" opacity="0.14"/><circle cx="0" cy="0" r="23" fill="#f70900" stroke="#c10700" stroke-width="1.84"/><circle cx="0" cy="0" r="20.24" fill="none" stroke="rgba(255,255,255,0.2)" stroke-width="1.0120000000000002"/><circle cx="0" cy="0" r="13.34" fill="white" stroke="#c10700" stroke-width="1.4"/><text x="0" y="0" text-anchor="middle" dominant-baseline="central" font-family="Arial Black, Trebuchet MS, system-ui, sans-serif" font-weight="900" font-size="19.32" fill="#f70900" stroke="#c10700" stroke-width="0.8" paint-order="stroke">I</text><ellipse cx="-8.74" cy="-12.420000000000002" rx="7.590000000000001" ry="3.91" fill="white" opacity="0.5"/><path d="M -11.96 -2.3000000000000003 C -4.14 -5.52, 1.84 -3.68, 6.8999999999999995 0.92" fill="none" stroke="rgba(255,255,255,0.22)" stroke-linecap="round" stroke-width="1"/></g></g></g><g transform="translate(960 540)"><g style="--orbit-r:278px;animation:wink-orbit 2.94s linear infinite;animation-delay:0.18s;transform-origin:0 0"><g><ellipse cx="0" cy="42" rx="20.16" ry="5.04" fill="black" opacity="0.14"/><circle cx="0" cy="0" r="28" fill="#9610b8" stroke="#740c8f" stroke-width="2.24"/><circle cx="0" cy="0" r="24.64" fill="none" stroke="rgba(255,255,255,0.2)" stroke-width="1.2320000000000002"/><circle cx="0" cy="0" r="16.24" fill="white" stroke="#740c8f" stroke-width="1.6128"/><text x="0" y="0" text-anchor="middle" dominant-baseline="central" font-family="Arial Black, Trebuchet MS, system-ui, sans-serif" font-weight="900" font-size="23.52" fill="#9610b8" stroke="#740c8f" stroke-width="0.8" paint-order="stroke">N</text><ellipse cx="-10.64" cy="-15.120000000000001" rx="9.24" ry="4.760000000000001" fill="white" opacity="0.5"/><path d="M -14.56 -2.8000000000000003 C -5.04 -6.72, 2.24 -4.48, 8.4 1.12" fill="none" stroke="rgba(255,255,255,0.22)" stroke-linecap="round" stroke-width="1"/></g></g></g><g transform="translate(960 540)"><g style="--orbit-r:312px;animation:wink-orbit 3.16s linear infinite;animation-delay:0.27s;transform-origin:0 0"><g><ellipse cx="0" cy="32" rx="12.959999999999999" ry="4" fill="black" opacity="0.14"/><circle cx="0" cy="0" r="18" fill="#36af0a" stroke="#288407" stroke-width="1.44"/><circle cx="0" cy="0" r="15.84" fill="none" stroke="rgba(255,255,255,0.2)" stroke-width="1"/><circle cx="0" cy="0" r="10.44" fill="white" stroke="#288407" stroke-width="1.4"/><text x="0" y="0" text-anchor="middle" dominant-baseline="central" font-family="Arial Black, Trebuchet MS, system-ui, sans-serif" font-weight="900" font-size="15.12" fill="#36af0a" stroke="#288407" stroke-width="0.8" paint-order="stroke">G</text><ellipse cx="-6.84" cy="-9.72" rx="5.94" ry="3.06" fill="white" opacity="0.5"/><path d="M -9.36 -1.8 C -3.2399999999999998 -4.32, 1.44 -2.88, 5.3999999999999995 0.72" fill="none" stroke="rgba(255,255,255,0.22)" stroke-linecap="round" stroke-width="1"/></g></g></g><g transform="translate(960 540)"><g style="--orbit-r:346px;animation:wink-orbit 2.5s linear infinite;animation-delay:0.36s;transform-origin:0 0"><g><ellipse cx="0" cy="37" rx="16.56" ry="4.14" fill="black" opacity="0.14"/><circle cx="0" cy="0" r="23" fill="#f7c901" stroke="#c89d01" stroke-width="1.84"/><circle cx="0" cy="0" r="20.24" fill="none" stroke="rgba(255,255,255,0.2)" stroke-width="1.0120000000000002"/><circle cx="0" cy="0" r="13.34" fill="white" stroke="#c89d01" stroke-width="1.4"/><text x="0" y="0" text-anchor="middle" dominant-baseline="central" font-family="Arial Black, Trebuchet MS, system-ui, sans-serif" font-weight="900" font-size="19.32" fill="#f7c901" stroke="#c89d01" stroke-width="0.8" paint-order="stroke">O</text><ellipse cx="-8.74" cy="-12.420000000000002" rx="7.590000000000001" ry="3.91" fill="white" opacity="0.5"/><path d="M -11.96 -2.3000000000000003 C -4.14 -5.52, 1.84 -3.68, 6.8999999999999995 0.92" fill="none" stroke="rgba(255,255,255,0.22)" stroke-linecap="round" stroke-width="1"/></g></g></g><g transform="translate(960 540)"><g style="--orbit-r:210px;animation:wink-orbit 2.72s linear infinite;animation-delay:0.44999999999999996s;transform-origin:0 0"><g><ellipse cx="0" cy="42" rx="20.16" ry="5.04" fill="black" opacity="0.14"/><circle cx="0" cy="0" r="28" fill="#0278df" stroke="#015cab" stroke-width="2.24"/><circle cx="0" cy="0" r="24.64" fill="none" stroke="rgba(255,255,255,0.2)" stroke-width="1.2320000000000002"/><circle cx="0" cy="0" r="16.24" fill="white" stroke="#015cab" stroke-width="1.6128"/><text x="0" y="0" text-anchor="middle" dominant-baseline="central" font-family="Arial Black, Trebuchet MS, system-ui, sans-serif" font-weight="900" font-size="23.52" fill="#0278df" stroke="#015cab" stroke-width="0.8" paint-order="stroke">B</text><ellipse cx="-10.64" cy="-15.120000000000001" rx="9.24" ry="4.760000000000001" fill="white" opacity="0.5"/><path d="M -14.56 -2.8000000000000003 C -5.04 -6.72, 2.24 -4.48, 8.4 1.12" fill="none" stroke="rgba(255,255,255,0.22)" stroke-linecap="round" stroke-width="1"/></g></g></g><g transform="translate(960 540)"><g style="--orbit-r:244px;animation:wink-orbit 2.94s linear infinite;animation-delay:0.54s;transform-origin:0 0"><g><ellipse cx="0" cy="32" rx="12.959999999999999" ry="4" fill="black" opacity="0.14"/><circle cx="0" cy="0" r="18" fill="#f70900" stroke="#c10700" stroke-width="1.44"/><circle cx="0" cy="0" r="15.84" fill="none" stroke="rgba(255,255,255,0.2)" stroke-width="1"/><circle cx="0" cy="0" r="10.44" fill="white" stroke="#c10700" stroke-width="1.4"/><text x="0" y="0" text-anchor="middle" dominant-baseline="central" font-family="Arial Black, Trebuchet MS, system-ui, sans-serif" font-weight="900" font-size="15.12" fill="#f70900" stroke="#c10700" stroke-width="0.8" paint-order="stroke">I</text><ellipse cx="-6.84" cy="-9.72" rx="5.94" ry="3.06" fill="white" opacity="0.5"/><path d="M -9.36 -1.8 C -3.2399999999999998 -4.32, 1.44 -2.88, 5.3999999999999995 0.72" fill="none" stroke="rgba(255,255,255,0.22)" stroke-linecap="round" stroke-width="1"/></g></g></g><g transform="translate(960 540)"><g style="--orbit-r:278px;animation:wink-orbit 3.16s linear infinite;animation-delay:0.63s;transform-origin:0 0"><g><ellipse cx="0" cy="37" rx="16.56" ry="4.14" fill="black" opacity="0.14"/><circle cx="0" cy="0" r="23" fill="#9610b8" stroke="#740c8f" stroke-width="1.84"/><circle cx="0" cy="0" r="20.24" fill="none" stroke="rgba(255,255,255,0.2)" stroke-width="1.0120000000000002"/><circle cx="0" cy="0" r="13.34" fill="white" stroke="#740c8f" stroke-width="1.4"/><text x="0" y="0" text-anchor="middle" dominant-baseline="central" font-family="Arial Black, Trebuchet MS, system-ui, sans-serif" font-weight="900" font-size="19.32" fill="#9610b8" stroke="#740c8f" stroke-width="0.8" paint-order="stroke">N</text><ellipse cx="-8.74" cy="-12.420000000000002" rx="7.590000000000001" ry="3.91" fill="white" opacity="0.5"/><path d="M -11.96 -2.3000000000000003 C -4.14 -5.52, 1.84 -3.68, 6.8999999999999995 0.92" fill="none" stroke="rgba(255,255,255,0.22)" stroke-linecap="round" stroke-width="1"/></g></g></g><g transform="translate(960 540)"><g style="--orbit-r:312px;animation:wink-orbit 2.5s linear infinite;animation-delay:0.72s;transform-origin:0 0"><g><ellipse cx="0" cy="42" rx="20.16" ry="5.04" fill="black" opacity="0.14"/><circle cx="0" cy="0" r="28" fill="#36af0a" stroke="#288407" stroke-width="2.24"/><circle cx="0" cy="0" r="24.64" fill="none" stroke="rgba(255,255,255,0.2)" stroke-width="1.2320000000000002"/><circle cx="0" cy="0" r="16.24" fill="white" stroke="#288407" stroke-width="1.6128"/><text x="0" y="0" text-anchor="middle" dominant-baseline="central" font-family="Arial Black, Trebuchet MS, system-ui, sans-serif" font-weight="900" font-size="23.52" fill="#36af0a" stroke="#288407" stroke-width="0.8" paint-order="stroke">G</text><ellipse cx="-10.64" cy="-15.120000000000001" rx="9.24" ry="4.760000000000001" fill="white" opacity="0.5"/><path d="M -14.56 -2.8000000000000003 C -5.04 -6.72, 2.24 -4.48, 8.4 1.12" fill="none" stroke="rgba(255,255,255,0.22)" stroke-linecap="round" stroke-width="1"/></g></g></g><g transform="translate(960 540)"><g style="--orbit-r:346px;animation:wink-orbit 2.72s linear infinite;animation-delay:0.8099999999999999s;transform-origin:0 0"><g><ellipse cx="0" cy="32" rx="12.959999999999999" ry="4" fill="black" opacity="0.14"/><circle cx="0" cy="0" r="18" fill="#f7c901" stroke="#c89d01" stroke-width="1.44"/><circle cx="0" cy="0" r="15.84" fill="none" stroke="rgba(255,255,255,0.2)" stroke-width="1"/><circle cx="0" cy="0" r="10.44" fill="white" stroke="#c89d01" stroke-width="1.4"/><text x="0" y="0" text-anchor="middle" dominant-baseline="central" font-family="Arial Black, Trebuchet MS, system-ui, sans-serif" font-weight="900" font-size="15.12" fill="#f7c901" stroke="#c89d01" stroke-width="0.8" paint-order="stroke">O</text><ellipse cx="-6.84" cy="-9.72" rx="5.94" ry="3.06" fill="white" opacity="0.5"/><path d="M -9.36 -1.8 C -3.2399999999999998 -4.32, 1.44 -2.88, 5.3999999999999995 0.72" fill="none" stroke="rgba(255,255,255,0.22)" stroke-linecap="round" stroke-width="1"/></g></g></g><g transform="translate(960 540)"><g style="--orbit-r:210px;animation:wink-orbit 2.94s linear infinite;animation-delay:0.8999999999999999s;transform-origin:0 0"><g><ellipse cx="0" cy="37" rx="16.56" ry="4.14" fill="black" opacity="0.14"/><circle cx="0" cy="0" r="23" fill="#0278df" stroke="#015cab" stroke-width="1.84"/><circle cx="0" cy="0" r="20.24" fill="none" stroke="rgba(255,255,255,0.2)" stroke-width="1.0120000000000002"/><circle cx="0" cy="0" r="13.34" fill="white" stroke="#015cab" stroke-width="1.4"/><text x="0" y="0" text-anchor="middle" dominant-baseline="central" font-family="Arial Black, Trebuchet MS, system-ui, sans-serif" font-weight="900" font-size="19.32" fill="#0278df" stroke="#015cab" stroke-width="0.8" paint-order="stroke">B</text><ellipse cx="-8.74" cy="-12.420000000000002" rx="7.590000000000001" ry="3.91" fill="white" opacity="0.5"/><path d="M -11.96 -2.3000000000000003 C -4.14 -5.52, 1.84 -3.68, 6.8999999999999995 0.92" fill="none" stroke="rgba(255,255,255,0.22)" stroke-linecap="round" stroke-width="1"/></g></g></g><g transform="translate(960 540)"><g style="--orbit-r:244px;animation:wink-orbit 3.16s linear infinite;animation-delay:0.99s;transform-origin:0 0"><g><ellipse cx="0" cy="42" rx="20.16" ry="5.04" fill="black" opacity="0.14"/><circle cx="0" cy="0" r="28" fill="#f70900" stroke="#c10700" stroke-width="2.24"/><circle cx="0" cy="0" r="24.64" fill="none" stroke="rgba(255,255,255,0.2)" stroke-width="1.2320000000000002"/><circle cx="0" cy="0" r="16.24" fill="white" stroke="#c10700" stroke-width="1.6128"/><text x="0" y="0" text-anchor="middle" dominant-baseline="central" font-family="Arial Black, Trebuchet MS, system-ui, sans-serif" font-weight="900" font-size="23.52" fill="#f70900" stroke="#c10700" stroke-width="0.8" paint-order="stroke">I</text><ellipse cx="-10.64" cy="-15.120000000000001" rx="9.24" ry="4.760000000000001" fill="white" opacity="0.5"/><path d="M -14.56 -2.8000000000000003 C -5.04 -6.72, 2.24 -4.48, 8.4 1.12" fill="none" stroke="rgba(255,255,255,0.22)" stroke-linecap="round" stroke-width="1"/></g></g></g><g transform="translate(960 540)"><g style="--orbit-r:278px;animation:wink-orbit 2.5s linear infinite;animation-delay:1.08s;transform-origin:0 0"><g><ellipse cx="0" cy="32" rx="12.959999999999999" ry="4" fill="black" opacity="0.14"/><circle cx="0" cy="0" r="18" fill="#9610b8" stroke="#740c8f" stroke-width="1.44"/><circle cx="0" cy="0" r="15.84" fill="none" stroke="rgba(255,255,255,0.2)" stroke-width="1"/><circle cx="0" cy="0" r="10.44" fill="white" stroke="#740c8f" stroke-width="1.4"/><text x="0" y="0" text-anchor="middle" dominant-baseline="central" font-family="Arial Black, Trebuchet MS, system-ui, sans-serif" font-weight="900" font-size="15.12" fill="#9610b8" stroke="#740c8f" stroke-width="0.8" paint-order="stroke">N</text><ellipse cx="-6.84" cy="-9.72" rx="5.94" ry="3.06" fill="white" opacity="0.5"/><path d="M -9.36 -1.8 C -3.2399999999999998 -4.32, 1.44 -2.88, 5.3999999999999995 0.72" fill="none" stroke="rgba(255,255,255,0.22)" stroke-linecap="round" stroke-width="1"/></g></g></g><g transform="translate(960 540)"><g style="--orbit-r:312px;animation:wink-orbit 2.72s linear infinite;animation-delay:1.17s;transform-origin:0 0"><g><ellipse cx="0" cy="37" rx="16.56" ry="4.14" fill="black" opacity="0.14"/><circle cx="0" cy="0" r="23" fill="#36af0a" stroke="#288407" stroke-width="1.84"/><circle cx="0" cy="0" r="20.24" fill="none" stroke="rgba(255,255,255,0.2)" stroke-width="1.0120000000000002"/><circle cx="0" cy="0" r="13.34" fill="white" stroke="#288407" stroke-width="1.4"/><text x="0" y="0" text-anchor="middle" dominant-baseline="central" font-family="Arial Black, Trebuchet MS, system-ui, sans-serif" font-weight="900" font-size="19.32" fill="#36af0a" stroke="#288407" stroke-width="0.8" paint-order="stroke">G</text><ellipse cx="-8.74" cy="-12.420000000000002" rx="7.590000000000001" ry="3.91" fill="white" opacity="0.5"/><path d="M -11.96 -2.3000000000000003 C -4.14 -5.52, 1.84 -3.68, 6.8999999999999995 0.92" fill="none" stroke="rgba(255,255,255,0.22)" stroke-linecap="round" stroke-width="1"/></g></g></g><g transform="translate(960 540)"><g style="--orbit-r:346px;animation:wink-orbit 2.94s linear infinite;animation-delay:1.26s;transform-origin:0 0"><g><ellipse cx="0" cy="42" rx="20.16" ry="5.04" fill="black" opacity="0.14"/><circle cx="0" cy="0" r="28" fill="#f7c901" stroke="#c89d01" stroke-width="2.24"/><circle cx="0" cy="0" r="24.64" fill="none" stroke="rgba(255,255,255,0.2)" stroke-width="1.2320000000000002"/><circle cx="0" cy="0" r="16.24" fill="white" stroke="#c89d01" stroke-width="1.6128"/><text x="0" y="0" text-anchor="middle" dominant-baseline="central" font-family="Arial Black, Trebuchet MS, system-ui, sans-serif" font-weight="900" font-size="23.52" fill="#f7c901" stroke="#c89d01" stroke-width="0.8" paint-order="stroke">O</text><ellipse cx="-10.64" cy="-15.120000000000001" rx="9.24" ry="4.760000000000001" fill="white" opacity="0.5"/><path d="M -14.56 -2.8000000000000003 C -5.04 -6.72, 2.24 -4.48, 8.4 1.12" fill="none" stroke="rgba(255,255,255,0.22)" stroke-linecap="round" stroke-width="1"/></g></g></g><g transform="translate(960 540)"><g style="--orbit-r:210px;animation:wink-orbit 3.16s linear infinite;animation-delay:1.3499999999999999s;transform-origin:0 0"><g><ellipse cx="0" cy="32" rx="12.959999999999999" ry="4" fill="black" opacity="0.14"/><circle cx="0" cy="0" r="18" fill="#0278df" stroke="#015cab" stroke-width="1.44"/><circle cx="0" cy="0" r="15.84" fill="none" stroke="rgba(255,255,255,0.2)" stroke-width="1"/><circle cx="0" cy="0" r="10.44" fill="white" stroke="#015cab" stroke-width="1.4"/><text x="0" y="0" text-anchor="middle" dominant-baseline="central" font-family="Arial Black, Trebuchet MS, system-ui, sans-serif" font-weight="900" font-size="15.12" fill="#0278df" stroke="#015cab" stroke-width="0.8" paint-order="stroke">B</text><ellipse cx="-6.84" cy="-9.72" rx="5.94" ry="3.06" fill="white" opacity="0.5"/><path d="M -9.36 -1.8 C -3.2399999999999998 -4.32, 1.44 -2.88, 5.3999999999999995 0.72" fill="none" stroke="rgba(255,255,255,0.22)" stroke-linecap="round" stroke-width="1"/></g></g></g><g transform="translate(960 540)"><g style="--orbit-r:244px;animation:wink-orbit 2.5s linear infinite;animation-delay:1.44s;transform-origin:0 0"><g><ellipse cx="0" cy="37" rx="16.56" ry="4.14" fill="black" opacity="0.14"/><circle cx="0" cy="0" r="23" fill="#f70900" stroke="#c10700" stroke-width="1.84"/><circle cx="0" cy="0" r="20.24" fill="none" stroke="rgba(255,255,255,0.2)" stroke-width="1.0120000000000002"/><circle cx="0" cy="0" r="13.34" fill="white" stroke="#c10700" stroke-width="1.4"/><text x="0" y="0" text-anchor="middle" dominant-baseline="central" font-family="Arial Black, Trebuchet MS, system-ui, sans-serif" font-weight="900" font-size="19.32" fill="#f70900" stroke="#c10700" stroke-width="0.8" paint-order="stroke">I</text><ellipse cx="-8.74" cy="-12.420000000000002" rx="7.590000000000001" ry="3.91" fill="white" opacity="0.5"/><path d="M -11.96 -2.3000000000000003 C -4.14 -5.52, 1.84 -3.68, 6.8999999999999995 0.92" fill="none" stroke="rgba(255,255,255,0.22)" stroke-linecap="round" stroke-width="1"/></g></g></g><g transform="translate(960 540)"><g style="--orbit-r:278px;animation:wink-orbit 2.72s linear infinite;animation-delay:1.53s;transform-origin:0 0"><g><ellipse cx="0" cy="42" rx="20.16" ry="5.04" fill="black" opacity="0.14"/><circle cx="0" cy="0" r="28" fill="#9610b8" stroke="#740c8f" stroke-width="2.24"/><circle cx="0" cy="0" r="24.64" fill="none" stroke="rgba(255,255,255,0.2)" stroke-width="1.2320000000000002"/><circle cx="0" cy="0" r="16.24" fill="white" stroke="#740c8f" stroke-width="1.6128"/><text x="0" y="0" text-anchor="middle" dominant-baseline="central" font-family="Arial Black, Trebuchet MS, system-ui, sans-serif" font-weight="900" font-size="23.52" fill="#9610b8" stroke="#740c8f" stroke-width="0.8" paint-order="stroke">N</text><ellipse cx="-10.64" cy="-15.120000000000001" rx="9.24" ry="4.760000000000001" fill="white" opacity="0.5"/><path d="M -14.56 -2.8000000000000003 C -5.04 -6.72, 2.24 -4.48, 8.4 1.12" fill="none" stroke="rgba(255,255,255,0.22)" stroke-linecap="round" stroke-width="1"/></g></g></g><g style="transform-origin:960px 540px;animation:wink-bingo-impact 3.4s ease-out infinite"><ellipse cx="960" cy="540" rx="660" ry="195" fill="hsl(43 94% 60%)" opacity="0.2"/><ellipse cx="960" cy="540" rx="540" ry="125" fill="white" opacity="0.18"/></g><g transform="translate(440 540)"><g style="--orbit-r:324px;--spin-mid:24deg;--spin-start:-320deg;animation:wink-bingo-spiral-letter undefineds cubic-bezier(.2,1,.32,1) infinite;animation-delay:0.14s;transform-origin:0 0"><g style="animation:wink-bingo-final-bounce 3.4s ease-out infinite"><g><ellipse cx="0" cy="124" rx="82.5" ry="10" fill="black" opacity="0.18"/><circle cx="0" cy="0" r="110" fill="#0278df" stroke="#015cab" stroke-width="3"/><circle cx="0" cy="0" r="96.8" fill="none" stroke="rgba(255,255,255,0.2)" stroke-width="1.6500000000000001"/><circle cx="0" cy="0" r="68.2" fill="white" stroke="#015cab" stroke-width="2.16"/><text x="0" y="0" text-anchor="middle" dominant-baseline="central" font-family="Arial Black, Trebuchet MS, system-ui, sans-serif" font-weight="900" font-size="96.8" fill="#0278df" stroke="#015cab" stroke-width="2.5168" paint-order="stroke">B</text><ellipse cx="-41.8" cy="-59.400000000000006" rx="36.300000000000004" ry="18.700000000000003" fill="white" opacity="0.5"/><path d="M -57.2 -11 C -19.8 -26.4, 8.8 -17.6, 33 4.4" fill="none" stroke="rgba(255,255,255,0.22)" stroke-linecap="round" stroke-width="1.26"/></g></g></g></g><g transform="translate(700 540)"><g style="--orbit-r:372px;--spin-mid:24deg;--spin-start:-180deg;animation:wink-bingo-spiral-letter undefineds cubic-bezier(.2,1,.32,1) infinite;animation-delay:0.24000000000000002s;transform-origin:0 0"><g style="animation:wink-bingo-final-bounce 3.4s ease-out infinite"><g><ellipse cx="0" cy="124" rx="82.5" ry="10" fill="black" opacity="0.18"/><circle cx="0" cy="0" r="110" fill="#f70900" stroke="#c10700" stroke-width="3"/><circle cx="0" cy="0" r="96.8" fill="none" stroke="rgba(255,255,255,0.2)" stroke-width="1.6500000000000001"/><circle cx="0" cy="0" r="68.2" fill="white" stroke="#c10700" stroke-width="2.16"/><text x="0" y="0" text-anchor="middle" dominant-baseline="central" font-family="Arial Black, Trebuchet MS, system-ui, sans-serif" font-weight="900" font-size="96.8" fill="#f70900" stroke="#c10700" stroke-width="2.5168" paint-order="stroke">I</text><ellipse cx="-41.8" cy="-59.400000000000006" rx="36.300000000000004" ry="18.700000000000003" fill="white" opacity="0.5"/><path d="M -57.2 -11 C -19.8 -26.4, 8.8 -17.6, 33 4.4" fill="none" stroke="rgba(255,255,255,0.22)" stroke-linecap="round" stroke-width="1.26"/></g></g></g></g><g transform="translate(960 540)"><g style="--orbit-r:420px;--spin-mid:-24deg;--spin-start:-40deg;animation:wink-bingo-spiral-letter undefineds cubic-bezier(.2,1,.32,1) infinite;animation-delay:0.34s;transform-origin:0 0"><g style="animation:wink-bingo-final-bounce 3.4s ease-out infinite"><g><ellipse cx="0" cy="124" rx="82.5" ry="10" fill="black" opacity="0.18"/><circle cx="0" cy="0" r="110" fill="#9610b8" stroke="#740c8f" stroke-width="3"/><circle cx="0" cy="0" r="96.8" fill="none" stroke="rgba(255,255,255,0.2)" stroke-width="1.6500000000000001"/><circle cx="0" cy="0" r="68.2" fill="white" stroke="#740c8f" stroke-width="2.16"/><text x="0" y="0" text-anchor="middle" dominant-baseline="central" font-family="Arial Black, Trebuchet MS, system-ui, sans-serif" font-weight="900" font-size="96.8" fill="#9610b8" stroke="#740c8f" stroke-width="2.5168" paint-order="stroke">N</text><ellipse cx="-41.8" cy="-59.400000000000006" rx="36.300000000000004" ry="18.700000000000003" fill="white" opacity="0.5"/><path d="M -57.2 -11 C -19.8 -26.4, 8.8 -17.6, 33 4.4" fill="none" stroke="rgba(255,255,255,0.22)" stroke-linecap="round" stroke-width="1.26"/></g></g></g></g><g transform="translate(1220 540)"><g style="--orbit-r:372px;--spin-mid:-24deg;--spin-start:100deg;animation:wink-bingo-spiral-letter undefineds cubic-bezier(.2,1,.32,1) infinite;animation-delay:0.44000000000000006s;transform-origin:0 0"><g style="animation:wink-bingo-final-bounce 3.4s ease-out infinite"><g><ellipse cx="0" cy="124" rx="82.5" ry="10" fill="black" opacity="0.18"/><circle cx="0" cy="0" r="110" fill="#36af0a" stroke="#288407" stroke-width="3"/><circle cx="0" cy="0" r="96.8" fill="none" stroke="rgba(255,255,255,0.2)" stroke-width="1.6500000000000001"/><circle cx="0" cy="0" r="68.2" fill="white" stroke="#288407" stroke-width="2.16"/><text x="0" y="0" text-anchor="middle" dominant-baseline="central" font-family="Arial Black, Trebuchet MS, system-ui, sans-serif" font-weight="900" font-size="96.8" fill="#36af0a" stroke="#288407" stroke-width="2.5168" paint-order="stroke">G</text><ellipse cx="-41.8" cy="-59.400000000000006" rx="36.300000000000004" ry="18.700000000000003" fill="white" opacity="0.5"/><path d="M -57.2 -11 C -19.8 -26.4, 8.8 -17.6, 33 4.4" fill="none" stroke="rgba(255,255,255,0.22)" stroke-linecap="round" stroke-width="1.26"/></g></g></g></g><g transform="translate(1480 540)"><g style="--orbit-r:324px;--spin-mid:-24deg;--spin-start:240deg;animation:wink-bingo-spiral-letter undefineds cubic-bezier(.2,1,.32,1) infinite;animation-delay:0.54s;transform-origin:0 0"><g style="animation:wink-bingo-final-bounce 3.4s ease-out infinite"><g><ellipse cx="0" cy="124" rx="82.5" ry="10" fill="black" opacity="0.18"/><circle cx="0" cy="0" r="110" fill="#f7c901" stroke="#c89d01" stroke-width="3"/><circle cx="0" cy="0" r="96.8" fill="none" stroke="rgba(255,255,255,0.2)" stroke-width="1.6500000000000001"/><circle cx="0" cy="0" r="68.2" fill="white" stroke="#c89d01" stroke-width="2.16"/><text x="0" y="0" text-anchor="middle" dominant-baseline="central" font-family="Arial Black, Trebuchet MS, system-ui, sans-serif" font-weight="900" font-size="96.8" fill="#f7c901" stroke="#c89d01" stroke-width="2.5168" paint-order="stroke">O</text><ellipse cx="-41.8" cy="-59.400000000000006" rx="36.300000000000004" ry="18.700000000000003" fill="white" opacity="0.5"/><path d="M -57.2 -11 C -19.8 -26.4, 8.8 -17.6, 33 4.4" fill="none" stroke="rgba(255,255,255,0.22)" stroke-linecap="round" stroke-width="1.26"/></g></g></g></g><g style="transform-origin:960px 540px;animation:wink-bingo-impact 3.4s ease-out infinite"><path d="M1350,525 L1353.526711513755,535.1458980337503 L1364.2658477444272,535.3647450843758 L1355.706339097771,541.8541019662497 L1358.816778784387,552.1352549156242 L1350,546 L1341.183221215613,552.1352549156242 L1344.293660902229,541.8541019662497 L1335.7341522555728,535.3647450843758 L1346.473288486245,535.1458980337503 Z" fill="hsl(43 94% 60%)" stroke="white" stroke-width="1.1"/><path d="M1258.7573328164015,639.9157077920097 L1263.2245007338242,652.7671786347601 L1276.8274066260094,653.0443848988857 L1265.9853623402446,661.2642369492593 L1269.9252526099585,674.2870306851337 L1258.7573328164015,666.5157077920097 L1247.5894130228444,674.2870306851337 L1251.5293032925583,661.2642369492593 L1240.6872590067935,653.0443848988857 L1254.2901648989787,652.7671786347601 Z" fill="hsl(48 100% 84%)" stroke="white" stroke-width="1.1"/><path d="M1027.7227892901028,699.1894343072585 L1033.1304136111935,714.746477959009 L1049.5970891648913,715.0820434366346 L1036.4725092400183,725.032390655508 L1041.2418500928297,740.7968251778823 L1027.7227892901028,731.3894343072585 L1014.2037284873759,740.7968251778823 L1018.9730693401874,725.032390655508 L1005.8484894153142,715.0820434366346 L1022.315164969012,714.746477959009 Z" fill="hsl(43 94% 60%)" stroke="white" stroke-width="1.1"/><path d="M765.0000000000001,685.2146997001212 L768.526711513755,695.3605977338715 L779.2658477444274,695.579444784497 L770.706339097771,702.0688016663709 L773.8167787843872,712.3499546157453 L765.0000000000001,706.2146997001212 L756.183221215613,712.3499546157453 L759.2936609022292,702.0688016663709 L750.7341522555728,695.579444784497 L761.4732884862452,695.3605977338715 Z" fill="hsl(48 100% 84%)" stroke="white" stroke-width="1.1"/><path d="M593.5198778934957,584.2737265152488 L597.9870458109185,597.1251973579991 L611.5899517031037,597.4024036221248 L600.7479074173389,605.6222556724983 L604.6877976870527,618.6450494083728 L593.5198778934957,610.8737265152488 L582.3519580999388,618.6450494083728 L586.2918483696526,605.6222556724983 L575.4498040838878,597.4024036221248 L589.052709976073,597.1251973579991 Z" fill="hsl(43 94% 60%)" stroke="white" stroke-width="1.1"/><path d="M593.5198778934957,453.7262734847513 L598.9275022145865,469.28331713650175 L615.3941777682843,469.6188826141275 L602.2695978434111,479.5692298330008 L607.0389386962227,495.3336643553751 L593.5198778934957,485.9262734847513 L580.0008170907688,495.3336643553751 L584.7701579435803,479.5692298330008 L571.6455780187072,469.61888261412753 L588.1122535724049,469.28331713650175 Z" fill="hsl(48 100% 84%)" stroke="white" stroke-width="1.1"/><path d="M764.9999999999998,364.7853002998789 L768.5267115137547,374.9311983336292 L779.2658477444271,375.15004538425467 L770.7063390977706,381.63940226612857 L773.8167787843869,391.9205552155031 L764.9999999999998,385.7853002998789 L756.1832212156127,391.9205552155031 L759.2936609022289,381.63940226612857 L750.7341522555724,375.15004538425467 L761.4732884862449,374.9311983336292 Z" fill="hsl(43 94% 60%)" stroke="white" stroke-width="1.1"/><path d="M1027.7227892901026,338.81056569274153 L1032.1899572075254,351.66203653549195 L1045.7928630997105,351.93924279961755 L1034.9508188139457,360.1590948499911 L1038.8907090836597,373.1818885858655 L1027.7227892901026,365.41056569274156 L1016.5548694965456,373.1818885858655 L1020.4947597662594,360.15909484999116 L1009.6527154804946,351.93924279961755 L1023.2556213726798,351.66203653549195 Z" fill="hsl(48 100% 84%)" stroke="white" stroke-width="1.1"/><path d="M1258.7573328164012,398.0842922079902 L1264.164957137492,413.64133585974065 L1280.6316326911897,413.97690133736637 L1267.5070527663167,423.9272485562397 L1272.2763936191282,439.691683078614 L1258.7573328164012,430.2842922079902 L1245.2382720136743,439.691683078614 L1250.0076128664857,423.9272485562397 L1236.8830329416128,413.9769013373664 L1253.3497084953106,413.64133585974065 Z" fill="hsl(43 94% 60%)" stroke="white" stroke-width="1.1"/></g></svg>
