<?xml version="1.0" encoding="UTF-8" standalone="no"?>
<svg viewBox="0 0 1920 1080" preserveAspectRatio="xMidYMid meet" xmlns="http://www.w3.org/2000/svg" xmlns:xlink="http://www.w3.org/1999/xlink" width="1920" height="1080"><style>@keyframes wink-burst {
  0% { transform: scale(0); opacity: 0; }
  20% { opacity: 1; }
  60% { transform: scale(1); opacity: 1; }
  100% { transform: scale(1.15); opacity: 0; }
}
@keyframes wink-fade-loop {
  0%, 100% { opacity: 0; }
  10%, 70% { opacity: 1; }
}
@keyframes wink-spark-fall {
  0% { transform: translateY(-40px); opacity: 0; }
  20% { opacity: 1; }
  100% { transform: translateY(220px); opacity: 0; }
}
@keyframes wink-comet {
  0% { transform: translate(0,0) scale(0.6); opacity: 0; }
  30% { opacity: 1; }
  70% { transform: translate(var(--tx,0), var(--ty,-200px)) scale(1); opacity: 1; }
  100% { transform: translate(var(--tx,0), var(--ty,-200px)) scale(1.2); opacity: 0; }
}
@keyframes wink-ring-expand {
  0% { transform: scale(0.1); opacity: 0; stroke-width: 8; }
  20% { opacity: 1; }
  100% { transform: scale(1); opacity: 0; stroke-width: 1; }
}
@keyframes wink-twinkle {
  0%, 100% { transform: scale(0); opacity: 0; }
  50% { transform: scale(1); opacity: 1; }
}
@keyframes wink-pop {
  0% { transform: scale(0) rotate(-20deg); opacity: 0; }
  60% { transform: scale(1.15) rotate(5deg); opacity: 1; }
  80% { transform: scale(1) rotate(0); opacity: 1; }
  100% { transform: scale(1) rotate(0); opacity: 0; }
}
@keyframes wink-swirl {
  0% { transform: rotate(0deg) translateX(180px) scale(0); opacity: 0; }
  20% { opacity: 1; }
  100% { transform: rotate(360deg) translateX(40px) scale(1); opacity: 0; }
}
@keyframes wink-shower {
  0% { transform: translateY(-60px) rotate(0); opacity: 0; }
  15% { opacity: 1; }
  100% { transform: translateY(260px) rotate(180deg); opacity: 0; }
}
@keyframes wink-trail {
  0% { offset-distance: 0%; opacity: 0; transform: scale(0.4); }
  10% { opacity: 1; transform: scale(1); }
  90% { opacity: 1; }
  100% { offset-distance: 100%; opacity: 0; transform: scale(0.6); }
}
@keyframes wink-bounce-in {
  0% { transform: translateY(-300px) scale(0.6); opacity: 0; }
  50% { transform: translateY(20px) scale(1.05); opacity: 1; }
  70% { transform: translateY(-10px) scale(0.98); }
  100% { transform: translateY(0) scale(1); opacity: 1; }
}
@keyframes wink-bounce-loop {
  0%, 100% { transform: translateY(0); }
  50% { transform: translateY(-12px); }
}
@keyframes wink-pop-up {
  0% { transform: translateY(300px); opacity: 0; }
  60% { transform: translateY(-15px); opacity: 1; }
  100% { transform: translateY(0); opacity: 1; }
}
@keyframes wink-featured-pop {
  0%, 100% { transform: translateY(0) scale(0.78) rotate(-6deg); opacity: 1; }
  12% { transform: translateY(-26px) scale(1.3) rotate(4deg); opacity: 1; }
  22% { transform: translateY(10px) scale(0.95) rotate(-2deg); opacity: 1; }
  34%, 76% { transform: translateY(0) scale(1) rotate(0deg); opacity: 1; }
  88% { transform: translateY(-8px) scale(1.06) rotate(0deg); opacity: 1; }
}
@keyframes wink-featured-burst {
  0%, 40%, 100% { transform: scale(0.38); opacity: 0; }
  48% { transform: scale(0.92); opacity: 0.95; }
  60% { transform: scale(1.18); opacity: 0.42; }
  72% { transform: scale(1.34); opacity: 0; }
}
@keyframes wink-orbit {
  from { transform: rotate(0deg) translateX(var(--orbit-r,160px)) rotate(0deg); }
  to { transform: rotate(360deg) translateX(var(--orbit-r,160px)) rotate(-360deg); }
}
@keyframes wink-scatter {
  0%, 100% { transform: translate(var(--sx,0), var(--sy,0)) scale(0.9); opacity: 0.6; }
  50% { transform: translate(calc(var(--sx,0) * 1.2), calc(var(--sy,0) * 1.2)) scale(1.05); opacity: 1; }
}
@keyframes wink-sparkle {
  0%, 100% { opacity: 0; transform: scale(0.5); }
  50% { opacity: 1; transform: scale(1.2); }
}
@keyframes wink-glow-pulse {
  0%, 100% { opacity: 0.4; transform: scale(0.95); }
  50% { opacity: 1; transform: scale(1.05); }
}
@keyframes wink-confetti-launch {
  0% { transform: translate(0,0) rotate(var(--r0,0deg)) scale(0.28); opacity: 0; }
  14% { opacity: 1; }
  72% { transform: translate(var(--tx,0px), var(--ty,0px)) rotate(var(--r1,180deg)) scale(1); opacity: 1; }
  100% { transform: translate(var(--tx,0px), var(--ty,0px)) rotate(var(--r2,320deg)) scale(0.82); opacity: 0; }
}
@keyframes wink-confetti-fall {
  0% { transform: translate(0,-90px) rotate(var(--r0,0deg)) scale(0.7); opacity: 0; }
  14% { opacity: 1; }
  82% { opacity: 1; }
  100% { transform: translate(var(--tx,0px), var(--ty,720px)) rotate(var(--r1,260deg)) scale(1); opacity: 0; }
}
@keyframes wink-confetti-shimmer {
  0%, 100% { transform: rotate(var(--r0,0deg)) scale(0.92); }
  50% { transform: rotate(var(--r1,180deg)) scale(1.08); }
}
@keyframes wink-confetti-wave {
  0% { transform: translate(var(--sx,-180px), var(--sy,0px)) rotate(var(--r0,0deg)) scale(0.5); opacity: 0; }
  18% { opacity: 1; }
  58% { transform: translate(0,0) rotate(var(--r1,180deg)) scale(1); opacity: 1; }
  100% { transform: translate(var(--tx,180px), var(--ty,0px)) rotate(var(--r2,360deg)) scale(0.78); opacity: 0; }
}
@keyframes wink-bingo-arrive {
  0% { transform: translate(var(--from-x,0), var(--from-y,0)) scale(0.34); opacity: 0; }
  18% { opacity: 1; }
  38% { transform: translate(var(--overshoot-x,0), var(--overshoot-y,0)) scale(1.09); opacity: 1; }
  46%, 100% { transform: translate(0,0) scale(1); opacity: 1; }
}
@keyframes wink-bingo-countdown {
  0%, 100% { opacity: 0; transform: scale(0.36); }
  5% { opacity: 1; transform: scale(0.92); }
  10% { opacity: 1; transform: scale(1.06); }
  16% { opacity: 0; transform: scale(1.22); }
}
@keyframes wink-bingo-spiral-letter {
  0% { transform: rotate(var(--spin-start,-220deg)) translateX(var(--orbit-r,320px)) scale(0.3); opacity: 0; }
  22% { opacity: 1; }
  42% { transform: rotate(var(--spin-mid,24deg)) translateX(18px) scale(1.1); opacity: 1; }
  52%, 100% { transform: rotate(0deg) translateX(0) scale(1); opacity: 1; }
}
@keyframes wink-bingo-final-bounce {
  0%, 54%, 100% { transform: translateY(0) scale(1); }
  64% { transform: translateY(-22px) scale(1.06); }
  76% { transform: translateY(0) scale(0.98); }
  88% { transform: translateY(-10px) scale(1.02); }
}
@keyframes wink-bingo-impact {
  0%, 56%, 100% { opacity: 0; transform: scale(0.52); }
  66% { opacity: 0.95; transform: scale(1.04); }
  78% { opacity: 0.38; transform: scale(1.34); }
}</style><defs><radialGradient id="fwh-heart-glow" cx="50%" cy="50%" r="50%"><stop offset="0%" stop-color="white" stop-opacity="0.86"/><stop offset="24%" stop-color="hsl(345 90% 68%)" stop-opacity="0.44"/><stop offset="58%" stop-color="hsl(282 82% 70%)" stop-opacity="0.12"/><stop offset="100%" stop-color="hsl(282 82% 70%)" stop-opacity="0"/></radialGradient><linearGradient x1="0" x2="0" y1="0" y2="1" data-wink-edge-fade="true" id="wink-edge-fade-mask-top"><stop offset="0%" stop-color="#000"/><stop offset="100%" stop-color="#fff"/></linearGradient><linearGradient x1="0" x2="0" y1="0" y2="1" data-wink-edge-fade="true" id="wink-edge-fade-mask-bottom"><stop offset="0%" stop-color="#fff"/><stop offset="100%" stop-color="#000"/></linearGradient><linearGradient x1="0" x2="1" y1="0" y2="0" data-wink-edge-fade="true" id="wink-edge-fade-mask-left"><stop offset="0%" stop-color="#000"/><stop offset="100%" stop-color="#fff"/></linearGradient><linearGradient x1="0" x2="1" y1="0" y2="0" data-wink-edge-fade="true" id="wink-edge-fade-mask-right"><stop offset="0%" stop-color="#fff"/><stop offset="100%" stop-color="#000"/></linearGradient><radialGradient cx="100%" cy="100%" r="100%" data-wink-edge-fade="true" id="wink-edge-fade-mask-top-left"><stop offset="0%" stop-color="#fff"/><stop offset="100%" stop-color="#000"/></radialGradient><radialGradient cx="0%" cy="100%" r="100%" data-wink-edge-fade="true" id="wink-edge-fade-mask-top-right"><stop offset="0%" stop-color="#fff"/><stop offset="100%" stop-color="#000"/></radialGradient><radialGradient cx="100%" cy="0%" r="100%" data-wink-edge-fade="true" id="wink-edge-fade-mask-bottom-left"><stop offset="0%" stop-color="#fff"/><stop offset="100%" stop-color="#000"/></radialGradient><radialGradient cx="0%" cy="0%" r="100%" data-wink-edge-fade="true" id="wink-edge-fade-mask-bottom-right"><stop offset="0%" stop-color="#fff"/><stop offset="100%" stop-color="#000"/></radialGradient><mask data-wink-edge-fade="true" height="1080" id="wink-edge-fade-mask" maskContentUnits="userSpaceOnUse" maskUnits="userSpaceOnUse" mask-type="alpha" width="1920" x="0" y="0"><rect fill="#000" height="1080" width="1920" x="0" y="0"/><rect fill="#fff" height="864" width="1536" x="192" y="108"/><rect fill="url(#wink-edge-fade-mask-top)" height="108" width="1536" x="192" y="0"/><rect fill="url(#wink-edge-fade-mask-bottom)" height="108" width="1536" x="192" y="972"/><rect fill="url(#wink-edge-fade-mask-left)" height="864" width="192" x="0" y="108"/><rect fill="url(#wink-edge-fade-mask-right)" height="864" width="192" x="1728" y="108"/><rect fill="url(#wink-edge-fade-mask-top-left)" height="108" width="192" x="0" y="0"/><rect fill="url(#wink-edge-fade-mask-top-right)" height="108" width="192" x="1728" y="0"/><rect fill="url(#wink-edge-fade-mask-bottom-left)" height="108" width="192" x="0" y="972"/><rect fill="url(#wink-edge-fade-mask-bottom-right)" height="108" width="192" x="1728" y="972"/></mask></defs><g id="content" transform="translate(960 540) scale(1.1603990411425833) translate(-960 -576.6714401245117)" mask="url(#wink-edge-fade-mask)"><g style="animation:wink-glow-pulse 2.8s ease-in-out infinite;animation-delay:0.16s"><ellipse cx="960" cy="545" rx="235" ry="180" fill="url(#fwh-heart-glow)" opacity="0.31079999999999997"/><ellipse cx="960" cy="532.5" rx="140" ry="100" fill="url(#fwh-heart-glow)" opacity="0.20720000000000002"/><circle cx="960" cy="545" r="45" fill="white" opacity="0.08879999999999999"/></g><g style="transform-origin:960px 545px;animation:wink-burst 2.8s ease-out infinite"><circle cx="960" cy="445" r="7" fill="hsl(345 90% 65%)"/><circle cx="961.8431189040696" cy="432.8811513091739" r="8" fill="hsl(282 82% 70%)"/><circle cx="974.083082304946" cy="400.75732646090023" r="9" fill="hsl(345 90% 65%)"/><circle cx="1004" cy="359.8333950160459" r="7" fill="hsl(282 82% 70%)"/><circle cx="1053.4856934242157" cy="324.3994101400406" r="8" fill="hsl(345 90% 65%)"/><circle cx="1118.2357329834101" cy="307.075535147711" r="9" fill="hsl(282 82% 70%)"/><circle cx="1188.6307065990918" cy="315" r="7" fill="hsl(345 90% 65%)"/><circle cx="1252.0788518874797" cy="348.3022658253893" r="8" fill="hsl(282 82% 70%)"/><circle cx="1296.1994823282535" cy="401.2031005903868" r="9" fill="hsl(345 90% 65%)"/><circle cx="1312" cy="465" r="7" fill="hsl(282 82% 70%)"/><circle cx="1296.1994823282535" cy="531.5001529771906" r="8" fill="hsl(345 90% 65%)"/><circle cx="1252.07885188748" cy="595.4347726574922" r="9" fill="hsl(282 82% 70%)"/><circle cx="1188.6307065990918" cy="654.9999999999999" r="7" fill="hsl(345 90% 65%)"/><circle cx="1118.2357329834101" cy="710.6071244874665" r="8" fill="hsl(282 82% 70%)"/><circle cx="1053.485693424216" cy="762.7425205619091" r="9" fill="hsl(345 90% 65%)"/><circle cx="1004" cy="810.1666049839541" r="7" fill="hsl(282 82% 70%)"/><circle cx="974.083082304946" cy="849.3974892695726" r="8" fill="hsl(345 90% 65%)"/><circle cx="961.8431189040696" cy="875.699150572767" r="9" fill="hsl(282 82% 70%)"/><circle cx="960" cy="885" r="7" fill="hsl(345 90% 65%)"/><circle cx="958.1568810959304" cy="875.6991505727669" r="8" fill="hsl(282 82% 70%)"/><circle cx="945.916917695054" cy="849.3974892695726" r="9" fill="hsl(345 90% 65%)"/><circle cx="916" cy="810.1666049839541" r="7" fill="hsl(282 82% 70%)"/><circle cx="866.5143065757843" cy="762.7425205619093" r="8" fill="hsl(345 90% 65%)"/><circle cx="801.7642670165899" cy="710.6071244874666" r="9" fill="hsl(282 82% 70%)"/><circle cx="731.3692934009083" cy="655.0000000000001" r="7" fill="hsl(345 90% 65%)"/><circle cx="667.9211481125203" cy="595.4347726574924" r="8" fill="hsl(282 82% 70%)"/><circle cx="623.8005176717465" cy="531.5001529771906" r="9" fill="hsl(345 90% 65%)"/><circle cx="608" cy="465.00000000000006" r="7" fill="hsl(282 82% 70%)"/><circle cx="623.8005176717463" cy="401.20310059038695" r="8" fill="hsl(345 90% 65%)"/><circle cx="667.9211481125203" cy="348.3022658253893" r="9" fill="hsl(282 82% 70%)"/><circle cx="731.3692934009082" cy="315" r="7" fill="hsl(345 90% 65%)"/><circle cx="801.7642670165898" cy="307.075535147711" r="8" fill="hsl(282 82% 70%)"/><circle cx="866.5143065757841" cy="324.39941014004046" r="9" fill="hsl(345 90% 65%)"/><circle cx="915.9999999999999" cy="359.8333950160458" r="7" fill="hsl(282 82% 70%)"/><circle cx="945.9169176950539" cy="400.75732646090006" r="8" fill="hsl(345 90% 65%)"/><circle cx="958.1568810959304" cy="432.88115130917384" r="9" fill="hsl(282 82% 70%)"/><circle cx="960" cy="445" r="2.4" fill="white" opacity="0.9"/><circle cx="961.8431189040696" cy="432.8811513091739" r="2.4" fill="white" opacity="0.9"/><circle cx="974.083082304946" cy="400.75732646090023" r="2.4" fill="white" opacity="0.9"/><circle cx="1004" cy="359.8333950160459" r="2.4" fill="white" opacity="0.9"/><circle cx="1053.4856934242157" cy="324.3994101400406" r="2.4" fill="white" opacity="0.9"/><circle cx="1118.2357329834101" cy="307.075535147711" r="2.4" fill="white" opacity="0.9"/><circle cx="1188.6307065990918" cy="315" r="2.4" fill="white" opacity="0.9"/><circle cx="1252.0788518874797" cy="348.3022658253893" r="2.4" fill="white" opacity="0.9"/><circle cx="1296.1994823282535" cy="401.2031005903868" r="2.4" fill="white" opacity="0.9"/><circle cx="1312" cy="465" r="2.4" fill="white" opacity="0.9"/><circle cx="1296.1994823282535" cy="531.5001529771906" r="2.4" fill="white" opacity="0.9"/><circle cx="1252.07885188748" cy="595.4347726574922" r="2.4" fill="white" opacity="0.9"/><circle cx="1188.6307065990918" cy="654.9999999999999" r="2.4" fill="white" opacity="0.9"/><circle cx="1118.2357329834101" cy="710.6071244874665" r="2.4" fill="white" opacity="0.9"/><circle cx="1053.485693424216" cy="762.7425205619091" r="2.4" fill="white" opacity="0.9"/><circle cx="1004" cy="810.1666049839541" r="2.4" fill="white" opacity="0.9"/><circle cx="974.083082304946" cy="849.3974892695726" r="2.4" fill="white" opacity="0.9"/><circle cx="961.8431189040696" cy="875.699150572767" r="2.4" fill="white" opacity="0.9"/><circle cx="960" cy="885" r="2.4" fill="white" opacity="0.9"/><circle cx="958.1568810959304" cy="875.6991505727669" r="2.4" fill="white" opacity="0.9"/><circle cx="945.916917695054" cy="849.3974892695726" r="2.4" fill="white" opacity="0.9"/><circle cx="916" cy="810.1666049839541" r="2.4" fill="white" opacity="0.9"/><circle cx="866.5143065757843" cy="762.7425205619093" r="2.4" fill="white" opacity="0.9"/><circle cx="801.7642670165899" cy="710.6071244874666" r="2.4" fill="white" opacity="0.9"/><circle cx="731.3692934009083" cy="655.0000000000001" r="2.4" fill="white" opacity="0.9"/><circle cx="667.9211481125203" cy="595.4347726574924" r="2.4" fill="white" opacity="0.9"/><circle cx="623.8005176717465" cy="531.5001529771906" r="2.4" fill="white" opacity="0.9"/><circle cx="608" cy="465.00000000000006" r="2.4" fill="white" opacity="0.9"/><circle cx="623.8005176717463" cy="401.20310059038695" r="2.4" fill="white" opacity="0.9"/><circle cx="667.9211481125203" cy="348.3022658253893" r="2.4" fill="white" opacity="0.9"/><circle cx="731.3692934009082" cy="315" r="2.4" fill="white" opacity="0.9"/><circle cx="801.7642670165898" cy="307.075535147711" r="2.4" fill="white" opacity="0.9"/><circle cx="866.5143065757841" cy="324.39941014004046" r="2.4" fill="white" opacity="0.9"/><circle cx="915.9999999999999" cy="359.8333950160458" r="2.4" fill="white" opacity="0.9"/><circle cx="945.9169176950539" cy="400.75732646090006" r="2.4" fill="white" opacity="0.9"/><circle cx="958.1568810959304" cy="432.88115130917384" r="2.4" fill="white" opacity="0.9"/></g><path d="M960,433 L962.8213692110039,441.11671842700025 L971.4126781955418,441.2917960675006 L964.5650712782167,446.4832815729998 L967.0534230275097,454.7082039324994 L960,449.8 L952.9465769724903,454.7082039324994 L955.4349287217833,446.4832815729998 L948.5873218044582,441.2917960675006 L957.1786307889961,441.11671842700025 Z" fill="hsl(282 82% 70%)" opacity="0.9" style="transform-origin:960px 445px;animation:wink-twinkle 2.8s ease-in-out infinite;animation-delay:0.08s"/><path d="M1053.4856934242157,309.3994101400406 L1057.0124049379706,319.5453081737909 L1067.751541168643,319.76415522441636 L1059.1920325219867,326.25351210629026 L1062.3024722086027,336.5346650556648 L1053.4856934242157,330.3994101400406 L1044.6689146398287,336.5346650556648 L1047.7793543264447,326.25351210629026 L1039.2198456797885,319.76415522441636 L1049.9589819104608,319.5453081737909 Z" fill="hsl(150 70% 56%)" opacity="0.9" style="transform-origin:1053.4856934242157px 324.3994101400406px;animation:wink-twinkle 2.8s ease-in-out infinite;animation-delay:0.16s"/><path d="M1296.1994823282535,389.2031005903868 L1299.0208515392574,397.31981901738703 L1307.6121605237952,397.4948966578874 L1300.7645536064701,402.68638216338655 L1303.2529053557632,410.91130452288616 L1296.1994823282535,406.0031005903868 L1289.1460593007437,410.91130452288616 L1291.6344110500368,402.68638216338655 L1284.7868041327115,397.4948966578874 L1293.3781131172495,397.31981901738703 Z" fill="hsl(50 100% 82%)" opacity="0.9" style="transform-origin:1296.1994823282535px 401.2031005903868px;animation:wink-twinkle 2.8s ease-in-out infinite;animation-delay:0.24s"/><path d="M1188.6307065990918,639.9999999999999 L1192.1574181128467,650.1458980337502 L1202.896554343519,650.3647450843757 L1194.3370456968628,656.8541019662496 L1197.4474853834788,667.135254915624 L1188.6307065990918,660.9999999999999 L1179.8139278147048,667.135254915624 L1182.9243675013208,656.8541019662496 L1174.3648588546646,650.3647450843757 L1185.103995085337,650.1458980337502 Z" fill="hsl(45 95% 62%)" opacity="0.9" style="transform-origin:1188.6307065990918px 654.9999999999999px;animation:wink-twinkle 2.8s ease-in-out infinite;animation-delay:0.32s"/><path d="M974.083082304946,837.3974892695726 L976.9044515159499,845.5142076965728 L985.4957605004878,845.6892853370732 L978.6481535831626,850.8807708425724 L981.1365053324556,859.105693202072 L974.083082304946,854.1974892695725 L967.0296592774363,859.105693202072 L969.5180110267293,850.8807708425724 L962.6704041094041,845.6892853370732 L971.261713093942,845.5142076965728 Z" fill="hsl(18 94% 60%)" opacity="0.9" style="transform-origin:974.083082304946px 849.3974892695726px;animation:wink-twinkle 2.8s ease-in-out infinite;animation-delay:0.4s"/><path d="M945.916917695054,834.3974892695726 L949.4436292088089,844.5433873033229 L960.1827654394814,844.7622343539484 L951.6232567928249,851.2515912358223 L954.7336964794412,861.5327441851967 L945.916917695054,855.3974892695726 L937.1001389106669,861.5327441851967 L940.2105785972832,851.2515912358223 L931.6510699506267,844.7622343539484 L942.3902061812992,844.5433873033229 Z" fill="hsl(195 88% 62%)" opacity="0.9" style="transform-origin:945.916917695054px 849.3974892695726px;animation:wink-twinkle 2.8s ease-in-out infinite;animation-delay:0.48000000000000004s"/><path d="M731.3692934009083,643.0000000000001 L734.1906626119122,651.1167184270004 L742.7819715964501,651.2917960675007 L735.934364679125,656.4832815729999 L738.422716428418,664.7082039324995 L731.3692934009083,659.8000000000001 L724.3158703733986,664.7082039324995 L726.8042221226916,656.4832815729999 L719.9566152053665,651.2917960675007 L728.5479241899044,651.1167184270004 Z" fill="hsl(282 82% 70%)" opacity="0.9" style="transform-origin:731.3692934009083px 655.0000000000001px;animation:wink-twinkle 2.8s ease-in-out infinite;animation-delay:0.5599999999999999s"/><path d="M623.8005176717463,386.20310059038695 L627.3272291855012,396.34899862413727 L638.0663654161737,396.56784567476274 L629.5068567695172,403.05720255663664 L632.6172964561334,413.33835550601117 L623.8005176717463,407.20310059038695 L614.9837388873592,413.33835550601117 L618.0941785739755,403.05720255663664 L609.534669927319,396.56784567476274 L620.2738061579914,396.34899862413727 Z" fill="hsl(150 70% 56%)" opacity="0.9" style="transform-origin:623.8005176717463px 401.20310059038695px;animation:wink-twinkle 2.8s ease-in-out infinite;animation-delay:0.64s"/><path d="M866.5143065757841,312.39941014004046 L869.335675786788,320.5161285670407 L877.9269847713259,320.6912062075411 L871.0793778540008,325.88269171304023 L873.5677296032937,334.10761407253983 L866.5143065757841,329.19941014004047 L859.4608835482744,334.10761407253983 L861.9492352975674,325.88269171304023 L855.1016283802422,320.6912062075411 L863.6929373647802,320.5161285670407 Z" fill="hsl(50 100% 82%)" opacity="0.9" style="transform-origin:866.5143065757841px 324.39941014004046px;animation:wink-twinkle 2.8s ease-in-out infinite;animation-delay:0.72s"/><g style="transform-origin:960px 545px;animation:wink-burst 2.8s ease-out infinite;animation-delay:0.72s"><path d="M1270,533 L1272.821369211004,541.1167184270003 L1281.4126781955417,541.2917960675006 L1274.5650712782167,546.4832815729998 L1277.0534230275098,554.7082039324994 L1270,549.8 L1262.9465769724902,554.7082039324994 L1265.4349287217833,546.4832815729998 L1258.587321804458,541.2917960675006 L1267.178630788996,541.1167184270003 Z" fill="hsl(48 100% 84%)" opacity="0.88"/><path d="M1179.2031021678297,752.2031021678297 L1182.0244713788336,760.3198205948299 L1190.6157803633714,760.4948982353303 L1183.7681734460464,765.6863837408295 L1186.2565251953395,773.911306100329 L1179.2031021678297,769.0031021678296 L1172.14967914032,773.911306100329 L1174.638030889613,765.6863837408295 L1167.790423972288,760.4948982353303 L1176.3817329568258,760.3198205948299 Z" fill="hsl(48 100% 84%)" opacity="0.88"/><path d="M960,843 L962.8213692110039,851.1167184270003 L971.4126781955418,851.2917960675006 L964.5650712782167,856.4832815729998 L967.0534230275097,864.7082039324994 L960,859.8 L952.9465769724903,864.7082039324994 L955.4349287217833,856.4832815729998 L948.5873218044582,851.2917960675006 L957.1786307889961,851.1167184270003 Z" fill="hsl(48 100% 84%)" opacity="0.88"/><path d="M740.7968978321703,752.2031021678297 L743.6182670431742,760.3198205948299 L752.2095760277122,760.4948982353303 L745.361969110387,765.6863837408295 L747.85032085968,773.911306100329 L740.7968978321703,769.0031021678296 L733.7434748046607,773.911306100329 L736.2318265539536,765.6863837408295 L729.3842196366285,760.4948982353303 L737.9755286211664,760.3198205948299 Z" fill="hsl(48 100% 84%)" opacity="0.88"/><path d="M650,533 L652.8213692110039,541.1167184270003 L661.4126781955418,541.2917960675006 L654.5650712782167,546.4832815729998 L657.0534230275097,554.7082039324994 L650,549.8 L642.9465769724903,554.7082039324994 L645.4349287217833,546.4832815729998 L638.5873218044582,541.2917960675006 L647.1786307889961,541.1167184270003 Z" fill="hsl(48 100% 84%)" opacity="0.88"/><path d="M740.7968978321702,313.7968978321703 L743.6182670431741,321.91361625917057 L752.209576027712,322.08869389967094 L745.3619691103869,327.2801794051701 L747.8503208596799,335.5051017646697 L740.7968978321702,330.5968978321703 L733.7434748046605,335.5051017646697 L736.2318265539535,327.2801794051701 L729.3842196366284,322.08869389967094 L737.9755286211663,321.91361625917057 Z" fill="hsl(48 100% 84%)" opacity="0.88"/><path d="M959.9999999999999,223 L962.8213692110038,231.11671842700025 L971.4126781955417,231.29179606750063 L964.5650712782166,236.48328157299974 L967.0534230275096,244.70820393249937 L959.9999999999999,239.8 L952.9465769724902,244.70820393249937 L955.4349287217832,236.48328157299974 L948.587321804458,231.29179606750063 L957.178630788996,231.11671842700025 Z" fill="hsl(48 100% 84%)" opacity="0.88"/><path d="M1179.2031021678297,313.7968978321702 L1182.0244713788336,321.91361625917045 L1190.6157803633714,322.08869389967083 L1183.7681734460464,327.28017940517 L1186.2565251953395,335.5051017646696 L1179.2031021678297,330.5968978321702 L1172.14967914032,335.5051017646696 L1174.638030889613,327.28017940517 L1167.790423972288,322.08869389967083 L1176.3817329568258,321.91361625917045 Z" fill="hsl(48 100% 84%)" opacity="0.88"/></g><circle cx="960" cy="545" r="18" fill="hsl(345 90% 70%)" style="animation:wink-glow-pulse 1.4s ease-in-out infinite"/></g></svg>
