<?xml version="1.0" encoding="UTF-8" standalone="no"?>
<svg viewBox="0 0 1920 1080" preserveAspectRatio="xMidYMid meet" xmlns="http://www.w3.org/2000/svg" xmlns:xlink="http://www.w3.org/1999/xlink" width="1920" height="1080"><style>@keyframes wink-burst {
  0% { transform: scale(0); opacity: 0; }
  20% { opacity: 1; }
  60% { transform: scale(1); opacity: 1; }
  100% { transform: scale(1.15); opacity: 0; }
}
@keyframes wink-fade-loop {
  0%, 100% { opacity: 0; }
  10%, 70% { opacity: 1; }
}
@keyframes wink-spark-fall {
  0% { transform: translateY(-40px); opacity: 0; }
  20% { opacity: 1; }
  100% { transform: translateY(220px); opacity: 0; }
}
@keyframes wink-comet {
  0% { transform: translate(0,0) scale(0.6); opacity: 0; }
  30% { opacity: 1; }
  70% { transform: translate(var(--tx,0), var(--ty,-200px)) scale(1); opacity: 1; }
  100% { transform: translate(var(--tx,0), var(--ty,-200px)) scale(1.2); opacity: 0; }
}
@keyframes wink-ring-expand {
  0% { transform: scale(0.1); opacity: 0; stroke-width: 8; }
  20% { opacity: 1; }
  100% { transform: scale(1); opacity: 0; stroke-width: 1; }
}
@keyframes wink-twinkle {
  0%, 100% { transform: scale(0); opacity: 0; }
  50% { transform: scale(1); opacity: 1; }
}
@keyframes wink-pop {
  0% { transform: scale(0) rotate(-20deg); opacity: 0; }
  60% { transform: scale(1.15) rotate(5deg); opacity: 1; }
  80% { transform: scale(1) rotate(0); opacity: 1; }
  100% { transform: scale(1) rotate(0); opacity: 0; }
}
@keyframes wink-swirl {
  0% { transform: rotate(0deg) translateX(180px) scale(0); opacity: 0; }
  20% { opacity: 1; }
  100% { transform: rotate(360deg) translateX(40px) scale(1); opacity: 0; }
}
@keyframes wink-shower {
  0% { transform: translateY(-60px) rotate(0); opacity: 0; }
  15% { opacity: 1; }
  100% { transform: translateY(260px) rotate(180deg); opacity: 0; }
}
@keyframes wink-trail {
  0% { offset-distance: 0%; opacity: 0; transform: scale(0.4); }
  10% { opacity: 1; transform: scale(1); }
  90% { opacity: 1; }
  100% { offset-distance: 100%; opacity: 0; transform: scale(0.6); }
}
@keyframes wink-bounce-in {
  0% { transform: translateY(-300px) scale(0.6); opacity: 0; }
  50% { transform: translateY(20px) scale(1.05); opacity: 1; }
  70% { transform: translateY(-10px) scale(0.98); }
  100% { transform: translateY(0) scale(1); opacity: 1; }
}
@keyframes wink-bounce-loop {
  0%, 100% { transform: translateY(0); }
  50% { transform: translateY(-12px); }
}
@keyframes wink-pop-up {
  0% { transform: translateY(300px); opacity: 0; }
  60% { transform: translateY(-15px); opacity: 1; }
  100% { transform: translateY(0); opacity: 1; }
}
@keyframes wink-featured-pop {
  0%, 100% { transform: translateY(0) scale(0.78) rotate(-6deg); opacity: 1; }
  12% { transform: translateY(-26px) scale(1.3) rotate(4deg); opacity: 1; }
  22% { transform: translateY(10px) scale(0.95) rotate(-2deg); opacity: 1; }
  34%, 76% { transform: translateY(0) scale(1) rotate(0deg); opacity: 1; }
  88% { transform: translateY(-8px) scale(1.06) rotate(0deg); opacity: 1; }
}
@keyframes wink-featured-burst {
  0%, 40%, 100% { transform: scale(0.38); opacity: 0; }
  48% { transform: scale(0.92); opacity: 0.95; }
  60% { transform: scale(1.18); opacity: 0.42; }
  72% { transform: scale(1.34); opacity: 0; }
}
@keyframes wink-orbit {
  from { transform: rotate(0deg) translateX(var(--orbit-r,160px)) rotate(0deg); }
  to { transform: rotate(360deg) translateX(var(--orbit-r,160px)) rotate(-360deg); }
}
@keyframes wink-scatter {
  0%, 100% { transform: translate(var(--sx,0), var(--sy,0)) scale(0.9); opacity: 0.6; }
  50% { transform: translate(calc(var(--sx,0) * 1.2), calc(var(--sy,0) * 1.2)) scale(1.05); opacity: 1; }
}
@keyframes wink-sparkle {
  0%, 100% { opacity: 0; transform: scale(0.5); }
  50% { opacity: 1; transform: scale(1.2); }
}
@keyframes wink-glow-pulse {
  0%, 100% { opacity: 0.4; transform: scale(0.95); }
  50% { opacity: 1; transform: scale(1.05); }
}
@keyframes wink-confetti-launch {
  0% { transform: translate(0,0) rotate(var(--r0,0deg)) scale(0.28); opacity: 0; }
  14% { opacity: 1; }
  72% { transform: translate(var(--tx,0px), var(--ty,0px)) rotate(var(--r1,180deg)) scale(1); opacity: 1; }
  100% { transform: translate(var(--tx,0px), var(--ty,0px)) rotate(var(--r2,320deg)) scale(0.82); opacity: 0; }
}
@keyframes wink-confetti-fall {
  0% { transform: translate(0,-90px) rotate(var(--r0,0deg)) scale(0.7); opacity: 0; }
  14% { opacity: 1; }
  82% { opacity: 1; }
  100% { transform: translate(var(--tx,0px), var(--ty,720px)) rotate(var(--r1,260deg)) scale(1); opacity: 0; }
}
@keyframes wink-confetti-shimmer {
  0%, 100% { transform: rotate(var(--r0,0deg)) scale(0.92); }
  50% { transform: rotate(var(--r1,180deg)) scale(1.08); }
}
@keyframes wink-confetti-wave {
  0% { transform: translate(var(--sx,-180px), var(--sy,0px)) rotate(var(--r0,0deg)) scale(0.5); opacity: 0; }
  18% { opacity: 1; }
  58% { transform: translate(0,0) rotate(var(--r1,180deg)) scale(1); opacity: 1; }
  100% { transform: translate(var(--tx,180px), var(--ty,0px)) rotate(var(--r2,360deg)) scale(0.78); opacity: 0; }
}
@keyframes wink-bingo-arrive {
  0% { transform: translate(var(--from-x,0), var(--from-y,0)) scale(0.34); opacity: 0; }
  18% { opacity: 1; }
  38% { transform: translate(var(--overshoot-x,0), var(--overshoot-y,0)) scale(1.09); opacity: 1; }
  46%, 100% { transform: translate(0,0) scale(1); opacity: 1; }
}
@keyframes wink-bingo-countdown {
  0%, 100% { opacity: 0; transform: scale(0.36); }
  5% { opacity: 1; transform: scale(0.92); }
  10% { opacity: 1; transform: scale(1.06); }
  16% { opacity: 0; transform: scale(1.22); }
}
@keyframes wink-bingo-spiral-letter {
  0% { transform: rotate(var(--spin-start,-220deg)) translateX(var(--orbit-r,320px)) scale(0.3); opacity: 0; }
  22% { opacity: 1; }
  42% { transform: rotate(var(--spin-mid,24deg)) translateX(18px) scale(1.1); opacity: 1; }
  52%, 100% { transform: rotate(0deg) translateX(0) scale(1); opacity: 1; }
}
@keyframes wink-bingo-final-bounce {
  0%, 54%, 100% { transform: translateY(0) scale(1); }
  64% { transform: translateY(-22px) scale(1.06); }
  76% { transform: translateY(0) scale(0.98); }
  88% { transform: translateY(-10px) scale(1.02); }
}
@keyframes wink-bingo-impact {
  0%, 56%, 100% { opacity: 0; transform: scale(0.52); }
  66% { opacity: 0.95; transform: scale(1.04); }
  78% { opacity: 0.38; transform: scale(1.34); }
}</style><g id="content" transform="translate(960 540) scale(1.0294413492231869) translate(-951.1658020019531 -480.9131622314453)"><g style="transform-origin:420px 420px;animation:wink-burst 3s ease-out infinite;animation-delay:0s"><g><line x1="420" y1="420" x2="570" y2="420" stroke="hsl(352 86% 66%)" stroke-width="2.2" stroke-linecap="round" opacity="0.9"/><rect x="563" y="413" width="14" height="14" rx="1.5" fill="hsl(352 86% 66%)" opacity="0.88" transform="rotate(45 570 420)"/></g><g><line x1="420" y1="420" x2="549.9038105676658" y2="475" stroke="hsl(352 86% 66%)" stroke-width="2.2" stroke-linecap="round" opacity="0.9"/><rect x="542.9038105676658" y="468" width="14" height="14" rx="1.5" fill="hsl(352 86% 66%)" opacity="0.88" transform="rotate(45 549.9038105676658 475)"/></g><g><line x1="420" y1="420" x2="495" y2="515.2627944162882" stroke="hsl(352 86% 66%)" stroke-width="2.2" stroke-linecap="round" opacity="0.9"/><rect x="488" y="508.2627944162882" width="14" height="14" rx="1.5" fill="hsl(352 86% 66%)" opacity="0.88" transform="rotate(45 495 515.2627944162882)"/></g><g><line x1="420" y1="420" x2="420" y2="530" stroke="hsl(352 86% 66%)" stroke-width="2.2" stroke-linecap="round" opacity="0.9"/><rect x="413" y="523" width="14" height="14" rx="1.5" fill="hsl(352 86% 66%)" opacity="0.88" transform="rotate(45 420 530)"/></g><g><line x1="420" y1="420" x2="345" y2="515.2627944162882" stroke="hsl(352 86% 66%)" stroke-width="2.2" stroke-linecap="round" opacity="0.9"/><rect x="338" y="508.2627944162882" width="14" height="14" rx="1.5" fill="hsl(352 86% 66%)" opacity="0.88" transform="rotate(45 345 515.2627944162882)"/></g><g><line x1="420" y1="420" x2="290.0961894323342" y2="475" stroke="hsl(352 86% 66%)" stroke-width="2.2" stroke-linecap="round" opacity="0.9"/><rect x="283.0961894323342" y="468" width="14" height="14" rx="1.5" fill="hsl(352 86% 66%)" opacity="0.88" transform="rotate(45 290.0961894323342 475)"/></g><g><line x1="420" y1="420" x2="270" y2="420" stroke="hsl(352 86% 66%)" stroke-width="2.2" stroke-linecap="round" opacity="0.9"/><rect x="263" y="413" width="14" height="14" rx="1.5" fill="hsl(352 86% 66%)" opacity="0.88" transform="rotate(45 270 420)"/></g><g><line x1="420" y1="420" x2="290.0961894323342" y2="365" stroke="hsl(352 86% 66%)" stroke-width="2.2" stroke-linecap="round" opacity="0.9"/><rect x="283.0961894323342" y="358" width="14" height="14" rx="1.5" fill="hsl(352 86% 66%)" opacity="0.88" transform="rotate(45 290.0961894323342 365)"/></g><g><line x1="420" y1="420" x2="344.99999999999994" y2="324.7372055837118" stroke="hsl(352 86% 66%)" stroke-width="2.2" stroke-linecap="round" opacity="0.9"/><rect x="337.99999999999994" y="317.7372055837118" width="14" height="14" rx="1.5" fill="hsl(352 86% 66%)" opacity="0.88" transform="rotate(45 344.99999999999994 324.7372055837118)"/></g><g><line x1="420" y1="420" x2="420" y2="310" stroke="hsl(352 86% 66%)" stroke-width="2.2" stroke-linecap="round" opacity="0.9"/><rect x="413" y="303" width="14" height="14" rx="1.5" fill="hsl(352 86% 66%)" opacity="0.88" transform="rotate(45 420 310)"/></g><g><line x1="420" y1="420" x2="495" y2="324.7372055837118" stroke="hsl(352 86% 66%)" stroke-width="2.2" stroke-linecap="round" opacity="0.9"/><rect x="488" y="317.7372055837118" width="14" height="14" rx="1.5" fill="hsl(352 86% 66%)" opacity="0.88" transform="rotate(45 495 324.7372055837118)"/></g><g><line x1="420" y1="420" x2="549.9038105676657" y2="364.99999999999994" stroke="hsl(352 86% 66%)" stroke-width="2.2" stroke-linecap="round" opacity="0.9"/><rect x="542.9038105676657" y="357.99999999999994" width="14" height="14" rx="1.5" fill="hsl(352 86% 66%)" opacity="0.88" transform="rotate(45 549.9038105676657 364.99999999999994)"/></g><circle cx="420" cy="420" r="12" fill="white" opacity="0.82"/></g><g style="transform-origin:780px 320px;animation:wink-burst 3s ease-out infinite;animation-delay:0.35s"><g><line x1="780" y1="320" x2="960" y2="320" stroke="hsl(42 95% 62%)" stroke-width="2.2" stroke-linecap="round" opacity="0.9"/><rect x="953" y="313" width="14" height="14" rx="1.5" fill="hsl(42 95% 62%)" opacity="0.88" transform="rotate(45 960 320)"/></g><g><line x1="780" y1="320" x2="935.884572681199" y2="385" stroke="hsl(42 95% 62%)" stroke-width="2.2" stroke-linecap="round" opacity="0.9"/><rect x="928.884572681199" y="378" width="14" height="14" rx="1.5" fill="hsl(42 95% 62%)" opacity="0.88" transform="rotate(45 935.884572681199 385)"/></g><g><line x1="780" y1="320" x2="870" y2="432.583302491977" stroke="hsl(42 95% 62%)" stroke-width="2.2" stroke-linecap="round" opacity="0.9"/><rect x="863" y="425.583302491977" width="14" height="14" rx="1.5" fill="hsl(42 95% 62%)" opacity="0.88" transform="rotate(45 870 432.583302491977)"/></g><g><line x1="780" y1="320" x2="780" y2="450" stroke="hsl(42 95% 62%)" stroke-width="2.2" stroke-linecap="round" opacity="0.9"/><rect x="773" y="443" width="14" height="14" rx="1.5" fill="hsl(42 95% 62%)" opacity="0.88" transform="rotate(45 780 450)"/></g><g><line x1="780" y1="320" x2="690" y2="432.58330249197707" stroke="hsl(42 95% 62%)" stroke-width="2.2" stroke-linecap="round" opacity="0.9"/><rect x="683" y="425.58330249197707" width="14" height="14" rx="1.5" fill="hsl(42 95% 62%)" opacity="0.88" transform="rotate(45 690 432.58330249197707)"/></g><g><line x1="780" y1="320" x2="624.115427318801" y2="385" stroke="hsl(42 95% 62%)" stroke-width="2.2" stroke-linecap="round" opacity="0.9"/><rect x="617.115427318801" y="378" width="14" height="14" rx="1.5" fill="hsl(42 95% 62%)" opacity="0.88" transform="rotate(45 624.115427318801 385)"/></g><g><line x1="780" y1="320" x2="600" y2="320" stroke="hsl(42 95% 62%)" stroke-width="2.2" stroke-linecap="round" opacity="0.9"/><rect x="593" y="313" width="14" height="14" rx="1.5" fill="hsl(42 95% 62%)" opacity="0.88" transform="rotate(45 600 320)"/></g><g><line x1="780" y1="320" x2="624.115427318801" y2="255" stroke="hsl(42 95% 62%)" stroke-width="2.2" stroke-linecap="round" opacity="0.9"/><rect x="617.115427318801" y="248" width="14" height="14" rx="1.5" fill="hsl(42 95% 62%)" opacity="0.88" transform="rotate(45 624.115427318801 255)"/></g><g><line x1="780" y1="320" x2="689.9999999999999" y2="207.416697508023" stroke="hsl(42 95% 62%)" stroke-width="2.2" stroke-linecap="round" opacity="0.9"/><rect x="682.9999999999999" y="200.416697508023" width="14" height="14" rx="1.5" fill="hsl(42 95% 62%)" opacity="0.88" transform="rotate(45 689.9999999999999 207.416697508023)"/></g><g><line x1="780" y1="320" x2="780" y2="190" stroke="hsl(42 95% 62%)" stroke-width="2.2" stroke-linecap="round" opacity="0.9"/><rect x="773" y="183" width="14" height="14" rx="1.5" fill="hsl(42 95% 62%)" opacity="0.88" transform="rotate(45 780 190)"/></g><g><line x1="780" y1="320" x2="870" y2="207.416697508023" stroke="hsl(42 95% 62%)" stroke-width="2.2" stroke-linecap="round" opacity="0.9"/><rect x="863" y="200.416697508023" width="14" height="14" rx="1.5" fill="hsl(42 95% 62%)" opacity="0.88" transform="rotate(45 870 207.416697508023)"/></g><g><line x1="780" y1="320" x2="935.884572681199" y2="254.99999999999994" stroke="hsl(42 95% 62%)" stroke-width="2.2" stroke-linecap="round" opacity="0.9"/><rect x="928.884572681199" y="247.99999999999994" width="14" height="14" rx="1.5" fill="hsl(42 95% 62%)" opacity="0.88" transform="rotate(45 935.884572681199 254.99999999999994)"/></g><circle cx="780" cy="320" r="12" fill="white" opacity="0.82"/></g><g style="transform-origin:1120px 320px;animation:wink-burst 3s ease-out infinite;animation-delay:0.7s"><g><line x1="1120" y1="320" x2="1300" y2="320" stroke="hsl(195 92% 64%)" stroke-width="2.2" stroke-linecap="round" opacity="0.9"/><rect x="1293" y="313" width="14" height="14" rx="1.5" fill="hsl(195 92% 64%)" opacity="0.88" transform="rotate(45 1300 320)"/></g><g><line x1="1120" y1="320" x2="1275.884572681199" y2="385" stroke="hsl(195 92% 64%)" stroke-width="2.2" stroke-linecap="round" opacity="0.9"/><rect x="1268.884572681199" y="378" width="14" height="14" rx="1.5" fill="hsl(195 92% 64%)" opacity="0.88" transform="rotate(45 1275.884572681199 385)"/></g><g><line x1="1120" y1="320" x2="1210" y2="432.583302491977" stroke="hsl(195 92% 64%)" stroke-width="2.2" stroke-linecap="round" opacity="0.9"/><rect x="1203" y="425.583302491977" width="14" height="14" rx="1.5" fill="hsl(195 92% 64%)" opacity="0.88" transform="rotate(45 1210 432.583302491977)"/></g><g><line x1="1120" y1="320" x2="1120" y2="450" stroke="hsl(195 92% 64%)" stroke-width="2.2" stroke-linecap="round" opacity="0.9"/><rect x="1113" y="443" width="14" height="14" rx="1.5" fill="hsl(195 92% 64%)" opacity="0.88" transform="rotate(45 1120 450)"/></g><g><line x1="1120" y1="320" x2="1030" y2="432.58330249197707" stroke="hsl(195 92% 64%)" stroke-width="2.2" stroke-linecap="round" opacity="0.9"/><rect x="1023" y="425.58330249197707" width="14" height="14" rx="1.5" fill="hsl(195 92% 64%)" opacity="0.88" transform="rotate(45 1030 432.58330249197707)"/></g><g><line x1="1120" y1="320" x2="964.115427318801" y2="385" stroke="hsl(195 92% 64%)" stroke-width="2.2" stroke-linecap="round" opacity="0.9"/><rect x="957.115427318801" y="378" width="14" height="14" rx="1.5" fill="hsl(195 92% 64%)" opacity="0.88" transform="rotate(45 964.115427318801 385)"/></g><g><line x1="1120" y1="320" x2="940" y2="320" stroke="hsl(195 92% 64%)" stroke-width="2.2" stroke-linecap="round" opacity="0.9"/><rect x="933" y="313" width="14" height="14" rx="1.5" fill="hsl(195 92% 64%)" opacity="0.88" transform="rotate(45 940 320)"/></g><g><line x1="1120" y1="320" x2="964.115427318801" y2="255" stroke="hsl(195 92% 64%)" stroke-width="2.2" stroke-linecap="round" opacity="0.9"/><rect x="957.115427318801" y="248" width="14" height="14" rx="1.5" fill="hsl(195 92% 64%)" opacity="0.88" transform="rotate(45 964.115427318801 255)"/></g><g><line x1="1120" y1="320" x2="1030" y2="207.416697508023" stroke="hsl(195 92% 64%)" stroke-width="2.2" stroke-linecap="round" opacity="0.9"/><rect x="1023" y="200.416697508023" width="14" height="14" rx="1.5" fill="hsl(195 92% 64%)" opacity="0.88" transform="rotate(45 1030 207.416697508023)"/></g><g><line x1="1120" y1="320" x2="1120" y2="190" stroke="hsl(195 92% 64%)" stroke-width="2.2" stroke-linecap="round" opacity="0.9"/><rect x="1113" y="183" width="14" height="14" rx="1.5" fill="hsl(195 92% 64%)" opacity="0.88" transform="rotate(45 1120 190)"/></g><g><line x1="1120" y1="320" x2="1210" y2="207.416697508023" stroke="hsl(195 92% 64%)" stroke-width="2.2" stroke-linecap="round" opacity="0.9"/><rect x="1203" y="200.416697508023" width="14" height="14" rx="1.5" fill="hsl(195 92% 64%)" opacity="0.88" transform="rotate(45 1210 207.416697508023)"/></g><g><line x1="1120" y1="320" x2="1275.884572681199" y2="254.99999999999994" stroke="hsl(195 92% 64%)" stroke-width="2.2" stroke-linecap="round" opacity="0.9"/><rect x="1268.884572681199" y="247.99999999999994" width="14" height="14" rx="1.5" fill="hsl(195 92% 64%)" opacity="0.88" transform="rotate(45 1275.884572681199 254.99999999999994)"/></g><circle cx="1120" cy="320" r="12" fill="white" opacity="0.82"/></g><g style="transform-origin:1500px 420px;animation:wink-burst 3s ease-out infinite;animation-delay:1.05s"><g><line x1="1500" y1="420" x2="1650" y2="420" stroke="hsl(282 82% 70%)" stroke-width="2.2" stroke-linecap="round" opacity="0.9"/><rect x="1643" y="413" width="14" height="14" rx="1.5" fill="hsl(282 82% 70%)" opacity="0.88" transform="rotate(45 1650 420)"/></g><g><line x1="1500" y1="420" x2="1629.903810567666" y2="475" stroke="hsl(282 82% 70%)" stroke-width="2.2" stroke-linecap="round" opacity="0.9"/><rect x="1622.903810567666" y="468" width="14" height="14" rx="1.5" fill="hsl(282 82% 70%)" opacity="0.88" transform="rotate(45 1629.903810567666 475)"/></g><g><line x1="1500" y1="420" x2="1575" y2="515.2627944162882" stroke="hsl(282 82% 70%)" stroke-width="2.2" stroke-linecap="round" opacity="0.9"/><rect x="1568" y="508.2627944162882" width="14" height="14" rx="1.5" fill="hsl(282 82% 70%)" opacity="0.88" transform="rotate(45 1575 515.2627944162882)"/></g><g><line x1="1500" y1="420" x2="1500" y2="530" stroke="hsl(282 82% 70%)" stroke-width="2.2" stroke-linecap="round" opacity="0.9"/><rect x="1493" y="523" width="14" height="14" rx="1.5" fill="hsl(282 82% 70%)" opacity="0.88" transform="rotate(45 1500 530)"/></g><g><line x1="1500" y1="420" x2="1425" y2="515.2627944162882" stroke="hsl(282 82% 70%)" stroke-width="2.2" stroke-linecap="round" opacity="0.9"/><rect x="1418" y="508.2627944162882" width="14" height="14" rx="1.5" fill="hsl(282 82% 70%)" opacity="0.88" transform="rotate(45 1425 515.2627944162882)"/></g><g><line x1="1500" y1="420" x2="1370.096189432334" y2="475" stroke="hsl(282 82% 70%)" stroke-width="2.2" stroke-linecap="round" opacity="0.9"/><rect x="1363.096189432334" y="468" width="14" height="14" rx="1.5" fill="hsl(282 82% 70%)" opacity="0.88" transform="rotate(45 1370.096189432334 475)"/></g><g><line x1="1500" y1="420" x2="1350" y2="420" stroke="hsl(282 82% 70%)" stroke-width="2.2" stroke-linecap="round" opacity="0.9"/><rect x="1343" y="413" width="14" height="14" rx="1.5" fill="hsl(282 82% 70%)" opacity="0.88" transform="rotate(45 1350 420)"/></g><g><line x1="1500" y1="420" x2="1370.096189432334" y2="365" stroke="hsl(282 82% 70%)" stroke-width="2.2" stroke-linecap="round" opacity="0.9"/><rect x="1363.096189432334" y="358" width="14" height="14" rx="1.5" fill="hsl(282 82% 70%)" opacity="0.88" transform="rotate(45 1370.096189432334 365)"/></g><g><line x1="1500" y1="420" x2="1425" y2="324.7372055837118" stroke="hsl(282 82% 70%)" stroke-width="2.2" stroke-linecap="round" opacity="0.9"/><rect x="1418" y="317.7372055837118" width="14" height="14" rx="1.5" fill="hsl(282 82% 70%)" opacity="0.88" transform="rotate(45 1425 324.7372055837118)"/></g><g><line x1="1500" y1="420" x2="1500" y2="310" stroke="hsl(282 82% 70%)" stroke-width="2.2" stroke-linecap="round" opacity="0.9"/><rect x="1493" y="303" width="14" height="14" rx="1.5" fill="hsl(282 82% 70%)" opacity="0.88" transform="rotate(45 1500 310)"/></g><g><line x1="1500" y1="420" x2="1575" y2="324.7372055837118" stroke="hsl(282 82% 70%)" stroke-width="2.2" stroke-linecap="round" opacity="0.9"/><rect x="1568" y="317.7372055837118" width="14" height="14" rx="1.5" fill="hsl(282 82% 70%)" opacity="0.88" transform="rotate(45 1575 324.7372055837118)"/></g><g><line x1="1500" y1="420" x2="1629.9038105676657" y2="364.99999999999994" stroke="hsl(282 82% 70%)" stroke-width="2.2" stroke-linecap="round" opacity="0.9"/><rect x="1622.9038105676657" y="357.99999999999994" width="14" height="14" rx="1.5" fill="hsl(282 82% 70%)" opacity="0.88" transform="rotate(45 1629.9038105676657 364.99999999999994)"/></g><circle cx="1500" cy="420" r="12" fill="white" opacity="0.82"/></g><g style="transform-origin:960px 620px;animation:wink-burst 3s ease-out infinite;animation-delay:1.4s"><g><line x1="960" y1="620" x2="1180" y2="620" stroke="hsl(152 70% 56%)" stroke-width="2.2" stroke-linecap="round" opacity="0.9"/><rect x="1173" y="613" width="14" height="14" rx="1.5" fill="hsl(152 70% 56%)" opacity="0.88" transform="rotate(45 1180 620)"/></g><g><line x1="960" y1="620" x2="1150.5255888325764" y2="700" stroke="hsl(152 70% 56%)" stroke-width="2.2" stroke-linecap="round" opacity="0.9"/><rect x="1143.5255888325764" y="693" width="14" height="14" rx="1.5" fill="hsl(152 70% 56%)" opacity="0.88" transform="rotate(45 1150.5255888325764 700)"/></g><g><line x1="960" y1="620" x2="1070" y2="758.5640646055101" stroke="hsl(152 70% 56%)" stroke-width="2.2" stroke-linecap="round" opacity="0.9"/><rect x="1063" y="751.5640646055101" width="14" height="14" rx="1.5" fill="hsl(152 70% 56%)" opacity="0.88" transform="rotate(45 1070 758.5640646055101)"/></g><g><line x1="960" y1="620" x2="960" y2="780" stroke="hsl(152 70% 56%)" stroke-width="2.2" stroke-linecap="round" opacity="0.9"/><rect x="953" y="773" width="14" height="14" rx="1.5" fill="hsl(152 70% 56%)" opacity="0.88" transform="rotate(45 960 780)"/></g><g><line x1="960" y1="620" x2="850" y2="758.5640646055102" stroke="hsl(152 70% 56%)" stroke-width="2.2" stroke-linecap="round" opacity="0.9"/><rect x="843" y="751.5640646055102" width="14" height="14" rx="1.5" fill="hsl(152 70% 56%)" opacity="0.88" transform="rotate(45 850 758.5640646055102)"/></g><g><line x1="960" y1="620" x2="769.4744111674235" y2="700" stroke="hsl(152 70% 56%)" stroke-width="2.2" stroke-linecap="round" opacity="0.9"/><rect x="762.4744111674235" y="693" width="14" height="14" rx="1.5" fill="hsl(152 70% 56%)" opacity="0.88" transform="rotate(45 769.4744111674235 700)"/></g><g><line x1="960" y1="620" x2="740" y2="620" stroke="hsl(152 70% 56%)" stroke-width="2.2" stroke-linecap="round" opacity="0.9"/><rect x="733" y="613" width="14" height="14" rx="1.5" fill="hsl(152 70% 56%)" opacity="0.88" transform="rotate(45 740 620)"/></g><g><line x1="960" y1="620" x2="769.4744111674236" y2="540" stroke="hsl(152 70% 56%)" stroke-width="2.2" stroke-linecap="round" opacity="0.9"/><rect x="762.4744111674236" y="533" width="14" height="14" rx="1.5" fill="hsl(152 70% 56%)" opacity="0.88" transform="rotate(45 769.4744111674236 540)"/></g><g><line x1="960" y1="620" x2="849.9999999999999" y2="481.43593539448983" stroke="hsl(152 70% 56%)" stroke-width="2.2" stroke-linecap="round" opacity="0.9"/><rect x="842.9999999999999" y="474.43593539448983" width="14" height="14" rx="1.5" fill="hsl(152 70% 56%)" opacity="0.88" transform="rotate(45 849.9999999999999 481.43593539448983)"/></g><g><line x1="960" y1="620" x2="960" y2="460" stroke="hsl(152 70% 56%)" stroke-width="2.2" stroke-linecap="round" opacity="0.9"/><rect x="953" y="453" width="14" height="14" rx="1.5" fill="hsl(152 70% 56%)" opacity="0.88" transform="rotate(45 960 460)"/></g><g><line x1="960" y1="620" x2="1070" y2="481.43593539448983" stroke="hsl(152 70% 56%)" stroke-width="2.2" stroke-linecap="round" opacity="0.9"/><rect x="1063" y="474.43593539448983" width="14" height="14" rx="1.5" fill="hsl(152 70% 56%)" opacity="0.88" transform="rotate(45 1070 481.43593539448983)"/></g><g><line x1="960" y1="620" x2="1150.5255888325764" y2="539.9999999999999" stroke="hsl(152 70% 56%)" stroke-width="2.2" stroke-linecap="round" opacity="0.9"/><rect x="1143.5255888325764" y="532.9999999999999" width="14" height="14" rx="1.5" fill="hsl(152 70% 56%)" opacity="0.88" transform="rotate(45 1150.5255888325764 539.9999999999999)"/></g><circle cx="960" cy="620" r="12" fill="white" opacity="0.82"/></g></g></svg>
