<?xml version="1.0" encoding="UTF-8" standalone="no"?>
<svg viewBox="0 0 1920 1080" preserveAspectRatio="xMidYMid meet" xmlns="http://www.w3.org/2000/svg" xmlns:xlink="http://www.w3.org/1999/xlink" width="1920" height="1080"><style>@keyframes wink-burst {
  0% { transform: scale(0); opacity: 0; }
  20% { opacity: 1; }
  60% { transform: scale(1); opacity: 1; }
  100% { transform: scale(1.15); opacity: 0; }
}
@keyframes wink-fade-loop {
  0%, 100% { opacity: 0; }
  10%, 70% { opacity: 1; }
}
@keyframes wink-spark-fall {
  0% { transform: translateY(-40px); opacity: 0; }
  20% { opacity: 1; }
  100% { transform: translateY(220px); opacity: 0; }
}
@keyframes wink-comet {
  0% { transform: translate(0,0) scale(0.6); opacity: 0; }
  30% { opacity: 1; }
  70% { transform: translate(var(--tx,0), var(--ty,-200px)) scale(1); opacity: 1; }
  100% { transform: translate(var(--tx,0), var(--ty,-200px)) scale(1.2); opacity: 0; }
}
@keyframes wink-ring-expand {
  0% { transform: scale(0.1); opacity: 0; stroke-width: 8; }
  20% { opacity: 1; }
  100% { transform: scale(1); opacity: 0; stroke-width: 1; }
}
@keyframes wink-twinkle {
  0%, 100% { transform: scale(0); opacity: 0; }
  50% { transform: scale(1); opacity: 1; }
}
@keyframes wink-pop {
  0% { transform: scale(0) rotate(-20deg); opacity: 0; }
  60% { transform: scale(1.15) rotate(5deg); opacity: 1; }
  80% { transform: scale(1) rotate(0); opacity: 1; }
  100% { transform: scale(1) rotate(0); opacity: 0; }
}
@keyframes wink-swirl {
  0% { transform: rotate(0deg) translateX(180px) scale(0); opacity: 0; }
  20% { opacity: 1; }
  100% { transform: rotate(360deg) translateX(40px) scale(1); opacity: 0; }
}
@keyframes wink-shower {
  0% { transform: translateY(-60px) rotate(0); opacity: 0; }
  15% { opacity: 1; }
  100% { transform: translateY(260px) rotate(180deg); opacity: 0; }
}
@keyframes wink-trail {
  0% { offset-distance: 0%; opacity: 0; transform: scale(0.4); }
  10% { opacity: 1; transform: scale(1); }
  90% { opacity: 1; }
  100% { offset-distance: 100%; opacity: 0; transform: scale(0.6); }
}
@keyframes wink-bounce-in {
  0% { transform: translateY(-300px) scale(0.6); opacity: 0; }
  50% { transform: translateY(20px) scale(1.05); opacity: 1; }
  70% { transform: translateY(-10px) scale(0.98); }
  100% { transform: translateY(0) scale(1); opacity: 1; }
}
@keyframes wink-bounce-loop {
  0%, 100% { transform: translateY(0); }
  50% { transform: translateY(-12px); }
}
@keyframes wink-pop-up {
  0% { transform: translateY(300px); opacity: 0; }
  60% { transform: translateY(-15px); opacity: 1; }
  100% { transform: translateY(0); opacity: 1; }
}
@keyframes wink-orbit {
  from { transform: rotate(0deg) translateX(var(--orbit-r,160px)) rotate(0deg); }
  to { transform: rotate(360deg) translateX(var(--orbit-r,160px)) rotate(-360deg); }
}
@keyframes wink-scatter {
  0%, 100% { transform: translate(var(--sx,0), var(--sy,0)) scale(0.9); opacity: 0.6; }
  50% { transform: translate(calc(var(--sx,0) * 1.2), calc(var(--sy,0) * 1.2)) scale(1.05); opacity: 1; }
}
@keyframes wink-sparkle {
  0%, 100% { opacity: 0; transform: scale(0.5); }
  50% { opacity: 1; transform: scale(1.2); }
}
@keyframes wink-glow-pulse {
  0%, 100% { opacity: 0.4; transform: scale(0.95); }
  50% { opacity: 1; transform: scale(1.05); }
}
@keyframes wink-confetti-launch {
  0% { transform: translate(0,0) rotate(var(--r0,0deg)) scale(0.28); opacity: 0; }
  14% { opacity: 1; }
  72% { transform: translate(var(--tx,0px), var(--ty,0px)) rotate(var(--r1,180deg)) scale(1); opacity: 1; }
  100% { transform: translate(var(--tx,0px), var(--ty,0px)) rotate(var(--r2,320deg)) scale(0.82); opacity: 0; }
}
@keyframes wink-confetti-fall {
  0% { transform: translate(0,-90px) rotate(var(--r0,0deg)) scale(0.7); opacity: 0; }
  14% { opacity: 1; }
  82% { opacity: 1; }
  100% { transform: translate(var(--tx,0px), var(--ty,720px)) rotate(var(--r1,260deg)) scale(1); opacity: 0; }
}
@keyframes wink-confetti-shimmer {
  0%, 100% { transform: rotate(var(--r0,0deg)) scale(0.92); }
  50% { transform: rotate(var(--r1,180deg)) scale(1.08); }
}
@keyframes wink-confetti-wave {
  0% { transform: translate(var(--sx,-180px), var(--sy,0px)) rotate(var(--r0,0deg)) scale(0.5); opacity: 0; }
  18% { opacity: 1; }
  58% { transform: translate(0,0) rotate(var(--r1,180deg)) scale(1); opacity: 1; }
  100% { transform: translate(var(--tx,180px), var(--ty,0px)) rotate(var(--r2,360deg)) scale(0.78); opacity: 0; }
}
@keyframes wink-bingo-arrive {
  0% { transform: translate(var(--from-x,0), var(--from-y,0)) scale(0.34); opacity: 0; }
  18% { opacity: 1; }
  38% { transform: translate(var(--overshoot-x,0), var(--overshoot-y,0)) scale(1.09); opacity: 1; }
  46%, 100% { transform: translate(0,0) scale(1); opacity: 1; }
}
@keyframes wink-bingo-countdown {
  0%, 100% { opacity: 0; transform: scale(0.36); }
  5% { opacity: 1; transform: scale(0.92); }
  10% { opacity: 1; transform: scale(1.06); }
  16% { opacity: 0; transform: scale(1.22); }
}
@keyframes wink-bingo-spiral-letter {
  0% { transform: rotate(var(--spin-start,-220deg)) translateX(var(--orbit-r,320px)) scale(0.3); opacity: 0; }
  22% { opacity: 1; }
  42% { transform: rotate(var(--spin-mid,24deg)) translateX(18px) scale(1.1); opacity: 1; }
  52%, 100% { transform: rotate(0deg) translateX(0) scale(1); opacity: 1; }
}
@keyframes wink-bingo-final-bounce {
  0%, 54%, 100% { transform: translateY(0) scale(1); }
  64% { transform: translateY(-22px) scale(1.06); }
  76% { transform: translateY(0) scale(0.98); }
  88% { transform: translateY(-10px) scale(1.02); }
}
@keyframes wink-bingo-impact {
  0%, 56%, 100% { opacity: 0; transform: scale(0.52); }
  66% { opacity: 0.95; transform: scale(1.04); }
  78% { opacity: 0.38; transform: scale(1.34); }
}</style><g style="transform-origin:240px 120px;animation:wink-shower 2.8s linear infinite;animation-delay:0s"><path d="M240,108 L242.82136921100388,116.11671842700025 L251.41267819554184,116.29179606750063 L244.56507127821675,121.48328157299974 L247.05342302750967,129.70820393249937 L240,124.8 L232.94657697249033,129.70820393249937 L235.43492872178325,121.48328157299974 L228.58732180445816,116.29179606750063 L237.17863078899612,116.11671842700025 Z" fill="hsl(43 94% 60%)" stroke="hsl(48 100% 84%)" stroke-width="1" opacity="0.68"/></g><g style="transform-origin:338px 150px;animation:wink-shower 3.0599999999999996s linear infinite;animation-delay:0.1s"><path d="M338,135 L341.52671151375483,145.1458980337503 L352.2658477444273,145.36474508437578 L343.7063390977709,151.8541019662497 L346.8167787843871,162.13525491562422 L338,156 L329.1832212156129,162.13525491562422 L332.2936609022291,151.8541019662497 L323.73415225557267,145.36474508437578 L334.47328848624517,145.1458980337503 Z" fill="hsl(42 100% 70%)" stroke="hsl(48 100% 84%)" stroke-width="1" opacity="0.76"/></g><g style="transform-origin:436px 180px;animation:wink-shower 3.32s linear infinite;animation-delay:0.2s"><path d="M436,162 L440.2320538165058,174.17507764050038 L453.11901729331277,174.43769410125094 L442.8476069173251,182.22492235949963 L446.5801345412645,194.56230589874906 L436,187.2 L425.4198654587355,194.56230589874906 L429.1523930826749,182.22492235949963 L418.88098270668723,174.43769410125094 L431.7679461834942,174.17507764050038 Z" fill="hsl(48 100% 84%)" stroke="hsl(48 100% 84%)" stroke-width="1" opacity="0.8400000000000001"/></g><g style="transform-origin:534px 120px;animation:wink-shower 2.8s linear infinite;animation-delay:0.30000000000000004s"><path d="M534,99 L538.9373961192567,113.20425724725044 L553.9721868421982,113.5106431181261 L541.9888747368793,122.59574275274956 L546.3434902981419,136.9893568818739 L534,128.4 L521.6565097018581,136.9893568818739 L526.0111252631207,122.59574275274956 L514.0278131578018,113.51064311812611 L529.0626038807433,113.20425724725044 Z" fill="hsl(39 84% 52%)" stroke="hsl(48 100% 84%)" stroke-width="1" opacity="0.68"/></g><g style="transform-origin:632px 150px;animation:wink-shower 3.0599999999999996s linear infinite;animation-delay:0.4s"><path d="M632,138 L634.8213692110039,146.11671842700025 L643.4126781955418,146.29179606750063 L636.5650712782167,151.48328157299974 L639.0534230275097,159.70820393249937 L632,154.8 L624.9465769724903,159.70820393249937 L627.4349287217833,151.48328157299974 L620.5873218044582,146.29179606750063 L629.1786307889961,146.11671842700025 Z" fill="hsl(50 100% 92%)" stroke="hsl(48 100% 84%)" stroke-width="1" opacity="0.76"/></g><g style="transform-origin:730px 180px;animation:wink-shower 3.32s linear infinite;animation-delay:0.5s"><path d="M730,165 L733.5267115137549,175.1458980337503 L744.2658477444273,175.36474508437578 L735.7063390977709,181.8541019662497 L738.8167787843871,192.13525491562422 L730,186 L721.1832212156129,192.13525491562422 L724.2936609022291,181.8541019662497 L715.7341522555727,175.36474508437578 L726.4732884862451,175.1458980337503 Z" fill="hsl(43 94% 60%)" stroke="hsl(48 100% 84%)" stroke-width="1" opacity="0.8400000000000001"/></g><g style="transform-origin:828px 120px;animation:wink-shower 2.8s linear infinite;animation-delay:0.6000000000000001s"><path d="M828,102 L832.2320538165058,114.17507764050038 L845.1190172933127,114.43769410125094 L834.8476069173252,122.22492235949962 L838.5801345412646,134.56230589874906 L828,127.2 L817.4198654587354,134.56230589874906 L821.1523930826748,122.22492235949962 L810.8809827066873,114.43769410125095 L823.7679461834942,114.17507764050038 Z" fill="hsl(42 100% 70%)" stroke="hsl(48 100% 84%)" stroke-width="1" opacity="0.68"/></g><g style="transform-origin:926px 150px;animation:wink-shower 3.0599999999999996s linear infinite;animation-delay:0.7000000000000001s"><path d="M926,129 L930.9373961192567,143.20425724725044 L945.9721868421982,143.5106431181261 L933.9888747368793,152.59574275274957 L938.3434902981419,166.9893568818739 L926,158.4 L913.6565097018581,166.9893568818739 L918.0111252631207,152.59574275274957 L906.0278131578018,143.5106431181261 L921.0626038807433,143.20425724725044 Z" fill="hsl(48 100% 84%)" stroke="hsl(48 100% 84%)" stroke-width="1" opacity="0.76"/></g><g style="transform-origin:1024px 180px;animation:wink-shower 3.32s linear infinite;animation-delay:0.8s"><path d="M1024,168 L1026.821369211004,176.11671842700025 L1035.4126781955417,176.29179606750063 L1028.5650712782167,181.48328157299974 L1031.0534230275098,189.70820393249937 L1024,184.8 L1016.9465769724903,189.70820393249937 L1019.4349287217833,181.48328157299974 L1012.5873218044582,176.29179606750063 L1021.1786307889961,176.11671842700025 Z" fill="hsl(39 84% 52%)" stroke="hsl(48 100% 84%)" stroke-width="1" opacity="0.8400000000000001"/></g><g style="transform-origin:1122px 120px;animation:wink-shower 2.8s linear infinite;animation-delay:0.9s"><path d="M1122,105 L1125.526711513755,115.14589803375031 L1136.2658477444272,115.36474508437578 L1127.706339097771,121.85410196624969 L1130.816778784387,132.13525491562422 L1122,126 L1113.183221215613,132.13525491562422 L1116.293660902229,121.85410196624969 L1107.7341522555728,115.36474508437578 L1118.473288486245,115.14589803375031 Z" fill="hsl(50 100% 92%)" stroke="hsl(48 100% 84%)" stroke-width="1" opacity="0.68"/></g><g style="transform-origin:1220px 150px;animation:wink-shower 3.0599999999999996s linear infinite;animation-delay:1s"><path d="M1220,132 L1224.2320538165059,144.17507764050038 L1237.1190172933127,144.43769410125094 L1226.847606917325,152.22492235949963 L1230.5801345412644,164.56230589874906 L1220,157.2 L1209.4198654587356,164.56230589874906 L1213.152393082675,152.22492235949963 L1202.8809827066873,144.43769410125094 L1215.7679461834941,144.17507764050038 Z" fill="hsl(43 94% 60%)" stroke="hsl(48 100% 84%)" stroke-width="1" opacity="0.76"/></g><g style="transform-origin:1318px 180px;animation:wink-shower 3.32s linear infinite;animation-delay:1.1s"><path d="M1318,159 L1322.9373961192568,173.20425724725044 L1337.9721868421982,173.5106431181261 L1325.9888747368793,182.59574275274957 L1330.343490298142,196.9893568818739 L1318,188.4 L1305.656509701858,196.9893568818739 L1310.0111252631207,182.59574275274957 L1298.0278131578018,173.5106431181261 L1313.0626038807432,173.20425724725044 Z" fill="hsl(42 100% 70%)" stroke="hsl(48 100% 84%)" stroke-width="1" opacity="0.8400000000000001"/></g><g style="transform-origin:1416px 120px;animation:wink-shower 2.8s linear infinite;animation-delay:1.2000000000000002s"><path d="M1416,108 L1418.821369211004,116.11671842700025 L1427.4126781955417,116.29179606750063 L1420.5650712782167,121.48328157299974 L1423.0534230275098,129.70820393249937 L1416,124.8 L1408.9465769724902,129.70820393249937 L1411.4349287217833,121.48328157299974 L1404.587321804458,116.29179606750063 L1413.178630788996,116.11671842700025 Z" fill="hsl(48 100% 84%)" stroke="hsl(48 100% 84%)" stroke-width="1" opacity="0.68"/></g><g style="transform-origin:1514px 150px;animation:wink-shower 3.0599999999999996s linear infinite;animation-delay:1.3s"><path d="M1514,135 L1517.526711513755,145.1458980337503 L1528.2658477444272,145.36474508437578 L1519.706339097771,151.8541019662497 L1522.816778784387,162.13525491562422 L1514,156 L1505.183221215613,162.13525491562422 L1508.293660902229,151.8541019662497 L1499.7341522555728,145.36474508437578 L1510.473288486245,145.1458980337503 Z" fill="hsl(39 84% 52%)" stroke="hsl(48 100% 84%)" stroke-width="1" opacity="0.76"/></g><g style="transform-origin:1612px 180px;animation:wink-shower 3.32s linear infinite;animation-delay:1.4000000000000001s"><path d="M1612,162 L1616.2320538165059,174.17507764050038 L1629.1190172933127,174.43769410125094 L1618.847606917325,182.22492235949963 L1622.5801345412644,194.56230589874906 L1612,187.2 L1601.4198654587356,194.56230589874906 L1605.152393082675,182.22492235949963 L1594.8809827066873,174.43769410125094 L1607.7679461834941,174.17507764050038 Z" fill="hsl(50 100% 92%)" stroke="hsl(48 100% 84%)" stroke-width="1" opacity="0.8400000000000001"/></g><g style="transform-origin:270px 120px;animation:wink-shower 2.8s linear infinite;animation-delay:1.5s"><path d="M270,99 L274.9373961192568,113.20425724725044 L289.9721868421982,113.5106431181261 L277.98887473687927,122.59574275274956 L282.34349029814194,136.9893568818739 L270,128.4 L257.65650970185806,136.9893568818739 L262.01112526312073,122.59574275274956 L250.02781315780177,113.51064311812611 L265.0626038807432,113.20425724725044 Z" fill="hsl(43 94% 60%)" stroke="hsl(48 100% 84%)" stroke-width="1" opacity="0.68"/></g><path d="M 420 620 Q 960 420 1500 620" stroke="hsl(43 94% 60%)" stroke-width="2" fill="none" opacity="0.12"/><g style="offset-path:path('M 420 620 Q 960 420 1500 620');animation:wink-trail 3.5s linear infinite;animation-delay:1.2s"><g opacity="0.88"><line x1="-14" y1="0" x2="14" y2="0" stroke="hsl(48 100% 84%)" stroke-width="1.9" stroke-linecap="round"/><line x1="0" y1="-14" x2="0" y2="14" stroke="hsl(48 100% 84%)" stroke-width="1.9" stroke-linecap="round"/><line x1="-10.08" y1="-10.08" x2="10.08" y2="10.08" stroke="hsl(48 100% 84%)" stroke-width="1.1" stroke-linecap="round" opacity="0.66"/><line x1="-10.08" y1="10.08" x2="10.08" y2="-10.08" stroke="hsl(48 100% 84%)" stroke-width="1.1" stroke-linecap="round" opacity="0.66"/><path d="M1.543054966925665e-16,-2.52 L0.6221119110263535,-0.8562635868464444 L2.396662421063787,-0.7787228258248674 L1.0065982168467904,0.3270635868464443 L1.4812188357770324,2.0387228258248675 L6.480830861087793e-17,1.0584 L-1.481218835777032,2.0387228258248675 L-1.0065982168467904,0.32706358684644443 L-2.396662421063787,-0.7787228258248672 L-0.6221119110263537,-0.8562635868464443 Z" fill="hsl(48 100% 84%)" opacity="0.72"/></g></g><g style="offset-path:path('M 420 620 Q 960 420 1500 620');animation:wink-trail 3.5s linear infinite;animation-delay:1.28s"><g opacity="0.88"><line x1="-14" y1="0" x2="14" y2="0" stroke="hsl(48 100% 84%)" stroke-width="1.9" stroke-linecap="round"/><line x1="0" y1="-14" x2="0" y2="14" stroke="hsl(48 100% 84%)" stroke-width="1.9" stroke-linecap="round"/><line x1="-10.08" y1="-10.08" x2="10.08" y2="10.08" stroke="hsl(48 100% 84%)" stroke-width="1.1" stroke-linecap="round" opacity="0.66"/><line x1="-10.08" y1="10.08" x2="10.08" y2="-10.08" stroke="hsl(48 100% 84%)" stroke-width="1.1" stroke-linecap="round" opacity="0.66"/><path d="M1.543054966925665e-16,-2.52 L0.6221119110263535,-0.8562635868464444 L2.396662421063787,-0.7787228258248674 L1.0065982168467904,0.3270635868464443 L1.4812188357770324,2.0387228258248675 L6.480830861087793e-17,1.0584 L-1.481218835777032,2.0387228258248675 L-1.0065982168467904,0.32706358684644443 L-2.396662421063787,-0.7787228258248672 L-0.6221119110263537,-0.8562635868464443 Z" fill="hsl(48 100% 84%)" opacity="0.72"/></g></g><g style="offset-path:path('M 420 620 Q 960 420 1500 620');animation:wink-trail 3.5s linear infinite;animation-delay:1.3599999999999999s"><g opacity="0.88"><line x1="-14" y1="0" x2="14" y2="0" stroke="hsl(48 100% 84%)" stroke-width="1.9" stroke-linecap="round"/><line x1="0" y1="-14" x2="0" y2="14" stroke="hsl(48 100% 84%)" stroke-width="1.9" stroke-linecap="round"/><line x1="-10.08" y1="-10.08" x2="10.08" y2="10.08" stroke="hsl(48 100% 84%)" stroke-width="1.1" stroke-linecap="round" opacity="0.66"/><line x1="-10.08" y1="10.08" x2="10.08" y2="-10.08" stroke="hsl(48 100% 84%)" stroke-width="1.1" stroke-linecap="round" opacity="0.66"/><path d="M1.543054966925665e-16,-2.52 L0.6221119110263535,-0.8562635868464444 L2.396662421063787,-0.7787228258248674 L1.0065982168467904,0.3270635868464443 L1.4812188357770324,2.0387228258248675 L6.480830861087793e-17,1.0584 L-1.481218835777032,2.0387228258248675 L-1.0065982168467904,0.32706358684644443 L-2.396662421063787,-0.7787228258248672 L-0.6221119110263537,-0.8562635868464443 Z" fill="hsl(48 100% 84%)" opacity="0.72"/></g></g><g style="offset-path:path('M 420 620 Q 960 420 1500 620');animation:wink-trail 3.5s linear infinite;animation-delay:1.44s"><g opacity="0.88"><line x1="-14" y1="0" x2="14" y2="0" stroke="hsl(48 100% 84%)" stroke-width="1.9" stroke-linecap="round"/><line x1="0" y1="-14" x2="0" y2="14" stroke="hsl(48 100% 84%)" stroke-width="1.9" stroke-linecap="round"/><line x1="-10.08" y1="-10.08" x2="10.08" y2="10.08" stroke="hsl(48 100% 84%)" stroke-width="1.1" stroke-linecap="round" opacity="0.66"/><line x1="-10.08" y1="10.08" x2="10.08" y2="-10.08" stroke="hsl(48 100% 84%)" stroke-width="1.1" stroke-linecap="round" opacity="0.66"/><path d="M1.543054966925665e-16,-2.52 L0.6221119110263535,-0.8562635868464444 L2.396662421063787,-0.7787228258248674 L1.0065982168467904,0.3270635868464443 L1.4812188357770324,2.0387228258248675 L6.480830861087793e-17,1.0584 L-1.481218835777032,2.0387228258248675 L-1.0065982168467904,0.32706358684644443 L-2.396662421063787,-0.7787228258248672 L-0.6221119110263537,-0.8562635868464443 Z" fill="hsl(48 100% 84%)" opacity="0.72"/></g></g><g style="offset-path:path('M 420 620 Q 960 420 1500 620');animation:wink-trail 3.5s linear infinite;animation-delay:1.52s"><g opacity="0.88"><line x1="-14" y1="0" x2="14" y2="0" stroke="hsl(48 100% 84%)" stroke-width="1.9" stroke-linecap="round"/><line x1="0" y1="-14" x2="0" y2="14" stroke="hsl(48 100% 84%)" stroke-width="1.9" stroke-linecap="round"/><line x1="-10.08" y1="-10.08" x2="10.08" y2="10.08" stroke="hsl(48 100% 84%)" stroke-width="1.1" stroke-linecap="round" opacity="0.66"/><line x1="-10.08" y1="10.08" x2="10.08" y2="-10.08" stroke="hsl(48 100% 84%)" stroke-width="1.1" stroke-linecap="round" opacity="0.66"/><path d="M1.543054966925665e-16,-2.52 L0.6221119110263535,-0.8562635868464444 L2.396662421063787,-0.7787228258248674 L1.0065982168467904,0.3270635868464443 L1.4812188357770324,2.0387228258248675 L6.480830861087793e-17,1.0584 L-1.481218835777032,2.0387228258248675 L-1.0065982168467904,0.32706358684644443 L-2.396662421063787,-0.7787228258248672 L-0.6221119110263537,-0.8562635868464443 Z" fill="hsl(48 100% 84%)" opacity="0.72"/></g></g><g style="offset-path:path('M 420 620 Q 960 420 1500 620');animation:wink-trail 3.5s linear infinite;animation-delay:1.6s"><g opacity="0.88"><line x1="-14" y1="0" x2="14" y2="0" stroke="hsl(48 100% 84%)" stroke-width="1.9" stroke-linecap="round"/><line x1="0" y1="-14" x2="0" y2="14" stroke="hsl(48 100% 84%)" stroke-width="1.9" stroke-linecap="round"/><line x1="-10.08" y1="-10.08" x2="10.08" y2="10.08" stroke="hsl(48 100% 84%)" stroke-width="1.1" stroke-linecap="round" opacity="0.66"/><line x1="-10.08" y1="10.08" x2="10.08" y2="-10.08" stroke="hsl(48 100% 84%)" stroke-width="1.1" stroke-linecap="round" opacity="0.66"/><path d="M1.543054966925665e-16,-2.52 L0.6221119110263535,-0.8562635868464444 L2.396662421063787,-0.7787228258248674 L1.0065982168467904,0.3270635868464443 L1.4812188357770324,2.0387228258248675 L6.480830861087793e-17,1.0584 L-1.481218835777032,2.0387228258248675 L-1.0065982168467904,0.32706358684644443 L-2.396662421063787,-0.7787228258248672 L-0.6221119110263537,-0.8562635868464443 Z" fill="hsl(48 100% 84%)" opacity="0.72"/></g></g><g style="offset-path:path('M 420 620 Q 960 420 1500 620');animation:wink-trail 3.5s linear infinite;animation-delay:1.68s"><g opacity="0.88"><line x1="-14" y1="0" x2="14" y2="0" stroke="hsl(48 100% 84%)" stroke-width="1.9" stroke-linecap="round"/><line x1="0" y1="-14" x2="0" y2="14" stroke="hsl(48 100% 84%)" stroke-width="1.9" stroke-linecap="round"/><line x1="-10.08" y1="-10.08" x2="10.08" y2="10.08" stroke="hsl(48 100% 84%)" stroke-width="1.1" stroke-linecap="round" opacity="0.66"/><line x1="-10.08" y1="10.08" x2="10.08" y2="-10.08" stroke="hsl(48 100% 84%)" stroke-width="1.1" stroke-linecap="round" opacity="0.66"/><path d="M1.543054966925665e-16,-2.52 L0.6221119110263535,-0.8562635868464444 L2.396662421063787,-0.7787228258248674 L1.0065982168467904,0.3270635868464443 L1.4812188357770324,2.0387228258248675 L6.480830861087793e-17,1.0584 L-1.481218835777032,2.0387228258248675 L-1.0065982168467904,0.32706358684644443 L-2.396662421063787,-0.7787228258248672 L-0.6221119110263537,-0.8562635868464443 Z" fill="hsl(48 100% 84%)" opacity="0.72"/></g></g><g style="offset-path:path('M 420 620 Q 960 420 1500 620');animation:wink-trail 3.5s linear infinite;animation-delay:1.76s"><g opacity="0.88"><line x1="-14" y1="0" x2="14" y2="0" stroke="hsl(48 100% 84%)" stroke-width="1.9" stroke-linecap="round"/><line x1="0" y1="-14" x2="0" y2="14" stroke="hsl(48 100% 84%)" stroke-width="1.9" stroke-linecap="round"/><line x1="-10.08" y1="-10.08" x2="10.08" y2="10.08" stroke="hsl(48 100% 84%)" stroke-width="1.1" stroke-linecap="round" opacity="0.66"/><line x1="-10.08" y1="10.08" x2="10.08" y2="-10.08" stroke="hsl(48 100% 84%)" stroke-width="1.1" stroke-linecap="round" opacity="0.66"/><path d="M1.543054966925665e-16,-2.52 L0.6221119110263535,-0.8562635868464444 L2.396662421063787,-0.7787228258248674 L1.0065982168467904,0.3270635868464443 L1.4812188357770324,2.0387228258248675 L6.480830861087793e-17,1.0584 L-1.481218835777032,2.0387228258248675 L-1.0065982168467904,0.32706358684644443 L-2.396662421063787,-0.7787228258248672 L-0.6221119110263537,-0.8562635868464443 Z" fill="hsl(48 100% 84%)" opacity="0.72"/></g></g></svg>
