<?xml version="1.0" encoding="UTF-8" standalone="no"?>
<svg viewBox="0 0 1920 1080" preserveAspectRatio="xMidYMid meet" xmlns="http://www.w3.org/2000/svg" xmlns:xlink="http://www.w3.org/1999/xlink" width="1920" height="1080"><style>@keyframes wink-burst {
  0% { transform: scale(0); opacity: 0; }
  20% { opacity: 1; }
  60% { transform: scale(1); opacity: 1; }
  100% { transform: scale(1.15); opacity: 0; }
}
@keyframes wink-fade-loop {
  0%, 100% { opacity: 0; }
  10%, 70% { opacity: 1; }
}
@keyframes wink-spark-fall {
  0% { transform: translateY(-40px); opacity: 0; }
  20% { opacity: 1; }
  100% { transform: translateY(220px); opacity: 0; }
}
@keyframes wink-comet {
  0% { transform: translate(0,0) scale(0.6); opacity: 0; }
  30% { opacity: 1; }
  70% { transform: translate(var(--tx,0), var(--ty,-200px)) scale(1); opacity: 1; }
  100% { transform: translate(var(--tx,0), var(--ty,-200px)) scale(1.2); opacity: 0; }
}
@keyframes wink-ring-expand {
  0% { transform: scale(0.1); opacity: 0; stroke-width: 8; }
  20% { opacity: 1; }
  100% { transform: scale(1); opacity: 0; stroke-width: 1; }
}
@keyframes wink-twinkle {
  0%, 100% { transform: scale(0); opacity: 0; }
  50% { transform: scale(1); opacity: 1; }
}
@keyframes wink-pop {
  0% { transform: scale(0) rotate(-20deg); opacity: 0; }
  60% { transform: scale(1.15) rotate(5deg); opacity: 1; }
  80% { transform: scale(1) rotate(0); opacity: 1; }
  100% { transform: scale(1) rotate(0); opacity: 0; }
}
@keyframes wink-swirl {
  0% { transform: rotate(0deg) translateX(180px) scale(0); opacity: 0; }
  20% { opacity: 1; }
  100% { transform: rotate(360deg) translateX(40px) scale(1); opacity: 0; }
}
@keyframes wink-shower {
  0% { transform: translateY(-60px) rotate(0); opacity: 0; }
  15% { opacity: 1; }
  100% { transform: translateY(260px) rotate(180deg); opacity: 0; }
}
@keyframes wink-trail {
  0% { offset-distance: 0%; opacity: 0; transform: scale(0.4); }
  10% { opacity: 1; transform: scale(1); }
  90% { opacity: 1; }
  100% { offset-distance: 100%; opacity: 0; transform: scale(0.6); }
}
@keyframes wink-bounce-in {
  0% { transform: translateY(-300px) scale(0.6); opacity: 0; }
  50% { transform: translateY(20px) scale(1.05); opacity: 1; }
  70% { transform: translateY(-10px) scale(0.98); }
  100% { transform: translateY(0) scale(1); opacity: 1; }
}
@keyframes wink-bounce-loop {
  0%, 100% { transform: translateY(0); }
  50% { transform: translateY(-12px); }
}
@keyframes wink-pop-up {
  0% { transform: translateY(300px); opacity: 0; }
  60% { transform: translateY(-15px); opacity: 1; }
  100% { transform: translateY(0); opacity: 1; }
}
@keyframes wink-orbit {
  from { transform: rotate(0deg) translateX(var(--orbit-r,160px)) rotate(0deg); }
  to { transform: rotate(360deg) translateX(var(--orbit-r,160px)) rotate(-360deg); }
}
@keyframes wink-scatter {
  0%, 100% { transform: translate(var(--sx,0), var(--sy,0)) scale(0.9); opacity: 0.6; }
  50% { transform: translate(calc(var(--sx,0) * 1.2), calc(var(--sy,0) * 1.2)) scale(1.05); opacity: 1; }
}
@keyframes wink-sparkle {
  0%, 100% { opacity: 0; transform: scale(0.5); }
  50% { opacity: 1; transform: scale(1.2); }
}
@keyframes wink-glow-pulse {
  0%, 100% { opacity: 0.4; transform: scale(0.95); }
  50% { opacity: 1; transform: scale(1.05); }
}
@keyframes wink-confetti-launch {
  0% { transform: translate(0,0) rotate(var(--r0,0deg)) scale(0.28); opacity: 0; }
  14% { opacity: 1; }
  72% { transform: translate(var(--tx,0px), var(--ty,0px)) rotate(var(--r1,180deg)) scale(1); opacity: 1; }
  100% { transform: translate(var(--tx,0px), var(--ty,0px)) rotate(var(--r2,320deg)) scale(0.82); opacity: 0; }
}
@keyframes wink-confetti-fall {
  0% { transform: translate(0,-90px) rotate(var(--r0,0deg)) scale(0.7); opacity: 0; }
  14% { opacity: 1; }
  82% { opacity: 1; }
  100% { transform: translate(var(--tx,0px), var(--ty,720px)) rotate(var(--r1,260deg)) scale(1); opacity: 0; }
}
@keyframes wink-confetti-shimmer {
  0%, 100% { transform: rotate(var(--r0,0deg)) scale(0.92); }
  50% { transform: rotate(var(--r1,180deg)) scale(1.08); }
}
@keyframes wink-confetti-wave {
  0% { transform: translate(var(--sx,-180px), var(--sy,0px)) rotate(var(--r0,0deg)) scale(0.5); opacity: 0; }
  18% { opacity: 1; }
  58% { transform: translate(0,0) rotate(var(--r1,180deg)) scale(1); opacity: 1; }
  100% { transform: translate(var(--tx,180px), var(--ty,0px)) rotate(var(--r2,360deg)) scale(0.78); opacity: 0; }
}
@keyframes wink-bingo-arrive {
  0% { transform: translate(var(--from-x,0), var(--from-y,0)) scale(0.34); opacity: 0; }
  18% { opacity: 1; }
  38% { transform: translate(var(--overshoot-x,0), var(--overshoot-y,0)) scale(1.09); opacity: 1; }
  46%, 100% { transform: translate(0,0) scale(1); opacity: 1; }
}
@keyframes wink-bingo-countdown {
  0%, 100% { opacity: 0; transform: scale(0.36); }
  5% { opacity: 1; transform: scale(0.92); }
  10% { opacity: 1; transform: scale(1.06); }
  16% { opacity: 0; transform: scale(1.22); }
}
@keyframes wink-bingo-spiral-letter {
  0% { transform: rotate(var(--spin-start,-220deg)) translateX(var(--orbit-r,320px)) scale(0.3); opacity: 0; }
  22% { opacity: 1; }
  42% { transform: rotate(var(--spin-mid,24deg)) translateX(18px) scale(1.1); opacity: 1; }
  52%, 100% { transform: rotate(0deg) translateX(0) scale(1); opacity: 1; }
}
@keyframes wink-bingo-final-bounce {
  0%, 54%, 100% { transform: translateY(0) scale(1); }
  64% { transform: translateY(-22px) scale(1.06); }
  76% { transform: translateY(0) scale(0.98); }
  88% { transform: translateY(-10px) scale(1.02); }
}
@keyframes wink-bingo-impact {
  0%, 56%, 100% { opacity: 0; transform: scale(0.52); }
  66% { opacity: 0.95; transform: scale(1.04); }
  78% { opacity: 0.38; transform: scale(1.34); }
}</style><g style="transform-origin:380px 200px;animation:wink-twinkle 2.8s ease-in-out infinite;animation-delay:0s"><path d="M380,192 L381.8809128073359,197.41114561800018 L387.60845213036123,197.52786404500043 L383.0433808521445,200.98885438199983 L384.70228201833976,206.47213595499957 L380,203.2 L375.29771798166024,206.47213595499957 L376.9566191478555,200.98885438199983 L372.39154786963877,197.52786404500043 L378.1190871926641,197.41114561800018 Z" fill="hsl(43 94% 60%)" stroke="hsl(48 100% 84%)" stroke-width="0.9"/></g><g style="transform-origin:471px 273px;animation:wink-twinkle 2.8s ease-in-out infinite;animation-delay:0.14s"><path d="M471,261 L473.82136921100386,269.11671842700025 L482.41267819554184,269.2917960675006 L475.56507127821675,274.4832815729998 L478.05342302750967,282.7082039324994 L471,277.8 L463.94657697249033,282.7082039324994 L466.43492872178325,274.4832815729998 L459.58732180445816,269.2917960675006 L468.17863078899614,269.11671842700025 Z" fill="hsl(42 100% 70%)" stroke="hsl(48 100% 84%)" stroke-width="0.9"/></g><g style="transform-origin:562px 346px;animation:wink-twinkle 2.8s ease-in-out infinite;animation-delay:0.28s"><path d="M562,330 L565.7618256146718,340.82229123600035 L577.2169042607225,341.05572809000085 L568.086761704289,347.97770876399966 L571.4045640366795,358.94427190999915 L562,352.4 L552.5954359633205,358.94427190999915 L555.913238295711,347.97770876399966 L546.7830957392775,341.05572809000085 L558.2381743853282,340.82229123600035 Z" fill="hsl(48 100% 84%)" stroke="hsl(48 100% 84%)" stroke-width="0.9"/></g><g style="transform-origin:653px 419px;animation:wink-twinkle 2.8s ease-in-out infinite;animation-delay:0.42000000000000004s"><path d="M653,399 L657.7022820183398,412.5278640450004 L672.0211303259031,412.819660112501 L660.6084521303612,421.4721359549996 L664.7557050458495,435.180339887499 L653,427 L641.2442949541505,435.180339887499 L645.3915478696388,421.4721359549996 L633.9788696740969,412.8196601125011 L648.2977179816602,412.5278640450004 Z" fill="hsl(39 84% 52%)" stroke="hsl(48 100% 84%)" stroke-width="0.9"/></g><g style="transform-origin:744px 492px;animation:wink-twinkle 2.8s ease-in-out infinite;animation-delay:0.56s"><path d="M744,484 L745.8809128073359,489.41114561800015 L751.6084521303612,489.5278640450004 L747.0433808521445,492.98885438199983 L748.7022820183398,498.4721359549996 L744,495.2 L739.2977179816602,498.4721359549996 L740.9566191478555,492.98885438199983 L736.3915478696388,489.5278640450004 L742.1190871926641,489.41114561800015 Z" fill="hsl(50 100% 92%)" stroke="hsl(48 100% 84%)" stroke-width="0.9"/></g><g style="transform-origin:835px 565px;animation:wink-twinkle 2.8s ease-in-out infinite;animation-delay:0.7000000000000001s"><path d="M835,553 L837.8213692110039,561.1167184270003 L846.4126781955418,561.2917960675006 L839.5650712782167,566.4832815729998 L842.0534230275097,574.7082039324994 L835,569.8 L827.9465769724903,574.7082039324994 L830.4349287217833,566.4832815729998 L823.5873218044582,561.2917960675006 L832.1786307889961,561.1167184270003 Z" fill="hsl(43 94% 60%)" stroke="hsl(48 100% 84%)" stroke-width="0.9"/></g><g style="transform-origin:926px 638px;animation:wink-twinkle 2.8s ease-in-out infinite;animation-delay:0.8400000000000001s"><path d="M926,622 L929.7618256146718,632.8222912360003 L941.2169042607225,633.0557280900008 L932.086761704289,639.9777087639997 L935.4045640366795,650.9442719099992 L926,644.4 L916.5954359633205,650.9442719099992 L919.913238295711,639.9777087639997 L910.7830957392775,633.0557280900008 L922.2381743853282,632.8222912360003 Z" fill="hsl(42 100% 70%)" stroke="hsl(48 100% 84%)" stroke-width="0.9"/></g><g style="transform-origin:1017px 711px;animation:wink-twinkle 2.8s ease-in-out infinite;animation-delay:0.9800000000000001s"><path d="M1017,691 L1021.7022820183398,704.5278640450005 L1036.021130325903,704.8196601125011 L1024.6084521303612,713.4721359549995 L1028.7557050458495,727.1803398874989 L1017,719 L1005.2442949541505,727.1803398874989 L1009.3915478696388,713.4721359549995 L997.9788696740969,704.8196601125011 L1012.2977179816602,704.5278640450005 Z" fill="hsl(48 100% 84%)" stroke="hsl(48 100% 84%)" stroke-width="0.9"/></g><g style="transform-origin:1108px 784px;animation:wink-twinkle 2.8s ease-in-out infinite;animation-delay:1.12s"><path d="M1108,776 L1109.880912807336,781.4111456180002 L1115.6084521303612,781.5278640450005 L1111.0433808521445,784.9888543819999 L1112.7022820183397,790.4721359549995 L1108,787.2 L1103.2977179816603,790.4721359549995 L1104.9566191478555,784.9888543819999 L1100.3915478696388,781.5278640450005 L1106.119087192664,781.4111456180002 Z" fill="hsl(39 84% 52%)" stroke="hsl(48 100% 84%)" stroke-width="0.9"/></g><g style="transform-origin:1199px 857px;animation:wink-twinkle 2.8s ease-in-out infinite;animation-delay:1.2600000000000002s"><path d="M1199,845 L1201.821369211004,853.1167184270003 L1210.4126781955417,853.2917960675006 L1203.5650712782167,858.4832815729998 L1206.0534230275098,866.7082039324994 L1199,861.8 L1191.9465769724902,866.7082039324994 L1194.4349287217833,858.4832815729998 L1187.587321804458,853.2917960675006 L1196.178630788996,853.1167184270003 Z" fill="hsl(50 100% 92%)" stroke="hsl(48 100% 84%)" stroke-width="0.9"/></g><g style="transform-origin:1290px 250px;animation:wink-twinkle 2.8s ease-in-out infinite;animation-delay:1.4000000000000001s"><path d="M1290,234 L1293.7618256146718,244.82229123600032 L1305.2169042607225,245.05572809000085 L1296.086761704289,251.97770876399966 L1299.4045640366796,262.94427190999915 L1290,256.4 L1280.5954359633204,262.94427190999915 L1283.913238295711,251.97770876399966 L1274.7830957392775,245.05572809000085 L1286.2381743853282,244.82229123600032 Z" fill="hsl(43 94% 60%)" stroke="hsl(48 100% 84%)" stroke-width="0.9"/></g><g style="transform-origin:1381px 323px;animation:wink-twinkle 2.8s ease-in-out infinite;animation-delay:1.54s"><path d="M1381,303 L1385.7022820183397,316.5278640450004 L1400.021130325903,316.819660112501 L1388.6084521303612,325.4721359549996 L1392.7557050458495,339.180339887499 L1381,331 L1369.2442949541505,339.180339887499 L1373.3915478696388,325.4721359549996 L1361.978869674097,316.8196601125011 L1376.2977179816603,316.5278640450004 Z" fill="hsl(42 100% 70%)" stroke="hsl(48 100% 84%)" stroke-width="0.9"/></g><g style="transform-origin:1472px 396px;animation:wink-twinkle 2.8s ease-in-out infinite;animation-delay:1.6800000000000002s"><path d="M1472,388 L1473.880912807336,393.41114561800015 L1479.6084521303612,393.5278640450004 L1475.0433808521445,396.98885438199983 L1476.7022820183397,402.4721359549996 L1472,399.2 L1467.2977179816603,402.4721359549996 L1468.9566191478555,396.98885438199983 L1464.3915478696388,393.5278640450004 L1470.119087192664,393.41114561800015 Z" fill="hsl(48 100% 84%)" stroke="hsl(48 100% 84%)" stroke-width="0.9"/></g><g style="transform-origin:403px 469px;animation:wink-twinkle 2.8s ease-in-out infinite;animation-delay:1.8200000000000003s"><path d="M403,457 L405.82136921100386,465.11671842700025 L414.41267819554184,465.2917960675006 L407.56507127821675,470.4832815729998 L410.05342302750967,478.7082039324994 L403,473.8 L395.94657697249033,478.7082039324994 L398.43492872178325,470.4832815729998 L391.58732180445816,465.2917960675006 L400.17863078899614,465.11671842700025 Z" fill="hsl(39 84% 52%)" stroke="hsl(48 100% 84%)" stroke-width="0.9"/></g><g style="transform-origin:494px 542px;animation:wink-twinkle 2.8s ease-in-out infinite;animation-delay:1.9600000000000002s"><path d="M494,526 L497.7618256146718,536.8222912360003 L509.21690426072246,537.0557280900008 L500.08676170428896,543.9777087639997 L503.4045640366796,554.9442719099992 L494,548.4 L484.5954359633204,554.9442719099992 L487.91323829571104,543.9777087639997 L478.78309573927754,537.0557280900008 L490.2381743853282,536.8222912360003 Z" fill="hsl(50 100% 92%)" stroke="hsl(48 100% 84%)" stroke-width="0.9"/></g><g style="transform-origin:585px 615px;animation:wink-twinkle 2.8s ease-in-out infinite;animation-delay:2.1s"><path d="M585,595 L589.7022820183398,608.5278640450005 L604.0211303259031,608.8196601125011 L592.6084521303612,617.4721359549995 L596.7557050458495,631.1803398874989 L585,623 L573.2442949541505,631.1803398874989 L577.3915478696388,617.4721359549995 L565.9788696740969,608.8196601125011 L580.2977179816602,608.5278640450005 Z" fill="hsl(43 94% 60%)" stroke="hsl(48 100% 84%)" stroke-width="0.9"/></g><g style="transform-origin:676px 688px;animation:wink-twinkle 2.8s ease-in-out infinite;animation-delay:2.24s"><path d="M676,680 L677.8809128073359,685.4111456180002 L683.6084521303612,685.5278640450005 L679.0433808521445,688.9888543819999 L680.7022820183398,694.4721359549995 L676,691.2 L671.2977179816602,694.4721359549995 L672.9566191478555,688.9888543819999 L668.3915478696388,685.5278640450005 L674.1190871926641,685.4111456180002 Z" fill="hsl(42 100% 70%)" stroke="hsl(48 100% 84%)" stroke-width="0.9"/></g><g style="transform-origin:767px 761px;animation:wink-twinkle 2.8s ease-in-out infinite;animation-delay:2.3800000000000003s"><path d="M767,749 L769.8213692110039,757.1167184270003 L778.4126781955418,757.2917960675006 L771.5650712782167,762.4832815729998 L774.0534230275097,770.7082039324994 L767,765.8 L759.9465769724903,770.7082039324994 L762.4349287217833,762.4832815729998 L755.5873218044582,757.2917960675006 L764.1786307889961,757.1167184270003 Z" fill="hsl(48 100% 84%)" stroke="hsl(48 100% 84%)" stroke-width="0.9"/></g><g style="transform-origin:858px 834px;animation:wink-twinkle 2.8s ease-in-out infinite;animation-delay:2.5200000000000005s"><path d="M858,818 L861.7618256146718,828.8222912360003 L873.2169042607225,829.0557280900008 L864.086761704289,835.9777087639997 L867.4045640366795,846.9442719099992 L858,840.4 L848.5954359633205,846.9442719099992 L851.913238295711,835.9777087639997 L842.7830957392775,829.0557280900008 L854.2381743853282,828.8222912360003 Z" fill="hsl(39 84% 52%)" stroke="hsl(48 100% 84%)" stroke-width="0.9"/></g><g style="transform-origin:949px 227px;animation:wink-twinkle 2.8s ease-in-out infinite;animation-delay:2.66s"><path d="M949,207 L953.7022820183398,220.52786404500043 L968.0211303259031,220.81966011250105 L956.6084521303612,229.47213595499957 L960.7557050458495,243.18033988749895 L949,235 L937.2442949541505,243.18033988749895 L941.3915478696388,229.47213595499957 L929.9788696740969,220.81966011250105 L944.2977179816602,220.52786404500043 Z" fill="hsl(50 100% 92%)" stroke="hsl(48 100% 84%)" stroke-width="0.9"/></g><g style="transform-origin:1040px 300px;animation:wink-twinkle 2.8s ease-in-out infinite;animation-delay:4.440892098500626e-16s"><path d="M1040,292 L1041.880912807336,297.41114561800015 L1047.6084521303612,297.5278640450004 L1043.0433808521445,300.98885438199983 L1044.7022820183397,306.4721359549996 L1040,303.2 L1035.2977179816603,306.4721359549996 L1036.9566191478555,300.98885438199983 L1032.3915478696388,297.5278640450004 L1038.119087192664,297.41114561800015 Z" fill="hsl(43 94% 60%)" stroke="hsl(48 100% 84%)" stroke-width="0.9"/></g><g style="transform-origin:1131px 373px;animation:wink-twinkle 2.8s ease-in-out infinite;animation-delay:0.14000000000000057s"><path d="M1131,361 L1133.821369211004,369.11671842700025 L1142.4126781955417,369.2917960675006 L1135.5650712782167,374.4832815729998 L1138.0534230275098,382.7082039324994 L1131,377.8 L1123.9465769724902,382.7082039324994 L1126.4349287217833,374.4832815729998 L1119.587321804458,369.2917960675006 L1128.178630788996,369.11671842700025 Z" fill="hsl(42 100% 70%)" stroke="hsl(48 100% 84%)" stroke-width="0.9"/></g><g style="transform-origin:1222px 446px;animation:wink-twinkle 2.8s ease-in-out infinite;animation-delay:0.28000000000000025s"><path d="M1222,430 L1225.7618256146718,440.82229123600035 L1237.2169042607225,441.05572809000085 L1228.086761704289,447.97770876399966 L1231.4045640366796,458.94427190999915 L1222,452.4 L1212.5954359633204,458.94427190999915 L1215.913238295711,447.97770876399966 L1206.7830957392775,441.05572809000085 L1218.2381743853282,440.82229123600035 Z" fill="hsl(48 100% 84%)" stroke="hsl(48 100% 84%)" stroke-width="0.9"/></g><g style="transform-origin:1313px 519px;animation:wink-twinkle 2.8s ease-in-out infinite;animation-delay:0.4200000000000004s"><path d="M1313,499 L1317.7022820183397,512.5278640450005 L1332.021130325903,512.8196601125011 L1320.6084521303612,521.4721359549995 L1324.7557050458495,535.1803398874989 L1313,527 L1301.2442949541505,535.1803398874989 L1305.3915478696388,521.4721359549995 L1293.978869674097,512.8196601125011 L1308.2977179816603,512.5278640450005 Z" fill="hsl(39 84% 52%)" stroke="hsl(48 100% 84%)" stroke-width="0.9"/></g><g style="transform-origin:1404px 592px;animation:wink-twinkle 2.8s ease-in-out infinite;animation-delay:0.5600000000000005s"><path d="M1404,584 L1405.880912807336,589.4111456180002 L1411.6084521303612,589.5278640450005 L1407.0433808521445,592.9888543819999 L1408.7022820183397,598.4721359549995 L1404,595.2 L1399.2977179816603,598.4721359549995 L1400.9566191478555,592.9888543819999 L1396.3915478696388,589.5278640450005 L1402.119087192664,589.4111456180002 Z" fill="hsl(50 100% 92%)" stroke="hsl(48 100% 84%)" stroke-width="0.9"/></g><g style="transform-origin:1495px 665px;animation:wink-twinkle 2.8s ease-in-out infinite;animation-delay:0.7000000000000006s"><path d="M1495,653 L1497.821369211004,661.1167184270003 L1506.4126781955417,661.2917960675006 L1499.5650712782167,666.4832815729998 L1502.0534230275098,674.7082039324994 L1495,669.8 L1487.9465769724902,674.7082039324994 L1490.4349287217833,666.4832815729998 L1483.587321804458,661.2917960675006 L1492.178630788996,661.1167184270003 Z" fill="hsl(43 94% 60%)" stroke="hsl(48 100% 84%)" stroke-width="0.9"/></g><circle cx="404" cy="182" r="4" fill="hsl(48 100% 84%)" opacity="0.55" style="animation:wink-fade-loop 3.2s ease-in-out infinite;animation-delay:0.4s"/><circle cx="859" cy="547" r="4" fill="hsl(48 100% 84%)" opacity="0.55" style="animation:wink-fade-loop 3.2s ease-in-out infinite;animation-delay:0.56s"/><circle cx="1314" cy="232" r="4" fill="hsl(48 100% 84%)" opacity="0.55" style="animation:wink-fade-loop 3.2s ease-in-out infinite;animation-delay:0.72s"/><circle cx="609" cy="597" r="4" fill="hsl(48 100% 84%)" opacity="0.55" style="animation:wink-fade-loop 3.2s ease-in-out infinite;animation-delay:0.88s"/><circle cx="1064" cy="282" r="4" fill="hsl(48 100% 84%)" opacity="0.55" style="animation:wink-fade-loop 3.2s ease-in-out infinite;animation-delay:1.04s"/><circle cx="1519" cy="647" r="4" fill="hsl(48 100% 84%)" opacity="0.55" style="animation:wink-fade-loop 3.2s ease-in-out infinite;animation-delay:1.2000000000000002s"/></svg>
