<?xml version="1.0" encoding="UTF-8" standalone="no"?>
<svg viewBox="0 0 1920 1080" preserveAspectRatio="xMidYMid meet" xmlns="http://www.w3.org/2000/svg" xmlns:xlink="http://www.w3.org/1999/xlink" width="1920" height="1080"><style>@keyframes wink-burst {
  0% { transform: scale(0); opacity: 0; }
  20% { opacity: 1; }
  60% { transform: scale(1); opacity: 1; }
  100% { transform: scale(1.15); opacity: 0; }
}
@keyframes wink-fade-loop {
  0%, 100% { opacity: 0; }
  10%, 70% { opacity: 1; }
}
@keyframes wink-spark-fall {
  0% { transform: translateY(-40px); opacity: 0; }
  20% { opacity: 1; }
  100% { transform: translateY(220px); opacity: 0; }
}
@keyframes wink-comet {
  0% { transform: translate(0,0) scale(0.6); opacity: 0; }
  30% { opacity: 1; }
  70% { transform: translate(var(--tx,0), var(--ty,-200px)) scale(1); opacity: 1; }
  100% { transform: translate(var(--tx,0), var(--ty,-200px)) scale(1.2); opacity: 0; }
}
@keyframes wink-ring-expand {
  0% { transform: scale(0.1); opacity: 0; stroke-width: 8; }
  20% { opacity: 1; }
  100% { transform: scale(1); opacity: 0; stroke-width: 1; }
}
@keyframes wink-twinkle {
  0%, 100% { transform: scale(0); opacity: 0; }
  50% { transform: scale(1); opacity: 1; }
}
@keyframes wink-pop {
  0% { transform: scale(0) rotate(-20deg); opacity: 0; }
  60% { transform: scale(1.15) rotate(5deg); opacity: 1; }
  80% { transform: scale(1) rotate(0); opacity: 1; }
  100% { transform: scale(1) rotate(0); opacity: 0; }
}
@keyframes wink-swirl {
  0% { transform: rotate(0deg) translateX(180px) scale(0); opacity: 0; }
  20% { opacity: 1; }
  100% { transform: rotate(360deg) translateX(40px) scale(1); opacity: 0; }
}
@keyframes wink-shower {
  0% { transform: translateY(-60px) rotate(0); opacity: 0; }
  15% { opacity: 1; }
  100% { transform: translateY(260px) rotate(180deg); opacity: 0; }
}
@keyframes wink-trail {
  0% { offset-distance: 0%; opacity: 0; transform: scale(0.4); }
  10% { opacity: 1; transform: scale(1); }
  90% { opacity: 1; }
  100% { offset-distance: 100%; opacity: 0; transform: scale(0.6); }
}
@keyframes wink-bounce-in {
  0% { transform: translateY(-300px) scale(0.6); opacity: 0; }
  50% { transform: translateY(20px) scale(1.05); opacity: 1; }
  70% { transform: translateY(-10px) scale(0.98); }
  100% { transform: translateY(0) scale(1); opacity: 1; }
}
@keyframes wink-bounce-loop {
  0%, 100% { transform: translateY(0); }
  50% { transform: translateY(-12px); }
}
@keyframes wink-pop-up {
  0% { transform: translateY(300px); opacity: 0; }
  60% { transform: translateY(-15px); opacity: 1; }
  100% { transform: translateY(0); opacity: 1; }
}
@keyframes wink-featured-pop {
  0%, 100% { transform: translateY(0) scale(0.78) rotate(-6deg); opacity: 1; }
  12% { transform: translateY(-26px) scale(1.3) rotate(4deg); opacity: 1; }
  22% { transform: translateY(10px) scale(0.95) rotate(-2deg); opacity: 1; }
  34%, 76% { transform: translateY(0) scale(1) rotate(0deg); opacity: 1; }
  88% { transform: translateY(-8px) scale(1.06) rotate(0deg); opacity: 1; }
}
@keyframes wink-featured-burst {
  0%, 40%, 100% { transform: scale(0.38); opacity: 0; }
  48% { transform: scale(0.92); opacity: 0.95; }
  60% { transform: scale(1.18); opacity: 0.42; }
  72% { transform: scale(1.34); opacity: 0; }
}
@keyframes wink-orbit {
  from { transform: rotate(0deg) translateX(var(--orbit-r,160px)) rotate(0deg); }
  to { transform: rotate(360deg) translateX(var(--orbit-r,160px)) rotate(-360deg); }
}
@keyframes wink-scatter {
  0%, 100% { transform: translate(var(--sx,0), var(--sy,0)) scale(0.9); opacity: 0.6; }
  50% { transform: translate(calc(var(--sx,0) * 1.2), calc(var(--sy,0) * 1.2)) scale(1.05); opacity: 1; }
}
@keyframes wink-sparkle {
  0%, 100% { opacity: 0; transform: scale(0.5); }
  50% { opacity: 1; transform: scale(1.2); }
}
@keyframes wink-glow-pulse {
  0%, 100% { opacity: 0.4; transform: scale(0.95); }
  50% { opacity: 1; transform: scale(1.05); }
}
@keyframes wink-confetti-launch {
  0% { transform: translate(0,0) rotate(var(--r0,0deg)) scale(0.28); opacity: 0; }
  14% { opacity: 1; }
  72% { transform: translate(var(--tx,0px), var(--ty,0px)) rotate(var(--r1,180deg)) scale(1); opacity: 1; }
  100% { transform: translate(var(--tx,0px), var(--ty,0px)) rotate(var(--r2,320deg)) scale(0.82); opacity: 0; }
}
@keyframes wink-confetti-fall {
  0% { transform: translate(0,-90px) rotate(var(--r0,0deg)) scale(0.7); opacity: 0; }
  14% { opacity: 1; }
  82% { opacity: 1; }
  100% { transform: translate(var(--tx,0px), var(--ty,720px)) rotate(var(--r1,260deg)) scale(1); opacity: 0; }
}
@keyframes wink-confetti-shimmer {
  0%, 100% { transform: rotate(var(--r0,0deg)) scale(0.92); }
  50% { transform: rotate(var(--r1,180deg)) scale(1.08); }
}
@keyframes wink-confetti-wave {
  0% { transform: translate(var(--sx,-180px), var(--sy,0px)) rotate(var(--r0,0deg)) scale(0.5); opacity: 0; }
  18% { opacity: 1; }
  58% { transform: translate(0,0) rotate(var(--r1,180deg)) scale(1); opacity: 1; }
  100% { transform: translate(var(--tx,180px), var(--ty,0px)) rotate(var(--r2,360deg)) scale(0.78); opacity: 0; }
}
@keyframes wink-bingo-arrive {
  0% { transform: translate(var(--from-x,0), var(--from-y,0)) scale(0.34); opacity: 0; }
  18% { opacity: 1; }
  38% { transform: translate(var(--overshoot-x,0), var(--overshoot-y,0)) scale(1.09); opacity: 1; }
  46%, 100% { transform: translate(0,0) scale(1); opacity: 1; }
}
@keyframes wink-bingo-countdown {
  0%, 100% { opacity: 0; transform: scale(0.36); }
  5% { opacity: 1; transform: scale(0.92); }
  10% { opacity: 1; transform: scale(1.06); }
  16% { opacity: 0; transform: scale(1.22); }
}
@keyframes wink-bingo-spiral-letter {
  0% { transform: rotate(var(--spin-start,-220deg)) translateX(var(--orbit-r,320px)) scale(0.3); opacity: 0; }
  22% { opacity: 1; }
  42% { transform: rotate(var(--spin-mid,24deg)) translateX(18px) scale(1.1); opacity: 1; }
  52%, 100% { transform: rotate(0deg) translateX(0) scale(1); opacity: 1; }
}
@keyframes wink-bingo-final-bounce {
  0%, 54%, 100% { transform: translateY(0) scale(1); }
  64% { transform: translateY(-22px) scale(1.06); }
  76% { transform: translateY(0) scale(0.98); }
  88% { transform: translateY(-10px) scale(1.02); }
}
@keyframes wink-bingo-impact {
  0%, 56%, 100% { opacity: 0; transform: scale(0.52); }
  66% { opacity: 0.95; transform: scale(1.04); }
  78% { opacity: 0.38; transform: scale(1.34); }
}</style><defs><radialGradient id="gsg-center-glow" cx="50%" cy="50%" r="50%"><stop offset="0%" stop-color="hsl(48 100% 84%)" stop-opacity="0.86"/><stop offset="24%" stop-color="hsl(43 100% 72%)" stop-opacity="0.15600000000000003"/><stop offset="58%" stop-color="hsl(43 100% 72%)" stop-opacity="0.052000000000000005"/><stop offset="100%" stop-color="hsl(36 78% 40%)" stop-opacity="0"/></radialGradient></defs><g id="content" transform="translate(960 540) scale(1.1869552714792064) translate(-960 -538.152587890625)"><g style="animation:wink-glow-pulse 6s ease-in-out infinite"><g opacity="0.52"><ellipse cx="960" cy="540" rx="249.6" ry="187.2" fill="url(#gsg-center-glow)" opacity="0.34"/><ellipse cx="949.6" cy="524.4" rx="150.79999999999998" ry="109.2" fill="url(#gsg-center-glow)" opacity="0.26"/><ellipse cx="973" cy="547.8" rx="83.2" ry="62.4" fill="url(#gsg-center-glow)" opacity="0.18"/></g><path d="M960,510 L967.0534230275097,530.2917960675006 L988.5316954888546,530.7294901687516 L971.4126781955418,543.7082039324994 L977.6335575687742,564.2705098312484 L960,552 L942.3664424312258,564.2705098312484 L948.5873218044582,543.7082039324994 L931.4683045111453,530.7294901687516 L952.9465769724903,530.2917960675006 Z" fill="hsl(43 94% 60%)" stroke="hsl(48 100% 84%)" stroke-width="1.6"/></g><ellipse cx="960" cy="540" rx="360" ry="230" fill="none" stroke="hsl(48 100% 84%)" stroke-width="1.2" opacity="0.16"/><ellipse cx="960" cy="540" rx="235" ry="150" fill="none" stroke="hsl(43 94% 60%)" stroke-width="1.2" opacity="0.14"/><g transform="translate(960 540)"><g style="--orbit-r:120px;transform-origin:0 0;animation:wink-orbit 6s linear infinite;animation-delay:0s"><path d="M7.960204194457795e-16,-13 L3.0564833119208603,-4.206888370749727 L12.363734711836996,-4.017220926874316 L4.945493884734798,1.6068883707497266 L7.641208279802151,10.517220926874316 L3.1840816777831187e-16,5.2 L-7.641208279802149,10.517220926874316 L-4.945493884734798,1.606888370749727 L-12.363734711836997,-4.017220926874315 L-3.056483311920861,-4.206888370749726 Z" fill="hsl(43 94% 60%)" stroke="hsl(48 100% 84%)" stroke-width="1"/></g><g style="--orbit-r:120px;transform-origin:0 0;animation:wink-orbit 6s linear infinite;animation-delay:-1.2000000000000002s"><path d="M7.960204194457795e-16,-13 L3.0564833119208603,-4.206888370749727 L12.363734711836996,-4.017220926874316 L4.945493884734798,1.6068883707497266 L7.641208279802151,10.517220926874316 L3.1840816777831187e-16,5.2 L-7.641208279802149,10.517220926874316 L-4.945493884734798,1.606888370749727 L-12.363734711836997,-4.017220926874315 L-3.056483311920861,-4.206888370749726 Z" fill="hsl(42 100% 70%)" stroke="hsl(48 100% 84%)" stroke-width="1"/></g><g style="--orbit-r:120px;transform-origin:0 0;animation:wink-orbit 6s linear infinite;animation-delay:-2.4000000000000004s"><path d="M7.960204194457795e-16,-13 L3.0564833119208603,-4.206888370749727 L12.363734711836996,-4.017220926874316 L4.945493884734798,1.6068883707497266 L7.641208279802151,10.517220926874316 L3.1840816777831187e-16,5.2 L-7.641208279802149,10.517220926874316 L-4.945493884734798,1.606888370749727 L-12.363734711836997,-4.017220926874315 L-3.056483311920861,-4.206888370749726 Z" fill="hsl(48 100% 84%)" stroke="hsl(48 100% 84%)" stroke-width="1"/></g><g style="--orbit-r:120px;transform-origin:0 0;animation:wink-orbit 6s linear infinite;animation-delay:-3.5999999999999996s"><path d="M7.960204194457795e-16,-13 L3.0564833119208603,-4.206888370749727 L12.363734711836996,-4.017220926874316 L4.945493884734798,1.6068883707497266 L7.641208279802151,10.517220926874316 L3.1840816777831187e-16,5.2 L-7.641208279802149,10.517220926874316 L-4.945493884734798,1.606888370749727 L-12.363734711836997,-4.017220926874315 L-3.056483311920861,-4.206888370749726 Z" fill="hsl(39 84% 52%)" stroke="hsl(48 100% 84%)" stroke-width="1"/></g><g style="--orbit-r:120px;transform-origin:0 0;animation:wink-orbit 6s linear infinite;animation-delay:-4.800000000000001s"><path d="M7.960204194457795e-16,-13 L3.0564833119208603,-4.206888370749727 L12.363734711836996,-4.017220926874316 L4.945493884734798,1.6068883707497266 L7.641208279802151,10.517220926874316 L3.1840816777831187e-16,5.2 L-7.641208279802149,10.517220926874316 L-4.945493884734798,1.606888370749727 L-12.363734711836997,-4.017220926874315 L-3.056483311920861,-4.206888370749726 Z" fill="hsl(50 100% 92%)" stroke="hsl(48 100% 84%)" stroke-width="1"/></g></g><g transform="translate(960 540)"><g style="--orbit-r:225px;transform-origin:0 0;animation:wink-orbit 9s linear infinite;animation-delay:0s"><path d="M9.797174393178826e-16,-16 L3.761825614671828,-5.177708763999664 L15.216904260722456,-4.944271909999158 L6.086761704288983,1.9777087639996633 L9.40456403667957,12.94427190999916 L3.9188697572715305e-16,6.4 L-9.404564036679568,12.94427190999916 L-6.086761704288983,1.9777087639996642 L-15.216904260722458,-4.9442719099991566 L-3.761825614671829,-5.1777087639996635 Z" fill="hsl(42 100% 70%)" stroke="hsl(48 100% 84%)" stroke-width="1"/></g><g style="--orbit-r:225px;transform-origin:0 0;animation:wink-orbit 9s linear infinite;animation-delay:-1.2857142857142856s"><path d="M9.797174393178826e-16,-16 L3.761825614671828,-5.177708763999664 L15.216904260722456,-4.944271909999158 L6.086761704288983,1.9777087639996633 L9.40456403667957,12.94427190999916 L3.9188697572715305e-16,6.4 L-9.404564036679568,12.94427190999916 L-6.086761704288983,1.9777087639996642 L-15.216904260722458,-4.9442719099991566 L-3.761825614671829,-5.1777087639996635 Z" fill="hsl(48 100% 84%)" stroke="hsl(48 100% 84%)" stroke-width="1"/></g><g style="--orbit-r:225px;transform-origin:0 0;animation:wink-orbit 9s linear infinite;animation-delay:-2.571428571428571s"><path d="M9.797174393178826e-16,-16 L3.761825614671828,-5.177708763999664 L15.216904260722456,-4.944271909999158 L6.086761704288983,1.9777087639996633 L9.40456403667957,12.94427190999916 L3.9188697572715305e-16,6.4 L-9.404564036679568,12.94427190999916 L-6.086761704288983,1.9777087639996642 L-15.216904260722458,-4.9442719099991566 L-3.761825614671829,-5.1777087639996635 Z" fill="hsl(39 84% 52%)" stroke="hsl(48 100% 84%)" stroke-width="1"/></g><g style="--orbit-r:225px;transform-origin:0 0;animation:wink-orbit 9s linear infinite;animation-delay:-3.8571428571428568s"><path d="M9.797174393178826e-16,-16 L3.761825614671828,-5.177708763999664 L15.216904260722456,-4.944271909999158 L6.086761704288983,1.9777087639996633 L9.40456403667957,12.94427190999916 L3.9188697572715305e-16,6.4 L-9.404564036679568,12.94427190999916 L-6.086761704288983,1.9777087639996642 L-15.216904260722458,-4.9442719099991566 L-3.761825614671829,-5.1777087639996635 Z" fill="hsl(50 100% 92%)" stroke="hsl(48 100% 84%)" stroke-width="1"/></g><g style="--orbit-r:225px;transform-origin:0 0;animation:wink-orbit 9s linear infinite;animation-delay:-5.142857142857142s"><path d="M9.797174393178826e-16,-16 L3.761825614671828,-5.177708763999664 L15.216904260722456,-4.944271909999158 L6.086761704288983,1.9777087639996633 L9.40456403667957,12.94427190999916 L3.9188697572715305e-16,6.4 L-9.404564036679568,12.94427190999916 L-6.086761704288983,1.9777087639996642 L-15.216904260722458,-4.9442719099991566 L-3.761825614671829,-5.1777087639996635 Z" fill="hsl(43 94% 60%)" stroke="hsl(48 100% 84%)" stroke-width="1"/></g><g style="--orbit-r:225px;transform-origin:0 0;animation:wink-orbit 9s linear infinite;animation-delay:-6.428571428571429s"><path d="M9.797174393178826e-16,-16 L3.761825614671828,-5.177708763999664 L15.216904260722456,-4.944271909999158 L6.086761704288983,1.9777087639996633 L9.40456403667957,12.94427190999916 L3.9188697572715305e-16,6.4 L-9.404564036679568,12.94427190999916 L-6.086761704288983,1.9777087639996642 L-15.216904260722458,-4.9442719099991566 L-3.761825614671829,-5.1777087639996635 Z" fill="hsl(42 100% 70%)" stroke="hsl(48 100% 84%)" stroke-width="1"/></g><g style="--orbit-r:225px;transform-origin:0 0;animation:wink-orbit 9s linear infinite;animation-delay:-7.7142857142857135s"><path d="M9.797174393178826e-16,-16 L3.761825614671828,-5.177708763999664 L15.216904260722456,-4.944271909999158 L6.086761704288983,1.9777087639996633 L9.40456403667957,12.94427190999916 L3.9188697572715305e-16,6.4 L-9.404564036679568,12.94427190999916 L-6.086761704288983,1.9777087639996642 L-15.216904260722458,-4.9442719099991566 L-3.761825614671829,-5.1777087639996635 Z" fill="hsl(48 100% 84%)" stroke="hsl(48 100% 84%)" stroke-width="1"/></g></g><g transform="translate(960 540)"><g style="--orbit-r:330px;transform-origin:0 0;animation:wink-orbit 12s linear infinite;animation-delay:0s"><path d="M1.102182119232618e-15,-18 L4.232053816505807,-5.824922359499622 L17.119017293312762,-5.562305898749053 L6.8476069173251055,2.2249223594996215 L10.580134541264517,14.562305898749054 L4.4087284769304716e-16,7.2 L-10.580134541264515,14.562305898749054 L-6.8476069173251055,2.224922359499622 L-17.119017293312766,-5.5623058987490515 L-4.2320538165058075,-5.824922359499621 Z" fill="hsl(48 100% 84%)" stroke="hsl(48 100% 84%)" stroke-width="1"/></g><g style="--orbit-r:330px;transform-origin:0 0;animation:wink-orbit 12s linear infinite;animation-delay:-1.3333333333333333s"><path d="M1.102182119232618e-15,-18 L4.232053816505807,-5.824922359499622 L17.119017293312762,-5.562305898749053 L6.8476069173251055,2.2249223594996215 L10.580134541264517,14.562305898749054 L4.4087284769304716e-16,7.2 L-10.580134541264515,14.562305898749054 L-6.8476069173251055,2.224922359499622 L-17.119017293312766,-5.5623058987490515 L-4.2320538165058075,-5.824922359499621 Z" fill="hsl(39 84% 52%)" stroke="hsl(48 100% 84%)" stroke-width="1"/></g><g style="--orbit-r:330px;transform-origin:0 0;animation:wink-orbit 12s linear infinite;animation-delay:-2.6666666666666665s"><path d="M1.102182119232618e-15,-18 L4.232053816505807,-5.824922359499622 L17.119017293312762,-5.562305898749053 L6.8476069173251055,2.2249223594996215 L10.580134541264517,14.562305898749054 L4.4087284769304716e-16,7.2 L-10.580134541264515,14.562305898749054 L-6.8476069173251055,2.224922359499622 L-17.119017293312766,-5.5623058987490515 L-4.2320538165058075,-5.824922359499621 Z" fill="hsl(50 100% 92%)" stroke="hsl(48 100% 84%)" stroke-width="1"/></g><g style="--orbit-r:330px;transform-origin:0 0;animation:wink-orbit 12s linear infinite;animation-delay:-4s"><path d="M1.102182119232618e-15,-18 L4.232053816505807,-5.824922359499622 L17.119017293312762,-5.562305898749053 L6.8476069173251055,2.2249223594996215 L10.580134541264517,14.562305898749054 L4.4087284769304716e-16,7.2 L-10.580134541264515,14.562305898749054 L-6.8476069173251055,2.224922359499622 L-17.119017293312766,-5.5623058987490515 L-4.2320538165058075,-5.824922359499621 Z" fill="hsl(43 94% 60%)" stroke="hsl(48 100% 84%)" stroke-width="1"/></g><g style="--orbit-r:330px;transform-origin:0 0;animation:wink-orbit 12s linear infinite;animation-delay:-5.333333333333333s"><path d="M1.102182119232618e-15,-18 L4.232053816505807,-5.824922359499622 L17.119017293312762,-5.562305898749053 L6.8476069173251055,2.2249223594996215 L10.580134541264517,14.562305898749054 L4.4087284769304716e-16,7.2 L-10.580134541264515,14.562305898749054 L-6.8476069173251055,2.224922359499622 L-17.119017293312766,-5.5623058987490515 L-4.2320538165058075,-5.824922359499621 Z" fill="hsl(42 100% 70%)" stroke="hsl(48 100% 84%)" stroke-width="1"/></g><g style="--orbit-r:330px;transform-origin:0 0;animation:wink-orbit 12s linear infinite;animation-delay:-6.666666666666667s"><path d="M1.102182119232618e-15,-18 L4.232053816505807,-5.824922359499622 L17.119017293312762,-5.562305898749053 L6.8476069173251055,2.2249223594996215 L10.580134541264517,14.562305898749054 L4.4087284769304716e-16,7.2 L-10.580134541264515,14.562305898749054 L-6.8476069173251055,2.224922359499622 L-17.119017293312766,-5.5623058987490515 L-4.2320538165058075,-5.824922359499621 Z" fill="hsl(48 100% 84%)" stroke="hsl(48 100% 84%)" stroke-width="1"/></g><g style="--orbit-r:330px;transform-origin:0 0;animation:wink-orbit 12s linear infinite;animation-delay:-8s"><path d="M1.102182119232618e-15,-18 L4.232053816505807,-5.824922359499622 L17.119017293312762,-5.562305898749053 L6.8476069173251055,2.2249223594996215 L10.580134541264517,14.562305898749054 L4.4087284769304716e-16,7.2 L-10.580134541264515,14.562305898749054 L-6.8476069173251055,2.224922359499622 L-17.119017293312766,-5.5623058987490515 L-4.2320538165058075,-5.824922359499621 Z" fill="hsl(39 84% 52%)" stroke="hsl(48 100% 84%)" stroke-width="1"/></g><g style="--orbit-r:330px;transform-origin:0 0;animation:wink-orbit 12s linear infinite;animation-delay:-9.333333333333334s"><path d="M1.102182119232618e-15,-18 L4.232053816505807,-5.824922359499622 L17.119017293312762,-5.562305898749053 L6.8476069173251055,2.2249223594996215 L10.580134541264517,14.562305898749054 L4.4087284769304716e-16,7.2 L-10.580134541264515,14.562305898749054 L-6.8476069173251055,2.224922359499622 L-17.119017293312766,-5.5623058987490515 L-4.2320538165058075,-5.824922359499621 Z" fill="hsl(50 100% 92%)" stroke="hsl(48 100% 84%)" stroke-width="1"/></g><g style="--orbit-r:330px;transform-origin:0 0;animation:wink-orbit 12s linear infinite;animation-delay:-10.666666666666666s"><path d="M1.102182119232618e-15,-18 L4.232053816505807,-5.824922359499622 L17.119017293312762,-5.562305898749053 L6.8476069173251055,2.2249223594996215 L10.580134541264517,14.562305898749054 L4.4087284769304716e-16,7.2 L-10.580134541264515,14.562305898749054 L-6.8476069173251055,2.224922359499622 L-17.119017293312766,-5.5623058987490515 L-4.2320538165058075,-5.824922359499621 Z" fill="hsl(43 94% 60%)" stroke="hsl(48 100% 84%)" stroke-width="1"/></g></g></g></svg>
