<?xml version="1.0" encoding="UTF-8" standalone="no"?>
<svg viewBox="0 0 1920 1080" preserveAspectRatio="xMidYMid meet" xmlns="http://www.w3.org/2000/svg" xmlns:xlink="http://www.w3.org/1999/xlink" width="1920" height="1080"><style>@keyframes wink-burst {
  0% { transform: scale(0); opacity: 0; }
  20% { opacity: 1; }
  60% { transform: scale(1); opacity: 1; }
  100% { transform: scale(1.15); opacity: 0; }
}
@keyframes wink-fade-loop {
  0%, 100% { opacity: 0; }
  10%, 70% { opacity: 1; }
}
@keyframes wink-spark-fall {
  0% { transform: translateY(-40px); opacity: 0; }
  20% { opacity: 1; }
  100% { transform: translateY(220px); opacity: 0; }
}
@keyframes wink-comet {
  0% { transform: translate(0,0) scale(0.6); opacity: 0; }
  30% { opacity: 1; }
  70% { transform: translate(var(--tx,0), var(--ty,-200px)) scale(1); opacity: 1; }
  100% { transform: translate(var(--tx,0), var(--ty,-200px)) scale(1.2); opacity: 0; }
}
@keyframes wink-ring-expand {
  0% { transform: scale(0.1); opacity: 0; stroke-width: 8; }
  20% { opacity: 1; }
  100% { transform: scale(1); opacity: 0; stroke-width: 1; }
}
@keyframes wink-twinkle {
  0%, 100% { transform: scale(0); opacity: 0; }
  50% { transform: scale(1); opacity: 1; }
}
@keyframes wink-pop {
  0% { transform: scale(0) rotate(-20deg); opacity: 0; }
  60% { transform: scale(1.15) rotate(5deg); opacity: 1; }
  80% { transform: scale(1) rotate(0); opacity: 1; }
  100% { transform: scale(1) rotate(0); opacity: 0; }
}
@keyframes wink-swirl {
  0% { transform: rotate(0deg) translateX(180px) scale(0); opacity: 0; }
  20% { opacity: 1; }
  100% { transform: rotate(360deg) translateX(40px) scale(1); opacity: 0; }
}
@keyframes wink-shower {
  0% { transform: translateY(-60px) rotate(0); opacity: 0; }
  15% { opacity: 1; }
  100% { transform: translateY(260px) rotate(180deg); opacity: 0; }
}
@keyframes wink-trail {
  0% { offset-distance: 0%; opacity: 0; transform: scale(0.4); }
  10% { opacity: 1; transform: scale(1); }
  90% { opacity: 1; }
  100% { offset-distance: 100%; opacity: 0; transform: scale(0.6); }
}
@keyframes wink-bounce-in {
  0% { transform: translateY(-300px) scale(0.6); opacity: 0; }
  50% { transform: translateY(20px) scale(1.05); opacity: 1; }
  70% { transform: translateY(-10px) scale(0.98); }
  100% { transform: translateY(0) scale(1); opacity: 1; }
}
@keyframes wink-bounce-loop {
  0%, 100% { transform: translateY(0); }
  50% { transform: translateY(-12px); }
}
@keyframes wink-pop-up {
  0% { transform: translateY(300px); opacity: 0; }
  60% { transform: translateY(-15px); opacity: 1; }
  100% { transform: translateY(0); opacity: 1; }
}
@keyframes wink-featured-pop {
  0%, 100% { transform: translateY(0) scale(0.78) rotate(-6deg); opacity: 1; }
  12% { transform: translateY(-26px) scale(1.3) rotate(4deg); opacity: 1; }
  22% { transform: translateY(10px) scale(0.95) rotate(-2deg); opacity: 1; }
  34%, 76% { transform: translateY(0) scale(1) rotate(0deg); opacity: 1; }
  88% { transform: translateY(-8px) scale(1.06) rotate(0deg); opacity: 1; }
}
@keyframes wink-featured-burst {
  0%, 40%, 100% { transform: scale(0.38); opacity: 0; }
  48% { transform: scale(0.92); opacity: 0.95; }
  60% { transform: scale(1.18); opacity: 0.42; }
  72% { transform: scale(1.34); opacity: 0; }
}
@keyframes wink-orbit {
  from { transform: rotate(0deg) translateX(var(--orbit-r,160px)) rotate(0deg); }
  to { transform: rotate(360deg) translateX(var(--orbit-r,160px)) rotate(-360deg); }
}
@keyframes wink-scatter {
  0%, 100% { transform: translate(var(--sx,0), var(--sy,0)) scale(0.9); opacity: 0.6; }
  50% { transform: translate(calc(var(--sx,0) * 1.2), calc(var(--sy,0) * 1.2)) scale(1.05); opacity: 1; }
}
@keyframes wink-sparkle {
  0%, 100% { opacity: 0; transform: scale(0.5); }
  50% { opacity: 1; transform: scale(1.2); }
}
@keyframes wink-glow-pulse {
  0%, 100% { opacity: 0.4; transform: scale(0.95); }
  50% { opacity: 1; transform: scale(1.05); }
}
@keyframes wink-confetti-launch {
  0% { transform: translate(0,0) rotate(var(--r0,0deg)) scale(0.28); opacity: 0; }
  14% { opacity: 1; }
  72% { transform: translate(var(--tx,0px), var(--ty,0px)) rotate(var(--r1,180deg)) scale(1); opacity: 1; }
  100% { transform: translate(var(--tx,0px), var(--ty,0px)) rotate(var(--r2,320deg)) scale(0.82); opacity: 0; }
}
@keyframes wink-confetti-fall {
  0% { transform: translate(0,-90px) rotate(var(--r0,0deg)) scale(0.7); opacity: 0; }
  14% { opacity: 1; }
  82% { opacity: 1; }
  100% { transform: translate(var(--tx,0px), var(--ty,720px)) rotate(var(--r1,260deg)) scale(1); opacity: 0; }
}
@keyframes wink-confetti-shimmer {
  0%, 100% { transform: rotate(var(--r0,0deg)) scale(0.92); }
  50% { transform: rotate(var(--r1,180deg)) scale(1.08); }
}
@keyframes wink-confetti-wave {
  0% { transform: translate(var(--sx,-180px), var(--sy,0px)) rotate(var(--r0,0deg)) scale(0.5); opacity: 0; }
  18% { opacity: 1; }
  58% { transform: translate(0,0) rotate(var(--r1,180deg)) scale(1); opacity: 1; }
  100% { transform: translate(var(--tx,180px), var(--ty,0px)) rotate(var(--r2,360deg)) scale(0.78); opacity: 0; }
}
@keyframes wink-bingo-arrive {
  0% { transform: translate(var(--from-x,0), var(--from-y,0)) scale(0.34); opacity: 0; }
  18% { opacity: 1; }
  38% { transform: translate(var(--overshoot-x,0), var(--overshoot-y,0)) scale(1.09); opacity: 1; }
  46%, 100% { transform: translate(0,0) scale(1); opacity: 1; }
}
@keyframes wink-bingo-countdown {
  0%, 100% { opacity: 0; transform: scale(0.36); }
  5% { opacity: 1; transform: scale(0.92); }
  10% { opacity: 1; transform: scale(1.06); }
  16% { opacity: 0; transform: scale(1.22); }
}
@keyframes wink-bingo-spiral-letter {
  0% { transform: rotate(var(--spin-start,-220deg)) translateX(var(--orbit-r,320px)) scale(0.3); opacity: 0; }
  22% { opacity: 1; }
  42% { transform: rotate(var(--spin-mid,24deg)) translateX(18px) scale(1.1); opacity: 1; }
  52%, 100% { transform: rotate(0deg) translateX(0) scale(1); opacity: 1; }
}
@keyframes wink-bingo-final-bounce {
  0%, 54%, 100% { transform: translateY(0) scale(1); }
  64% { transform: translateY(-22px) scale(1.06); }
  76% { transform: translateY(0) scale(0.98); }
  88% { transform: translateY(-10px) scale(1.02); }
}
@keyframes wink-bingo-impact {
  0%, 56%, 100% { opacity: 0; transform: scale(0.52); }
  66% { opacity: 0.95; transform: scale(1.04); }
  78% { opacity: 0.38; transform: scale(1.34); }
}</style><defs><radialGradient id="gsgf-center-glow" cx="50%" cy="50%" r="50%"><stop offset="0%" stop-color="hsl(48 100% 84%)" stop-opacity="0.86"/><stop offset="24%" stop-color="hsl(43 100% 72%)" stop-opacity="0.1404"/><stop offset="58%" stop-color="hsl(43 100% 72%)" stop-opacity="0.0468"/><stop offset="100%" stop-color="hsl(36 78% 40%)" stop-opacity="0"/></radialGradient><linearGradient x1="0" x2="0" y1="0" y2="1" data-wink-edge-fade="true" id="wink-edge-fade-mask-top"><stop offset="0%" stop-color="#000"/><stop offset="100%" stop-color="#fff"/></linearGradient><linearGradient x1="0" x2="0" y1="0" y2="1" data-wink-edge-fade="true" id="wink-edge-fade-mask-bottom"><stop offset="0%" stop-color="#fff"/><stop offset="100%" stop-color="#000"/></linearGradient><linearGradient x1="0" x2="1" y1="0" y2="0" data-wink-edge-fade="true" id="wink-edge-fade-mask-left"><stop offset="0%" stop-color="#000"/><stop offset="100%" stop-color="#fff"/></linearGradient><linearGradient x1="0" x2="1" y1="0" y2="0" data-wink-edge-fade="true" id="wink-edge-fade-mask-right"><stop offset="0%" stop-color="#fff"/><stop offset="100%" stop-color="#000"/></linearGradient><radialGradient cx="100%" cy="100%" r="100%" data-wink-edge-fade="true" id="wink-edge-fade-mask-top-left"><stop offset="0%" stop-color="#fff"/><stop offset="100%" stop-color="#000"/></radialGradient><radialGradient cx="0%" cy="100%" r="100%" data-wink-edge-fade="true" id="wink-edge-fade-mask-top-right"><stop offset="0%" stop-color="#fff"/><stop offset="100%" stop-color="#000"/></radialGradient><radialGradient cx="100%" cy="0%" r="100%" data-wink-edge-fade="true" id="wink-edge-fade-mask-bottom-left"><stop offset="0%" stop-color="#fff"/><stop offset="100%" stop-color="#000"/></radialGradient><radialGradient cx="0%" cy="0%" r="100%" data-wink-edge-fade="true" id="wink-edge-fade-mask-bottom-right"><stop offset="0%" stop-color="#fff"/><stop offset="100%" stop-color="#000"/></radialGradient><mask data-wink-edge-fade="true" height="1080" id="wink-edge-fade-mask" maskContentUnits="userSpaceOnUse" maskUnits="userSpaceOnUse" mask-type="alpha" width="1920" x="0" y="0"><rect fill="#000" height="1080" width="1920" x="0" y="0"/><rect fill="#fff" height="864" width="1536" x="192" y="108"/><rect fill="url(#wink-edge-fade-mask-top)" height="108" width="1536" x="192" y="0"/><rect fill="url(#wink-edge-fade-mask-bottom)" height="108" width="1536" x="192" y="972"/><rect fill="url(#wink-edge-fade-mask-left)" height="864" width="192" x="0" y="108"/><rect fill="url(#wink-edge-fade-mask-right)" height="864" width="192" x="1728" y="108"/><rect fill="url(#wink-edge-fade-mask-top-left)" height="108" width="192" x="0" y="0"/><rect fill="url(#wink-edge-fade-mask-top-right)" height="108" width="192" x="1728" y="0"/><rect fill="url(#wink-edge-fade-mask-bottom-left)" height="108" width="192" x="0" y="972"/><rect fill="url(#wink-edge-fade-mask-bottom-right)" height="108" width="192" x="1728" y="972"/></mask></defs><g id="content" transform="translate(960 540) scale(0.9910561651267473) translate(-981.3985137939453 -405.83351707458496)" mask="url(#wink-edge-fade-mask)"><g style="transform-origin:620px 250px;animation:wink-twinkle 3.8s ease-in-out infinite;animation-delay:0.08s"><path d="M620,234 L623.7618256146718,244.82229123600032 L635.2169042607225,245.05572809000085 L626.086761704289,251.97770876399966 L629.4045640366795,262.94427190999915 L620,256.4 L610.5954359633205,262.94427190999915 L613.913238295711,251.97770876399966 L604.7830957392775,245.05572809000085 L616.2381743853282,244.82229123600032 Z" fill="hsl(43 94% 60%)" stroke="hsl(48 100% 84%)" stroke-width="1"/></g><g style="transform-origin:820px 190px;animation:wink-twinkle 3.8s ease-in-out infinite;animation-delay:0.18s"><path d="M820,178 L822.8213692110039,186.11671842700025 L831.4126781955418,186.29179606750063 L824.5650712782167,191.48328157299974 L827.0534230275097,199.70820393249937 L820,194.8 L812.9465769724903,199.70820393249937 L815.4349287217833,191.48328157299974 L808.5873218044582,186.29179606750063 L817.1786307889961,186.11671842700025 Z" fill="hsl(42 100% 70%)" stroke="hsl(48 100% 84%)" stroke-width="1"/></g><g style="transform-origin:1100px 180px;animation:wink-twinkle 3.8s ease-in-out infinite;animation-delay:0.28s"><path d="M1100,168 L1102.821369211004,176.11671842700025 L1111.4126781955417,176.29179606750063 L1104.5650712782167,181.48328157299974 L1107.0534230275098,189.70820393249937 L1100,184.8 L1092.9465769724902,189.70820393249937 L1095.4349287217833,181.48328157299974 L1088.587321804458,176.29179606750063 L1097.178630788996,176.11671842700025 Z" fill="hsl(48 100% 84%)" stroke="hsl(48 100% 84%)" stroke-width="1"/></g><g style="transform-origin:1320px 240px;animation:wink-twinkle 3.8s ease-in-out infinite;animation-delay:0.38s"><path d="M1320,224 L1323.7618256146718,234.82229123600032 L1335.2169042607225,235.05572809000085 L1326.086761704289,241.97770876399966 L1329.4045640366796,252.94427190999915 L1320,246.4 L1310.5954359633204,252.94427190999915 L1313.913238295711,241.97770876399966 L1304.7830957392775,235.05572809000085 L1316.2381743853282,234.82229123600032 Z" fill="hsl(39 84% 52%)" stroke="hsl(48 100% 84%)" stroke-width="1"/></g><g style="transform-origin:520px 720px;animation:wink-twinkle 3.8s ease-in-out infinite;animation-delay:0.22s"><path d="M520,706 L523.2915974128379,715.4695048315003 L533.3147912281321,715.6737620787508 L525.3259164912529,721.7304951684997 L528.2289935320946,731.3262379212492 L520,725.6 L511.77100646790535,731.3262379212492 L514.6740835087471,721.7304951684997 L506.68520877186785,715.6737620787508 L516.7084025871621,715.4695048315003 Z" fill="hsl(50 100% 92%)" stroke="hsl(48 100% 84%)" stroke-width="1"/></g><g style="transform-origin:1400px 720px;animation:wink-twinkle 3.8s ease-in-out infinite;animation-delay:0.34s"><path d="M1400,706 L1403.2915974128377,715.4695048315003 L1413.3147912281322,715.6737620787508 L1405.3259164912529,721.7304951684997 L1408.2289935320946,731.3262379212492 L1400,725.6 L1391.7710064679054,731.3262379212492 L1394.6740835087471,721.7304951684997 L1386.6852087718678,715.6737620787508 L1396.7084025871623,715.4695048315003 Z" fill="hsl(43 94% 60%)" stroke="hsl(48 100% 84%)" stroke-width="1"/></g><g style="transform-origin:960px 540px;animation:wink-burst 3.8s ease-out infinite;animation-delay:0.7s"><g opacity="0.38"><ellipse cx="960" cy="540" rx="288" ry="216" fill="url(#gsgf-center-glow)" opacity="0.34"/><ellipse cx="948" cy="522" rx="174" ry="126" fill="url(#gsgf-center-glow)" opacity="0.26"/><ellipse cx="975" cy="549" rx="96" ry="72" fill="url(#gsgf-center-glow)" opacity="0.18"/></g><g><line x1="960" y1="540" x2="1180" y2="540" stroke="hsl(43 94% 60%)" stroke-width="3" stroke-linecap="round" opacity="0.9"/><path d="M1180,522 L1184.2320538165059,534.1750776405004 L1197.1190172933127,534.4376941012509 L1186.847606917325,542.2249223594996 L1190.5801345412644,554.5623058987491 L1180,547.2 L1169.4198654587356,554.5623058987491 L1173.152393082675,542.2249223594996 L1162.8809827066873,534.4376941012509 L1175.7679461834941,534.1750776405004 Z" fill="hsl(43 94% 60%)" stroke="hsl(48 100% 84%)" stroke-width="1.1"/></g><g><line x1="960" y1="540" x2="1137.9837387624884" y2="669.3127555043441" stroke="hsl(43 94% 60%)" stroke-width="3" stroke-linecap="round" opacity="0.9"/><path d="M1137.9837387624884,651.3127555043441 L1142.2157925789943,663.4878331448444 L1155.1027560558011,663.750449605595 L1144.8313456798135,671.5376778638437 L1148.5638733037529,683.8750614030931 L1137.9837387624884,676.5127555043441 L1127.403604221224,683.8750614030931 L1131.1361318451634,671.5376778638437 L1120.8647214691757,663.750449605595 L1133.7516849459826,663.4878331448444 Z" fill="hsl(43 94% 60%)" stroke="hsl(48 100% 84%)" stroke-width="1.1"/></g><g><line x1="960" y1="540" x2="1027.9837387624884" y2="749.2324335849338" stroke="hsl(43 94% 60%)" stroke-width="3" stroke-linecap="round" opacity="0.9"/><path d="M1027.9837387624884,731.2324335849338 L1032.2157925789943,743.4075112254342 L1045.1027560558011,743.6701276861847 L1034.8313456798135,751.4573559444334 L1038.5638733037529,763.7947394836829 L1027.9837387624884,756.4324335849338 L1017.4036042212239,763.7947394836829 L1021.1361318451633,751.4573559444334 L1010.8647214691757,743.6701276861847 L1023.7516849459827,743.4075112254342 Z" fill="hsl(43 94% 60%)" stroke="hsl(48 100% 84%)" stroke-width="1.1"/></g><g><line x1="960" y1="540" x2="892.0162612375116" y2="749.2324335849338" stroke="hsl(43 94% 60%)" stroke-width="3" stroke-linecap="round" opacity="0.9"/><path d="M892.0162612375116,731.2324335849338 L896.2483150540173,743.4075112254342 L909.1352785308243,743.6701276861847 L898.8638681548367,751.4573559444334 L902.5963957787761,763.7947394836829 L892.0162612375116,756.4324335849338 L881.436126696247,763.7947394836829 L885.1686543201864,751.4573559444334 L874.8972439441989,743.6701276861847 L887.7842074210058,743.4075112254342 Z" fill="hsl(43 94% 60%)" stroke="hsl(48 100% 84%)" stroke-width="1.1"/></g><g><line x1="960" y1="540" x2="782.0162612375116" y2="669.3127555043441" stroke="hsl(43 94% 60%)" stroke-width="3" stroke-linecap="round" opacity="0.9"/><path d="M782.0162612375116,651.3127555043441 L786.2483150540173,663.4878331448444 L799.1352785308243,663.750449605595 L788.8638681548367,671.5376778638437 L792.5963957787761,683.8750614030931 L782.0162612375116,676.5127555043441 L771.436126696247,683.8750614030931 L775.1686543201864,671.5376778638437 L764.8972439441989,663.750449605595 L777.7842074210058,663.4878331448444 Z" fill="hsl(43 94% 60%)" stroke="hsl(48 100% 84%)" stroke-width="1.1"/></g><g><line x1="960" y1="540" x2="740" y2="540" stroke="hsl(43 94% 60%)" stroke-width="3" stroke-linecap="round" opacity="0.9"/><path d="M740,522 L744.2320538165058,534.1750776405004 L757.1190172933127,534.4376941012509 L746.8476069173252,542.2249223594996 L750.5801345412646,554.5623058987491 L740,547.2 L729.4198654587354,554.5623058987491 L733.1523930826748,542.2249223594996 L722.8809827066873,534.4376941012509 L735.7679461834942,534.1750776405004 Z" fill="hsl(43 94% 60%)" stroke="hsl(48 100% 84%)" stroke-width="1.1"/></g><g><line x1="960" y1="540" x2="782.0162612375116" y2="410.68724449565593" stroke="hsl(43 94% 60%)" stroke-width="3" stroke-linecap="round" opacity="0.9"/><path d="M782.0162612375116,392.68724449565593 L786.2483150540173,404.8623221361563 L799.1352785308243,405.1249385969069 L788.8638681548367,412.91216685515553 L792.5963957787761,425.249550394405 L782.0162612375116,417.8872444956559 L771.436126696247,425.249550394405 L775.1686543201864,412.91216685515553 L764.8972439441989,405.1249385969069 L777.7842074210058,404.8623221361563 Z" fill="hsl(43 94% 60%)" stroke="hsl(48 100% 84%)" stroke-width="1.1"/></g><g><line x1="960" y1="540" x2="892.0162612375116" y2="330.7675664150662" stroke="hsl(43 94% 60%)" stroke-width="3" stroke-linecap="round" opacity="0.9"/><path d="M892.0162612375116,312.7675664150662 L896.2483150540173,324.9426440555666 L909.1352785308243,325.20526051631714 L898.8638681548367,332.9924887745658 L902.5963957787761,345.32987231381526 L892.0162612375116,337.9675664150662 L881.436126696247,345.32987231381526 L885.1686543201864,332.9924887745658 L874.8972439441989,325.20526051631714 L887.7842074210058,324.9426440555666 Z" fill="hsl(43 94% 60%)" stroke="hsl(48 100% 84%)" stroke-width="1.1"/></g><g><line x1="960" y1="540" x2="1027.9837387624884" y2="330.7675664150662" stroke="hsl(43 94% 60%)" stroke-width="3" stroke-linecap="round" opacity="0.9"/><path d="M1027.9837387624884,312.7675664150662 L1032.2157925789943,324.9426440555666 L1045.1027560558011,325.20526051631714 L1034.8313456798135,332.9924887745658 L1038.5638733037529,345.32987231381526 L1027.9837387624884,337.9675664150662 L1017.4036042212239,345.32987231381526 L1021.1361318451633,332.9924887745658 L1010.8647214691757,325.20526051631714 L1023.7516849459827,324.9426440555666 Z" fill="hsl(43 94% 60%)" stroke="hsl(48 100% 84%)" stroke-width="1.1"/></g><g><line x1="960" y1="540" x2="1137.9837387624884" y2="410.6872444956559" stroke="hsl(43 94% 60%)" stroke-width="3" stroke-linecap="round" opacity="0.9"/><path d="M1137.9837387624884,392.6872444956559 L1142.2157925789943,404.86232213615625 L1155.1027560558011,405.1249385969068 L1144.8313456798135,412.9121668551555 L1148.5638733037529,425.24955039440493 L1137.9837387624884,417.88724449565586 L1127.403604221224,425.24955039440493 L1131.1361318451634,412.9121668551555 L1120.8647214691757,405.1249385969068 L1133.7516849459826,404.86232213615625 Z" fill="hsl(43 94% 60%)" stroke="hsl(48 100% 84%)" stroke-width="1.1"/></g></g><g style="transform-origin:260px 120px;animation:wink-shower 3.8s linear infinite;animation-delay:1.32s"><path d="M260,108 L262.82136921100386,116.11671842700025 L271.41267819554184,116.29179606750063 L264.56507127821675,121.48328157299974 L267.05342302750967,129.70820393249937 L260,124.8 L252.94657697249033,129.70820393249937 L255.43492872178325,121.48328157299974 L248.58732180445816,116.29179606750063 L257.17863078899614,116.11671842700025 Z" fill="hsl(42 100% 70%)" stroke="hsl(48 100% 84%)" stroke-width="1"/></g><g style="transform-origin:390px 120px;animation:wink-shower 3.8s linear infinite;animation-delay:1.4000000000000001s"><path d="M390,104 L393.7618256146718,114.82229123600034 L405.21690426072246,115.05572809000084 L396.08676170428896,121.97770876399966 L399.4045640366796,132.94427190999915 L390,126.4 L380.5954359633204,132.94427190999915 L383.91323829571104,121.97770876399966 L374.78309573927754,115.05572809000084 L386.2381743853282,114.82229123600034 Z" fill="hsl(48 100% 84%)" stroke="hsl(48 100% 84%)" stroke-width="1"/></g><g style="transform-origin:520px 120px;animation:wink-shower 3.8s linear infinite;animation-delay:1.48s"><path d="M520,100 L524.7022820183398,113.52786404500043 L539.0211303259031,113.81966011250105 L527.6084521303612,122.47213595499957 L531.7557050458495,136.18033988749895 L520,128 L508.2442949541505,136.18033988749895 L512.3915478696388,122.47213595499959 L500.9788696740969,113.81966011250105 L515.2977179816602,113.52786404500043 Z" fill="hsl(39 84% 52%)" stroke="hsl(48 100% 84%)" stroke-width="1"/></g><g style="transform-origin:650px 120px;animation:wink-shower 3.8s linear infinite;animation-delay:1.56s"><path d="M650,108 L652.8213692110039,116.11671842700025 L661.4126781955418,116.29179606750063 L654.5650712782167,121.48328157299974 L657.0534230275097,129.70820393249937 L650,124.8 L642.9465769724903,129.70820393249937 L645.4349287217833,121.48328157299974 L638.5873218044582,116.29179606750063 L647.1786307889961,116.11671842700025 Z" fill="hsl(50 100% 92%)" stroke="hsl(48 100% 84%)" stroke-width="1"/></g><g style="transform-origin:780px 120px;animation:wink-shower 3.8s linear infinite;animation-delay:1.32s"><path d="M780,104 L783.7618256146718,114.82229123600034 L795.2169042607225,115.05572809000084 L786.086761704289,121.97770876399966 L789.4045640366795,132.94427190999915 L780,126.4 L770.5954359633205,132.94427190999915 L773.913238295711,121.97770876399966 L764.7830957392775,115.05572809000084 L776.2381743853282,114.82229123600034 Z" fill="hsl(43 94% 60%)" stroke="hsl(48 100% 84%)" stroke-width="1"/></g><g style="transform-origin:910px 120px;animation:wink-shower 3.8s linear infinite;animation-delay:1.4000000000000001s"><path d="M910,100 L914.7022820183398,113.52786404500043 L929.0211303259031,113.81966011250105 L917.6084521303612,122.47213595499957 L921.7557050458495,136.18033988749895 L910,128 L898.2442949541505,136.18033988749895 L902.3915478696388,122.47213595499959 L890.9788696740969,113.81966011250105 L905.2977179816602,113.52786404500043 Z" fill="hsl(42 100% 70%)" stroke="hsl(48 100% 84%)" stroke-width="1"/></g><g style="transform-origin:1040px 120px;animation:wink-shower 3.8s linear infinite;animation-delay:1.48s"><path d="M1040,108 L1042.821369211004,116.11671842700025 L1051.4126781955417,116.29179606750063 L1044.5650712782167,121.48328157299974 L1047.0534230275098,129.70820393249937 L1040,124.8 L1032.9465769724902,129.70820393249937 L1035.4349287217833,121.48328157299974 L1028.587321804458,116.29179606750063 L1037.178630788996,116.11671842700025 Z" fill="hsl(48 100% 84%)" stroke="hsl(48 100% 84%)" stroke-width="1"/></g><g style="transform-origin:1170px 120px;animation:wink-shower 3.8s linear infinite;animation-delay:1.56s"><path d="M1170,104 L1173.7618256146718,114.82229123600034 L1185.2169042607225,115.05572809000084 L1176.086761704289,121.97770876399966 L1179.4045640366796,132.94427190999915 L1170,126.4 L1160.5954359633204,132.94427190999915 L1163.913238295711,121.97770876399966 L1154.7830957392775,115.05572809000084 L1166.2381743853282,114.82229123600034 Z" fill="hsl(39 84% 52%)" stroke="hsl(48 100% 84%)" stroke-width="1"/></g><g style="transform-origin:1300px 120px;animation:wink-shower 3.8s linear infinite;animation-delay:1.32s"><path d="M1300,100 L1304.7022820183397,113.52786404500043 L1319.021130325903,113.81966011250105 L1307.6084521303612,122.47213595499957 L1311.7557050458495,136.18033988749895 L1300,128 L1288.2442949541505,136.18033988749895 L1292.3915478696388,122.47213595499959 L1280.978869674097,113.81966011250105 L1295.2977179816603,113.52786404500043 Z" fill="hsl(50 100% 92%)" stroke="hsl(48 100% 84%)" stroke-width="1"/></g><g style="transform-origin:1430px 120px;animation:wink-shower 3.8s linear infinite;animation-delay:1.4000000000000001s"><path d="M1430,108 L1432.821369211004,116.11671842700025 L1441.4126781955417,116.29179606750063 L1434.5650712782167,121.48328157299974 L1437.0534230275098,129.70820393249937 L1430,124.8 L1422.9465769724902,129.70820393249937 L1425.4349287217833,121.48328157299974 L1418.587321804458,116.29179606750063 L1427.178630788996,116.11671842700025 Z" fill="hsl(43 94% 60%)" stroke="hsl(48 100% 84%)" stroke-width="1"/></g><g style="transform-origin:1560px 120px;animation:wink-shower 3.8s linear infinite;animation-delay:1.48s"><path d="M1560,104 L1563.7618256146718,114.82229123600034 L1575.2169042607225,115.05572809000084 L1566.086761704289,121.97770876399966 L1569.4045640366796,132.94427190999915 L1560,126.4 L1550.5954359633204,132.94427190999915 L1553.913238295711,121.97770876399966 L1544.7830957392775,115.05572809000084 L1556.2381743853282,114.82229123600034 Z" fill="hsl(42 100% 70%)" stroke="hsl(48 100% 84%)" stroke-width="1"/></g><g style="transform-origin:1690px 120px;animation:wink-shower 3.8s linear infinite;animation-delay:1.56s"><path d="M1690,100 L1694.7022820183397,113.52786404500043 L1709.021130325903,113.81966011250105 L1697.6084521303612,122.47213595499957 L1701.7557050458495,136.18033988749895 L1690,128 L1678.2442949541505,136.18033988749895 L1682.3915478696388,122.47213595499959 L1670.978869674097,113.81966011250105 L1685.2977179816603,113.52786404500043 Z" fill="hsl(48 100% 84%)" stroke="hsl(48 100% 84%)" stroke-width="1"/></g><g style="transform-origin:960px 540px;animation:wink-glow-pulse 1.8s ease-in-out infinite;animation-delay:2.1s"><g opacity="0.88"><line x1="926" y1="540" x2="994" y2="540" stroke="hsl(48 100% 84%)" stroke-width="1.9" stroke-linecap="round"/><line x1="960" y1="506" x2="960" y2="574" stroke="hsl(48 100% 84%)" stroke-width="1.9" stroke-linecap="round"/><line x1="935.52" y1="515.52" x2="984.48" y2="564.48" stroke="hsl(48 100% 84%)" stroke-width="1.1" stroke-linecap="round" opacity="0.66"/><line x1="935.52" y1="564.48" x2="984.48" y2="515.52" stroke="hsl(48 100% 84%)" stroke-width="1.1" stroke-linecap="round" opacity="0.66"/><path d="M960,533.88 L961.5108432124925,537.9205027176587 L965.8204658797264,538.1088159944253 L962.444595669485,540.7942972823414 L963.5972457440299,544.9511840055746 L960,542.5704 L956.4027542559701,544.9511840055746 L957.555404330515,540.7942972823414 L954.1795341202736,538.1088159944253 L958.4891567875075,537.9205027176587 Z" fill="hsl(48 100% 84%)" opacity="0.72"/></g></g></g></svg>
