<?xml version="1.0" encoding="UTF-8" standalone="no"?>
<svg viewBox="0 0 1920 1080" preserveAspectRatio="xMidYMid meet" xmlns="http://www.w3.org/2000/svg" xmlns:xlink="http://www.w3.org/1999/xlink" width="1920" height="1080"><style>@keyframes wink-burst {
  0% { transform: scale(0); opacity: 0; }
  20% { opacity: 1; }
  60% { transform: scale(1); opacity: 1; }
  100% { transform: scale(1.15); opacity: 0; }
}
@keyframes wink-fade-loop {
  0%, 100% { opacity: 0; }
  10%, 70% { opacity: 1; }
}
@keyframes wink-spark-fall {
  0% { transform: translateY(-40px); opacity: 0; }
  20% { opacity: 1; }
  100% { transform: translateY(220px); opacity: 0; }
}
@keyframes wink-comet {
  0% { transform: translate(0,0) scale(0.6); opacity: 0; }
  30% { opacity: 1; }
  70% { transform: translate(var(--tx,0), var(--ty,-200px)) scale(1); opacity: 1; }
  100% { transform: translate(var(--tx,0), var(--ty,-200px)) scale(1.2); opacity: 0; }
}
@keyframes wink-ring-expand {
  0% { transform: scale(0.1); opacity: 0; stroke-width: 8; }
  20% { opacity: 1; }
  100% { transform: scale(1); opacity: 0; stroke-width: 1; }
}
@keyframes wink-twinkle {
  0%, 100% { transform: scale(0); opacity: 0; }
  50% { transform: scale(1); opacity: 1; }
}
@keyframes wink-pop {
  0% { transform: scale(0) rotate(-20deg); opacity: 0; }
  60% { transform: scale(1.15) rotate(5deg); opacity: 1; }
  80% { transform: scale(1) rotate(0); opacity: 1; }
  100% { transform: scale(1) rotate(0); opacity: 0; }
}
@keyframes wink-swirl {
  0% { transform: rotate(0deg) translateX(180px) scale(0); opacity: 0; }
  20% { opacity: 1; }
  100% { transform: rotate(360deg) translateX(40px) scale(1); opacity: 0; }
}
@keyframes wink-shower {
  0% { transform: translateY(-60px) rotate(0); opacity: 0; }
  15% { opacity: 1; }
  100% { transform: translateY(260px) rotate(180deg); opacity: 0; }
}
@keyframes wink-trail {
  0% { offset-distance: 0%; opacity: 0; transform: scale(0.4); }
  10% { opacity: 1; transform: scale(1); }
  90% { opacity: 1; }
  100% { offset-distance: 100%; opacity: 0; transform: scale(0.6); }
}
@keyframes wink-bounce-in {
  0% { transform: translateY(-300px) scale(0.6); opacity: 0; }
  50% { transform: translateY(20px) scale(1.05); opacity: 1; }
  70% { transform: translateY(-10px) scale(0.98); }
  100% { transform: translateY(0) scale(1); opacity: 1; }
}
@keyframes wink-bounce-loop {
  0%, 100% { transform: translateY(0); }
  50% { transform: translateY(-12px); }
}
@keyframes wink-pop-up {
  0% { transform: translateY(300px); opacity: 0; }
  60% { transform: translateY(-15px); opacity: 1; }
  100% { transform: translateY(0); opacity: 1; }
}
@keyframes wink-orbit {
  from { transform: rotate(0deg) translateX(var(--orbit-r,160px)) rotate(0deg); }
  to { transform: rotate(360deg) translateX(var(--orbit-r,160px)) rotate(-360deg); }
}
@keyframes wink-scatter {
  0%, 100% { transform: translate(var(--sx,0), var(--sy,0)) scale(0.9); opacity: 0.6; }
  50% { transform: translate(calc(var(--sx,0) * 1.2), calc(var(--sy,0) * 1.2)) scale(1.05); opacity: 1; }
}
@keyframes wink-sparkle {
  0%, 100% { opacity: 0; transform: scale(0.5); }
  50% { opacity: 1; transform: scale(1.2); }
}
@keyframes wink-glow-pulse {
  0%, 100% { opacity: 0.4; transform: scale(0.95); }
  50% { opacity: 1; transform: scale(1.05); }
}
@keyframes wink-confetti-launch {
  0% { transform: translate(0,0) rotate(var(--r0,0deg)) scale(0.28); opacity: 0; }
  14% { opacity: 1; }
  72% { transform: translate(var(--tx,0px), var(--ty,0px)) rotate(var(--r1,180deg)) scale(1); opacity: 1; }
  100% { transform: translate(var(--tx,0px), var(--ty,0px)) rotate(var(--r2,320deg)) scale(0.82); opacity: 0; }
}
@keyframes wink-confetti-fall {
  0% { transform: translate(0,-90px) rotate(var(--r0,0deg)) scale(0.7); opacity: 0; }
  14% { opacity: 1; }
  82% { opacity: 1; }
  100% { transform: translate(var(--tx,0px), var(--ty,720px)) rotate(var(--r1,260deg)) scale(1); opacity: 0; }
}
@keyframes wink-confetti-shimmer {
  0%, 100% { transform: rotate(var(--r0,0deg)) scale(0.92); }
  50% { transform: rotate(var(--r1,180deg)) scale(1.08); }
}
@keyframes wink-confetti-wave {
  0% { transform: translate(var(--sx,-180px), var(--sy,0px)) rotate(var(--r0,0deg)) scale(0.5); opacity: 0; }
  18% { opacity: 1; }
  58% { transform: translate(0,0) rotate(var(--r1,180deg)) scale(1); opacity: 1; }
  100% { transform: translate(var(--tx,180px), var(--ty,0px)) rotate(var(--r2,360deg)) scale(0.78); opacity: 0; }
}
@keyframes wink-bingo-arrive {
  0% { transform: translate(var(--from-x,0), var(--from-y,0)) scale(0.34); opacity: 0; }
  18% { opacity: 1; }
  38% { transform: translate(var(--overshoot-x,0), var(--overshoot-y,0)) scale(1.09); opacity: 1; }
  46%, 100% { transform: translate(0,0) scale(1); opacity: 1; }
}
@keyframes wink-bingo-countdown {
  0%, 100% { opacity: 0; transform: scale(0.36); }
  5% { opacity: 1; transform: scale(0.92); }
  10% { opacity: 1; transform: scale(1.06); }
  16% { opacity: 0; transform: scale(1.22); }
}
@keyframes wink-bingo-spiral-letter {
  0% { transform: rotate(var(--spin-start,-220deg)) translateX(var(--orbit-r,320px)) scale(0.3); opacity: 0; }
  22% { opacity: 1; }
  42% { transform: rotate(var(--spin-mid,24deg)) translateX(18px) scale(1.1); opacity: 1; }
  52%, 100% { transform: rotate(0deg) translateX(0) scale(1); opacity: 1; }
}
@keyframes wink-bingo-final-bounce {
  0%, 54%, 100% { transform: translateY(0) scale(1); }
  64% { transform: translateY(-22px) scale(1.06); }
  76% { transform: translateY(0) scale(0.98); }
  88% { transform: translateY(-10px) scale(1.02); }
}
@keyframes wink-bingo-impact {
  0%, 56%, 100% { opacity: 0; transform: scale(0.52); }
  66% { opacity: 0.95; transform: scale(1.04); }
  78% { opacity: 0.38; transform: scale(1.34); }
}</style><g style="transform-origin:220px 120px;animation:wink-shower 2.8s linear infinite;animation-delay:0s"><path d="M220,108 L222.82136921100388,116.11671842700025 L231.41267819554184,116.29179606750063 L224.56507127821675,121.48328157299974 L227.05342302750967,129.70820393249937 L220,124.8 L212.94657697249033,129.70820393249937 L215.43492872178325,121.48328157299974 L208.58732180445816,116.29179606750063 L217.17863078899612,116.11671842700025 Z" fill="hsl(43 94% 60%)" stroke="hsl(48 100% 84%)" stroke-width="1"/><circle cx="238" cy="160" r="4" fill="hsl(48 100% 84%)" opacity="0.55"/></g><g style="transform-origin:311px 120px;animation:wink-shower 3.05s linear infinite;animation-delay:0.14s"><path d="M311,104 L314.7618256146718,114.82229123600034 L326.21690426072246,115.05572809000084 L317.08676170428896,121.97770876399966 L320.4045640366796,132.94427190999915 L311,126.4 L301.5954359633204,132.94427190999915 L304.91323829571104,121.97770876399966 L295.78309573927754,115.05572809000084 L307.2381743853282,114.82229123600034 Z" fill="hsl(42 100% 70%)" stroke="hsl(48 100% 84%)" stroke-width="1"/><circle cx="335" cy="160" r="4" fill="hsl(48 100% 84%)" opacity="0.55"/></g><g style="transform-origin:402px 120px;animation:wink-shower 3.3s linear infinite;animation-delay:0.28s"><path d="M402,100 L406.70228201833976,113.52786404500043 L421.0211303259031,113.81966011250105 L409.60845213036123,122.47213595499957 L413.7557050458495,136.18033988749895 L402,128 L390.2442949541505,136.18033988749895 L394.39154786963877,122.47213595499959 L382.9788696740969,113.81966011250105 L397.29771798166024,113.52786404500043 Z" fill="hsl(48 100% 84%)" stroke="hsl(48 100% 84%)" stroke-width="1"/><circle cx="432" cy="160" r="4" fill="hsl(48 100% 84%)" opacity="0.55"/></g><g style="transform-origin:493px 120px;animation:wink-shower 2.8s linear infinite;animation-delay:0.42000000000000004s"><path d="M493,96 L498.64273842200777,112.2334368540005 L515.8253563910837,112.58359213500127 L502.1301425564335,122.9665631459995 L507.10684605501933,139.41640786499875 L493,129.6 L478.89315394498067,139.41640786499875 L483.8698574435665,122.9665631459995 L470.1746436089163,112.58359213500127 L487.35726157799223,112.2334368540005 Z" fill="hsl(39 84% 52%)" stroke="hsl(48 100% 84%)" stroke-width="1"/><circle cx="529" cy="160" r="4" fill="hsl(48 100% 84%)" opacity="0.55"/></g><g style="transform-origin:584px 120px;animation:wink-shower 3.05s linear infinite;animation-delay:0.56s"><path d="M584,108 L586.8213692110039,116.11671842700025 L595.4126781955418,116.29179606750063 L588.5650712782167,121.48328157299974 L591.0534230275097,129.70820393249937 L584,124.8 L576.9465769724903,129.70820393249937 L579.4349287217833,121.48328157299974 L572.5873218044582,116.29179606750063 L581.1786307889961,116.11671842700025 Z" fill="hsl(50 100% 92%)" stroke="hsl(48 100% 84%)" stroke-width="1"/><circle cx="602" cy="160" r="4" fill="hsl(48 100% 84%)" opacity="0.55"/></g><g style="transform-origin:675px 120px;animation:wink-shower 3.3s linear infinite;animation-delay:0.7000000000000001s"><path d="M675,104 L678.7618256146718,114.82229123600034 L690.2169042607225,115.05572809000084 L681.086761704289,121.97770876399966 L684.4045640366795,132.94427190999915 L675,126.4 L665.5954359633205,132.94427190999915 L668.913238295711,121.97770876399966 L659.7830957392775,115.05572809000084 L671.2381743853282,114.82229123600034 Z" fill="hsl(43 94% 60%)" stroke="hsl(48 100% 84%)" stroke-width="1"/><circle cx="699" cy="160" r="4" fill="hsl(48 100% 84%)" opacity="0.55"/></g><g style="transform-origin:766px 120px;animation:wink-shower 2.8s linear infinite;animation-delay:0.8400000000000001s"><path d="M766,100 L770.7022820183398,113.52786404500043 L785.0211303259031,113.81966011250105 L773.6084521303612,122.47213595499957 L777.7557050458495,136.18033988749895 L766,128 L754.2442949541505,136.18033988749895 L758.3915478696388,122.47213595499959 L746.9788696740969,113.81966011250105 L761.2977179816602,113.52786404500043 Z" fill="hsl(42 100% 70%)" stroke="hsl(48 100% 84%)" stroke-width="1"/><circle cx="796" cy="160" r="4" fill="hsl(48 100% 84%)" opacity="0.55"/></g><g style="transform-origin:857px 120px;animation:wink-shower 3.05s linear infinite;animation-delay:0.9800000000000001s"><path d="M857,96 L862.6427384220077,112.2334368540005 L879.8253563910837,112.58359213500127 L866.1301425564335,122.9665631459995 L871.1068460550193,139.41640786499875 L857,129.6 L842.8931539449807,139.41640786499875 L847.8698574435665,122.9665631459995 L834.1746436089163,112.58359213500127 L851.3572615779923,112.2334368540005 Z" fill="hsl(48 100% 84%)" stroke="hsl(48 100% 84%)" stroke-width="1"/><circle cx="893" cy="160" r="4" fill="hsl(48 100% 84%)" opacity="0.55"/></g><g style="transform-origin:948px 120px;animation:wink-shower 3.3s linear infinite;animation-delay:1.12s"><path d="M948,108 L950.8213692110039,116.11671842700025 L959.4126781955418,116.29179606750063 L952.5650712782167,121.48328157299974 L955.0534230275097,129.70820393249937 L948,124.8 L940.9465769724903,129.70820393249937 L943.4349287217833,121.48328157299974 L936.5873218044582,116.29179606750063 L945.1786307889961,116.11671842700025 Z" fill="hsl(39 84% 52%)" stroke="hsl(48 100% 84%)" stroke-width="1"/><circle cx="966" cy="160" r="4" fill="hsl(48 100% 84%)" opacity="0.55"/></g><g style="transform-origin:1039px 120px;animation:wink-shower 2.8s linear infinite;animation-delay:1.2600000000000002s"><path d="M1039,104 L1042.7618256146718,114.82229123600034 L1054.2169042607225,115.05572809000084 L1045.086761704289,121.97770876399966 L1048.4045640366796,132.94427190999915 L1039,126.4 L1029.5954359633204,132.94427190999915 L1032.913238295711,121.97770876399966 L1023.7830957392775,115.05572809000084 L1035.2381743853282,114.82229123600034 Z" fill="hsl(50 100% 92%)" stroke="hsl(48 100% 84%)" stroke-width="1"/><circle cx="1063" cy="160" r="4" fill="hsl(48 100% 84%)" opacity="0.55"/></g><g style="transform-origin:1130px 120px;animation:wink-shower 3.05s linear infinite;animation-delay:1.4000000000000001s"><path d="M1130,100 L1134.7022820183397,113.52786404500043 L1149.021130325903,113.81966011250105 L1137.6084521303612,122.47213595499957 L1141.7557050458495,136.18033988749895 L1130,128 L1118.2442949541505,136.18033988749895 L1122.3915478696388,122.47213595499959 L1110.978869674097,113.81966011250105 L1125.2977179816603,113.52786404500043 Z" fill="hsl(43 94% 60%)" stroke="hsl(48 100% 84%)" stroke-width="1"/><circle cx="1160" cy="160" r="4" fill="hsl(48 100% 84%)" opacity="0.55"/></g><g style="transform-origin:1221px 120px;animation:wink-shower 3.3s linear infinite;animation-delay:1.54s"><path d="M1221,96 L1226.6427384220078,112.2334368540005 L1243.8253563910837,112.58359213500127 L1230.1301425564334,122.9665631459995 L1235.1068460550193,139.41640786499875 L1221,129.6 L1206.8931539449807,139.41640786499875 L1211.8698574435666,122.9665631459995 L1198.1746436089163,112.58359213500127 L1215.3572615779922,112.2334368540005 Z" fill="hsl(42 100% 70%)" stroke="hsl(48 100% 84%)" stroke-width="1"/><circle cx="1257" cy="160" r="4" fill="hsl(48 100% 84%)" opacity="0.55"/></g><g style="transform-origin:1312px 120px;animation:wink-shower 2.8s linear infinite;animation-delay:1.6800000000000002s"><path d="M1312,108 L1314.821369211004,116.11671842700025 L1323.4126781955417,116.29179606750063 L1316.5650712782167,121.48328157299974 L1319.0534230275098,129.70820393249937 L1312,124.8 L1304.9465769724902,129.70820393249937 L1307.4349287217833,121.48328157299974 L1300.587321804458,116.29179606750063 L1309.178630788996,116.11671842700025 Z" fill="hsl(48 100% 84%)" stroke="hsl(48 100% 84%)" stroke-width="1"/><circle cx="1330" cy="160" r="4" fill="hsl(48 100% 84%)" opacity="0.55"/></g><g style="transform-origin:1403px 120px;animation:wink-shower 3.05s linear infinite;animation-delay:1.8200000000000003s"><path d="M1403,104 L1406.7618256146718,114.82229123600034 L1418.2169042607225,115.05572809000084 L1409.086761704289,121.97770876399966 L1412.4045640366796,132.94427190999915 L1403,126.4 L1393.5954359633204,132.94427190999915 L1396.913238295711,121.97770876399966 L1387.7830957392775,115.05572809000084 L1399.2381743853282,114.82229123600034 Z" fill="hsl(39 84% 52%)" stroke="hsl(48 100% 84%)" stroke-width="1"/><circle cx="1427" cy="160" r="4" fill="hsl(48 100% 84%)" opacity="0.55"/></g><g style="transform-origin:1494px 120px;animation:wink-shower 3.3s linear infinite;animation-delay:1.9600000000000002s"><path d="M1494,100 L1498.7022820183397,113.52786404500043 L1513.021130325903,113.81966011250105 L1501.6084521303612,122.47213595499957 L1505.7557050458495,136.18033988749895 L1494,128 L1482.2442949541505,136.18033988749895 L1486.3915478696388,122.47213595499959 L1474.978869674097,113.81966011250105 L1489.2977179816603,113.52786404500043 Z" fill="hsl(50 100% 92%)" stroke="hsl(48 100% 84%)" stroke-width="1"/><circle cx="1524" cy="160" r="4" fill="hsl(48 100% 84%)" opacity="0.55"/></g><g style="transform-origin:1585px 120px;animation:wink-shower 2.8s linear infinite;animation-delay:2.1s"><path d="M1585,96 L1590.6427384220078,112.2334368540005 L1607.8253563910837,112.58359213500127 L1594.1301425564334,122.9665631459995 L1599.1068460550193,139.41640786499875 L1585,129.6 L1570.8931539449807,139.41640786499875 L1575.8698574435666,122.9665631459995 L1562.1746436089163,112.58359213500127 L1579.3572615779922,112.2334368540005 Z" fill="hsl(43 94% 60%)" stroke="hsl(48 100% 84%)" stroke-width="1"/><circle cx="1621" cy="160" r="4" fill="hsl(48 100% 84%)" opacity="0.55"/></g><g style="transform-origin:1676px 120px;animation:wink-shower 3.05s linear infinite;animation-delay:2.24s"><path d="M1676,108 L1678.821369211004,116.11671842700025 L1687.4126781955417,116.29179606750063 L1680.5650712782167,121.48328157299974 L1683.0534230275098,129.70820393249937 L1676,124.8 L1668.9465769724902,129.70820393249937 L1671.4349287217833,121.48328157299974 L1664.587321804458,116.29179606750063 L1673.178630788996,116.11671842700025 Z" fill="hsl(42 100% 70%)" stroke="hsl(48 100% 84%)" stroke-width="1"/><circle cx="1694" cy="160" r="4" fill="hsl(48 100% 84%)" opacity="0.55"/></g><g style="transform-origin:287px 120px;animation:wink-shower 3.3s linear infinite;animation-delay:2.3800000000000003s"><path d="M287,104 L290.7618256146718,114.82229123600034 L302.21690426072246,115.05572809000084 L293.08676170428896,121.97770876399966 L296.4045640366796,132.94427190999915 L287,126.4 L277.5954359633204,132.94427190999915 L280.91323829571104,121.97770876399966 L271.78309573927754,115.05572809000084 L283.2381743853282,114.82229123600034 Z" fill="hsl(48 100% 84%)" stroke="hsl(48 100% 84%)" stroke-width="1"/><circle cx="311" cy="160" r="4" fill="hsl(48 100% 84%)" opacity="0.55"/></g></svg>
