<?xml version="1.0" encoding="UTF-8" standalone="no"?>
<svg xmlns="http://www.w3.org/2000/svg" width="768" height="1024" viewBox="0 0 768 1024" preserveAspectRatio="xMidYMid meet" data-wink-name="Confetti Burst Frame" data-wink-category="Confetti" data-wink-duration="3100ms" aria-label="Confetti Burst Frame"><defs><linearGradient x1="0" x2="0" y1="0" y2="1" data-wink-edge-fade="true" id="wink-edge-fade-mask-top"><stop offset="0%" stop-color="#000"/><stop offset="100%" stop-color="#fff"/></linearGradient><linearGradient x1="0" x2="0" y1="0" y2="1" data-wink-edge-fade="true" id="wink-edge-fade-mask-bottom"><stop offset="0%" stop-color="#fff"/><stop offset="100%" stop-color="#000"/></linearGradient><linearGradient x1="0" x2="1" y1="0" y2="0" data-wink-edge-fade="true" id="wink-edge-fade-mask-left"><stop offset="0%" stop-color="#000"/><stop offset="100%" stop-color="#fff"/></linearGradient><linearGradient x1="0" x2="1" y1="0" y2="0" data-wink-edge-fade="true" id="wink-edge-fade-mask-right"><stop offset="0%" stop-color="#fff"/><stop offset="100%" stop-color="#000"/></linearGradient><radialGradient cx="100%" cy="100%" r="100%" data-wink-edge-fade="true" id="wink-edge-fade-mask-top-left"><stop offset="0%" stop-color="#fff"/><stop offset="100%" stop-color="#000"/></radialGradient><radialGradient cx="0%" cy="100%" r="100%" data-wink-edge-fade="true" id="wink-edge-fade-mask-top-right"><stop offset="0%" stop-color="#fff"/><stop offset="100%" stop-color="#000"/></radialGradient><radialGradient cx="100%" cy="0%" r="100%" data-wink-edge-fade="true" id="wink-edge-fade-mask-bottom-left"><stop offset="0%" stop-color="#fff"/><stop offset="100%" stop-color="#000"/></radialGradient><radialGradient cx="0%" cy="0%" r="100%" data-wink-edge-fade="true" id="wink-edge-fade-mask-bottom-right"><stop offset="0%" stop-color="#fff"/><stop offset="100%" stop-color="#000"/></radialGradient><mask data-wink-edge-fade="true" height="1024" id="wink-edge-fade-mask" maskContentUnits="userSpaceOnUse" maskUnits="userSpaceOnUse" mask-type="alpha" width="768" x="0" y="0"><rect fill="#000" height="1024" width="768" x="0" y="0"/><rect fill="#fff" height="819.2" width="614.4" x="76.80000000000001" y="102.4"/><rect fill="url(#wink-edge-fade-mask-top)" height="102.4" width="614.4" x="76.80000000000001" y="0"/><rect fill="url(#wink-edge-fade-mask-bottom)" height="102.4" width="614.4" x="76.80000000000001" y="921.6"/><rect fill="url(#wink-edge-fade-mask-left)" height="819.2" width="76.80000000000001" x="0" y="102.4"/><rect fill="url(#wink-edge-fade-mask-right)" height="819.2" width="76.80000000000001" x="691.2" y="102.4"/><rect fill="url(#wink-edge-fade-mask-top-left)" height="102.4" width="76.80000000000001" x="0" y="0"/><rect fill="url(#wink-edge-fade-mask-top-right)" height="102.4" width="76.80000000000001" x="691.2" y="0"/><rect fill="url(#wink-edge-fade-mask-bottom-left)" height="102.4" width="76.80000000000001" x="0" y="921.6"/><rect fill="url(#wink-edge-fade-mask-bottom-right)" height="102.4" width="76.80000000000001" x="691.2" y="921.6"/></mask></defs>
  <!-- concept: Corner-frame explosion | motion: All four corners fire inward to build a confetti picture frame | final: A framed center window appears for chat reactions -->
  <style>
  text { font-family: 'Trebuchet MS', 'Segoe UI', sans-serif; paint-order: stroke fill; }
  @keyframes popIn {
    0%, 100% { opacity: 0; transform: translate(var(--fx, 0px), var(--fy, 40px)) scale(0.28) rotate(var(--fr, -16deg)); }
    16% { opacity: 1; }
    34% { opacity: 1; transform: translate(0px, 0px) scale(1.08) rotate(0deg); }
    72% { opacity: 1; transform: translate(0px, 0px) scale(1) rotate(0deg); }
    88% { opacity: 1; }
  }
  @keyframes riseIn {
    0%, 100% { opacity: 0; transform: translate(0px, 140px) scale(0.42); }
    18% { opacity: 1; }
    34% { opacity: 1; transform: translate(0px, -10px) scale(1.05); }
    82% { opacity: 1; transform: translate(0px, 0px) scale(1); }
  }
  @keyframes spinIn {
    0%, 100% { opacity: 0; transform: rotate(-220deg) scale(0.2); }
    18% { opacity: 1; }
    36% { opacity: 1; transform: rotate(10deg) scale(1.06); }
    82% { opacity: 1; transform: rotate(0deg) scale(1); }
  }
  @keyframes bob {
    0%, 100% { transform: translateY(0px) rotate(-1deg); }
    50% { transform: translateY(-14px) rotate(1.5deg); }
  }
  @keyframes sway {
    0%, 100% { transform: rotate(-4deg) translateY(0px); }
    50% { transform: rotate(4deg) translateY(-8px); }
  }
  @keyframes twinkle {
    0%, 100% { opacity: 0; transform: scale(0.2) rotate(0deg); }
    50% { opacity: 1; transform: scale(1) rotate(14deg); }
  }
  @keyframes burstOut {
    0%, 100% { opacity: 0; transform: translate(0px,0px) scale(0.18); }
    18% { opacity: 1; }
    58% { opacity: 1; transform: translate(var(--tx,0px), var(--ty,0px)) scale(1); }
    82% { opacity: 0; transform: translate(var(--tx,0px), var(--ty,0px)) scale(0.78); }
  }
  @keyframes fallDown {
    0%, 100% { opacity: 0; transform: translate(0px, -120px) rotate(var(--r0, 0deg)) scale(0.52); }
    16% { opacity: 1; }
    84% { opacity: 1; }
    100% { opacity: 0; transform: translate(var(--tx, 0px), var(--ty, 560px)) rotate(var(--r1, 200deg)) scale(1); }
  }
  @keyframes drawLine {
    0%, 100% { opacity: 0; stroke-dashoffset: var(--dash, 1200); }
    18% { opacity: 1; }
    42%, 84% { opacity: 1; stroke-dashoffset: 0; }
  }
  @keyframes orbitSpin {
    0%, 100% { transform: rotate(0deg); }
    50% { transform: rotate(180deg); }
  }
  @keyframes revealFinal {
    0%, 54%, 100% { opacity: 0; transform: scale(0.38); }
    66% { opacity: 1; transform: scale(1.08); }
    84% { opacity: 1; transform: scale(1); }
  }
</style>
  
        
        
      
<g id="content" transform="translate(384 512) scale(1.00056338028169) translate(-384 -512)" mask="url(#wink-edge-fade-mask)"><g style="transform-origin:112px 180px; --tx:44px; --ty:44px; animation:burstOut 3.1s cubic-bezier(0.2,0.9,0.24,1) infinite; animation-delay:0s;"><rect x="105.4" y="173.4" width="13.200000000000001" height="13.200000000000001" rx="2.4000000000000004" fill="#ffe36a"/></g><g style="transform-origin:112px 180px; --tx:62px; --ty:64px; animation:burstOut 3.1s cubic-bezier(0.2,0.9,0.24,1) infinite; animation-delay:0.03s;"><polygon points="112,168 115.56,176.44 124,180 115.56,183.56 112,192 108.44,183.56 100,180 108.44,176.44" fill="#74d9ff" stroke="rgba(255,255,255,0.72)" stroke-width="1.2"/></g><g style="transform-origin:112px 180px; --tx:80px; --ty:84px; animation:burstOut 3.1s cubic-bezier(0.2,0.9,0.24,1) infinite; animation-delay:0.06s;"><rect x="105.4" y="173.4" width="13.200000000000001" height="13.200000000000001" rx="2.4000000000000004" fill="#ff8d86"/></g><g style="transform-origin:112px 180px; --tx:98px; --ty:104px; animation:burstOut 3.1s cubic-bezier(0.2,0.9,0.24,1) infinite; animation-delay:0.09s;"><polygon points="112,168 115.56,176.44 124,180 115.56,183.56 112,192 108.44,183.56 100,180 108.44,176.44" fill="#8ef0c9" stroke="rgba(255,255,255,0.72)" stroke-width="1.2"/></g><g style="transform-origin:112px 180px; --tx:116px; --ty:44px; animation:burstOut 3.1s cubic-bezier(0.2,0.9,0.24,1) infinite; animation-delay:0.12s;"><rect x="105.4" y="173.4" width="13.200000000000001" height="13.200000000000001" rx="2.4000000000000004" fill="#ffe36a"/></g><g style="transform-origin:112px 180px; --tx:134px; --ty:64px; animation:burstOut 3.1s cubic-bezier(0.2,0.9,0.24,1) infinite; animation-delay:0.15s;"><polygon points="112,168 115.56,176.44 124,180 115.56,183.56 112,192 108.44,183.56 100,180 108.44,176.44" fill="#74d9ff" stroke="rgba(255,255,255,0.72)" stroke-width="1.2"/></g><g style="transform-origin:112px 180px; --tx:152px; --ty:84px; animation:burstOut 3.1s cubic-bezier(0.2,0.9,0.24,1) infinite; animation-delay:0.18s;"><rect x="105.4" y="173.4" width="13.200000000000001" height="13.200000000000001" rx="2.4000000000000004" fill="#ff8d86"/></g><g style="transform-origin:112px 180px; --tx:170px; --ty:104px; animation:burstOut 3.1s cubic-bezier(0.2,0.9,0.24,1) infinite; animation-delay:0.21s;"><polygon points="112,168 115.56,176.44 124,180 115.56,183.56 112,192 108.44,183.56 100,180 108.44,176.44" fill="#8ef0c9" stroke="rgba(255,255,255,0.72)" stroke-width="1.2"/></g><g style="transform-origin:656px 180px; --tx:-44px; --ty:44px; animation:burstOut 3.1s cubic-bezier(0.2,0.9,0.24,1) infinite; animation-delay:0s;"><rect x="649.4" y="173.4" width="13.200000000000001" height="13.200000000000001" rx="2.4000000000000004" fill="#74d9ff"/></g><g style="transform-origin:656px 180px; --tx:-62px; --ty:64px; animation:burstOut 3.1s cubic-bezier(0.2,0.9,0.24,1) infinite; animation-delay:0.03s;"><polygon points="656,168 659.56,176.44 668,180 659.56,183.56 656,192 652.44,183.56 644,180 652.44,176.44" fill="#ff8d86" stroke="rgba(255,255,255,0.72)" stroke-width="1.2"/></g><g style="transform-origin:656px 180px; --tx:-80px; --ty:84px; animation:burstOut 3.1s cubic-bezier(0.2,0.9,0.24,1) infinite; animation-delay:0.06s;"><rect x="649.4" y="173.4" width="13.200000000000001" height="13.200000000000001" rx="2.4000000000000004" fill="#8ef0c9"/></g><g style="transform-origin:656px 180px; --tx:-98px; --ty:104px; animation:burstOut 3.1s cubic-bezier(0.2,0.9,0.24,1) infinite; animation-delay:0.09s;"><polygon points="656,168 659.56,176.44 668,180 659.56,183.56 656,192 652.44,183.56 644,180 652.44,176.44" fill="#ffe36a" stroke="rgba(255,255,255,0.72)" stroke-width="1.2"/></g><g style="transform-origin:656px 180px; --tx:-116px; --ty:44px; animation:burstOut 3.1s cubic-bezier(0.2,0.9,0.24,1) infinite; animation-delay:0.12s;"><rect x="649.4" y="173.4" width="13.200000000000001" height="13.200000000000001" rx="2.4000000000000004" fill="#74d9ff"/></g><g style="transform-origin:656px 180px; --tx:-134px; --ty:64px; animation:burstOut 3.1s cubic-bezier(0.2,0.9,0.24,1) infinite; animation-delay:0.15s;"><polygon points="656,168 659.56,176.44 668,180 659.56,183.56 656,192 652.44,183.56 644,180 652.44,176.44" fill="#ff8d86" stroke="rgba(255,255,255,0.72)" stroke-width="1.2"/></g><g style="transform-origin:656px 180px; --tx:-152px; --ty:84px; animation:burstOut 3.1s cubic-bezier(0.2,0.9,0.24,1) infinite; animation-delay:0.18s;"><rect x="649.4" y="173.4" width="13.200000000000001" height="13.200000000000001" rx="2.4000000000000004" fill="#8ef0c9"/></g><g style="transform-origin:656px 180px; --tx:-170px; --ty:104px; animation:burstOut 3.1s cubic-bezier(0.2,0.9,0.24,1) infinite; animation-delay:0.21s;"><polygon points="656,168 659.56,176.44 668,180 659.56,183.56 656,192 652.44,183.56 644,180 652.44,176.44" fill="#ffe36a" stroke="rgba(255,255,255,0.72)" stroke-width="1.2"/></g><g style="transform-origin:112px 844px; --tx:44px; --ty:-44px; animation:burstOut 3.1s cubic-bezier(0.2,0.9,0.24,1) infinite; animation-delay:0s;"><rect x="105.4" y="837.4" width="13.200000000000001" height="13.200000000000001" rx="2.4000000000000004" fill="#ff8d86"/></g><g style="transform-origin:112px 844px; --tx:62px; --ty:-64px; animation:burstOut 3.1s cubic-bezier(0.2,0.9,0.24,1) infinite; animation-delay:0.03s;"><polygon points="112,832 115.56,840.44 124,844 115.56,847.56 112,856 108.44,847.56 100,844 108.44,840.44" fill="#8ef0c9" stroke="rgba(255,255,255,0.72)" stroke-width="1.2"/></g><g style="transform-origin:112px 844px; --tx:80px; --ty:-84px; animation:burstOut 3.1s cubic-bezier(0.2,0.9,0.24,1) infinite; animation-delay:0.06s;"><rect x="105.4" y="837.4" width="13.200000000000001" height="13.200000000000001" rx="2.4000000000000004" fill="#ffe36a"/></g><g style="transform-origin:112px 844px; --tx:98px; --ty:-104px; animation:burstOut 3.1s cubic-bezier(0.2,0.9,0.24,1) infinite; animation-delay:0.09s;"><polygon points="112,832 115.56,840.44 124,844 115.56,847.56 112,856 108.44,847.56 100,844 108.44,840.44" fill="#74d9ff" stroke="rgba(255,255,255,0.72)" stroke-width="1.2"/></g><g style="transform-origin:112px 844px; --tx:116px; --ty:-44px; animation:burstOut 3.1s cubic-bezier(0.2,0.9,0.24,1) infinite; animation-delay:0.12s;"><rect x="105.4" y="837.4" width="13.200000000000001" height="13.200000000000001" rx="2.4000000000000004" fill="#ff8d86"/></g><g style="transform-origin:112px 844px; --tx:134px; --ty:-64px; animation:burstOut 3.1s cubic-bezier(0.2,0.9,0.24,1) infinite; animation-delay:0.15s;"><polygon points="112,832 115.56,840.44 124,844 115.56,847.56 112,856 108.44,847.56 100,844 108.44,840.44" fill="#8ef0c9" stroke="rgba(255,255,255,0.72)" stroke-width="1.2"/></g><g style="transform-origin:112px 844px; --tx:152px; --ty:-84px; animation:burstOut 3.1s cubic-bezier(0.2,0.9,0.24,1) infinite; animation-delay:0.18s;"><rect x="105.4" y="837.4" width="13.200000000000001" height="13.200000000000001" rx="2.4000000000000004" fill="#ffe36a"/></g><g style="transform-origin:112px 844px; --tx:170px; --ty:-104px; animation:burstOut 3.1s cubic-bezier(0.2,0.9,0.24,1) infinite; animation-delay:0.21s;"><polygon points="112,832 115.56,840.44 124,844 115.56,847.56 112,856 108.44,847.56 100,844 108.44,840.44" fill="#74d9ff" stroke="rgba(255,255,255,0.72)" stroke-width="1.2"/></g><g style="transform-origin:656px 844px; --tx:-44px; --ty:-44px; animation:burstOut 3.1s cubic-bezier(0.2,0.9,0.24,1) infinite; animation-delay:0s;"><rect x="649.4" y="837.4" width="13.200000000000001" height="13.200000000000001" rx="2.4000000000000004" fill="#8ef0c9"/></g><g style="transform-origin:656px 844px; --tx:-62px; --ty:-64px; animation:burstOut 3.1s cubic-bezier(0.2,0.9,0.24,1) infinite; animation-delay:0.03s;"><polygon points="656,832 659.56,840.44 668,844 659.56,847.56 656,856 652.44,847.56 644,844 652.44,840.44" fill="#ffe36a" stroke="rgba(255,255,255,0.72)" stroke-width="1.2"/></g><g style="transform-origin:656px 844px; --tx:-80px; --ty:-84px; animation:burstOut 3.1s cubic-bezier(0.2,0.9,0.24,1) infinite; animation-delay:0.06s;"><rect x="649.4" y="837.4" width="13.200000000000001" height="13.200000000000001" rx="2.4000000000000004" fill="#74d9ff"/></g><g style="transform-origin:656px 844px; --tx:-98px; --ty:-104px; animation:burstOut 3.1s cubic-bezier(0.2,0.9,0.24,1) infinite; animation-delay:0.09s;"><polygon points="656,832 659.56,840.44 668,844 659.56,847.56 656,856 652.44,847.56 644,844 652.44,840.44" fill="#ff8d86" stroke="rgba(255,255,255,0.72)" stroke-width="1.2"/></g><g style="transform-origin:656px 844px; --tx:-116px; --ty:-44px; animation:burstOut 3.1s cubic-bezier(0.2,0.9,0.24,1) infinite; animation-delay:0.12s;"><rect x="649.4" y="837.4" width="13.200000000000001" height="13.200000000000001" rx="2.4000000000000004" fill="#8ef0c9"/></g><g style="transform-origin:656px 844px; --tx:-134px; --ty:-64px; animation:burstOut 3.1s cubic-bezier(0.2,0.9,0.24,1) infinite; animation-delay:0.15s;"><polygon points="656,832 659.56,840.44 668,844 659.56,847.56 656,856 652.44,847.56 644,844 652.44,840.44" fill="#ffe36a" stroke="rgba(255,255,255,0.72)" stroke-width="1.2"/></g><g style="transform-origin:656px 844px; --tx:-152px; --ty:-84px; animation:burstOut 3.1s cubic-bezier(0.2,0.9,0.24,1) infinite; animation-delay:0.18s;"><rect x="649.4" y="837.4" width="13.200000000000001" height="13.200000000000001" rx="2.4000000000000004" fill="#74d9ff"/></g><g style="transform-origin:656px 844px; --tx:-170px; --ty:-104px; animation:burstOut 3.1s cubic-bezier(0.2,0.9,0.24,1) infinite; animation-delay:0.21s;"><polygon points="656,832 659.56,840.44 668,844 659.56,847.56 656,856 652.44,847.56 644,844 652.44,840.44" fill="#ff8d86" stroke="rgba(255,255,255,0.72)" stroke-width="1.2"/></g><g style="transform-origin:384px 512px; animation:revealFinal 3.1s ease-out infinite;">
          <rect x="162" y="238" width="444" height="548" rx="42" fill="none" stroke="#ffe36a" stroke-width="10" opacity="0.86"/>
        </g></g></svg>
