<?xml version="1.0" encoding="UTF-8" standalone="no"?>
<svg xmlns="http://www.w3.org/2000/svg" width="768" height="1024" viewBox="0 0 768 1024" preserveAspectRatio="xMidYMid meet" data-wink-name="Fireworks Star Crown" data-wink-category="Fireworks" data-wink-duration="3500ms" aria-label="Fireworks Star Crown"><defs><linearGradient x1="0" x2="0" y1="0" y2="1" data-wink-edge-fade="true" id="wink-edge-fade-mask-top"><stop offset="0%" stop-color="#000"/><stop offset="100%" stop-color="#fff"/></linearGradient><linearGradient x1="0" x2="0" y1="0" y2="1" data-wink-edge-fade="true" id="wink-edge-fade-mask-bottom"><stop offset="0%" stop-color="#fff"/><stop offset="100%" stop-color="#000"/></linearGradient><linearGradient x1="0" x2="1" y1="0" y2="0" data-wink-edge-fade="true" id="wink-edge-fade-mask-left"><stop offset="0%" stop-color="#000"/><stop offset="100%" stop-color="#fff"/></linearGradient><linearGradient x1="0" x2="1" y1="0" y2="0" data-wink-edge-fade="true" id="wink-edge-fade-mask-right"><stop offset="0%" stop-color="#fff"/><stop offset="100%" stop-color="#000"/></linearGradient><radialGradient cx="100%" cy="100%" r="100%" data-wink-edge-fade="true" id="wink-edge-fade-mask-top-left"><stop offset="0%" stop-color="#fff"/><stop offset="100%" stop-color="#000"/></radialGradient><radialGradient cx="0%" cy="100%" r="100%" data-wink-edge-fade="true" id="wink-edge-fade-mask-top-right"><stop offset="0%" stop-color="#fff"/><stop offset="100%" stop-color="#000"/></radialGradient><radialGradient cx="100%" cy="0%" r="100%" data-wink-edge-fade="true" id="wink-edge-fade-mask-bottom-left"><stop offset="0%" stop-color="#fff"/><stop offset="100%" stop-color="#000"/></radialGradient><radialGradient cx="0%" cy="0%" r="100%" data-wink-edge-fade="true" id="wink-edge-fade-mask-bottom-right"><stop offset="0%" stop-color="#fff"/><stop offset="100%" stop-color="#000"/></radialGradient><mask data-wink-edge-fade="true" height="1024" id="wink-edge-fade-mask" maskContentUnits="userSpaceOnUse" maskUnits="userSpaceOnUse" mask-type="alpha" width="768" x="0" y="0"><rect fill="#000" height="1024" width="768" x="0" y="0"/><rect fill="#fff" height="819.2" width="614.4" x="76.80000000000001" y="102.4"/><rect fill="url(#wink-edge-fade-mask-top)" height="102.4" width="614.4" x="76.80000000000001" y="0"/><rect fill="url(#wink-edge-fade-mask-bottom)" height="102.4" width="614.4" x="76.80000000000001" y="921.6"/><rect fill="url(#wink-edge-fade-mask-left)" height="819.2" width="76.80000000000001" x="0" y="102.4"/><rect fill="url(#wink-edge-fade-mask-right)" height="819.2" width="76.80000000000001" x="691.2" y="102.4"/><rect fill="url(#wink-edge-fade-mask-top-left)" height="102.4" width="76.80000000000001" x="0" y="0"/><rect fill="url(#wink-edge-fade-mask-top-right)" height="102.4" width="76.80000000000001" x="691.2" y="0"/><rect fill="url(#wink-edge-fade-mask-bottom-left)" height="102.4" width="76.80000000000001" x="0" y="921.6"/><rect fill="url(#wink-edge-fade-mask-bottom-right)" height="102.4" width="76.80000000000001" x="691.2" y="921.6"/></mask></defs>
  <!-- concept: Crown-of-stars salute | motion: Three aerial bursts form a crown arc of stars above center | final: A bright crown floats over the chat safe area -->
  <style>
  text { font-family: 'Trebuchet MS', 'Segoe UI', sans-serif; paint-order: stroke fill; }
  @keyframes popIn {
    0%, 100% { opacity: 0; transform: translate(var(--fx, 0px), var(--fy, 40px)) scale(0.28) rotate(var(--fr, -16deg)); }
    16% { opacity: 1; }
    34% { opacity: 1; transform: translate(0px, 0px) scale(1.08) rotate(0deg); }
    72% { opacity: 1; transform: translate(0px, 0px) scale(1) rotate(0deg); }
    88% { opacity: 1; }
  }
  @keyframes riseIn {
    0%, 100% { opacity: 0; transform: translate(0px, 140px) scale(0.42); }
    18% { opacity: 1; }
    34% { opacity: 1; transform: translate(0px, -10px) scale(1.05); }
    82% { opacity: 1; transform: translate(0px, 0px) scale(1); }
  }
  @keyframes spinIn {
    0%, 100% { opacity: 0; transform: rotate(-220deg) scale(0.2); }
    18% { opacity: 1; }
    36% { opacity: 1; transform: rotate(10deg) scale(1.06); }
    82% { opacity: 1; transform: rotate(0deg) scale(1); }
  }
  @keyframes bob {
    0%, 100% { transform: translateY(0px) rotate(-1deg); }
    50% { transform: translateY(-14px) rotate(1.5deg); }
  }
  @keyframes sway {
    0%, 100% { transform: rotate(-4deg) translateY(0px); }
    50% { transform: rotate(4deg) translateY(-8px); }
  }
  @keyframes twinkle {
    0%, 100% { opacity: 0; transform: scale(0.2) rotate(0deg); }
    50% { opacity: 1; transform: scale(1) rotate(14deg); }
  }
  @keyframes burstOut {
    0%, 100% { opacity: 0; transform: translate(0px,0px) scale(0.18); }
    18% { opacity: 1; }
    58% { opacity: 1; transform: translate(var(--tx,0px), var(--ty,0px)) scale(1); }
    82% { opacity: 0; transform: translate(var(--tx,0px), var(--ty,0px)) scale(0.78); }
  }
  @keyframes fallDown {
    0%, 100% { opacity: 0; transform: translate(0px, -120px) rotate(var(--r0, 0deg)) scale(0.52); }
    16% { opacity: 1; }
    84% { opacity: 1; }
    100% { opacity: 0; transform: translate(var(--tx, 0px), var(--ty, 560px)) rotate(var(--r1, 200deg)) scale(1); }
  }
  @keyframes drawLine {
    0%, 100% { opacity: 0; stroke-dashoffset: var(--dash, 1200); }
    18% { opacity: 1; }
    42%, 84% { opacity: 1; stroke-dashoffset: 0; }
  }
  @keyframes orbitSpin {
    0%, 100% { transform: rotate(0deg); }
    50% { transform: rotate(180deg); }
  }
  @keyframes revealFinal {
    0%, 54%, 100% { opacity: 0; transform: scale(0.38); }
    66% { opacity: 1; transform: scale(1.08); }
    84% { opacity: 1; transform: scale(1); }
  }
</style>
  
        
        
      
<g id="content" transform="translate(384 512) scale(1.4664187210012023) translate(-383.94432067871094 -469.4042053222656)" mask="url(#wink-edge-fade-mask)"><g style="transform-origin:272px 422px; --tx:0px; --ty:-70px; animation:burstOut 3.5s cubic-bezier(0.2,0.9,0.24,1) infinite; animation-delay:0s;"><polygon points="272,410 275.56,418.44 284,422 275.56,425.56 272,434 268.44,425.56 260,422 268.44,418.44" fill="#ffe36a" stroke="rgba(255,255,255,0.72)" stroke-width="1.2"/></g><g style="transform-origin:272px 422px; --tx:49.5px; --ty:-49.5px; animation:burstOut 3.5s cubic-bezier(0.2,0.9,0.24,1) infinite; animation-delay:0.02s;"><polygon points="272,410 275.56,418.44 284,422 275.56,425.56 272,434 268.44,425.56 260,422 268.44,418.44" fill="#ffe36a" stroke="rgba(255,255,255,0.72)" stroke-width="1.2"/></g><g style="transform-origin:272px 422px; --tx:70px; --ty:0px; animation:burstOut 3.5s cubic-bezier(0.2,0.9,0.24,1) infinite; animation-delay:0.04s;"><polygon points="272,410 275.56,418.44 284,422 275.56,425.56 272,434 268.44,425.56 260,422 268.44,418.44" fill="#ffe36a" stroke="rgba(255,255,255,0.72)" stroke-width="1.2"/></g><g style="transform-origin:272px 422px; --tx:49.5px; --ty:49.5px; animation:burstOut 3.5s cubic-bezier(0.2,0.9,0.24,1) infinite; animation-delay:0.06s;"><polygon points="272,410 275.56,418.44 284,422 275.56,425.56 272,434 268.44,425.56 260,422 268.44,418.44" fill="#ffe36a" stroke="rgba(255,255,255,0.72)" stroke-width="1.2"/></g><g style="transform-origin:272px 422px; --tx:0px; --ty:70px; animation:burstOut 3.5s cubic-bezier(0.2,0.9,0.24,1) infinite; animation-delay:0.08s;"><polygon points="272,410 275.56,418.44 284,422 275.56,425.56 272,434 268.44,425.56 260,422 268.44,418.44" fill="#ffe36a" stroke="rgba(255,255,255,0.72)" stroke-width="1.2"/></g><g style="transform-origin:272px 422px; --tx:-49.5px; --ty:49.5px; animation:burstOut 3.5s cubic-bezier(0.2,0.9,0.24,1) infinite; animation-delay:0.1s;"><polygon points="272,410 275.56,418.44 284,422 275.56,425.56 272,434 268.44,425.56 260,422 268.44,418.44" fill="#ffe36a" stroke="rgba(255,255,255,0.72)" stroke-width="1.2"/></g><g style="transform-origin:272px 422px; --tx:-70px; --ty:0px; animation:burstOut 3.5s cubic-bezier(0.2,0.9,0.24,1) infinite; animation-delay:0.12s;"><polygon points="272,410 275.56,418.44 284,422 275.56,425.56 272,434 268.44,425.56 260,422 268.44,418.44" fill="#ffe36a" stroke="rgba(255,255,255,0.72)" stroke-width="1.2"/></g><g style="transform-origin:272px 422px; --tx:-49.5px; --ty:-49.5px; animation:burstOut 3.5s cubic-bezier(0.2,0.9,0.24,1) infinite; animation-delay:0.14s;"><polygon points="272,410 275.56,418.44 284,422 275.56,425.56 272,434 268.44,425.56 260,422 268.44,418.44" fill="#ffe36a" stroke="rgba(255,255,255,0.72)" stroke-width="1.2"/></g><g style="transform-origin:384px 368px; --tx:0px; --ty:-70px; animation:burstOut 3.5s cubic-bezier(0.2,0.9,0.24,1) infinite; animation-delay:0.08s;"><polygon points="384,356 387.56,364.44 396,368 387.56,371.56 384,380 380.44,371.56 372,368 380.44,364.44" fill="#74d9ff" stroke="rgba(255,255,255,0.72)" stroke-width="1.2"/></g><g style="transform-origin:384px 368px; --tx:49.5px; --ty:-49.5px; animation:burstOut 3.5s cubic-bezier(0.2,0.9,0.24,1) infinite; animation-delay:0.1s;"><polygon points="384,356 387.56,364.44 396,368 387.56,371.56 384,380 380.44,371.56 372,368 380.44,364.44" fill="#74d9ff" stroke="rgba(255,255,255,0.72)" stroke-width="1.2"/></g><g style="transform-origin:384px 368px; --tx:70px; --ty:0px; animation:burstOut 3.5s cubic-bezier(0.2,0.9,0.24,1) infinite; animation-delay:0.12s;"><polygon points="384,356 387.56,364.44 396,368 387.56,371.56 384,380 380.44,371.56 372,368 380.44,364.44" fill="#74d9ff" stroke="rgba(255,255,255,0.72)" stroke-width="1.2"/></g><g style="transform-origin:384px 368px; --tx:49.5px; --ty:49.5px; animation:burstOut 3.5s cubic-bezier(0.2,0.9,0.24,1) infinite; animation-delay:0.14s;"><polygon points="384,356 387.56,364.44 396,368 387.56,371.56 384,380 380.44,371.56 372,368 380.44,364.44" fill="#74d9ff" stroke="rgba(255,255,255,0.72)" stroke-width="1.2"/></g><g style="transform-origin:384px 368px; --tx:0px; --ty:70px; animation:burstOut 3.5s cubic-bezier(0.2,0.9,0.24,1) infinite; animation-delay:0.16s;"><polygon points="384,356 387.56,364.44 396,368 387.56,371.56 384,380 380.44,371.56 372,368 380.44,364.44" fill="#74d9ff" stroke="rgba(255,255,255,0.72)" stroke-width="1.2"/></g><g style="transform-origin:384px 368px; --tx:-49.5px; --ty:49.5px; animation:burstOut 3.5s cubic-bezier(0.2,0.9,0.24,1) infinite; animation-delay:0.18s;"><polygon points="384,356 387.56,364.44 396,368 387.56,371.56 384,380 380.44,371.56 372,368 380.44,364.44" fill="#74d9ff" stroke="rgba(255,255,255,0.72)" stroke-width="1.2"/></g><g style="transform-origin:384px 368px; --tx:-70px; --ty:0px; animation:burstOut 3.5s cubic-bezier(0.2,0.9,0.24,1) infinite; animation-delay:0.2s;"><polygon points="384,356 387.56,364.44 396,368 387.56,371.56 384,380 380.44,371.56 372,368 380.44,364.44" fill="#74d9ff" stroke="rgba(255,255,255,0.72)" stroke-width="1.2"/></g><g style="transform-origin:384px 368px; --tx:-49.5px; --ty:-49.5px; animation:burstOut 3.5s cubic-bezier(0.2,0.9,0.24,1) infinite; animation-delay:0.22s;"><polygon points="384,356 387.56,364.44 396,368 387.56,371.56 384,380 380.44,371.56 372,368 380.44,364.44" fill="#74d9ff" stroke="rgba(255,255,255,0.72)" stroke-width="1.2"/></g><g style="transform-origin:496px 422px; --tx:0px; --ty:-70px; animation:burstOut 3.5s cubic-bezier(0.2,0.9,0.24,1) infinite; animation-delay:0.16s;"><polygon points="496,410 499.56,418.44 508,422 499.56,425.56 496,434 492.44,425.56 484,422 492.44,418.44" fill="#ff8d86" stroke="rgba(255,255,255,0.72)" stroke-width="1.2"/></g><g style="transform-origin:496px 422px; --tx:49.5px; --ty:-49.5px; animation:burstOut 3.5s cubic-bezier(0.2,0.9,0.24,1) infinite; animation-delay:0.18s;"><polygon points="496,410 499.56,418.44 508,422 499.56,425.56 496,434 492.44,425.56 484,422 492.44,418.44" fill="#ff8d86" stroke="rgba(255,255,255,0.72)" stroke-width="1.2"/></g><g style="transform-origin:496px 422px; --tx:70px; --ty:0px; animation:burstOut 3.5s cubic-bezier(0.2,0.9,0.24,1) infinite; animation-delay:0.2s;"><polygon points="496,410 499.56,418.44 508,422 499.56,425.56 496,434 492.44,425.56 484,422 492.44,418.44" fill="#ff8d86" stroke="rgba(255,255,255,0.72)" stroke-width="1.2"/></g><g style="transform-origin:496px 422px; --tx:49.5px; --ty:49.5px; animation:burstOut 3.5s cubic-bezier(0.2,0.9,0.24,1) infinite; animation-delay:0.22s;"><polygon points="496,410 499.56,418.44 508,422 499.56,425.56 496,434 492.44,425.56 484,422 492.44,418.44" fill="#ff8d86" stroke="rgba(255,255,255,0.72)" stroke-width="1.2"/></g><g style="transform-origin:496px 422px; --tx:0px; --ty:70px; animation:burstOut 3.5s cubic-bezier(0.2,0.9,0.24,1) infinite; animation-delay:0.24s;"><polygon points="496,410 499.56,418.44 508,422 499.56,425.56 496,434 492.44,425.56 484,422 492.44,418.44" fill="#ff8d86" stroke="rgba(255,255,255,0.72)" stroke-width="1.2"/></g><g style="transform-origin:496px 422px; --tx:-49.5px; --ty:49.5px; animation:burstOut 3.5s cubic-bezier(0.2,0.9,0.24,1) infinite; animation-delay:0.26s;"><polygon points="496,410 499.56,418.44 508,422 499.56,425.56 496,434 492.44,425.56 484,422 492.44,418.44" fill="#ff8d86" stroke="rgba(255,255,255,0.72)" stroke-width="1.2"/></g><g style="transform-origin:496px 422px; --tx:-70px; --ty:0px; animation:burstOut 3.5s cubic-bezier(0.2,0.9,0.24,1) infinite; animation-delay:0.28s;"><polygon points="496,410 499.56,418.44 508,422 499.56,425.56 496,434 492.44,425.56 484,422 492.44,418.44" fill="#ff8d86" stroke="rgba(255,255,255,0.72)" stroke-width="1.2"/></g><g style="transform-origin:496px 422px; --tx:-49.5px; --ty:-49.5px; animation:burstOut 3.5s cubic-bezier(0.2,0.9,0.24,1) infinite; animation-delay:0.3s;"><polygon points="496,410 499.56,418.44 508,422 499.56,425.56 496,434 492.44,425.56 484,422 492.44,418.44" fill="#ff8d86" stroke="rgba(255,255,255,0.72)" stroke-width="1.2"/></g><g style="transform-origin:384px 512px; animation:revealFinal 3.5s ease-out infinite;">
  <g>
    <rect x="259" y="588" width="250" height="56" rx="28" fill="#173764" stroke="#ffe36a" stroke-width="4.48"/>
    <text x="384" y="617.68" text-anchor="middle" dominant-baseline="central" font-size="24.64" font-weight="900" fill="#fff4d8" stroke="#ffe36a" stroke-width="2" letter-spacing="0.7392">CROWN</text>
  </g></g></g></svg>
