<?xml version="1.0" encoding="UTF-8" standalone="no"?>
<svg xmlns="http://www.w3.org/2000/svg" width="768" height="1024" viewBox="0 0 768 1024" preserveAspectRatio="xMidYMid meet" data-wink-name="Gold Star Shooting Ring" data-wink-category="Gold Stars" data-wink-duration="3300ms" aria-label="Gold Star Shooting Ring"><defs><linearGradient x1="0" x2="0" y1="0" y2="1" data-wink-edge-fade="true" id="wink-edge-fade-mask-top"><stop offset="0%" stop-color="#000"/><stop offset="100%" stop-color="#fff"/></linearGradient><linearGradient x1="0" x2="0" y1="0" y2="1" data-wink-edge-fade="true" id="wink-edge-fade-mask-bottom"><stop offset="0%" stop-color="#fff"/><stop offset="100%" stop-color="#000"/></linearGradient><linearGradient x1="0" x2="1" y1="0" y2="0" data-wink-edge-fade="true" id="wink-edge-fade-mask-left"><stop offset="0%" stop-color="#000"/><stop offset="100%" stop-color="#fff"/></linearGradient><linearGradient x1="0" x2="1" y1="0" y2="0" data-wink-edge-fade="true" id="wink-edge-fade-mask-right"><stop offset="0%" stop-color="#fff"/><stop offset="100%" stop-color="#000"/></linearGradient><radialGradient cx="100%" cy="100%" r="100%" data-wink-edge-fade="true" id="wink-edge-fade-mask-top-left"><stop offset="0%" stop-color="#fff"/><stop offset="100%" stop-color="#000"/></radialGradient><radialGradient cx="0%" cy="100%" r="100%" data-wink-edge-fade="true" id="wink-edge-fade-mask-top-right"><stop offset="0%" stop-color="#fff"/><stop offset="100%" stop-color="#000"/></radialGradient><radialGradient cx="100%" cy="0%" r="100%" data-wink-edge-fade="true" id="wink-edge-fade-mask-bottom-left"><stop offset="0%" stop-color="#fff"/><stop offset="100%" stop-color="#000"/></radialGradient><radialGradient cx="0%" cy="0%" r="100%" data-wink-edge-fade="true" id="wink-edge-fade-mask-bottom-right"><stop offset="0%" stop-color="#fff"/><stop offset="100%" stop-color="#000"/></radialGradient><mask data-wink-edge-fade="true" height="1024" id="wink-edge-fade-mask" maskContentUnits="userSpaceOnUse" maskUnits="userSpaceOnUse" mask-type="alpha" width="768" x="0" y="0"><rect fill="#000" height="1024" width="768" x="0" y="0"/><rect fill="#fff" height="819.2" width="614.4" x="76.80000000000001" y="102.4"/><rect fill="url(#wink-edge-fade-mask-top)" height="102.4" width="614.4" x="76.80000000000001" y="0"/><rect fill="url(#wink-edge-fade-mask-bottom)" height="102.4" width="614.4" x="76.80000000000001" y="921.6"/><rect fill="url(#wink-edge-fade-mask-left)" height="819.2" width="76.80000000000001" x="0" y="102.4"/><rect fill="url(#wink-edge-fade-mask-right)" height="819.2" width="76.80000000000001" x="691.2" y="102.4"/><rect fill="url(#wink-edge-fade-mask-top-left)" height="102.4" width="76.80000000000001" x="0" y="0"/><rect fill="url(#wink-edge-fade-mask-top-right)" height="102.4" width="76.80000000000001" x="691.2" y="0"/><rect fill="url(#wink-edge-fade-mask-bottom-left)" height="102.4" width="76.80000000000001" x="0" y="921.6"/><rect fill="url(#wink-edge-fade-mask-bottom-right)" height="102.4" width="76.80000000000001" x="691.2" y="921.6"/></mask></defs>
  <!-- concept: Meteor ring sweep | motion: Shooting stars race around a circle and leave a glowing ring | final: A star halo closes around center -->
  <style>
  text { font-family: 'Trebuchet MS', 'Segoe UI', sans-serif; paint-order: stroke fill; }
  @keyframes popIn {
    0%, 100% { opacity: 0; transform: translate(var(--fx, 0px), var(--fy, 40px)) scale(0.28) rotate(var(--fr, -16deg)); }
    16% { opacity: 1; }
    34% { opacity: 1; transform: translate(0px, 0px) scale(1.08) rotate(0deg); }
    72% { opacity: 1; transform: translate(0px, 0px) scale(1) rotate(0deg); }
    88% { opacity: 1; }
  }
  @keyframes riseIn {
    0%, 100% { opacity: 0; transform: translate(0px, 140px) scale(0.42); }
    18% { opacity: 1; }
    34% { opacity: 1; transform: translate(0px, -10px) scale(1.05); }
    82% { opacity: 1; transform: translate(0px, 0px) scale(1); }
  }
  @keyframes spinIn {
    0%, 100% { opacity: 0; transform: rotate(-220deg) scale(0.2); }
    18% { opacity: 1; }
    36% { opacity: 1; transform: rotate(10deg) scale(1.06); }
    82% { opacity: 1; transform: rotate(0deg) scale(1); }
  }
  @keyframes bob {
    0%, 100% { transform: translateY(0px) rotate(-1deg); }
    50% { transform: translateY(-14px) rotate(1.5deg); }
  }
  @keyframes sway {
    0%, 100% { transform: rotate(-4deg) translateY(0px); }
    50% { transform: rotate(4deg) translateY(-8px); }
  }
  @keyframes twinkle {
    0%, 100% { opacity: 0; transform: scale(0.2) rotate(0deg); }
    50% { opacity: 1; transform: scale(1) rotate(14deg); }
  }
  @keyframes burstOut {
    0%, 100% { opacity: 0; transform: translate(0px,0px) scale(0.18); }
    18% { opacity: 1; }
    58% { opacity: 1; transform: translate(var(--tx,0px), var(--ty,0px)) scale(1); }
    82% { opacity: 0; transform: translate(var(--tx,0px), var(--ty,0px)) scale(0.78); }
  }
  @keyframes fallDown {
    0%, 100% { opacity: 0; transform: translate(0px, -120px) rotate(var(--r0, 0deg)) scale(0.52); }
    16% { opacity: 1; }
    84% { opacity: 1; }
    100% { opacity: 0; transform: translate(var(--tx, 0px), var(--ty, 560px)) rotate(var(--r1, 200deg)) scale(1); }
  }
  @keyframes drawLine {
    0%, 100% { opacity: 0; stroke-dashoffset: var(--dash, 1200); }
    18% { opacity: 1; }
    42%, 84% { opacity: 1; stroke-dashoffset: 0; }
  }
  @keyframes orbitSpin {
    0%, 100% { transform: rotate(0deg); }
    50% { transform: rotate(180deg); }
  }
  @keyframes revealFinal {
    0%, 54%, 100% { opacity: 0; transform: scale(0.38); }
    66% { opacity: 1; transform: scale(1.08); }
    84% { opacity: 1; transform: scale(1); }
  }
</style>
  
<g id="content" transform="translate(384 512) scale(1.535606920720408) translate(-384.2916488647461 -511.87989807128906)" mask="url(#wink-edge-fade-mask)"><circle cx="384" cy="512" r="166" fill="none" stroke="#ffd96a" stroke-width="10" opacity="0.28"/><g style="transform-origin:550px 512px; animation:twinkle 1.1s ease-in-out infinite 0s;"><polygon points="550,496 554.75,507.25 566,512 554.75,516.75 550,528 545.25,516.75 534,512 545.25,507.25" fill="#ffe36a" stroke="rgba(255,255,255,0.72)" stroke-width="1.28"/></g><g style="transform-origin:501.38px 629.38px; animation:twinkle 1.15s ease-in-out infinite 0.08s;"><polygon points="501.38,613.38 506.13,624.63 517.38,629.38 506.13,634.13 501.38,645.38 496.63,634.13 485.38,629.38 496.63,624.63" fill="#fff4bf" stroke="rgba(255,255,255,0.72)" stroke-width="1.28"/></g><g style="transform-origin:384px 678px; animation:twinkle 1.2s ease-in-out infinite 0.16s;"><polygon points="384,662 388.75,673.25 400,678 388.75,682.75 384,694 379.25,682.75 368,678 379.25,673.25" fill="#ffe36a" stroke="rgba(255,255,255,0.72)" stroke-width="1.28"/></g><g style="transform-origin:266.62px 629.38px; animation:twinkle 1.25s ease-in-out infinite 0.24s;"><polygon points="266.62,613.38 271.37,624.63 282.62,629.38 271.37,634.13 266.62,645.38 261.87,634.13 250.62,629.38 261.87,624.63" fill="#fff4bf" stroke="rgba(255,255,255,0.72)" stroke-width="1.28"/></g><g style="transform-origin:218px 512px; animation:twinkle 1.3s ease-in-out infinite 0.32s;"><polygon points="218,496 222.75,507.25 234,512 222.75,516.75 218,528 213.25,516.75 202,512 213.25,507.25" fill="#ffe36a" stroke="rgba(255,255,255,0.72)" stroke-width="1.28"/></g><g style="transform-origin:266.62px 394.62px; animation:twinkle 1.35s ease-in-out infinite 0.4s;"><polygon points="266.62,378.62 271.37,389.87 282.62,394.62 271.37,399.37 266.62,410.62 261.87,399.37 250.62,394.62 261.87,389.87" fill="#fff4bf" stroke="rgba(255,255,255,0.72)" stroke-width="1.28"/></g><g style="transform-origin:384px 346px; animation:twinkle 1.4s ease-in-out infinite 0.48s;"><polygon points="384,330 388.75,341.25 400,346 388.75,350.75 384,362 379.25,350.75 368,346 379.25,341.25" fill="#ffe36a" stroke="rgba(255,255,255,0.72)" stroke-width="1.28"/></g><g style="transform-origin:501.38px 394.62px; animation:twinkle 1.45s ease-in-out infinite 0.56s;"><polygon points="501.38,378.62 506.13,389.87 517.38,394.62 506.13,399.37 501.38,410.62 496.63,399.37 485.38,394.62 496.63,389.87" fill="#fff4bf" stroke="rgba(255,255,255,0.72)" stroke-width="1.28"/></g><g style="transform-origin:384px 512px; animation:revealFinal 3.3s ease-out infinite;"><polygon points="384,478 394.1,501.9 418,512 394.1,522.1 384,546 373.9,522.1 350,512 373.9,501.9" fill="#ffe36a" stroke="rgba(255,255,255,0.72)" stroke-width="2.72"/></g></g></svg>
